<svg xmlns="http://www.w3.org/2000/svg" viewBox="0 0 96 96" fill="none" aria-hidden="true" focusable="false"><circle cx="10" cy="10" r="2" fill="#2E6CCB" opacity=".2"/><circle cx="10" cy="28" r="2" fill="#2E6CCB" opacity=".2"/><circle cx="10" cy="46" r="2" fill="#2E6CCB" opacity=".2"/><circle cx="10" cy="64" r="2" fill="#2E6CCB" opacity=".2"/><circle cx="10" cy="82" r="2" fill="#2E6CCB" opacity=".2"/><circle cx="28" cy="10" r="2" fill="#2E6CCB" opacity=".2"/><circle cx="28" cy="28" r="2" fill="#2E6CCB" opacity=".2"/><circle cx="28" cy="46" r="2" fill="#2E6CCB" opacity=".2"/><circle cx="28" cy="64" r="2" fill="#2E6CCB" opacity=".2"/><circle cx="28" cy="82" r="2" fill="#2E6CCB" opacity=".2"/><circle cx="46" cy="10" r="2" fill="#2E6CCB" opacity=".2"/><circle cx="46" cy="28" r="2" fill="#2E6CCB" opacity=".2"/><circle cx="46" cy="46" r="2" fill="#2E6CCB" opacity=".2"/><circle cx="46" cy="64" r="2" fill="#2E6CCB" opacity=".2"/><circle cx="46" cy="82" r="2" fill="#2E6CCB" opacity=".2"/><circle cx="64" cy="10" r="2" fill="#2E6CCB" opacity=".2"/><circle cx="64" cy="28" r="2" fill="#2E6CCB" opacity=".2"/><circle cx="64" cy="46" r="2" fill="#2E6CCB" opacity=".2"/><circle cx="64" cy="64" r="2" fill="#2E6CCB" opacity=".2"/><circle cx="64" cy="82" r="2" fill="#2E6CCB" opacity=".2"/><circle cx="82" cy="10" r="2" fill="#2E6CCB" opacity=".2"/><circle cx="82" cy="28" r="2" fill="#2E6CCB" opacity=".2"/><circle cx="82" cy="46" r="2" fill="#2E6CCB" opacity=".2"/><circle cx="82" cy="64" r="2" fill="#2E6CCB" opacity=".2"/><circle cx="82" cy="82" r="2" fill="#2E6CCB" opacity=".2"/></svg>