<svg xmlns="http://www.w3.org/2000/svg" viewBox="0 0 96 96" fill="none" aria-hidden="true" focusable="false"><path d="M12 8l6 10H6z" fill="#C17A19" opacity=".12"/><path d="M12 32l6 10H6z" fill="#C17A19" opacity=".12"/><path d="M12 56l6 10H6z" fill="#C17A19" opacity=".12"/><path d="M12 80l6 10H6z" fill="#C17A19" opacity=".12"/><path d="M36 8l6 10H30z" fill="#C17A19" opacity=".12"/><path d="M36 32l6 10H30z" fill="#C17A19" opacity=".12"/><path d="M36 56l6 10H30z" fill="#C17A19" opacity=".12"/><path d="M36 80l6 10H30z" fill="#C17A19" opacity=".12"/><path d="M60 8l6 10H54z" fill="#C17A19" opacity=".12"/><path d="M60 32l6 10H54z" fill="#C17A19" opacity=".12"/><path d="M60 56l6 10H54z" fill="#C17A19" opacity=".12"/><path d="M60 80l6 10H54z" fill="#C17A19" opacity=".12"/><path d="M84 8l6 10H78z" fill="#C17A19" opacity=".12"/><path d="M84 32l6 10H78z" fill="#C17A19" opacity=".12"/><path d="M84 56l6 10H78z" fill="#C17A19" opacity=".12"/><path d="M84 80l6 10H78z" fill="#C17A19" opacity=".12"/></svg>