<svg width="160" height="96" viewBox="0 0 160 96" fill="none" xmlns="http://www.w3.org/2000/svg">
<g clip-path="url(#clip0_40000788_4909)">
<path d="M125.409 31.0337C127.392 32.1549 128.224 35.0687 127.266 37.5427L111.095 79.2792C110.137 81.7533 107.751 82.8481 105.768 81.7268L51.961 51.3071C49.9777 50.1859 49.1456 47.2721 50.1041 44.7981L66.2748 3.06153C67.2333 0.587501 69.6187 -0.507327 71.6018 0.613953L125.409 31.0337Z" fill="#94C1F7"/>
<path d="M107.407 82.2189C106.834 82.2189 106.266 82.0692 105.742 81.773L51.9347 51.3531C49.932 50.2209 49.0884 47.2715 50.0544 44.7784L66.2252 3.04187C66.7372 1.72038 67.6851 0.728589 68.8258 0.320802C69.7609 -0.0134913 70.7563 0.074081 71.6281 0.567094L125.435 30.9869C127.438 32.1191 128.281 35.0685 127.315 37.5617L111.145 79.2982C110.633 80.6197 109.685 81.6115 108.544 82.0193C108.171 82.1527 107.788 82.2189 107.407 82.2189ZM69.9628 0.227895C69.5939 0.227895 69.2231 0.292004 68.8616 0.421284C67.7501 0.818617 66.8253 1.7879 66.3245 3.08048L50.1537 44.817C49.2062 47.2627 50.0287 50.1531 51.9871 51.2603L105.794 81.6802C106.639 82.1577 107.603 82.2425 108.508 81.9189C109.62 81.5215 110.545 80.5523 111.045 79.2597L127.216 37.5232C128.163 35.0775 127.341 32.187 125.383 31.0798L71.5756 0.660001C71.0681 0.373175 70.5176 0.227895 69.9628 0.227895Z" fill="#0A0A0A"/>
<path d="M124.345 32.5638L71.3116 2.58148C69.8613 1.76153 68.1192 2.56313 67.4191 4.36996L51.6687 45.0218C50.9687 46.8286 51.5757 48.9566 53.0261 49.7766L106.059 79.7589C107.509 80.5782 109.25 79.778 109.95 77.9711L125.701 37.3193C126.401 35.5125 125.794 33.3831 124.345 32.5638Z" fill="white"/>
<path d="M107.257 80.133C106.836 80.133 106.418 80.023 106.033 79.8053L52.9999 49.823C51.5306 48.9921 50.9111 46.8297 51.6192 45.0025L67.3697 4.35053C67.7452 3.38093 68.441 2.65304 69.2786 2.35373C69.9656 2.10819 70.697 2.1724 71.3382 2.53496L124.372 32.5172C125.84 33.3475 126.459 35.5103 125.751 37.3385L110 77.9903C109.625 78.9596 108.929 79.6871 108.092 79.9863C107.818 80.0843 107.537 80.133 107.257 80.133ZM70.1136 2.31384C69.8458 2.31384 69.5768 2.36035 69.3144 2.45421C68.5061 2.74307 67.8334 3.44835 67.469 4.38915L51.7186 45.0411C51.029 46.8209 51.6274 48.9244 53.0524 49.7302L106.086 79.7125C106.699 80.0592 107.399 80.1208 108.056 79.8859C108.864 79.597 109.536 78.8922 109.901 77.9518L125.651 37.3C126.341 35.5193 125.743 33.4154 124.319 32.6102C122.894 31.8049 71.2855 2.62787 71.2855 2.62787C70.9167 2.41944 70.5167 2.31384 70.1136 2.31384Z" fill="#0A0A0A"/>
<path d="M99.5475 60.6946L69.3138 43.6021C68.6067 43.2023 67.7572 43.5937 67.4157 44.4753L65.7358 48.8112C65.3942 49.6928 65.6896 50.7315 66.3967 51.1313L96.6304 68.2239C97.3375 68.6237 98.1882 68.2328 98.5297 67.3513L100.21 63.0154C100.552 62.1338 100.255 61.0944 99.5475 60.6946Z" fill="#0E38A3"/>
<path d="M97.2151 68.4339C97.0051 68.4339 96.7969 68.3789 96.6049 68.2705L66.3712 51.178C65.6435 50.7667 65.3365 49.6963 65.6868 48.7922L67.3668 44.4564C67.5529 43.9756 67.8984 43.6146 68.3145 43.4658C68.6568 43.3433 69.0215 43.3753 69.3409 43.5559L99.5745 60.6485C100.303 61.0602 100.61 62.1307 100.26 63.0348L98.5801 67.3706C98.3941 67.8509 98.0486 68.2118 97.6323 68.3606C97.4953 68.4095 97.3547 68.4339 97.2151 68.4339ZM68.7308 43.4994C68.6035 43.4994 68.4753 43.5215 68.3505 43.5661C67.9636 43.7045 67.6414 44.0429 67.4662 44.4948L65.7862 48.8306C65.4544 49.6873 65.7402 50.6986 66.4238 51.085L96.6575 68.1774C96.9496 68.3427 97.2833 68.372 97.5964 68.26C97.9835 68.1217 98.3058 67.7833 98.4808 67.3319L100.161 62.9961C100.492 62.1395 100.206 61.1278 99.5221 60.7411L69.2885 43.6485C69.113 43.5493 68.9225 43.4994 68.7308 43.4994Z" fill="#0A0A0A"/>
<path d="M73.3733 48.3688C73.3511 48.2319 73.2777 48.1246 73.1823 48.0706C73.1166 48.0335 73.0404 48.0215 72.9633 48.0424L71.463 48.4511L71.9822 47.1111C72.0663 46.8939 71.9938 46.6397 71.8196 46.5411C71.6465 46.4433 71.4373 46.5383 71.3531 46.7554L70.8341 48.0952L70.1328 46.4421C70.097 46.3574 70.0409 46.2946 69.9753 46.2575C69.8799 46.2035 69.7645 46.2041 69.6626 46.2708C69.4913 46.3855 69.4245 46.6469 69.5134 46.8554L70.3221 48.7621L68.5921 49.2334C68.4026 49.2845 68.2792 49.5139 68.3161 49.7463C68.3385 49.884 68.412 49.9911 68.5072 50.0448C68.573 50.0821 68.6493 50.0938 68.7262 50.0727L70.2263 49.6642L69.7073 51.004C69.6231 51.2211 69.6967 51.4761 69.8698 51.5739C70.0441 51.6724 70.2521 51.5768 70.3363 51.3596L70.8555 50.0195L71.5569 51.6731C71.5931 51.7582 71.6498 51.8216 71.7157 51.8588C71.8111 51.9127 71.9257 51.912 72.0271 51.8443C72.1984 51.7296 72.2651 51.4683 72.1774 51.2604L71.3683 49.3535L73.0987 48.8824C73.2871 48.8306 73.4102 48.6011 73.3733 48.3688Z" fill="white"/>
<path d="M71.8589 51.9487C71.8009 51.9487 71.7431 51.9336 71.6897 51.9035C71.6107 51.8588 71.5479 51.7858 71.5081 51.6922L70.858 50.1597L70.3863 51.3772C70.3363 51.5064 70.2427 51.6037 70.1299 51.644C70.0344 51.678 69.9331 51.6691 69.8439 51.6186C69.6484 51.5081 69.565 51.223 69.6579 50.9831L70.1387 49.7418L68.7406 50.1225C68.6531 50.1464 68.561 50.1348 68.4813 50.0897C68.3675 50.0253 68.2881 49.9027 68.2639 49.7532C68.2228 49.4952 68.3641 49.2383 68.5786 49.1803L70.2495 48.725L69.4648 46.8745C69.3666 46.6442 69.4422 46.3528 69.6333 46.2249C69.7482 46.1496 69.886 46.1439 70.0021 46.2096C70.0807 46.254 70.1431 46.3267 70.1823 46.4197L70.8323 47.9517L71.304 46.7346C71.3539 46.6057 71.4474 46.5087 71.5605 46.4681C71.6562 46.434 71.7576 46.4431 71.8464 46.493C72.0452 46.6055 72.127 46.8847 72.0324 47.1286L71.5514 48.3701L72.9497 47.9891C73.0384 47.9651 73.1281 47.9767 73.209 48.0224C73.323 48.0868 73.4023 48.2093 73.4264 48.3584C73.4673 48.6159 73.3266 48.8731 73.113 48.9318L71.4412 49.3869L72.2264 51.2376C72.3237 51.4678 72.2475 51.7589 72.0567 51.8866C71.9953 51.9277 71.927 51.9487 71.8589 51.9487ZM70.8558 49.9644C70.8772 49.9644 70.8966 49.9772 70.9049 49.997L71.6062 51.6504C71.6369 51.7222 71.6839 51.7776 71.7421 51.8106C71.8237 51.8568 71.9171 51.8521 71.9976 51.7981C72.1481 51.6975 72.2068 51.4648 72.1285 51.2794L71.3195 49.3725C71.3134 49.3584 71.3139 49.3423 71.3206 49.3284C71.3273 49.3145 71.3397 49.3043 71.3544 49.3002L73.0852 48.8291C73.2478 48.7844 73.3539 48.581 73.3213 48.3755C73.3026 48.2603 73.241 48.1631 73.1566 48.1154C73.1009 48.0838 73.0388 48.0758 72.9779 48.0922L71.4777 48.501C71.458 48.5063 71.4375 48.5002 71.4241 48.4853C71.4105 48.4704 71.4067 48.449 71.4139 48.4303L71.9331 47.0902C72.0076 46.8977 71.9452 46.6715 71.7939 46.5859C71.7317 46.5507 71.6633 46.5447 71.5964 46.5685C71.5125 46.5986 71.4421 46.673 71.4033 46.773L70.8842 48.1127C70.8764 48.133 70.8571 48.1464 70.8354 48.1467C70.8121 48.1459 70.7939 48.1343 70.7854 48.1142L70.0841 46.4611C70.054 46.3899 70.0075 46.335 69.9495 46.3021C69.8677 46.256 69.7739 46.2601 69.6923 46.3136C69.542 46.4141 69.4838 46.647 69.5628 46.8325L70.3715 48.7393C70.3776 48.7535 70.3771 48.7696 70.3704 48.7834C70.3637 48.7973 70.3512 48.8075 70.3365 48.8116L68.6065 49.2829C68.4429 49.3271 68.3365 49.5303 68.3691 49.736C68.3879 49.8515 68.4494 49.9489 68.5337 49.9964C68.5895 50.0281 68.6515 50.0359 68.7123 50.0193L70.2124 49.6107C70.2319 49.6055 70.2526 49.6116 70.2661 49.6264C70.2796 49.6413 70.2835 49.6627 70.2762 49.6815L69.7572 51.0212C69.6827 51.2137 69.7451 51.4399 69.8964 51.5254C69.959 51.5608 70.0275 51.5669 70.0939 51.5432C70.1777 51.5132 70.248 51.4386 70.287 51.3383L70.8061 49.9983C70.8139 49.978 70.8341 49.9647 70.8558 49.9644Z" fill="#0A0A0A"/>
<path d="M79.4378 51.7965C79.4157 51.6597 79.3424 51.5524 79.2468 51.4984C79.1811 51.4612 79.105 51.4493 79.0278 51.4701L77.5275 51.8788L78.0467 50.5388C78.1309 50.3216 78.0583 50.0673 77.8841 49.9689C77.711 49.8711 77.5018 49.966 77.4177 50.1832L76.8986 51.5229L76.1972 49.8698C76.1616 49.7852 76.1054 49.7224 76.0398 49.6852C75.9444 49.6313 75.8289 49.6318 75.727 49.6986C75.5558 49.8132 75.4889 50.0746 75.5778 50.2831L76.3865 52.1898L74.6565 52.6611C74.467 52.7122 74.3436 52.9417 74.3805 53.174C74.403 53.3117 74.4765 53.4188 74.5716 53.4726C74.6374 53.5098 74.7136 53.5215 74.7905 53.5003L76.2906 53.0919L75.7716 54.4316C75.6874 54.6488 75.761 54.9037 75.9342 55.0015C76.1083 55.1 76.3165 55.0044 76.4006 54.7872L76.9199 53.4472L77.6211 55.1006C77.6575 55.1858 77.714 55.2491 77.7799 55.2863C77.8753 55.3402 77.9901 55.3397 78.0913 55.2718C78.2626 55.1571 78.3294 54.8958 78.2417 54.688L77.4325 52.781L79.1631 52.3099C79.3513 52.2582 79.4747 52.0288 79.4378 51.7965Z" fill="white"/>
<path d="M77.9225 55.3785C77.8645 55.3785 77.8065 55.3635 77.7531 55.3333C77.6743 55.2887 77.6114 55.2156 77.5715 55.1221L76.9215 53.5895L76.4498 54.807C76.3998 54.9361 76.3063 55.0334 76.1934 55.0737C76.0978 55.1077 75.9966 55.0988 75.9074 55.0484C75.7119 54.938 75.6285 54.6528 75.7214 54.4128L76.2023 53.1717L74.804 53.5524C74.7169 53.5764 74.6247 53.5646 74.5449 53.5195C74.4311 53.4552 74.3517 53.3326 74.3274 53.1831C74.2864 52.9248 74.4277 52.668 74.6422 52.6101L76.3131 52.1548L75.5283 50.3044C75.4301 50.0742 75.5057 49.7827 75.6969 49.6547C75.8119 49.5791 75.9496 49.5737 76.0655 49.6392C76.1442 49.6837 76.2066 49.7564 76.2458 49.8494L76.8958 51.3814L77.3675 50.1642C77.4174 50.0353 77.511 49.9383 77.6241 49.8977C77.7197 49.8637 77.8211 49.8726 77.9099 49.9227C78.1087 50.0351 78.1905 50.3143 78.0959 50.5582L77.615 51.7997L79.0131 51.4187C79.1021 51.3948 79.1917 51.4063 79.2725 51.4521C79.3866 51.5165 79.4658 51.639 79.4898 51.7881C79.5307 52.0455 79.3901 52.3027 79.1766 52.3614L77.5047 52.8166L78.2899 54.6672C78.3871 54.8974 78.311 55.1885 78.1202 55.3162C78.0588 55.3574 77.9906 55.3785 77.9225 55.3785ZM76.9194 53.3943C76.9407 53.3943 76.9601 53.4071 76.9684 53.4268L77.6697 55.0802C77.7003 55.152 77.7474 55.2074 77.8056 55.2404C77.8874 55.2865 77.9806 55.2821 78.0611 55.2279C78.2115 55.1272 78.2702 54.8945 78.192 54.7091L77.383 52.8023C77.3769 52.7881 77.3773 52.772 77.384 52.7581C77.3907 52.7443 77.4032 52.734 77.4181 52.73L79.1487 52.2588C79.3113 52.214 79.4173 52.0105 79.3848 51.8053C79.3661 51.6901 79.3046 51.5928 79.2201 51.5451C79.1642 51.5133 79.1025 51.5054 79.0412 51.5219L77.5411 51.9306C77.5214 51.9358 77.5009 51.9297 77.4875 51.9149C77.4739 51.9 77.4701 51.8787 77.4774 51.8599L77.9965 50.5198C78.0711 50.3274 78.0086 50.1012 77.8573 50.0156C77.7951 49.9804 77.727 49.9744 77.6599 49.9982C77.5759 50.0282 77.5055 50.1028 77.4667 50.2027L76.9476 51.5424C76.9399 51.5627 76.9206 51.5761 76.8988 51.5765C76.8783 51.578 76.8573 51.564 76.8489 51.5439L76.1474 49.8908C76.1175 49.8197 76.0709 49.7646 76.0128 49.7319C75.9309 49.6854 75.8373 49.69 75.7557 49.7433C75.6054 49.8439 75.5471 50.0768 75.6263 50.2623L76.4349 52.1691C76.441 52.1833 76.4406 52.1994 76.4338 52.2133C76.4271 52.2271 76.4146 52.2374 76.3999 52.2414L74.6699 52.7128C74.5064 52.7569 74.3999 52.9601 74.4325 53.1659C74.4513 53.2813 74.5129 53.3788 74.5971 53.4264C74.6528 53.4582 74.7149 53.4657 74.7756 53.4492L76.2759 53.0407C76.2957 53.0353 76.3161 53.0414 76.3295 53.0564C76.3431 53.0713 76.3469 53.0926 76.3397 53.1114L75.8206 54.4511C75.7462 54.6437 75.8086 54.8699 75.9598 54.9553C76.0224 54.9908 76.0908 54.9971 76.1574 54.9732C76.2411 54.9433 76.3115 54.8686 76.3504 54.7684L76.8696 53.4283C76.8774 53.408 76.8978 53.3946 76.9194 53.3943Z" fill="#0A0A0A"/>
<path d="M85.5014 55.2242C85.4792 55.0874 85.4058 54.9801 85.3104 54.9261C85.2447 54.889 85.1685 54.8769 85.0914 54.8978L83.5911 55.3066L84.1103 53.9665C84.1944 53.7494 84.1219 53.4952 83.9477 53.3966C83.7746 53.2988 83.5654 53.3937 83.4813 53.6109L82.9622 54.9506L82.2608 53.2975C82.225 53.2128 82.1689 53.1501 82.1033 53.113C82.0079 53.059 81.8925 53.0595 81.7906 53.1263C81.6193 53.241 81.5525 53.5023 81.6414 53.7108L82.45 55.6175L80.72 56.0889C80.5305 56.14 80.4071 56.3694 80.444 56.6017C80.4664 56.7394 80.5399 56.8465 80.6351 56.9003C80.7009 56.9375 80.7771 56.9492 80.854 56.9281L82.3542 56.5197L81.8352 57.8594C81.751 58.0766 81.8246 58.3315 81.9977 58.4294C82.172 58.5279 82.38 58.4322 82.4642 58.2151L82.9834 56.875L83.6848 58.5286C83.721 58.6137 83.7777 58.677 83.8436 58.7144C83.939 58.7682 84.0536 58.7676 84.155 58.6999C84.3263 58.5852 84.393 58.3239 84.3053 58.116L83.4962 56.2091L85.2266 55.7379C85.4149 55.6862 85.5383 55.4566 85.5014 55.2242Z" fill="white"/>
<path d="M83.987 58.8063C83.9289 58.8063 83.871 58.7914 83.8176 58.7612C83.7389 58.7166 83.676 58.6435 83.636 58.5499L82.986 57.0173L82.5142 58.2348C82.4642 58.3639 82.3707 58.4613 82.2577 58.5017C82.1623 58.5358 82.0608 58.5266 81.9719 58.4763C81.7763 58.3657 81.6929 58.0806 81.7859 57.8408L82.2668 56.5995L80.8686 56.9802C80.7812 57.004 80.6893 56.9924 80.6093 56.9473C80.4956 56.8829 80.4162 56.7603 80.3919 56.6109C80.3508 56.3527 80.492 56.0958 80.7065 56.0379L82.3776 55.5825L81.5927 53.7321C81.4945 53.5018 81.5702 53.2103 81.7614 53.0825C81.8763 53.0069 82.014 53.0013 82.13 53.0671C82.2086 53.1115 82.2709 53.1841 82.3103 53.2772L82.9603 54.8092L83.432 53.592C83.4819 53.4631 83.5755 53.3661 83.6885 53.3255C83.7843 53.2914 83.8856 53.3004 83.9744 53.3504C84.1732 53.4629 84.2549 53.7421 84.1603 53.986L83.6793 55.2275L85.0776 54.8465C85.1666 54.8226 85.2562 54.834 85.3369 54.8799C85.4511 54.9444 85.5303 55.0669 85.5543 55.2159C85.5952 55.4734 85.4545 55.7306 85.2409 55.7892L83.5692 56.2444L84.3544 58.095C84.4516 58.3252 84.3755 58.6163 84.1847 58.744C84.1233 58.7852 84.055 58.8063 83.987 58.8063ZM82.9839 56.8221C83.0052 56.8221 83.0246 56.8349 83.0329 56.8546L83.7342 58.5081C83.7649 58.5798 83.8119 58.6353 83.8701 58.6683C83.9519 58.7142 84.045 58.7099 84.1256 58.6558C84.276 58.5551 84.3347 58.3225 84.2565 58.137L83.4475 56.2302C83.4414 56.216 83.4418 56.1999 83.4485 56.186C83.4552 56.1722 83.4677 56.1619 83.4824 56.1579L85.2131 55.6867C85.3758 55.642 85.4818 55.4386 85.4493 55.2332C85.4306 55.118 85.3691 55.0208 85.2846 54.973C85.2287 54.9414 85.167 54.9332 85.1057 54.9499L83.6056 55.3586C83.5859 55.3637 83.5654 55.3578 83.552 55.3429C83.5384 55.328 83.5346 55.3067 83.5419 55.2879L84.061 53.9478C84.1356 53.7554 84.0732 53.5292 83.9219 53.4435C83.8597 53.4084 83.7912 53.4023 83.7245 53.4261C83.6405 53.4562 83.5701 53.5307 83.5313 53.6306L83.0123 54.9703C83.0045 54.9906 82.9852 55.0041 82.9634 55.0044C82.9384 55.0046 82.9219 54.9919 82.9135 54.9718L82.212 53.3187C82.182 53.2475 82.1353 53.1925 82.0774 53.1599C81.9957 53.1136 81.902 53.1178 81.8203 53.1713C81.67 53.2719 81.6117 53.5047 81.6908 53.6902L82.4995 55.597C82.5056 55.6112 82.5052 55.6273 82.4984 55.6412C82.4917 55.655 82.4792 55.6653 82.4645 55.6693L80.7344 56.1407C80.5709 56.1849 80.4644 56.3881 80.4971 56.5937C80.5159 56.7091 80.5775 56.8066 80.6616 56.8543C80.7176 56.8859 80.7794 56.8936 80.8402 56.8771L82.3405 56.4686C82.3602 56.4633 82.3807 56.4693 82.3941 56.4843C82.4077 56.4992 82.4115 56.5205 82.4042 56.5393L81.8852 57.879C81.8107 58.0716 81.8731 58.2977 82.0244 58.3833C82.0869 58.4187 82.1552 58.4247 82.2219 58.4011C82.3056 58.3711 82.3759 58.2964 82.4149 58.1962L82.9342 56.8561C82.942 56.8358 82.9623 56.8224 82.9839 56.8221Z" fill="#0A0A0A"/>
<path d="M91.5658 58.6539C91.5436 58.517 91.4703 58.4098 91.3747 58.3557C91.309 58.3186 91.233 58.3067 91.1557 58.3275L89.6555 58.7362L90.1746 57.3962C90.2588 57.179 90.1862 56.9247 90.0121 56.8263C89.8389 56.7284 89.6298 56.8234 89.5456 57.0406L89.0266 58.3803L88.3251 56.7272C88.2895 56.6426 88.2333 56.5797 88.1677 56.5426C88.0723 56.4888 87.9568 56.4892 87.8549 56.556C87.6837 56.6706 87.6169 56.932 87.7058 57.1405L88.5145 59.0472L86.7844 59.5185C86.595 59.5696 86.4716 59.7991 86.5085 60.0314C86.531 60.1691 86.6044 60.2762 86.6996 60.3299C86.7654 60.3672 86.8416 60.3789 86.9185 60.3577L88.4187 59.9492L87.8996 61.289C87.8155 61.5061 87.8891 61.7611 88.0622 61.8589C88.2364 61.9573 88.4445 61.8618 88.5286 61.6446L89.0479 60.3045L89.7491 61.958C89.7855 62.0432 89.842 62.1065 89.908 62.1438C90.0032 62.1977 90.118 62.197 90.2192 62.1292C90.3905 62.0145 90.4573 61.7532 90.3696 61.5454L89.5604 59.6384L91.291 59.1673C91.4793 59.1155 91.6027 58.8862 91.5658 58.6539Z" fill="white"/>
<path d="M90.0504 62.234C89.9924 62.234 89.9345 62.219 89.8811 62.1888C89.8022 62.1441 89.7395 62.0711 89.6995 61.9775L89.0495 60.4449L88.5777 61.6624C88.5277 61.7916 88.4341 61.8889 88.3213 61.9292C88.2261 61.9631 88.1246 61.9543 88.0353 61.9038C87.8398 61.7933 87.7564 61.5082 87.8494 61.2683L88.3302 60.0271L86.9319 60.4077C86.8435 60.432 86.7538 60.4207 86.6727 60.3749C86.559 60.3106 86.4797 60.1881 86.4553 60.0385C86.4143 59.7804 86.5555 59.5234 86.77 59.4655L88.4411 59.0101L87.6562 57.1597C87.5581 56.9294 87.6337 56.638 87.8247 56.5101C87.9396 56.4348 88.0772 56.429 88.1935 56.4946C88.2721 56.5392 88.3345 56.6119 88.3737 56.7049L89.0238 58.2369L89.4955 57.0197C89.5454 56.8909 89.6389 56.7937 89.7521 56.7533C89.8476 56.7193 89.9491 56.7281 90.0377 56.7783C90.2367 56.8906 90.3184 57.1697 90.2238 57.4138L89.7428 58.6553L91.1411 58.2742C91.2301 58.2502 91.3195 58.2619 91.4004 58.3075C91.5144 58.372 91.5937 58.4945 91.6178 58.6435C91.6587 58.9009 91.5181 59.1582 91.3044 59.217L89.6326 59.6721L90.4179 61.5228C90.5151 61.7531 90.4389 62.0442 90.2481 62.1717C90.1867 62.2129 90.1185 62.2339 90.0504 62.234ZM89.0473 60.2497C89.0687 60.2497 89.0881 60.2625 89.0964 60.2823L89.7976 61.9357C89.8283 62.0075 89.8754 62.0628 89.9335 62.0959C90.0155 62.1421 90.1084 62.1375 90.189 62.0834C90.3395 61.9827 90.3983 61.7501 90.32 61.5646L89.5109 59.6578C89.5048 59.6436 89.5053 59.6275 89.512 59.6137C89.5187 59.5998 89.5312 59.5896 89.5459 59.5855L91.2766 59.1144C91.4392 59.0697 91.5453 58.8661 91.5126 58.6608C91.494 58.5456 91.4324 58.4484 91.348 58.4006C91.2921 58.3691 91.2305 58.3611 91.1692 58.3775L89.6691 58.7863C89.6493 58.7914 89.6289 58.7855 89.6155 58.7706C89.6019 58.7556 89.5981 58.7343 89.6053 58.7155L90.1245 57.3755C90.199 57.1829 90.1366 56.9568 89.9853 56.8713C89.923 56.8359 89.8547 56.8301 89.788 56.8538C89.704 56.8839 89.6336 56.9583 89.5948 57.0583L89.0757 58.398C89.0679 58.4183 89.0486 58.4317 89.0269 58.432C89.0046 58.4309 88.9854 58.4195 88.9769 58.3995L88.2755 56.7464C88.2454 56.6752 88.1989 56.6202 88.1409 56.5874C88.059 56.5411 87.9653 56.5455 87.8836 56.5989C87.7334 56.6995 87.6752 56.9324 87.7542 57.118L88.563 59.0247C88.5691 59.0388 88.5686 59.0549 88.5619 59.0688C88.5552 59.0827 88.5427 59.0929 88.528 59.097L86.7979 59.5683C86.6342 59.6125 86.5279 59.8157 86.5605 60.0213C86.5796 60.1386 86.6397 60.2336 86.7251 60.2818C86.781 60.3135 86.8432 60.3213 86.9037 60.3047L88.404 59.8962C88.4231 59.891 88.4441 59.8971 88.4576 59.9119C88.4711 59.9269 88.475 59.9482 88.4677 59.9669L87.9487 61.3067C87.8741 61.4992 87.9365 61.7253 88.0878 61.8109C88.1504 61.8463 88.2188 61.8525 88.2853 61.8286C88.3691 61.7986 88.4395 61.7241 88.4784 61.6238L88.9976 60.2837C89.0054 60.2635 89.0256 60.25 89.0473 60.2497Z" fill="#0A0A0A"/>
<path d="M97.6293 62.0797C97.6071 61.9428 97.5338 61.8355 97.4384 61.7816C97.3727 61.7444 97.2965 61.7324 97.2194 61.7533L95.7191 62.1621L96.2382 60.822C96.3223 60.6048 96.2499 60.3506 96.0757 60.2521C95.9026 60.1543 95.6934 60.2492 95.6092 60.4664L95.0901 61.8061L94.3887 60.153C94.3529 60.0683 94.2969 60.0056 94.2313 59.9685C94.1359 59.9145 94.0203 59.915 93.9185 59.9818C93.7472 60.0965 93.6804 60.3578 93.7692 60.5663L94.5779 62.473L92.848 62.9443C92.6585 62.9954 92.5351 63.2249 92.572 63.4572C92.5944 63.5949 92.6679 63.702 92.7631 63.7558C92.8289 63.793 92.905 63.8047 92.9819 63.7836L94.4822 63.3752L93.9631 64.7149C93.8789 64.9321 93.9526 65.187 94.1256 65.2848C94.2999 65.3834 94.508 65.2877 94.5922 65.0705L95.1113 63.7305L95.8128 65.384C95.8491 65.4692 95.9056 65.5325 95.9715 65.5698C96.0668 65.6237 96.1816 65.6231 96.2829 65.5553C96.4543 65.4407 96.5209 65.1793 96.4332 64.9714L95.6243 63.0646L97.3547 62.5934C97.5431 62.5417 97.6661 62.312 97.6293 62.0797Z" fill="white"/>
<path d="M96.1138 65.6638C96.0558 65.6638 95.998 65.6488 95.9445 65.6187C95.8657 65.5741 95.803 65.501 95.763 65.4074L95.1128 63.8748L94.6412 65.0923C94.5911 65.2215 94.4976 65.3187 94.3847 65.3591C94.2896 65.393 94.188 65.384 94.0988 65.3337C93.9031 65.2231 93.8197 64.938 93.9127 64.6981L94.3936 63.4569L92.9955 63.8376C92.908 63.8615 92.816 63.8498 92.7361 63.8047C92.6223 63.7403 92.543 63.6177 92.5188 63.4682C92.4777 63.21 92.619 62.9531 92.8335 62.8953L94.5044 62.4399L93.7197 60.5895C93.6214 60.3593 93.6971 60.0677 93.8882 59.9399C94.0032 59.8643 94.1409 59.8588 94.2569 59.9244C94.3357 59.9689 94.398 60.0416 94.4372 60.1346L95.0871 61.6666L95.5588 60.4494C95.6087 60.3205 95.7023 60.2234 95.8155 60.1829C95.911 60.1488 96.0125 60.1578 96.1012 60.2079C96.2999 60.3203 96.3817 60.5995 96.2872 60.8435L95.8063 62.085L97.2046 61.704C97.2932 61.68 97.3829 61.6916 97.4639 61.7373C97.5779 61.8017 97.6572 61.9243 97.6813 62.0733C97.7221 62.3308 97.5814 62.5881 97.3679 62.6467L95.6962 63.1019L96.4814 64.9525C96.5787 65.1827 96.5025 65.4738 96.3117 65.6015C96.2502 65.6427 96.1818 65.6638 96.1138 65.6638ZM95.1107 63.6796C95.132 63.6796 95.1515 63.6924 95.1598 63.7121L95.8611 65.3656C95.8917 65.4373 95.9389 65.4928 95.997 65.5258C96.0787 65.572 96.1718 65.5674 96.2525 65.5133C96.403 65.4126 96.4616 65.18 96.3833 64.9946L95.5744 63.0877C95.5683 63.0735 95.5687 63.0574 95.5755 63.0435C95.5822 63.0297 95.5946 63.0194 95.6094 63.0154L97.3398 62.5442C97.5026 62.4995 97.6087 62.2961 97.5762 62.0907C97.5574 61.9755 97.4959 61.8782 97.4115 61.8305C97.3556 61.7989 97.2937 61.7908 97.2327 61.8074L95.7326 62.2161C95.7131 62.2213 95.6923 62.2154 95.6789 62.2004C95.6654 62.1855 95.6615 62.1642 95.6688 62.1454L96.1879 60.8053C96.2624 60.6128 96.2 60.3866 96.0487 60.301C95.9865 60.2658 95.9184 60.2598 95.8513 60.2836C95.7673 60.3136 95.6969 60.3882 95.6581 60.4881L95.1391 61.8279C95.1313 61.8481 95.112 61.8616 95.0902 61.8619C95.0707 61.8632 95.0487 61.8494 95.0403 61.8293L94.339 60.1762C94.3089 60.1051 94.2624 60.0501 94.2044 60.0173C94.1227 59.9711 94.0289 59.9753 93.9471 60.0288C93.7969 60.1294 93.7387 60.3623 93.8177 60.5477L94.6263 62.4545C94.6324 62.4687 94.632 62.4848 94.6253 62.4987C94.6185 62.5125 94.6061 62.5228 94.5913 62.5268L92.8613 62.9982C92.6978 63.0424 92.5913 63.2456 92.624 63.4512C92.6428 63.5666 92.7042 63.6641 92.7885 63.7118C92.8444 63.7434 92.9064 63.7512 92.9671 63.7346L94.4673 63.3261C94.4869 63.3209 94.5075 63.3269 94.5209 63.3418C94.5345 63.3567 94.5383 63.378 94.5311 63.3968L94.012 64.7365C93.9375 64.9291 93.9999 65.1552 94.1512 65.2408C94.2139 65.2762 94.2823 65.2824 94.3488 65.2585C94.4325 65.2285 94.5029 65.1538 94.5419 65.0536L95.061 63.7135C95.0688 63.6932 95.089 63.6799 95.1107 63.6796Z" fill="#0A0A0A"/>
<path d="M95.5529 23.445C90.5705 20.6282 84.5802 23.3817 82.1734 29.5936C80.8306 33.0595 80.8891 36.8688 82.0668 40.0497C82.0666 40.0501 82.0663 40.0504 82.0661 40.0508C82.0767 40.0794 82.0883 40.1074 82.0991 40.1359C82.8657 42.1656 84.0899 43.934 85.7015 45.1844C85.7035 45.186 85.7055 45.1875 85.7073 45.1889C85.7205 45.1991 85.7335 45.2091 85.7467 45.2193C85.75 45.2218 85.7534 45.2244 85.7567 45.227C85.7692 45.2366 85.7817 45.246 85.7941 45.2555C85.7982 45.2586 85.802 45.2615 85.8062 45.2646C85.8187 45.274 85.831 45.2834 85.8436 45.2927C85.8474 45.2954 85.8511 45.2983 85.8548 45.3011C85.8672 45.3101 85.8794 45.3193 85.8918 45.3284C85.8973 45.3323 85.9027 45.3364 85.9082 45.3404C85.9192 45.3485 85.9305 45.3568 85.9415 45.3649C85.9439 45.3666 85.946 45.3682 85.9484 45.3699C85.9757 45.3897 86.0034 45.4096 86.0309 45.4291C86.0336 45.431 86.036 45.4327 86.0387 45.4346C86.0498 45.4424 86.0608 45.4502 86.0718 45.4579C86.0781 45.4624 86.0846 45.4668 86.0909 45.4712C86.1006 45.478 86.1103 45.4847 86.12 45.4914C86.1281 45.497 86.1364 45.5028 86.1445 45.5083C86.153 45.5141 86.1614 45.5199 86.1697 45.5257C86.1786 45.5318 86.1874 45.5378 86.1963 45.5437C86.2054 45.5499 86.2146 45.5562 86.2238 45.5624C86.232 45.5679 86.2402 45.5734 86.2483 45.5788C86.2572 45.5848 86.2658 45.5906 86.2747 45.5964C86.2842 45.6027 86.2938 45.609 86.3033 45.6153C86.3114 45.6207 86.3197 45.6261 86.3278 45.6314C86.3403 45.6396 86.3529 45.6478 86.3653 45.6559C86.3701 45.659 86.3748 45.6619 86.3796 45.6651C86.3946 45.6747 86.4093 45.6841 86.4242 45.6936C86.435 45.7004 86.446 45.7075 86.4569 45.7142C86.4666 45.7204 86.4763 45.7265 86.4861 45.7326C86.4937 45.7374 86.5013 45.742 86.5089 45.7467C86.5189 45.753 86.5291 45.7592 86.5392 45.7655C86.5471 45.7703 86.5552 45.7753 86.5631 45.7801C86.574 45.7867 86.5847 45.7932 86.5956 45.7999C86.6029 45.8042 86.6101 45.8086 86.6175 45.8131C86.6276 45.8192 86.6378 45.8252 86.648 45.8313C86.6563 45.8363 86.6647 45.8413 86.6732 45.8463C86.6837 45.8527 86.6946 45.8589 86.7053 45.8652C86.7127 45.8696 86.7199 45.8738 86.7274 45.8781C86.739 45.8849 86.7508 45.8918 86.7626 45.8985C86.7691 45.9024 86.7756 45.9061 86.7821 45.9098C86.8004 45.9204 86.8187 45.9308 86.8371 45.9412C86.8556 45.9515 86.8739 45.9619 86.8924 45.9721C86.899 45.9757 86.9055 45.9794 86.9121 45.983C86.9238 45.9895 86.9358 45.9961 86.9475 46.0025C86.9552 46.0067 86.9625 46.0106 86.9699 46.0148C86.9808 46.0207 86.9918 46.0267 87.0026 46.0324C87.0112 46.0371 87.0195 46.0416 87.0282 46.0462C87.0384 46.0517 87.049 46.0572 87.0592 46.0627L87.0816 46.0745C87.0927 46.0803 87.1038 46.0862 87.115 46.092C87.1233 46.0963 87.1315 46.1007 87.1397 46.1049C87.1502 46.1103 87.1604 46.1155 87.1709 46.1208C87.1788 46.1249 87.1868 46.1289 87.1947 46.133C87.2047 46.1381 87.2145 46.143 87.2245 46.1481C87.2375 46.1546 87.2508 46.1612 87.2639 46.1677C87.2779 46.1747 87.2917 46.1816 87.3058 46.1884C87.3108 46.1909 87.3157 46.1932 87.3207 46.1957C87.3339 46.2021 87.3471 46.2086 87.3603 46.2149C87.3691 46.2191 87.3779 46.2233 87.3866 46.2275C87.3966 46.2322 87.4065 46.237 87.4165 46.2417C87.426 46.2463 87.4354 46.2506 87.445 46.2551C87.4535 46.2591 87.4621 46.2631 87.4706 46.2671C87.4806 46.2716 87.4906 46.2762 87.5005 46.2809C87.5099 46.2853 87.5194 46.2897 87.5287 46.2939C87.5379 46.2981 87.547 46.3023 87.5562 46.3064C87.5647 46.3104 87.5733 46.3141 87.5819 46.3179C87.5927 46.3227 87.6033 46.3275 87.6141 46.3323C87.6206 46.3351 87.6271 46.338 87.6336 46.341C87.6461 46.3464 87.6586 46.3519 87.671 46.3574C87.6724 46.3579 87.6738 46.3586 87.6752 46.3592C87.7065 46.3728 87.7377 46.3861 87.769 46.3993C87.7717 46.4004 87.7744 46.4016 87.7772 46.4027C87.7893 46.4077 87.8015 46.4129 87.8135 46.4179C87.8197 46.4203 87.8259 46.423 87.8322 46.4256C87.8461 46.4312 87.8599 46.437 87.8738 46.4425C87.8777 46.444 87.8816 46.4456 87.8854 46.4472L87.928 46.4642C87.9322 46.4659 87.9363 46.4675 87.9406 46.4692C87.955 46.4748 87.9695 46.4806 87.9839 46.4862C87.9872 46.4874 87.9902 46.4886 87.9935 46.4899C88.0089 46.4957 88.0243 46.5017 88.0397 46.5076C88.0412 46.5081 88.0425 46.5087 88.0441 46.5092C89.8898 47.2105 91.8189 47.2071 93.6165 46.6006C93.6143 46.6014 93.6122 46.6022 93.6099 46.6029C93.6194 46.5997 93.6289 46.5969 93.6385 46.5937C93.6385 46.5937 93.6388 46.593 93.6389 46.5927C96.4156 45.6476 98.8743 43.2608 100.217 39.7948C102.623 33.583 100.535 26.2617 95.5529 23.445Z" fill="#0E38A3"/>
<path d="M90.9432 47.0989C89.9546 47.0989 88.9716 46.9186 88.0241 46.5586L87.9736 46.5393C87.9736 46.5393 87.9633 46.5352 87.963 46.5351L87.8648 46.4963C87.8648 46.4963 87.8531 46.4915 87.853 46.4915L87.2969 46.2435L87.2813 46.2359L86.3395 45.7026L86.2253 45.6276L86.2412 45.5742L86.2117 45.6185L86.0068 45.4776C85.9714 45.4526 85.9435 45.4325 85.916 45.4126L85.8755 45.383L85.8908 45.328L85.8593 45.3711L85.7235 45.2691C85.7235 45.2691 85.7134 45.2614 85.7133 45.2613L85.6736 45.2307C84.091 44.003 82.8394 42.249 82.0482 40.1543L82.0332 40.1158C82.0271 40.1002 82.021 40.0848 82.0153 40.0691C82.014 40.0659 82.0131 40.0625 82.0127 40.0592C80.7865 36.7408 80.8267 32.9199 82.1229 29.5742C83.4005 26.2765 85.7643 23.8022 88.6079 22.7857C90.9332 21.9544 93.409 22.172 95.5784 23.3985C100.576 26.2235 102.679 33.5874 100.266 39.8136C98.9683 43.1626 96.5618 45.6503 93.6629 46.6401C93.6604 46.6416 93.6575 46.6427 93.6546 46.6437L93.6257 46.6531C92.742 46.9504 91.8403 47.0989 90.9432 47.0989ZM87.9568 46.4181L88.0578 46.4574C89.8483 47.1377 91.7629 47.1689 93.5984 46.5496C93.6001 46.5491 93.6017 46.5486 93.6033 46.5482C93.6044 46.5479 93.605 46.5477 93.6051 46.5477L93.613 46.5451C93.6155 46.5439 93.618 46.5427 93.6207 46.5418C96.4933 45.564 98.8792 43.0977 100.167 39.7751C102.561 33.5962 100.479 26.2914 95.5258 23.4913C93.3839 22.2804 90.9397 22.0655 88.6436 22.8862C85.8292 23.8922 83.4888 26.344 82.2222 29.6128C80.9342 32.9374 80.8955 36.7348 82.1159 40.031C82.1171 40.0342 82.118 40.0376 82.1184 40.0409C82.1231 40.0533 82.128 40.0656 82.1328 40.0779L82.1481 40.117C82.9323 42.1931 84.172 43.9309 85.7332 45.1422L85.7783 45.1769L85.7557 45.2269L85.7881 45.1845L85.8745 45.2497L85.8539 45.3009L85.8855 45.2579L85.9224 45.2851L85.9072 45.3402L85.9388 45.2973L85.9719 45.3214C86.0059 45.3461 86.0334 45.3658 86.0608 45.3853L86.2709 45.5301C86.2709 45.5301 86.2848 45.5394 86.2849 45.5394L87.3283 46.1403L87.3199 46.1956L87.3434 46.1477L87.9468 46.4144L87.9376 46.4681L87.9568 46.4181Z" fill="#0A0A0A"/>
<path d="M93.5527 28.6045C92.0955 27.7808 90.3439 28.5856 89.64 30.4023C88.9361 32.219 89.5467 34.3593 91.0039 35.1831C92.4611 36.0069 94.2127 35.2021 94.9166 33.3853C95.6205 31.5687 95.01 29.4283 93.5527 28.6045Z" fill="white"/>
<path d="M92.208 35.5588C91.7847 35.5588 91.365 35.4481 90.9779 35.2293C89.501 34.3944 88.8787 32.2203 89.5906 30.3828C89.9682 29.4083 90.6675 28.6768 91.5092 28.376C92.1998 28.1291 92.9349 28.1938 93.5792 28.5581C95.0561 29.393 95.6783 31.567 94.9665 33.4046C94.589 34.3791 93.8897 35.1106 93.048 35.4115C92.7722 35.5101 92.4893 35.5588 92.208 35.5588ZM92.3489 28.3353C92.0796 28.3353 91.8089 28.382 91.5451 28.4764C90.7325 28.7668 90.0564 29.4757 89.6899 30.4213C88.9964 32.2113 89.5977 34.3265 91.0302 35.1365C91.6471 35.4853 92.351 35.5472 93.0119 35.3109C93.8245 35.0205 94.5006 34.3116 94.867 33.366C95.5605 31.576 94.9592 29.4608 93.5267 28.6509C93.156 28.4414 92.7541 28.3353 92.3489 28.3353Z" fill="#0A0A0A"/>
<path d="M90.2315 37.1786C87.3127 35.5285 83.8616 36.8221 82.0654 40.0519C82.8297 42.1173 84.0666 43.9175 85.7007 45.1854C85.7027 45.187 85.7047 45.1885 85.7066 45.1898C85.7197 45.2001 85.7328 45.2101 85.746 45.2202C85.7493 45.2228 85.7527 45.2254 85.756 45.2279C85.7685 45.2375 85.781 45.247 85.7934 45.2564C85.7975 45.2595 85.8013 45.2624 85.8054 45.2655C85.8179 45.2749 85.8303 45.2842 85.8428 45.2935C85.8465 45.2963 85.8503 45.2992 85.854 45.302C85.8664 45.311 85.8785 45.3202 85.891 45.3293C85.8965 45.3332 85.9019 45.3373 85.9074 45.3413C85.9184 45.3494 85.9296 45.3576 85.9407 45.3657C85.9431 45.3674 85.9452 45.369 85.9476 45.3707C85.9749 45.3906 86.0026 45.4104 86.0301 45.4299C86.0328 45.4319 86.0352 45.4336 86.0379 45.4355C86.0489 45.4433 86.06 45.4511 86.071 45.4587C86.0773 45.4632 86.0838 45.4677 86.0901 45.4721C86.0998 45.4789 86.1095 45.4855 86.1192 45.4922C86.1273 45.4979 86.1356 45.5037 86.1437 45.5092C86.1522 45.515 86.1606 45.5207 86.169 45.5266C86.1779 45.5327 86.1866 45.5386 86.1956 45.5446L86.2231 45.5633C86.2313 45.5687 86.2395 45.5743 86.2476 45.5797C86.2565 45.5857 86.2651 45.5914 86.274 45.5973C86.2835 45.6036 86.2931 45.6099 86.3025 45.6162C86.3107 45.6215 86.319 45.627 86.3271 45.6323C86.3396 45.6405 86.3521 45.6486 86.3646 45.6567C86.3694 45.6598 86.3741 45.6628 86.3789 45.666C86.3939 45.6756 86.4086 45.685 86.4235 45.6945C86.4343 45.7013 86.4453 45.7084 86.4561 45.7151C86.4659 45.7213 86.4756 45.7273 86.4854 45.7334C86.493 45.7382 86.5006 45.7429 86.5082 45.7476C86.5182 45.7539 86.5284 45.7601 86.5385 45.7664C86.5464 45.7712 86.5545 45.7762 86.5624 45.781C86.5733 45.7876 86.584 45.7941 86.5949 45.8007L86.6168 45.814C86.627 45.8201 86.6371 45.8261 86.6473 45.8322C86.6556 45.8372 86.664 45.8422 86.6724 45.8471C86.6829 45.8534 86.6938 45.8598 86.7045 45.8661C86.7119 45.8705 86.7191 45.8746 86.7265 45.879C86.7382 45.8857 86.75 45.8927 86.7616 45.8994C86.7681 45.9032 86.7747 45.907 86.7812 45.9107C86.7995 45.9213 86.8178 45.9317 86.8362 45.9421C86.8547 45.9524 86.873 45.9627 86.8915 45.973C86.8981 45.9766 86.9046 45.9802 86.9112 45.9839C86.9229 45.9904 86.9349 45.997 86.9466 46.0034C86.9542 46.0076 86.9615 46.0115 86.969 46.0157C86.9799 46.0215 86.9909 46.0276 87.0016 46.0333C87.0103 46.0379 87.0186 46.0424 87.0272 46.047C87.0375 46.0526 87.048 46.0581 87.0583 46.0635L87.0807 46.0754C87.0918 46.0812 87.103 46.087 87.1141 46.0929C87.1224 46.0972 87.1306 46.1014 87.1388 46.1058C87.1493 46.1111 87.1595 46.1164 87.17 46.1217C87.1779 46.1257 87.1859 46.1298 87.1937 46.1338C87.2038 46.139 87.2136 46.1439 87.2236 46.149C87.2366 46.1555 87.2499 46.1621 87.263 46.1686C87.2769 46.1756 87.2909 46.1825 87.3049 46.1893C87.3099 46.1918 87.3148 46.1941 87.3198 46.1966C87.333 46.203 87.3462 46.2095 87.3594 46.2158C87.3681 46.2199 87.3769 46.2242 87.3856 46.2284C87.3957 46.233 87.4056 46.2378 87.4156 46.2425C87.4251 46.2471 87.4345 46.2515 87.4441 46.256C87.4526 46.2599 87.4612 46.264 87.4697 46.2679L87.4996 46.2818C87.509 46.2862 87.5184 46.2905 87.5278 46.2948C87.537 46.299 87.5461 46.3031 87.5552 46.3073C87.5638 46.3112 87.5724 46.315 87.581 46.3188C87.5918 46.3236 87.6024 46.3284 87.6133 46.3332C87.6198 46.336 87.6263 46.3389 87.6328 46.3418L87.6702 46.3583C87.6716 46.3588 87.673 46.3594 87.6744 46.3601C87.7056 46.3736 87.7369 46.387 87.7682 46.4002C87.7709 46.4013 87.7736 46.4024 87.7764 46.4036C87.7884 46.4087 87.8007 46.4137 87.8127 46.4187C87.8189 46.4212 87.8252 46.4239 87.8314 46.4264C87.8453 46.4321 87.8591 46.4378 87.873 46.4434C87.8768 46.4449 87.8809 46.4465 87.8846 46.4481C87.8988 46.4537 87.9129 46.4594 87.9272 46.465C87.9313 46.4668 87.9355 46.4684 87.9398 46.4701C87.9541 46.4757 87.9687 46.4815 87.983 46.487C87.9863 46.4883 87.9893 46.4895 87.9926 46.4907C88.0079 46.4966 88.0234 46.5026 88.0388 46.5085C88.0403 46.509 88.0415 46.5095 88.0431 46.5101C89.8964 47.2143 91.8339 47.2084 93.6377 46.5944C94.539 42.8586 93.1504 38.8288 90.2315 37.1786Z" fill="white"/>
<path d="M90.9448 47.0992C89.9561 47.0992 88.973 46.9189 88.0248 46.5586L87.9742 46.5393L87.9642 46.5354L87.8654 46.4963L87.8537 46.4915L87.4248 46.3043L87.4372 46.2512L87.4147 46.2995L86.7003 45.9238L86.6908 45.9183L86.2261 45.6276L86.242 45.5742L86.2125 45.6186L86.0076 45.4776C85.9722 45.4526 85.9442 45.4325 85.9167 45.4126L85.8763 45.383L85.8916 45.328L85.8601 45.3711L85.7243 45.2691L85.7141 45.2613L85.6744 45.2307C84.068 43.9844 82.8049 42.2012 82.016 40.0691C82.0106 40.0545 82.0119 40.0383 82.0195 40.0246C82.9831 38.2916 84.4293 37.0797 86.0913 36.6118C87.51 36.2124 88.9512 36.3918 90.2584 37.1309C93.1737 38.7791 94.617 42.7637 93.6903 46.6054C93.686 46.6233 93.6729 46.6375 93.6556 46.6434C92.763 46.9472 91.8516 47.0992 90.9448 47.0992ZM87.9051 46.3972L87.9968 46.4335L88.0079 46.4379L88.0586 46.4573C89.848 47.1372 91.7598 47.1694 93.5935 46.552C94.4954 42.7645 93.0735 38.845 90.206 37.2238C88.924 36.4992 87.5113 36.3231 86.1203 36.7146C84.4926 37.1727 83.0744 38.3587 82.1246 40.0551C82.9071 42.1581 84.1549 43.9168 85.7341 45.1419L85.7791 45.1766L85.7566 45.2266L85.7889 45.1842L85.8753 45.2494L85.8548 45.3006L85.8863 45.2576L85.9232 45.2848L85.9081 45.3399L85.9397 45.297L85.9727 45.3211C86.0068 45.3458 86.0343 45.3655 86.0617 45.385L86.2718 45.5298L86.2858 45.5391L87.2875 46.1194L87.3292 46.1399L87.3444 46.1473L87.4601 46.2028L87.4705 46.2076L87.894 46.3923L87.8858 46.4465L87.9051 46.3972Z" fill="#0A0A0A"/>
<path d="M97.3377 18.836C97.0028 18.6467 96.6002 18.8317 96.4384 19.2492C96.2766 19.6667 96.4164 20.1602 96.7513 20.3495C97.0862 20.5388 97.4905 20.353 97.6523 19.9355C97.8141 19.518 97.6725 19.0253 97.3377 18.836Z" fill="#0A0A0A"/>
<path d="M97.0278 20.4774C96.9235 20.4774 96.8203 20.4502 96.7252 20.3965C96.3687 20.195 96.2178 19.6719 96.3888 19.2305C96.4799 18.9954 96.6495 18.8185 96.8543 18.7454C97.0245 18.6845 97.2057 18.7005 97.3641 18.7901C97.7212 18.992 97.8729 19.5146 97.7021 19.9552C97.611 20.1904 97.441 20.3673 97.2356 20.4408C97.1673 20.4653 97.0973 20.4774 97.0278 20.4774ZM97.0612 18.8159C97.0039 18.8159 96.9464 18.8258 96.8902 18.8458C96.7146 18.9086 96.5681 19.0629 96.4882 19.2691C96.3355 19.663 96.4653 20.1271 96.7777 20.3037C96.9087 20.3777 97.0586 20.3909 97.1996 20.3405C97.3758 20.2775 97.5227 20.1231 97.6027 19.9168C97.755 19.5237 97.6244 19.0599 97.3116 18.883C97.2328 18.8385 97.1473 18.8159 97.0612 18.8159Z" fill="#0A0A0A"/>
<path d="M125.409 31.0342C127.392 32.1554 128.224 35.0692 127.266 37.5432L111.095 79.2797C110.364 81.1681 108.801 82.2529 107.22 82.1622L108.228 82.22C109.809 82.3108 111.371 81.2259 112.103 79.3376L128.274 37.601C129.232 35.127 128.4 32.2132 126.417 31.092L72.6101 0.672275C72.1405 0.406889 71.6486 0.265552 71.1582 0.237499L70.1504 0.179688C70.6408 0.207848 71.1327 0.349072 71.6023 0.614459L125.409 31.0342Z" fill="url(#paint0_linear_40000788_4909)"/>
<path d="M108.418 82.2774C108.354 82.2774 108.289 82.2755 108.225 82.2719L107.217 82.214C107.188 82.2123 107.165 82.1872 107.167 82.1577C107.169 82.1285 107.191 82.1072 107.223 82.1076C108.839 82.1991 110.339 81.0823 111.046 79.2592L127.216 37.5226C128.164 35.077 127.341 32.1865 125.383 31.0793L71.5756 0.659478C71.1236 0.403905 70.643 0.259905 70.147 0.231532C70.1176 0.229825 70.0952 0.204654 70.0968 0.175214C70.0984 0.145987 70.1207 0.12348 70.153 0.12508L71.1608 0.182893C71.6732 0.212226 72.1694 0.360811 72.6359 0.624491L126.443 31.0443C128.446 32.1766 129.289 35.1259 128.323 37.6191L112.153 79.3556C111.457 81.1503 110.006 82.2773 108.418 82.2774ZM108.062 82.1556L108.231 82.1653C109.852 82.2578 111.347 81.1398 112.053 79.3168L128.224 37.5802C129.172 35.1346 128.349 32.2441 126.391 31.1369L72.5837 0.717079C72.1316 0.461506 71.6509 0.317506 71.155 0.289133L70.9759 0.278892C71.1986 0.350785 71.4165 0.446787 71.6282 0.566467L125.435 30.9863C127.438 32.1185 128.282 35.0679 127.316 37.561L111.145 79.2976C110.546 80.8432 109.386 81.8937 108.062 82.1556Z" fill="#0A0A0A"/>
<path d="M106.522 81.7209C108.507 82.8427 108.668 84.1989 106.884 84.751L76.7736 94.065C74.9888 94.6171 71.9352 94.1556 69.9508 93.0336L16.1448 62.6144C14.1605 61.4926 13.9988 60.1365 15.7836 59.5844L45.8938 50.2703C47.6787 49.7182 50.7322 50.1798 52.7167 51.3017L106.522 81.7209Z" fill="#94C1F7"/>
<path d="M74.9866 94.3493C73.3201 94.3493 71.3453 93.8826 69.9243 93.0792L16.1182 62.66C15.018 62.0379 14.4266 61.3127 14.4957 60.6702C14.5492 60.1737 15.0009 59.7698 15.7676 59.5325L45.8777 50.2186C47.6712 49.6638 50.7507 50.1284 52.7424 51.2545L106.549 81.6736C107.649 82.2956 108.24 83.0209 108.171 83.6633C108.118 84.1599 107.666 84.5638 106.899 84.801L76.7891 94.1151C76.2752 94.274 75.6556 94.3493 74.9866 94.3493ZM47.6841 50.09C47.0248 50.09 46.4152 50.164 45.9092 50.3206L15.7991 59.6345C15.0757 59.8583 14.6504 60.2301 14.6018 60.6817C14.5373 61.2798 15.1093 61.9671 16.1707 62.5672L69.9768 92.9863C71.9464 94.0997 74.9879 94.5604 76.7576 94.0131L106.868 84.699C107.591 84.4753 108.017 84.1034 108.065 83.6519C108.13 83.0537 107.558 82.3665 106.496 81.7664L52.69 51.3473C51.2835 50.5522 49.3302 50.09 47.6841 50.09Z" fill="#0A0A0A"/>
<path d="M99.6205 80.453L53.5945 54.4324C52.9837 54.087 52.0424 53.9447 51.4929 54.1148L35.6868 59.0041C35.1374 59.174 35.1881 59.5917 35.799 59.9371L81.8249 85.9576C82.4358 86.303 83.3749 86.445 83.9245 86.275L99.7305 81.3857C100.281 81.2157 100.232 80.7983 99.6205 80.453Z" fill="white"/>
<path d="M83.3764 86.3993C82.8566 86.3993 82.2416 86.2541 81.7993 86.004L35.7734 59.9834C35.4209 59.7841 35.2319 59.5474 35.2548 59.3342C35.273 59.1659 35.4211 59.0305 35.6718 58.953L51.4778 54.0637C52.0382 53.8901 53.0001 54.0347 53.6214 54.3859L99.6473 80.4065C99.9991 80.6053 100.188 80.8416 100.165 81.0547C100.147 81.2233 99.9982 81.3589 99.747 81.4366L83.9409 86.3259C83.7799 86.3757 83.5859 86.3993 83.3764 86.3993ZM52.0464 54.0958C51.8468 54.0958 51.6623 54.1182 51.5092 54.1656L35.7031 59.0548C35.4957 59.1191 35.3741 59.2223 35.3608 59.3456C35.3429 59.5121 35.5167 59.7157 35.8258 59.8906L81.8517 85.9112C82.45 86.2494 83.3731 86.39 83.9092 86.224L99.7153 81.3347C99.9233 81.2703 100.045 81.1668 100.059 81.0433C100.076 80.8771 99.903 80.6738 99.5946 80.4994L53.5687 54.4788C53.1406 54.2367 52.5464 54.0958 52.0464 54.0958Z" fill="#0A0A0A"/>
<path d="M65.6987 77.9845L49.3102 68.7194C48.6043 68.3203 47.5169 68.156 46.8808 68.3527L37.7368 71.1811C37.1019 71.3775 37.1595 71.8605 37.8654 72.2595L54.2539 81.5247C54.9599 81.9238 56.0472 82.0882 56.6821 81.8917L65.8261 79.0633C66.4621 78.8666 66.4047 78.3837 65.6987 77.9845Z" fill="white"/>
<path d="M56.0471 82.0273C55.4476 82.0273 54.7378 81.8597 54.2272 81.5711L37.8387 72.3059C37.4348 72.0775 37.2181 71.8072 37.2443 71.5641C37.2648 71.373 37.434 71.2187 37.7207 71.1301L46.8647 68.3015C47.5116 68.1014 48.62 68.268 49.336 68.6727L65.7246 77.9379C66.1284 78.1663 66.3451 78.4365 66.3189 78.6794C66.2983 78.8708 66.1287 79.0251 65.8415 79.114L56.6975 81.9426C56.5121 82 56.2886 82.0273 56.0471 82.0273ZM47.52 68.3225C47.2883 68.3225 47.074 68.3486 46.8962 68.4035L37.7522 71.2321C37.5089 71.3074 37.3661 71.4294 37.3503 71.5756C37.3293 71.7714 37.5314 72.0098 37.8912 72.2132L54.2797 81.4784C54.9736 81.8706 56.0439 82.0334 56.666 81.8409L65.81 79.0123C66.054 78.9368 66.197 78.8147 66.2127 78.6682C66.2338 78.4725 66.0317 78.2343 65.672 78.0309L49.2834 68.7657C48.7878 68.4855 48.0996 68.3225 47.52 68.3225Z" fill="#0A0A0A"/>
<path d="M106.884 84.7504L76.773 94.0645C74.9881 94.6166 71.9346 94.155 69.9502 93.0331L16.1442 62.6139C14.9678 61.9488 14.432 61.2013 14.5627 60.5879L14.237 62.1166C14.1063 62.7301 14.6421 63.4776 15.8185 64.1427L69.6246 94.5617C71.6089 95.6836 74.6626 96.1452 76.4475 95.5931L106.558 86.2791C107.285 86.0543 107.689 85.6963 107.779 85.275L108.104 83.7463C108.014 84.1675 107.61 84.5257 106.884 84.7504Z" fill="url(#paint1_linear_40000788_4909)"/>
<path d="M74.6604 95.8789C72.9941 95.8789 71.0194 95.4122 69.5984 94.6088L15.7925 64.1897C14.629 63.5319 14.0431 62.7725 14.185 62.1062L14.5103 60.5795C14.5103 60.5788 14.5106 60.5781 14.5107 60.5773C14.517 60.5484 14.5462 60.5304 14.5741 60.5363C14.6029 60.5424 14.6213 60.5707 14.6152 60.5995C14.4855 61.2082 15.067 61.9439 16.1708 62.568L69.9768 92.9871C71.9464 94.1005 74.9879 94.5612 76.7576 94.0139L106.868 84.6999C107.553 84.4879 107.963 84.1545 108.052 83.7356C108.058 83.7068 108.086 83.6884 108.115 83.6945C108.144 83.7007 108.162 83.729 108.156 83.7578V83.7594L107.831 85.2867C107.733 85.7454 107.298 86.1065 106.574 86.3306L76.4635 95.6445C75.9496 95.8035 75.3296 95.8789 74.6604 95.8789ZM14.5224 61.0341L14.2892 62.1284C14.1596 62.737 14.741 63.4729 15.8448 64.0969L69.6509 94.516C71.6205 95.6295 74.6624 96.0901 76.4317 95.5428L106.542 86.2288C107.227 86.0168 107.637 85.6833 107.726 85.2646L107.96 84.1678C107.75 84.4343 107.391 84.6496 106.899 84.8019L76.7889 94.1159C74.9954 94.6708 71.9158 94.2059 69.9242 93.08L16.1181 62.6608C15.2137 62.1495 14.6582 61.5767 14.5224 61.0341Z" fill="#0A0A0A"/>
<path d="M53.6833 15.6484C53.699 15.7032 53.5267 15.8101 53.1989 15.936L37.0234 22.1452L42.2558 40.4392L58.4313 34.23C58.7591 34.1041 58.9314 33.9972 58.9158 33.9424L53.6833 15.6484Z" fill="#94C1F7"/>
<path d="M42.2566 40.4911C42.2484 40.4911 42.2403 40.4892 42.2327 40.4855C42.2194 40.4788 42.2094 40.4668 42.2053 40.4524L36.9728 22.1584C36.9652 22.1318 36.9792 22.1038 37.005 22.094L53.1806 15.8848C53.5498 15.7431 53.6198 15.6663 53.6309 15.6507C53.6292 15.6262 53.6449 15.6028 53.6694 15.5958C53.6981 15.5878 53.7273 15.6042 53.7353 15.6324C53.7352 15.6322 53.7433 15.6605 53.7353 15.6324L58.9679 33.9263C58.9797 33.9678 59.0073 34.0649 58.4512 34.2783L42.2756 40.4875C42.2694 40.4899 42.2631 40.4911 42.2566 40.4911ZM37.0888 22.176L42.2919 40.3671L58.4131 34.1787C58.7737 34.0403 58.8489 33.9638 58.8626 33.9457L53.6629 15.7664C53.5926 15.8203 53.4611 15.8912 53.2187 15.9843L37.0888 22.176Z" fill="#0A0A0A"/>
<path d="M49.6226 31.188L48.8778 28.5843C49.5704 27.8501 49.8644 26.6756 49.5461 25.5626C49.1164 24.06 47.7315 23.2394 46.4533 23.73C45.1751 24.2206 44.4873 25.8368 44.9171 27.3395C45.2355 28.4528 46.0773 29.1916 47.0117 29.3011L47.7562 31.9043C47.9289 32.5079 48.49 32.8395 49.0025 32.6427C49.516 32.4456 49.7952 31.7917 49.6226 31.188Z" fill="#0E38A3"/>
<path d="M48.6986 32.7528C48.5586 32.7528 48.4184 32.7197 48.2867 32.654C48.0105 32.5162 47.7981 32.2483 47.7041 31.919L46.9691 29.3498C45.999 29.2198 45.1755 28.4405 44.8648 27.3542C44.4282 25.8279 45.1318 24.1798 46.4331 23.6803C47.0085 23.4593 47.6336 23.4916 48.193 23.7708C48.8565 24.1019 49.368 24.7496 49.5962 25.548C49.9067 26.6337 49.6475 27.8273 48.9363 28.5987L49.6727 31.1734C49.853 31.8039 49.5604 32.4855 49.0204 32.6928C48.9159 32.7329 48.8074 32.7528 48.6986 32.7528ZM47.2093 23.6419C46.9604 23.6419 46.7113 23.6877 46.4713 23.7798C45.2202 24.26 44.5456 25.8503 44.9673 27.3248C45.2699 28.3827 46.0744 29.1377 47.0169 29.2482C47.0383 29.2507 47.056 29.2658 47.0619 29.2865L47.8065 31.8897C47.8924 32.1903 48.0848 32.434 48.3343 32.5586C48.5412 32.6619 48.7714 32.6742 48.9823 32.5932C49.472 32.4052 49.7356 31.7814 49.5703 31.2027L48.8256 28.599C48.8203 28.5809 48.8251 28.5614 48.838 28.5477C49.5397 27.8039 49.7971 26.638 49.4937 25.5774C49.2736 24.8077 48.782 24.184 48.1453 23.8662C47.8464 23.7171 47.5281 23.6419 47.2093 23.6419Z" fill="#0A0A0A"/>
<path d="M49.7326 16.0315C50.2246 15.8426 50.8821 15.6822 51.1998 15.6734L53.5148 15.6097C53.833 15.601 53.6914 15.7473 53.1994 15.9361L37.0239 22.1453C36.5309 22.3345 35.8743 22.4947 35.556 22.5034L33.2411 22.5671C32.9234 22.5758 33.0641 22.4299 33.5571 22.2407L49.7326 16.0315Z" fill="white"/>
<path d="M33.2126 22.6195C33.1249 22.6195 33.0332 22.6065 33.0191 22.5354C33.011 22.4946 32.9919 22.3991 33.5377 22.1896L49.7133 15.9804C50.2096 15.7898 50.8758 15.6276 51.1981 15.6188L53.5131 15.5551C53.6079 15.5525 53.7206 15.5596 53.7364 15.6388C53.7446 15.6797 53.7636 15.7753 53.2183 15.9847L37.0427 22.1938C36.5464 22.3843 35.88 22.5466 35.5573 22.5555L33.2423 22.6191C33.2326 22.6193 33.2225 22.6195 33.2126 22.6195ZM33.1397 22.5075C33.1578 22.5108 33.1878 22.5138 33.2393 22.5124L35.5543 22.4489C35.867 22.4402 36.5175 22.2812 37.0045 22.0943L53.1801 15.8851C53.4785 15.7706 53.5815 15.6985 53.6158 15.6668C53.5977 15.6635 53.5671 15.6604 53.516 15.6619L51.201 15.7256C50.8887 15.7341 50.2385 15.8931 49.7514 16.0801L33.5758 22.2893C33.2772 22.4039 33.1741 22.4759 33.1397 22.5075Z" fill="#0A0A0A"/>
<path d="M36.9029 21.3652C36.4016 21.5576 36.2573 21.7067 36.5809 21.6978C36.9052 21.6888 37.5745 21.5254 38.0758 21.333C38.5772 21.1405 38.7221 20.9914 38.3978 21.0004C38.0734 21.0093 37.4043 21.1728 36.9029 21.3652Z" fill="white"/>
<path d="M36.552 21.7502C36.4631 21.7502 36.3704 21.7371 36.356 21.6654C36.3477 21.624 36.3283 21.5271 36.8834 21.3141C37.3889 21.1201 38.0675 20.9548 38.396 20.9457C38.4937 20.9432 38.6064 20.9503 38.6223 21.0302C38.6305 21.0716 38.6498 21.1683 38.0945 21.3814C37.5889 21.5756 36.9103 21.7408 36.582 21.7499C36.5721 21.7501 36.562 21.7502 36.552 21.7502ZM36.4757 21.6378C36.4941 21.6414 36.5259 21.6446 36.5791 21.6431C36.8974 21.6343 37.56 21.4722 38.0564 21.2818C38.3648 21.1635 38.4686 21.0895 38.5025 21.0577C38.4843 21.0541 38.4524 21.051 38.3989 21.0524C38.0807 21.0611 37.4179 21.2232 36.9216 21.4136C36.6133 21.5319 36.5096 21.606 36.4757 21.6378Z" fill="#0A0A0A"/>
<path d="M48.6793 16.8437C48.178 17.0361 48.0337 17.1851 48.3573 17.1763C48.6816 17.1673 49.3508 17.0039 49.8522 16.8115C50.3537 16.6191 50.4985 16.4699 50.1742 16.4789C49.8498 16.4879 49.1816 16.651 48.6793 16.8437Z" fill="white"/>
<path d="M48.3295 17.2309C48.2406 17.2309 48.1478 17.2177 48.1334 17.146C48.1251 17.1046 48.1057 17.0078 48.6608 16.7947C49.1663 16.6007 49.8449 16.4353 50.1734 16.4263C50.2698 16.4234 50.3839 16.4308 50.3999 16.5108C50.4081 16.552 50.4274 16.6488 49.8719 16.862C49.3665 17.056 48.6879 17.2213 48.3594 17.2304C48.3496 17.2307 48.3395 17.2309 48.3295 17.2309ZM48.2531 17.1184C48.2715 17.1221 48.3032 17.1253 48.3565 17.1238C48.6749 17.1149 49.3376 16.9529 49.8338 16.7625C50.1422 16.6441 50.2462 16.5702 50.2801 16.5384C50.2619 16.5348 50.2303 16.5317 50.1763 16.5331C49.8581 16.5418 49.1953 16.7039 48.699 16.8943C48.3907 17.0126 48.287 17.0867 48.2531 17.1184Z" fill="#0A0A0A"/>
<path d="M37.0241 22.1445C36.5311 22.3338 35.8746 22.4939 35.5563 22.5026L33.2412 22.5663C33.1351 22.5692 33.0802 22.5549 33.0723 22.5275L38.3047 40.8214C38.3125 40.8489 38.3676 40.8631 38.4736 40.8603L40.7886 40.7966C41.1068 40.7878 41.7634 40.6277 42.2564 40.4385L37.0241 22.1445Z" fill="#94C1F7"/>
<path d="M38.4451 40.9144C38.3606 40.9144 38.2718 40.9022 38.253 40.8365L33.0206 22.543C33.0125 22.5147 33.0289 22.4847 33.0572 22.4766C33.0819 22.4698 33.1074 22.4811 33.1189 22.5028C33.128 22.5067 33.1581 22.5159 33.2392 22.5134L35.5542 22.4498C35.867 22.4412 36.5174 22.2821 37.0045 22.0953C37.0185 22.09 37.034 22.0907 37.0473 22.0974C37.0607 22.1041 37.0707 22.1161 37.0748 22.1305L42.3073 40.4244C42.3149 40.4511 42.3009 40.4791 42.2751 40.4889C41.7788 40.6794 41.1124 40.8416 40.7896 40.8505L38.4745 40.9142C38.4648 40.9144 38.4549 40.9144 38.4451 40.9144ZM38.3527 40.7974C38.3634 40.8014 38.3942 40.8094 38.4716 40.8073L40.7866 40.7436C41.0896 40.7353 41.7098 40.5857 42.1911 40.4063L36.9881 22.2152C36.4984 22.3967 35.8681 22.5478 35.5571 22.5563L33.2421 22.6199C33.2129 22.6207 33.1822 22.6205 33.153 22.6176L38.3527 40.7974Z" fill="#0A0A0A"/>
<path d="M47.4055 11.7028C46.6485 9.05619 44.5146 7.39272 42.2567 7.4548L41.1182 7.48606C43.376 7.42398 45.51 9.08745 46.267 11.7341L47.8512 17.2727L48.9897 17.2415L47.4055 11.7028Z" fill="#0E38A3"/>
<path d="M47.8508 17.3264C47.827 17.3264 47.8061 17.3107 47.7996 17.2878L46.2154 11.7491C45.4887 9.20818 43.3927 7.47709 41.1193 7.53981H41.1178C41.0889 7.53981 41.0653 7.51687 41.0645 7.48797C41.0636 7.45853 41.0869 7.43399 41.1163 7.43314L42.2549 7.40189C44.5769 7.34173 46.7162 9.10077 47.4564 11.6885L49.0406 17.2272C49.0452 17.2431 49.0422 17.2601 49.0324 17.2734C49.0226 17.2866 49.0073 17.2947 48.9908 17.2952L47.8523 17.3265L47.8508 17.3264ZM42.0888 7.51303C44.0169 7.88498 45.6825 9.49831 46.3178 11.7196L47.8906 17.2186L48.919 17.1904L47.3538 11.7177C46.627 9.17682 44.5294 7.44626 42.2578 7.50845L42.0888 7.51303Z" fill="#0A0A0A"/>
<path d="M41.4744 5.33268L40.3359 5.36393C40.5768 5.3282 40.8175 5.3074 41.0573 5.30078L42.1958 5.26953C41.956 5.27614 41.7152 5.29705 41.4744 5.33268Z" fill="white"/>
<path d="M40.3355 5.41786C40.3079 5.41786 40.2847 5.39674 40.2824 5.36912C40.2799 5.34106 40.2998 5.31579 40.3277 5.31173C40.5681 5.27611 40.813 5.25466 41.0554 5.24805L42.194 5.2168H42.1954C42.2243 5.2168 42.2479 5.23973 42.2488 5.26864C42.2496 5.29808 42.2264 5.32261 42.1969 5.32346H42.1946C41.9569 5.33018 41.7171 5.3512 41.4818 5.38608C41.4797 5.3864 41.4777 5.3865 41.4754 5.38661L40.337 5.41786H40.3355Z" fill="#0A0A0A"/>
<path d="M40.1543 5.68106C43.8926 4.24607 47.9798 6.66783 49.2368 11.0627L50.8047 16.5443L48.9887 17.2414L47.4045 11.7027C46.4796 8.46911 43.4991 6.70303 40.7486 7.75882C37.9981 8.8146 36.5185 12.2928 37.4434 15.5264L39.0277 21.0651L37.2108 21.7624L35.6429 16.2808C34.3858 11.8859 36.4159 7.11604 40.1543 5.68106Z" fill="#94C1F7"/>
<path d="M37.2115 21.8151C37.2033 21.8151 37.1952 21.8132 37.1876 21.8095C37.1742 21.8027 37.1642 21.7908 37.1602 21.7764L35.5924 16.2948C34.3246 11.8627 36.3629 7.07869 40.1361 5.63037C41.7907 4.99527 43.5941 5.09074 45.2142 5.89928C47.1433 6.86184 48.6284 8.73821 49.2888 11.0472L50.8566 16.5289C50.8642 16.5556 50.8502 16.5835 50.8244 16.5934L49.0085 17.2904C48.9945 17.2958 48.979 17.295 48.9656 17.2883C48.9523 17.2816 48.9422 17.2696 48.9382 17.2552L47.354 11.7166C46.8755 10.0435 45.8062 8.68743 44.4205 7.99602C43.259 7.4165 41.9621 7.34962 40.7684 7.80776C38.0475 8.85224 36.5793 12.3078 37.4953 15.5109L39.0795 21.0496C39.0871 21.0762 39.0731 21.1042 39.0473 21.114L37.2305 21.8115C37.2243 21.8138 37.218 21.8151 37.2115 21.8151ZM42.3624 5.32168C41.6231 5.32168 40.8846 5.45725 40.1741 5.7301C36.4515 7.15912 34.4421 11.8853 35.6949 16.2656L37.2468 21.6912L38.9637 21.0321L37.3929 15.5403C36.4619 12.2855 37.9591 8.77202 40.7303 7.70823C41.9523 7.23933 43.2798 7.3076 44.4682 7.90056C45.8806 8.60541 46.9699 9.98557 47.4566 11.6872L49.0248 17.1699L50.7408 16.5112L49.1864 11.0766C48.5341 8.79624 47.069 6.94397 45.1667 5.99463C44.2696 5.54695 43.3154 5.32168 42.3624 5.32168Z" fill="#0A0A0A"/>
<path d="M40.3361 5.36328C39.8949 5.42867 39.4534 5.54366 39.0166 5.71134C36.0854 6.83656 34.2044 10.012 34.1348 13.4494C34.1156 14.3959 34.2338 15.3623 34.5051 16.3112L36.073 21.7928L37.2115 21.7616L35.6436 16.28C35.3721 15.3311 35.254 14.3647 35.2731 13.4181C35.3428 9.98067 37.2237 6.8052 40.1549 5.68008C40.5916 5.5124 41.0332 5.39742 41.4744 5.33203L40.3361 5.36328Z" fill="white"/>
<path d="M36.0725 21.8468C36.0488 21.8468 36.0279 21.8311 36.0213 21.8081L34.4535 16.3265C34.1866 15.3933 34.0612 14.4252 34.0811 13.4489C34.1531 9.89252 36.1287 6.76324 38.9971 5.66212C39.4303 5.49583 39.878 5.37775 40.3279 5.31108C40.33 5.31076 40.3322 5.31055 40.3343 5.31055L41.4728 5.2793C41.4975 5.27983 41.5249 5.29978 41.5274 5.32804C41.5298 5.3561 41.51 5.38127 41.482 5.38543C41.0397 5.45103 40.5996 5.56719 40.174 5.7305C37.3456 6.81615 35.3976 9.90628 35.3263 13.4199C35.3067 14.3856 35.4307 15.3432 35.6946 16.266L37.2624 21.7477C37.267 21.7636 37.264 21.7806 37.2542 21.7939C37.2444 21.8072 37.2291 21.8152 37.2126 21.8157L36.0741 21.847L36.0725 21.8468ZM40.3403 5.41711C39.8991 5.48271 39.4601 5.59866 39.0352 5.76175C36.2068 6.8474 34.2589 9.93754 34.1877 13.4511C34.1681 14.4168 34.2922 15.3743 34.556 16.2972L36.1125 21.7391L37.1409 21.7109L35.592 16.2953C35.325 15.3622 35.1997 14.3941 35.2195 13.4176C35.2916 9.86116 37.2672 6.73188 40.1357 5.63087C40.3709 5.54052 40.6106 5.46436 40.8526 5.40303L40.3403 5.41711Z" fill="#0A0A0A"/>
<path d="M109.051 27.2141L107.56 26.9726L108.244 26.2891L109.735 26.5307L109.051 27.2141Z" fill="white"/>
<path d="M110.712 30.5993L109.221 30.3578L107.073 29.9844L108.564 30.2259L110.712 30.5993Z" fill="white"/>
<mask id="mask0_40000788_4909" style="mask-type:luminance" maskUnits="userSpaceOnUse" x="98" y="29" width="55" height="53">
<path d="M115.677 29.8654L152.627 51.1987L134.95 81.8161L97.9996 60.4827L115.677 29.8654Z" fill="white"/>
</mask>
<g mask="url(#mask0_40000788_4909)">
<path d="M135.715 80.2798C135.806 79.8616 135.742 79.4186 135.615 79.0153C135.572 78.8793 135.523 78.7455 135.466 78.6146L129.413 64.6855C129.233 65.1186 127.142 66.0275 126.713 65.859C126.768 65.9804 132.766 79.7995 132.821 79.9093C132.894 80.0635 132.978 80.213 133.07 80.357C133.664 81.4386 135.27 81.7758 135.715 80.2798Z" fill="#0E38A3"/>
<path d="M133.741 81.1202C134.019 81.2874 134.342 81.3624 134.665 81.3347C135.192 81.2782 135.583 80.9096 135.765 80.2967L135.766 80.2928C135.849 79.911 135.815 79.4763 135.665 79.0013C135.622 78.8638 135.572 78.7287 135.514 78.5964L129.461 64.6665C129.457 64.657 129.451 64.649 129.442 64.6433C129.433 64.6377 129.423 64.6347 129.413 64.6348C129.402 64.6349 129.392 64.638 129.384 64.6438C129.375 64.6495 129.369 64.6577 129.365 64.6672C129.197 65.0698 127.13 65.9685 126.732 65.812C126.722 65.8082 126.712 65.8073 126.702 65.8096C126.691 65.8119 126.682 65.8171 126.675 65.8247C126.668 65.8323 126.663 65.8419 126.661 65.8522C126.659 65.8625 126.661 65.8731 126.665 65.8826C126.685 65.9268 127.503 67.8098 128.538 70.1938C130.41 74.5021 132.738 79.8638 132.773 79.9346C132.848 80.0906 132.932 80.2418 133.025 80.3876C133.193 80.6922 133.44 80.9454 133.741 81.1202ZM135.664 80.2685C135.494 80.8369 135.135 81.1784 134.654 81.23C134.072 81.2923 133.44 80.9236 133.116 80.3336C133.024 80.1904 132.941 80.0418 132.868 79.8886C132.828 79.8052 130.404 74.2257 128.635 70.1518C127.723 68.051 126.979 66.3394 126.801 65.9311C127.373 65.9693 129.039 65.2452 129.404 64.7987L135.418 78.6375C135.473 78.7664 135.522 78.898 135.565 79.0319C135.709 79.4896 135.742 79.9054 135.664 80.2685Z" fill="#111111"/>
<path d="M126.713 65.8589C126.657 65.7296 127.216 65.3622 127.961 65.0382C128.707 64.7143 129.357 64.5565 129.413 64.6858C129.469 64.8151 128.91 65.1825 128.165 65.5065C127.419 65.8304 126.769 65.9882 126.713 65.8589Z" fill="white"/>
<path d="M126.71 65.9282C126.75 65.948 126.795 65.9574 126.84 65.9557C127.166 65.9604 127.986 65.6782 128.667 65.3267C128.984 65.1629 129.51 64.8611 129.468 64.6804C129.454 64.6204 129.393 64.5888 129.288 64.5875C128.962 64.5828 128.142 64.865 127.461 65.2165C127.144 65.3803 126.618 65.682 126.66 65.8628C126.663 65.8766 126.669 65.8896 126.678 65.9009C126.687 65.9121 126.698 65.9214 126.71 65.9282ZM129.364 64.7058L129.367 64.7074C129.368 64.7492 129.19 64.9383 128.619 65.2329C127.951 65.5778 127.153 65.8547 126.841 65.8502C126.776 65.8492 126.761 65.8354 126.761 65.8354C126.76 65.7936 126.939 65.6045 127.509 65.3099C128.178 64.965 128.975 64.6881 129.287 64.6926C129.313 64.6908 129.34 64.6953 129.364 64.7058Z" fill="#111111"/>
<path d="M122.998 57.3101C122.942 57.1808 123.501 56.8133 124.246 56.4894C124.992 56.1655 125.642 56.0077 125.698 56.137C125.754 56.2663 125.195 56.6337 124.45 56.9576C123.704 57.2816 123.054 57.4394 122.998 57.3101Z" fill="white"/>
<path d="M122.994 57.3792C123.034 57.399 123.079 57.4085 123.124 57.4068C123.45 57.4115 124.27 57.1293 124.951 56.7778C125.268 56.614 125.795 56.3123 125.752 56.1315C125.738 56.0715 125.678 56.0399 125.573 56.0386C125.246 56.0339 124.426 56.3161 123.745 56.6676C123.428 56.8314 122.902 57.1331 122.944 57.3139C122.947 57.3277 122.954 57.3407 122.962 57.3519C122.971 57.3632 122.982 57.3725 122.994 57.3792ZM125.648 56.1568L125.651 56.1585C125.652 56.2002 125.474 56.3894 124.903 56.6839C124.235 57.0288 123.437 57.3058 123.125 57.3013C123.06 57.3003 123.045 57.2865 123.045 57.2865C123.044 57.2448 123.223 57.0555 123.794 56.761C124.462 56.4161 125.259 56.1392 125.571 56.1436C125.598 56.1419 125.624 56.1464 125.648 56.1568Z" fill="#111111"/>
<path d="M129.393 64.7667C129.403 64.7558 129.41 64.7427 129.413 64.7284C129.417 64.7141 129.417 64.6991 129.413 64.6848L125.698 56.1357C125.691 56.5263 123.226 57.571 122.998 57.3092L126.713 65.8583C126.725 65.8862 126.766 65.902 126.84 65.9031C127.455 65.8649 128.921 65.2698 129.393 64.7667Z" fill="white"/>
<path d="M126.71 65.9308C126.75 65.95 126.794 65.9593 126.839 65.9578C127.489 65.9176 128.963 65.3035 129.431 64.8046C129.433 64.8026 129.435 64.8004 129.436 64.798C129.452 64.7801 129.462 64.7585 129.467 64.7353C129.471 64.7121 129.469 64.6882 129.462 64.6658L125.747 56.1166C125.742 56.1056 125.734 56.0966 125.723 56.091C125.712 56.0854 125.7 56.0837 125.688 56.086C125.676 56.0883 125.666 56.0946 125.658 56.1038C125.65 56.113 125.646 56.1245 125.646 56.1365C125.642 56.3169 124.835 56.78 123.985 57.0895C123.319 57.3322 123.074 57.3181 123.038 57.2765C123.03 57.267 123.018 57.2608 123.006 57.259C122.993 57.2572 122.981 57.2599 122.97 57.2666C122.959 57.2733 122.952 57.2836 122.948 57.2956C122.944 57.3076 122.945 57.3205 122.95 57.3321L126.665 65.8813C126.674 65.9024 126.69 65.9198 126.71 65.9308ZM129.351 64.736C128.893 65.2197 127.464 65.8137 126.836 65.8525C126.775 65.8516 126.76 65.8376 126.76 65.8376L123.095 57.4014C123.31 57.4234 123.698 57.3063 124.021 57.1885C124.512 57.0097 125.462 56.5852 125.697 56.2678L129.365 64.7078C129.362 64.7178 129.357 64.7273 129.351 64.736Z" fill="#111111"/>
<path d="M119.617 56.3396L118.193 56.2023C119.764 56.3537 121.398 56.0592 122.937 55.258C127.508 52.8791 129.515 46.9326 127.419 41.9766C126.027 38.6885 123.181 36.6628 120.089 36.3647L121.513 36.5022C124.605 36.8003 127.451 38.8259 128.842 42.114C130.939 47.0698 128.931 53.0164 124.361 55.3954C122.821 56.1968 121.187 56.491 119.617 56.3396Z" fill="white"/>
<path d="M118.167 56.2487C118.173 56.2524 118.181 56.2548 118.188 56.2555L119.612 56.3927C121.261 56.5453 122.92 56.2152 124.385 55.4427C128.973 53.0547 130.994 47.0667 128.89 42.0942C128.215 40.4989 127.163 39.1334 125.847 38.1455C124.587 37.1935 123.089 36.607 121.518 36.4505L120.094 36.3132C120.087 36.3126 120.08 36.3133 120.074 36.3153C120.067 36.3173 120.061 36.3206 120.055 36.325C120.05 36.3294 120.046 36.3348 120.042 36.3409C120.039 36.3471 120.037 36.3537 120.037 36.3606C120.036 36.3675 120.037 36.3745 120.039 36.3811C120.041 36.3877 120.044 36.3938 120.048 36.3992C120.053 36.4045 120.058 36.4089 120.064 36.4122C120.07 36.4154 120.077 36.4174 120.084 36.4181C121.636 36.5726 123.116 37.152 124.36 38.0925C125.661 39.0692 126.702 40.4198 127.37 41.9979C129.453 46.9209 127.453 52.8486 122.913 55.2121C121.465 55.9751 119.827 56.3012 118.198 56.1506C118.186 56.1495 118.174 56.1525 118.164 56.1591C118.154 56.1657 118.146 56.1756 118.143 56.187C118.139 56.1985 118.14 56.2108 118.144 56.2221C118.148 56.2333 118.156 56.2427 118.167 56.2487ZM124.908 37.6514C125.211 37.8264 125.504 38.0196 125.784 38.2298C127.085 39.2066 128.126 40.557 128.793 42.1352C130.876 47.0582 128.877 52.986 124.337 55.3494C122.889 56.1125 121.251 56.4385 119.622 56.2879L119.509 56.2771C120.715 56.1977 121.891 55.8667 122.962 55.3055C127.55 52.9173 129.571 46.9295 127.467 41.957C126.792 40.3616 125.739 38.9962 124.423 38.0083C123.521 37.3284 122.494 36.8314 121.401 36.545L121.507 36.5553C122.706 36.6732 123.866 37.047 124.908 37.6514Z" fill="#111111"/>
<path d="M119.617 56.3396L118.193 56.2023C119.764 56.3537 121.398 56.0592 122.937 55.258C127.508 52.8791 129.515 46.9326 127.419 41.9766C126.027 38.6885 123.181 36.6628 120.089 36.3647L121.513 36.5022C124.605 36.8003 127.451 38.8259 128.842 42.114C130.939 47.0698 128.931 53.0164 124.361 55.3954C122.821 56.1968 121.187 56.491 119.617 56.3396Z" fill="white"/>
<path d="M118.167 56.2487C118.173 56.2524 118.181 56.2548 118.188 56.2555L119.612 56.3927C121.261 56.5453 122.92 56.2152 124.385 55.4427C128.973 53.0547 130.994 47.0667 128.89 42.0942C128.215 40.4989 127.163 39.1334 125.847 38.1455C124.587 37.1935 123.089 36.607 121.518 36.4505L120.094 36.3132C120.087 36.3126 120.08 36.3133 120.074 36.3153C120.067 36.3173 120.061 36.3206 120.055 36.325C120.05 36.3294 120.046 36.3348 120.042 36.3409C120.039 36.3471 120.037 36.3537 120.037 36.3606C120.036 36.3675 120.037 36.3745 120.039 36.3811C120.041 36.3877 120.044 36.3938 120.048 36.3992C120.053 36.4045 120.058 36.4089 120.064 36.4122C120.07 36.4154 120.077 36.4174 120.084 36.4181C121.636 36.5726 123.116 37.152 124.36 38.0925C125.661 39.0692 126.702 40.4198 127.37 41.9979C129.453 46.9209 127.453 52.8486 122.913 55.2121C121.465 55.9751 119.827 56.3012 118.198 56.1506C118.186 56.1495 118.174 56.1525 118.164 56.1591C118.154 56.1657 118.146 56.1756 118.143 56.187C118.139 56.1985 118.14 56.2108 118.144 56.2221C118.148 56.2333 118.156 56.2427 118.167 56.2487ZM124.908 37.6514C125.211 37.8264 125.504 38.0196 125.784 38.2298C127.085 39.2066 128.126 40.557 128.793 42.1352C130.876 47.0582 128.877 52.986 124.337 55.3494C122.889 56.1125 121.251 56.4385 119.622 56.2879L119.509 56.2771C120.715 56.1977 121.891 55.8667 122.962 55.3055C127.55 52.9173 129.571 46.9295 127.467 41.957C126.792 40.3616 125.739 38.9962 124.423 38.0083C123.521 37.3284 122.494 36.8314 121.401 36.545L121.507 36.5553C122.706 36.6732 123.866 37.047 124.908 37.6514Z" fill="#111111"/>
<path d="M128.842 42.114C130.939 47.0698 128.931 53.0165 124.361 55.3954C119.79 57.7743 114.386 55.6854 112.29 50.7294C110.192 45.7707 112.196 39.8254 116.767 37.4466C121.337 35.0678 126.744 37.1552 128.842 42.114Z" fill="white"/>
<path d="M116.153 55.276C116.604 55.5362 117.077 55.7557 117.567 55.9318C119.808 56.7379 122.229 56.5637 124.385 55.4415C128.973 53.0535 130.994 47.0655 128.89 42.093C127.839 39.6079 125.947 37.7667 123.563 36.9093C121.321 36.1029 118.899 36.277 116.743 37.3996C112.156 39.7869 110.137 45.7756 112.241 50.7496C113.075 52.7195 114.437 54.2848 116.153 55.276ZM128.793 42.1339C130.876 47.0569 128.877 52.9846 124.337 55.3481C122.207 56.4565 119.815 56.6287 117.603 55.8327C115.247 54.9853 113.378 53.1655 112.338 50.7084C110.254 45.7838 112.252 39.8554 116.791 37.4928C118.921 36.384 121.314 36.2119 123.527 37.0082C125.883 37.8556 127.753 39.6762 128.793 42.1339Z" fill="#111111"/>
<path d="M119.423 58.3791L117.999 58.2418C114.271 57.8823 110.84 55.4398 109.163 51.4778C106.634 45.5006 109.052 38.3301 114.562 35.4625C116.419 34.496 118.39 34.1409 120.284 34.3235L121.708 34.4608C119.813 34.2782 117.842 34.6332 115.985 35.5998C110.476 38.4675 108.058 45.638 110.587 51.6152C112.263 55.5771 115.694 58.0196 119.423 58.3791Z" fill="url(#paint2_linear_40000788_4909)"/>
<path d="M113.847 56.9571C115.118 57.6942 116.532 58.15 117.994 58.2939L119.418 58.4311C119.424 58.4318 119.431 58.4312 119.438 58.4292C119.445 58.4272 119.451 58.4239 119.456 58.4195C119.462 58.4151 119.466 58.4097 119.47 58.4036C119.473 58.3974 119.475 58.3907 119.475 58.3838C119.476 58.3769 119.475 58.3699 119.473 58.3632C119.471 58.3566 119.468 58.3504 119.464 58.3451C119.459 58.3397 119.454 58.3353 119.447 58.3321C119.441 58.3289 119.435 58.3269 119.428 58.3263C117.554 58.1396 115.769 57.4404 114.267 56.3055C112.697 55.127 111.441 53.4978 110.635 51.5942C108.121 45.6512 110.532 38.4971 116.01 35.6459C117.794 34.7175 119.762 34.3257 121.702 34.5127C121.716 34.514 121.73 34.5098 121.741 34.5009C121.752 34.492 121.759 34.4792 121.76 34.4653C121.761 34.4514 121.757 34.4376 121.748 34.4268C121.739 34.416 121.726 34.4092 121.713 34.4079L120.289 34.2706C118.328 34.0815 116.339 34.4774 114.538 35.4152C111.861 36.8086 109.822 39.2489 108.798 42.2867C107.774 45.3245 107.887 48.595 109.115 51.4977C109.928 53.4185 111.195 55.0628 112.78 56.2522C113.121 56.5084 113.478 56.7437 113.847 56.9571ZM117.982 58.1866C116.117 57.9964 114.34 57.2981 112.844 56.1678C111.273 54.9892 110.017 53.36 109.212 51.4564C106.698 45.5137 109.109 38.3593 114.587 35.5082C116.366 34.5822 118.328 34.19 120.264 34.3735C118.761 34.4512 117.294 34.8533 115.961 35.552C113.285 36.9454 111.246 39.3857 110.222 42.4236C109.198 45.4615 109.311 48.7321 110.539 51.6347C111.351 53.5557 112.619 55.1998 114.204 56.3895C115.329 57.2372 116.615 57.8485 117.982 58.1866Z" fill="#111111"/>
<path d="M115.986 35.5991C110.476 38.4668 108.058 45.6373 110.587 51.6145C113.115 57.5888 119.633 60.1081 125.142 57.2405C130.654 54.3714 133.073 47.2009 130.545 41.2265C128.016 35.2493 121.498 32.73 115.986 35.5991ZM112.29 50.7283C110.192 45.7696 112.196 39.8243 116.767 37.4455C121.337 35.0666 126.744 37.1541 128.842 42.1128C130.939 47.0687 128.931 53.0153 124.361 55.3943C119.79 57.7733 114.386 55.6843 112.29 50.7283Z" fill="#BDDFFF"/>
<path d="M115.269 57.0966C115.806 57.4069 116.37 57.6686 116.954 57.8785C119.654 58.8495 122.57 58.64 125.166 57.2886C127.844 55.8948 129.883 53.4543 130.908 50.4163C131.932 47.3793 131.821 44.1091 130.593 41.2073C129.98 39.7354 129.072 38.4049 127.924 37.2979C126.853 36.2641 125.576 35.4684 124.176 34.9629C121.476 33.9918 118.559 34.2017 115.961 35.5537C113.284 36.947 111.246 39.3874 110.222 42.4252C109.198 45.4631 109.31 48.7338 110.538 51.6364C111.151 53.1077 112.059 54.4377 113.207 55.5441C113.829 56.1425 114.521 56.6638 115.269 57.0966ZM125.808 35.8362C126.549 36.2649 127.235 36.7812 127.851 37.374C128.988 38.4711 129.889 39.7898 130.496 41.2486C133.01 47.1897 130.597 54.3433 125.118 57.1952C122.548 58.5329 119.661 58.7405 116.99 57.7795C115.604 57.2791 114.34 56.4915 113.279 55.4683C112.142 54.3718 111.242 53.0537 110.635 51.5956C108.121 45.6526 110.532 38.4985 116.01 35.6473C118.581 34.3089 121.468 34.1012 124.14 35.0622C124.718 35.27 125.276 35.529 125.808 35.8362ZM116.154 55.2769C116.604 55.5371 117.077 55.7566 117.567 55.9327C119.808 56.7388 122.229 56.5647 124.385 55.4424C128.973 53.0544 130.994 47.0664 128.891 42.0939C127.839 39.6088 125.947 37.7677 123.563 36.9102C121.322 36.1038 118.899 36.2779 116.743 37.4005C112.156 39.7878 110.137 45.7765 112.241 50.7505C113.075 52.7204 114.437 54.2857 116.154 55.2769ZM124.924 37.6571C126.622 38.6372 127.969 40.1855 128.793 42.1348C130.876 47.0578 128.877 52.9856 124.337 55.3489C122.207 56.4574 119.815 56.6295 117.603 55.8336C115.247 54.9862 113.378 53.1664 112.338 50.7093C110.254 45.7847 112.252 39.8563 116.791 37.4937C118.921 36.3849 121.314 36.2128 123.527 37.0091C124.011 37.1831 124.479 37.4 124.924 37.6571Z" fill="#111111"/>
</g>
</g>
<defs>
<linearGradient id="paint0_linear_40000788_4909" x1="99.4715" y1="16.8622" x2="96.0931" y2="75.2865" gradientUnits="userSpaceOnUse">
<stop stop-color="#2B69E3"/>
<stop offset="0.642" stop-color="#0A2D7D"/>
<stop offset="1" stop-color="#0A0A0A"/>
</linearGradient>
<linearGradient id="paint1_linear_40000788_4909" x1="14.2177" y1="78.2072" x2="108.104" y2="78.2072" gradientUnits="userSpaceOnUse">
<stop stop-color="#D9EEFF"/>
<stop offset="0.035" stop-color="#D9EEFF"/>
<stop offset="0.354" stop-color="#94C1F7"/>
<stop offset="0.5" stop-color="#94C1F7"/>
<stop offset="0.618" stop-color="#0E38A3"/>
<stop offset="0.801" stop-color="#0E38A3"/>
<stop offset="0.933" stop-color="#0E111B"/>
<stop offset="1" stop-color="#0A0A0A"/>
</linearGradient>
<linearGradient id="paint2_linear_40000788_4909" x1="115.982" y1="35.2173" x2="113.296" y2="55.8092" gradientUnits="userSpaceOnUse">
<stop offset="0.326" stop-color="#0E38A3"/>
<stop offset="0.769" stop-color="#BDDFFF"/>
<stop offset="1" stop-color="#0E38A3"/>
</linearGradient>
<clipPath id="clip0_40000788_4909">
<rect width="160" height="96" fill="white"/>
</clipPath>
</defs>
</svg>
