<svg width="120" height="120" viewBox="0 0 120 120" fill="none" xmlns="http://www.w3.org/2000/svg">
<mask id="mask0_40000788_5067" style="mask-type:luminance" maskUnits="userSpaceOnUse" x="8" y="10" width="102" height="91">
<path d="M109.713 43.5116L33.293 10.1719L8.32174 67.4099L84.7417 100.75L109.713 43.5116Z" fill="white"/>
</mask>
<g mask="url(#mask0_40000788_5067)">
<path d="M46.9362 25.0676L40.3896 14.5303L39.1113 16.2453L45.6578 26.7826C45.6378 26.8304 45.4662 27.24 45.0438 27.8068L46.322 26.0918C46.7445 25.5249 46.9161 25.1155 46.9362 25.0676Z" fill="#0E38A3"/>
<path d="M45.0018 27.9012C44.9872 27.8948 44.9743 27.8853 44.964 27.8733C44.9536 27.8612 44.9461 27.847 44.9421 27.8317C44.938 27.8163 44.9374 27.8003 44.9404 27.7847C44.9434 27.7691 44.9499 27.7544 44.9594 27.7417L44.9606 27.7399C45.2986 27.2862 45.4726 26.9374 45.5393 26.7889L39.0218 16.2987C39.0106 16.2807 39.0051 16.2598 39.006 16.2387C39.0069 16.2175 39.0142 16.1971 39.0269 16.1802L40.3052 14.4652C40.3155 14.4514 40.3289 14.4404 40.3444 14.433C40.3599 14.4257 40.3769 14.4222 40.3941 14.4229C40.4112 14.4237 40.4279 14.4286 40.4427 14.4372C40.4575 14.4458 40.47 14.458 40.479 14.4725L47.0256 25.0098C47.0345 25.0241 47.0398 25.0403 47.0411 25.057C47.0425 25.0738 47.0398 25.0906 47.0333 25.1061C46.9873 25.2161 46.8058 25.6168 46.4065 26.1526L45.1282 27.8676C45.114 27.8866 45.0938 27.9003 45.0708 27.9064C45.0479 27.9125 45.0236 27.9106 45.0018 27.9012ZM39.2386 16.2485L45.7338 26.7028L46.2378 26.0266C46.5766 25.5721 46.7509 25.2226 46.8177 25.074L40.3817 14.7148L39.2386 16.2485Z" fill="#111111"/>
<path d="M42.9602 37.9218L41.6819 39.6368C41.3 39.6087 34.0451 39.0765 30.7378 33.753C27.3231 28.2568 26.6337 24.1836 28.5849 21.5656L29.8632 19.8506C27.912 22.4686 28.6014 26.5419 32.0161 32.0381C35.3234 37.3615 42.5784 37.8938 42.9602 37.9218Z" fill="#0E38A3"/>
<path d="M36.1441 38.3413C34.1468 37.4699 32.0475 36.0673 30.6478 33.8143C27.233 28.318 26.5103 24.1776 28.5 21.5084L29.7783 19.7934C29.795 19.771 29.8199 19.7562 29.8476 19.7521C29.8752 19.7481 29.9033 19.7552 29.9257 19.7719C29.9481 19.7886 29.9629 19.8135 29.9669 19.8412C29.971 19.8688 29.9638 19.8969 29.9471 19.9193C28.0145 22.5122 28.7405 26.5729 32.1051 31.9882C35.2927 37.1187 42.1913 37.7657 42.9675 37.8225C42.9863 37.8239 43.0044 37.8303 43.0199 37.841C43.0354 37.8518 43.0477 37.8666 43.0556 37.8837C43.0634 37.9009 43.0665 37.9199 43.0644 37.9387C43.0624 37.9575 43.0554 37.9754 43.0441 37.9905L41.7658 39.7054C41.7443 39.7342 41.7095 39.7502 41.6737 39.7475C41.2263 39.7148 38.7735 39.4885 36.1441 38.3413ZM29.0599 21.1094L28.6687 21.6343C26.7361 24.2271 27.4621 28.2878 30.8267 33.7031C33.9465 38.7248 40.6224 39.4511 41.6316 39.533L42.762 38.0165C41.3899 37.8865 34.9863 37.0251 31.9261 32.0993C29.0294 27.437 28.07 23.7502 29.0599 21.1094Z" fill="#111111"/>
<path d="M85.4925 95.32L84.2142 97.035C84.803 96.2451 84.8389 95.0957 84.2059 94.0768C83.3395 92.6824 81.5489 92.0612 80.2066 92.6886C79.8447 92.8578 79.5522 93.1003 79.335 93.3917L80.6133 91.6767C80.8305 91.3854 81.123 91.1428 81.4849 90.9736C82.8271 90.3461 84.6178 90.9674 85.4842 92.3618C86.1171 93.3807 86.0813 94.53 85.4925 95.32Z" fill="#0E38A3"/>
<path d="M84.1729 97.1353C84.1584 97.1289 84.1455 97.1194 84.1351 97.1074C84.1248 97.0953 84.1173 97.0811 84.1132 97.0658C84.1091 97.0504 84.1086 97.0344 84.1116 97.0188C84.1146 97.0032 84.121 96.9885 84.1305 96.9757L84.1311 96.9749C84.7106 96.1966 84.7052 95.0825 84.1172 94.1361C83.2795 92.7879 81.5455 92.1831 80.2519 92.7878C79.9141 92.9458 79.6342 93.1715 79.4202 93.4585C79.4035 93.4809 79.3786 93.4958 79.3509 93.4998C79.3233 93.5039 79.2952 93.4967 79.2728 93.48C79.2504 93.4633 79.2356 93.4384 79.2316 93.4108C79.2276 93.3831 79.2347 93.355 79.2514 93.3326L80.5297 91.6176C80.7647 91.3023 81.0714 91.0548 81.441 90.882C82.8281 90.2337 84.6823 90.8743 85.5743 92.3099C86.2085 93.3307 86.2098 94.5384 85.5776 95.3867L84.3005 97.1002L84.2993 97.1018C84.2851 97.1208 84.2649 97.1345 84.2419 97.1406C84.219 97.1467 84.1947 97.1447 84.1729 97.1353ZM82.6767 92.6315C83.322 92.913 83.9026 93.3915 84.2961 94.0249C84.7277 94.7196 84.8662 95.501 84.7114 96.1965L85.4089 95.2607C85.989 94.4824 85.9837 93.3679 85.3955 92.4211C84.5579 91.0729 82.8238 90.468 81.5302 91.0728C81.1924 91.2307 80.9126 91.4564 80.6985 91.7435L80.0006 92.6798C80.0532 92.6505 80.1073 92.6229 80.1628 92.5969C80.9379 92.2345 81.8593 92.2748 82.6767 92.6315Z" fill="#111111"/>
<path d="M85.3003 97.1209C83.3718 98.0225 80.8014 97.1482 79.5306 95.1603L42.9599 37.9287L41.6816 39.6436L78.2523 96.8753C79.5231 98.8632 82.0936 99.7373 84.0221 98.8358C84.5461 98.5909 84.9701 98.2392 85.285 97.8166L86.5633 96.1017C86.2484 96.5243 85.8244 96.8759 85.3003 97.1209Z" fill="#0E38A3"/>
<path d="M80.4553 98.8737C79.5464 98.4771 78.7263 97.8103 78.1636 96.93L41.5928 39.6984C41.5812 39.6804 41.5755 39.6593 41.5762 39.6379C41.577 39.6165 41.5843 39.5958 41.5971 39.5786L42.8754 37.8637C42.8856 37.85 42.8989 37.8391 42.9143 37.8317C42.9297 37.8244 42.9466 37.8208 42.9636 37.8214C42.9806 37.822 42.9972 37.8268 43.012 37.8352C43.0268 37.8436 43.0393 37.8555 43.0485 37.8699L79.6192 95.1015C80.8558 97.0361 83.3843 97.8983 85.2557 97.0234C85.7522 96.7914 86.1636 96.4594 86.4787 96.0368C86.487 96.0257 86.4974 96.0163 86.5092 96.0092C86.5211 96.0022 86.5343 95.9975 86.548 95.9955C86.5617 95.9935 86.5756 95.9942 86.589 95.9976C86.6024 96.0009 86.615 96.007 86.6261 96.0153C86.6372 96.0235 86.6465 96.0339 86.6536 96.0458C86.6607 96.0577 86.6654 96.0708 86.6674 96.0845C86.6693 96.0982 86.6686 96.1122 86.6652 96.1256C86.6618 96.139 86.6558 96.1516 86.6475 96.1627L85.3692 97.8777C85.0333 98.3284 84.595 98.6822 84.0664 98.9292C82.9585 99.4472 81.6324 99.3873 80.4553 98.8737ZM41.8094 39.6462L78.3411 96.8165C79.5776 98.7511 82.1061 99.6132 83.9775 98.7384C84.4741 98.5064 84.8856 98.1744 85.2007 97.7517L85.781 96.973C85.6414 97.0634 85.4957 97.1439 85.345 97.2142C83.3814 98.1319 80.7333 97.2352 79.4419 95.2151L42.9531 38.1118L41.8094 39.6462Z" fill="#111111"/>
<path d="M40.3891 14.5331C44.3244 14.0143 48.2077 16.7285 51.9377 22.7322C55.245 28.0556 51.7681 33.6045 51.5852 33.8966L86.5847 91.8627C87.8002 93.8765 87.2283 96.2195 85.3008 97.1205C83.3723 98.022 80.8018 97.1479 79.531 95.16L42.9603 37.9283C42.5784 37.9003 35.3235 37.3681 32.0162 32.0446C28.2861 26.0409 27.8079 21.735 30.4714 19.1692L37.0179 29.7065C37.1542 29.7346 39.7428 30.269 42.8614 28.8112C45.9792 27.3538 46.8879 25.1845 46.9357 25.0704L40.3891 14.5331ZM84.6229 96.0294C85.9651 95.4019 86.3517 93.7631 85.4853 92.3687C84.619 90.9743 82.8283 90.3531 81.486 90.9805C80.1429 91.6083 79.7563 93.2473 80.6227 94.6416C81.489 96.0361 83.2797 96.6572 84.6229 96.0294Z" fill="#94C1F7"/>
<path d="M81.7341 97.1579C80.8251 96.7613 80.005 96.0945 79.4424 95.2142L42.8999 38.0268C41.8953 37.9458 35.1065 37.2153 31.9269 32.0976C28.1926 26.0873 27.6784 21.7111 30.3984 19.0907C30.4098 19.0799 30.4234 19.0717 30.4383 19.0667C30.4532 19.0618 30.469 19.0602 30.4845 19.0622C30.5001 19.0641 30.5151 19.0695 30.5283 19.078C30.5415 19.0864 30.5527 19.0977 30.5609 19.1111L37.0835 29.6095C37.517 29.6915 39.9377 30.0593 42.817 28.7134C45.6592 27.3848 46.642 25.4657 46.8174 25.0766L40.2999 14.5861C40.2905 14.5712 40.2851 14.5541 40.2841 14.5366C40.2831 14.519 40.2865 14.5014 40.294 14.4855C40.3016 14.4695 40.313 14.4558 40.3272 14.4454C40.3415 14.435 40.3581 14.4284 40.3755 14.4261C44.379 13.8983 48.2992 16.6735 52.0273 22.6741C55.1931 27.7696 52.2122 33.0702 51.7087 33.8948L86.675 91.8059C87.3112 92.8598 87.4922 94.0683 87.1717 95.1218C86.8885 96.0526 86.2401 96.7954 85.3455 97.2136C84.2374 97.7315 82.9113 97.6713 81.7341 97.1579ZM43.0025 37.8292C43.0214 37.8375 43.0377 37.8513 43.0492 37.869L79.62 95.1007C80.8564 97.0354 83.3851 97.8973 85.2565 97.0226C86.0963 96.6301 86.7049 95.9332 86.9703 95.0605C87.2734 94.0641 87.1 92.9174 86.4948 91.9148L51.4951 33.9486C51.485 33.9319 51.4798 33.9127 51.48 33.8932C51.4801 33.8737 51.4857 33.8547 51.4961 33.8381C51.8671 33.246 55.0292 27.9051 51.8484 22.7853C48.2188 16.9433 44.424 14.1955 40.566 14.6154L47.0253 25.0122C47.0342 25.0265 47.0396 25.0426 47.0409 25.0594C47.0422 25.0762 47.0395 25.093 47.0331 25.1085C46.9337 25.346 45.9732 27.4704 42.9061 28.9041C39.8446 30.3352 37.2793 29.8653 36.9968 29.807C36.9828 29.8041 36.9696 29.7984 36.9579 29.7903C36.9461 29.7821 36.9362 29.7716 36.9287 29.7595L30.4516 19.3341C27.9188 21.8868 28.4749 26.1424 32.1059 31.9864C35.2934 37.117 42.192 37.7639 42.9682 37.8207C42.9801 37.8216 42.9915 37.8244 43.0025 37.8292ZM82.1526 96.0878C81.5074 95.8063 80.9269 95.328 80.5335 94.6947C80.0747 93.9563 79.9385 93.1053 80.16 92.36C80.3555 91.7022 80.8106 91.1775 81.4416 90.8824C82.8287 90.2342 84.6829 90.8747 85.5749 92.3103C86.0338 93.0489 86.17 93.9 85.9485 94.6454C85.7531 95.3029 85.2982 95.8274 84.6676 96.1222C83.8921 96.4847 82.9703 96.4446 82.1526 96.0878ZM83.8702 91.1076C83.1076 90.7749 82.2511 90.7367 81.5308 91.0734C80.9551 91.3424 80.5398 91.8208 80.3618 92.4199C80.1575 93.1076 80.2851 93.8962 80.7123 94.5835C81.5501 95.9317 83.2843 96.5363 84.5784 95.9314C85.1537 95.6625 85.5686 95.1846 85.7466 94.5856C85.9509 93.8979 85.8232 93.1092 85.3961 92.4217C85.0249 91.8242 84.4772 91.3725 83.8702 91.1076Z" fill="#111111"/>
</g>
<mask id="mask1_40000788_5067" style="mask-type:luminance" maskUnits="userSpaceOnUse" x="52" y="24" width="57" height="58">
<path d="M108.047 24.4297H52.2227V81.5977H108.047V24.4297Z" fill="white"/>
</mask>
<g mask="url(#mask1_40000788_5067)">
<path d="M107.907 78.5479L100.976 29.5675C100.946 29.3532 100.886 29.1445 100.796 28.9477L99.3948 25.8828C99.4843 26.0796 99.5448 26.2884 99.5744 26.5026L106.506 75.4831C106.767 77.3263 104.787 78.8853 102.942 78.289L53.9373 62.4513C53.2599 62.2323 52.7873 61.7828 52.5391 61.2398L53.9405 64.3047C54.1888 64.8476 54.6613 65.2972 55.3387 65.5161L104.343 81.3538C106.189 81.9501 108.168 80.3911 107.907 78.5479Z" fill="#0E38A3"/>
<path d="M105.171 81.5972C104.882 81.5972 104.592 81.5526 104.31 81.4613L55.305 65.6236C54.6351 65.4071 54.1141 64.955 53.8377 64.3506L52.4362 61.2857C52.4235 61.2579 52.4224 61.2263 52.433 61.1977C52.4436 61.1691 52.4651 61.1458 52.4929 61.1331C52.5206 61.1204 52.5522 61.1193 52.5808 61.1299C52.6093 61.1405 52.6325 61.1621 52.6452 61.1898C52.8944 61.7349 53.3665 62.1432 53.9743 62.3397L102.979 78.1775C103.844 78.4571 104.792 78.2598 105.516 77.6499C106.178 77.0923 106.505 76.2877 106.394 75.4973L99.4621 26.5167C99.4342 26.3145 99.3773 26.1174 99.2932 25.9315L99.2918 25.9287C99.2792 25.9009 99.2781 25.8693 99.2887 25.8407C99.2993 25.8121 99.3208 25.7889 99.3485 25.7761C99.3622 25.7698 99.377 25.7663 99.3921 25.7657C99.4072 25.7651 99.4222 25.7676 99.4363 25.7728C99.4505 25.7781 99.4634 25.7861 99.4745 25.7964C99.4855 25.8067 99.4944 25.8191 99.5007 25.8328L100.902 28.8978C100.996 29.1047 101.06 29.3242 101.091 29.5495L108.022 78.5298C108.146 79.3994 107.788 80.2819 107.065 80.8909C106.516 81.3539 105.847 81.5972 105.171 81.5972ZM53.0618 62.1011L54.0466 64.2548C54.2958 64.7998 54.7679 65.2082 55.3757 65.4047L104.381 81.2424C105.245 81.522 106.194 81.3248 106.918 80.7149C107.579 80.1573 107.907 79.3525 107.795 78.5621L100.864 29.5817C100.836 29.3784 100.778 29.1804 100.693 28.9936L99.7542 26.9395L106.621 75.4651C106.744 76.3345 106.387 77.217 105.664 77.826C104.88 78.4874 103.85 78.7006 102.909 78.3965L53.9037 62.5587C53.5863 62.4561 53.3023 62.3006 53.0618 62.1011Z" fill="#111111"/>
<path d="M106.505 75.4848C106.767 77.328 104.787 78.8871 102.942 78.2907L53.9371 62.4531C52.0935 61.8572 51.7669 59.5529 53.3507 58.306L95.4241 25.163C96.216 24.5394 97.1885 24.4142 97.9956 24.675C98.8026 24.9357 99.4442 25.5828 99.5742 26.5042L106.505 75.4848Z" fill="white"/>
<path d="M103.771 78.5346C103.482 78.5346 103.192 78.49 102.909 78.3988L53.9047 62.561C53.0308 62.2786 52.4165 61.5919 52.2614 60.7241C52.094 59.7876 52.4757 58.8492 53.2824 58.214L95.3558 25.0712C96.1295 24.4621 97.1302 24.2723 98.0337 24.5641C98.9428 24.858 99.5623 25.5767 99.6906 26.4868L106.622 75.4672C106.745 76.3367 106.388 77.2192 105.665 77.8282C105.116 78.2912 104.446 78.5346 103.771 78.5346ZM97.1776 24.6597C96.5843 24.6597 95.9914 24.8634 95.4979 25.252L53.4244 58.3948C52.6856 58.9766 52.3354 59.8322 52.4875 60.6836C52.6274 61.4663 53.1835 62.0863 53.9751 62.3421L102.98 78.1799C103.845 78.4594 104.793 78.2622 105.517 77.6522C106.179 77.0946 106.506 76.29 106.394 75.4996C106.282 74.7092 99.463 26.519 99.463 26.519C99.3474 25.6981 98.7866 25.0492 97.9629 24.783C97.7092 24.7011 97.4443 24.6595 97.1776 24.6597Z" fill="#111111"/>
<path d="M94.9693 38.7495L86.5251 57.2442L82.1484 55.8297L89.701 37.0469L94.9693 38.7495Z" fill="#0E38A3"/>
<path d="M86.5268 57.357C86.5151 57.357 86.5033 57.3552 86.4914 57.3515L82.1148 55.9371C82.0998 55.9322 82.0859 55.9244 82.0741 55.9139C82.0622 55.9035 82.0526 55.8907 82.046 55.8764C82.0393 55.8621 82.0356 55.8466 82.0352 55.8308C82.0348 55.815 82.0376 55.7993 82.0435 55.7846L89.596 37.0018C89.6068 36.9748 89.6275 36.9529 89.6539 36.9405C89.6802 36.9282 89.7102 36.9263 89.7379 36.9353L95.0061 38.6379C95.0215 38.6429 95.0357 38.6511 95.0477 38.662C95.0597 38.6729 95.0693 38.6862 95.0759 38.7011C95.0824 38.7159 95.0857 38.732 95.0856 38.7482C95.0854 38.7644 95.0819 38.7804 95.0752 38.7952L86.631 57.2899C86.6219 57.3099 86.6072 57.3269 86.5886 57.3388C86.5701 57.3507 86.5488 57.357 86.5268 57.357ZM82.3027 55.756L86.4648 57.1011L94.8128 38.8172L89.7694 37.1871L82.3027 55.756Z" fill="#111111"/>
<path d="M84.5715 61.6645L82.7594 65.8988L78.3828 64.4844L80.1949 60.25L84.5715 61.6645Z" fill="#0E38A3"/>
<path d="M82.7612 66.012C82.7495 66.012 82.7376 66.0101 82.7258 66.0064L78.3492 64.592C78.3339 64.5871 78.3199 64.579 78.308 64.5684C78.296 64.5577 78.2865 64.5447 78.2798 64.5301C78.2732 64.5155 78.2697 64.4997 78.2695 64.4837C78.2694 64.4677 78.2725 64.4519 78.2788 64.4371L80.0908 60.2026C80.102 60.1762 80.1227 60.155 80.1488 60.1431C80.1749 60.1312 80.2045 60.1296 80.2318 60.1384L84.6084 61.5529C84.6236 61.5578 84.6377 61.5659 84.6496 61.5765C84.6615 61.5872 84.6711 61.6002 84.6777 61.6148C84.6843 61.6293 84.6879 61.6451 84.688 61.6611C84.6882 61.6772 84.685 61.693 84.6787 61.7077L82.8668 65.9422C82.8579 65.9629 82.8432 65.9806 82.8244 65.993C82.8057 66.0053 82.7837 66.012 82.7612 66.012ZM78.5399 64.4117L82.6969 65.7552L84.4179 61.7332L80.2609 60.3897L78.5399 64.4117Z" fill="#111111"/>
</g>
<mask id="mask2_40000788_5067" style="mask-type:luminance" maskUnits="userSpaceOnUse" x="20" y="69" width="41" height="41">
<path d="M26.0964 69.7066L60.4453 74.9844L55.1165 109.665L20.7676 104.388L26.0964 69.7066Z" fill="white"/>
</mask>
<g mask="url(#mask2_40000788_5067)">
<path d="M23.5488 88.2509L23.5716 91.3862C23.5983 95.0429 24.978 98.7076 27.7628 101.679C33.9449 108.275 44.7115 108.954 51.8108 103.195C55.7135 100.03 57.6957 95.5789 57.6631 91.1167L57.6403 87.9814C57.6728 92.4437 55.6906 96.8948 51.788 100.06C44.6886 105.818 33.922 105.139 27.74 98.5435C24.9551 95.5723 23.5754 91.9077 23.5488 88.2509Z" fill="url(#paint0_linear_40000788_5067)"/>
<path d="M37.7885 106.997C42.6706 107.747 47.8655 106.541 51.8806 103.284C55.6599 100.219 57.8077 95.7855 57.7737 91.1198L57.7508 87.9844C57.7499 87.9557 57.7378 87.9285 57.7171 87.9086C57.6965 87.8887 57.6688 87.8776 57.6401 87.8779C57.6114 87.8781 57.5839 87.8895 57.5635 87.9097C57.5432 87.9299 57.5315 87.9573 57.531 87.986C57.5647 92.5845 55.4464 96.9556 51.7195 99.9785C44.6752 105.692 33.9543 105.016 27.8208 98.472C25.1655 95.6391 23.6877 92.012 23.6592 88.2583V88.2538C23.6584 88.2251 23.6463 88.1979 23.6256 88.178C23.6049 88.1581 23.5773 88.147 23.5486 88.1472C23.5199 88.1475 23.4924 88.1589 23.472 88.1791C23.4516 88.1993 23.44 88.2267 23.4395 88.2554L23.4624 91.3908C23.4902 95.2016 24.9893 98.8833 27.6834 101.758C30.3974 104.653 33.9988 106.415 37.7885 106.997ZM57.5497 90.5398L57.554 91.1214C57.5875 95.7198 55.4693 100.091 51.7424 103.114C44.6983 108.827 33.9771 108.151 27.8437 101.607C25.1874 98.7735 23.7096 95.1446 23.6822 91.3892L23.6779 90.7968C24.2012 93.6799 25.5716 96.3937 27.6604 98.6224C33.8712 105.248 44.726 105.933 51.858 100.149C54.9388 97.6504 56.9356 94.2422 57.5497 90.5398Z" fill="#111111"/>
<path d="M29.4013 76.1752C22.302 81.9334 21.5585 91.9481 27.7415 98.5448C33.9235 105.14 44.6902 105.819 51.7895 100.061C58.89 94.3024 59.6335 84.2876 53.4516 77.692C47.2685 71.0952 36.5018 70.4162 29.4013 76.1752Z" fill="#94C1F7"/>
<path d="M37.7665 103.857C42.6486 104.607 47.8436 103.401 51.8587 100.144C55.3437 97.3181 57.4242 93.3983 57.7174 89.1076C58.0059 84.8837 56.5194 80.802 53.5318 77.6145C47.3205 70.9877 36.4647 70.3026 29.3322 76.0875C25.848 78.9135 23.7678 82.8326 23.4748 87.1229C23.1862 91.3473 24.6731 95.4295 27.6613 98.6178C30.3755 101.513 33.9769 103.275 37.7665 103.857ZM43.3915 72.5908C47.1347 73.1659 50.6907 74.9049 53.3713 77.7649C56.3169 80.9075 57.7825 84.9304 57.4981 89.0926C57.2092 93.3218 55.1574 97.1861 51.7204 99.9738C44.6761 105.687 33.9551 105.011 27.8216 98.4673C24.8755 95.3241 23.4096 91.3005 23.694 87.1379C23.9829 82.9092 26.0343 79.0455 29.4705 76.2584C33.4367 73.0415 38.5694 71.8499 43.3915 72.5908Z" fill="#111111"/>
<path d="M39.3853 78.6371C40.231 77.9511 41.8298 78.3676 42.9551 79.5682C44.0804 80.7688 44.3062 82.299 43.4604 82.985C42.6147 83.671 41.0171 83.2535 39.8918 82.0529C38.7665 80.8522 38.5396 79.323 39.3853 78.6371Z" fill="#111111"/>
<path d="M42.0523 83.3864C42.6208 83.4738 43.1473 83.3754 43.5294 83.0655C43.8556 82.8009 44.0449 82.4125 44.077 81.9424C44.1304 81.1588 43.741 80.2413 43.035 79.4881C41.8729 78.2482 40.2044 77.8258 39.3158 78.5468C38.99 78.8111 38.8007 79.199 38.7686 79.6686C38.7152 80.4519 39.1049 81.3695 39.8114 82.1232C40.4733 82.8295 41.2997 83.2707 42.0523 83.3864ZM40.7616 78.4375C41.4632 78.5453 42.2447 78.9664 42.8747 79.6386C43.5397 80.3481 43.9072 81.2037 43.8578 81.9275C43.8298 82.3351 43.6685 82.6696 43.391 82.8946C42.5904 83.5439 41.0566 83.1302 39.9718 81.9727C39.3064 81.2628 38.9386 80.407 38.988 79.6836C39.0159 79.2766 39.1771 78.9426 39.4542 78.7177C39.7901 78.4452 40.255 78.3596 40.7616 78.4375ZM30.6647 85.7052C31.5104 85.0192 33.108 85.4366 34.2333 86.6372C35.3586 87.8378 35.5855 89.367 34.7398 90.0529C33.8941 90.7389 32.2964 90.3215 31.1712 89.1209C30.0459 87.9203 29.8189 86.3912 30.6647 85.7052Z" fill="#111111"/>
<path d="M33.3305 90.4644C33.899 90.5517 34.4255 90.4535 34.8076 90.1435C35.1334 89.8791 35.3227 89.4912 35.3548 89.0216C35.4082 88.2384 35.0185 87.3208 34.312 86.567C33.1501 85.3272 31.482 84.9045 30.594 85.6248C30.2682 85.8892 30.0789 86.2771 30.0468 86.7467C29.9934 87.53 30.3831 88.4475 31.0896 89.2013C31.7516 89.9075 32.5779 90.3487 33.3305 90.4644ZM32.0381 85.516C32.7397 85.6237 33.5212 86.045 34.1516 86.7176C34.8171 87.4276 35.1849 88.2834 35.1355 89.0067C35.1076 89.4138 34.9464 89.7478 34.6693 89.9727C33.8688 90.6218 32.3352 90.2085 31.2501 89.0508C30.5846 88.3409 30.2168 87.4851 30.2662 86.7617C30.2941 86.3547 30.4553 86.0206 30.7324 85.7957C31.0678 85.5236 31.5322 85.4382 32.0381 85.516ZM42.3217 90.1056C45.086 87.8655 48.6678 87.1019 51.8003 87.8481C52.2552 87.9565 52.5278 88.3881 52.4098 88.8103C52.3657 88.971 52.2713 89.1076 52.1462 89.2091C51.9424 89.3744 51.6572 89.4467 51.3753 89.3796C48.8195 88.7676 45.793 89.3845 43.4379 91.2966L43.4341 91.2996C41.1742 93.1326 40.0992 95.6966 40.2848 98.056C40.3049 98.3139 40.1896 98.5522 39.9946 98.7103C39.8531 98.824 39.6799 98.8913 39.4988 98.9031C39.0313 98.9351 38.624 98.6089 38.5891 98.1729C38.3651 95.2904 39.669 92.2592 42.3217 90.1056Z" fill="#111111"/>
<path d="M39.2814 99.0022C39.3542 99.0134 39.4294 99.0168 39.5059 99.0115C39.7138 98.9969 39.9065 98.9218 40.0634 98.7944C40.2924 98.6087 40.416 98.329 40.3941 98.0462C40.2022 95.6088 41.3645 93.1183 43.5029 91.3838C45.7206 89.5834 48.7247 88.857 51.3494 89.4853C51.6535 89.5582 51.9774 89.4861 52.215 89.2932C52.3627 89.1735 52.4666 89.0163 52.5154 88.8383C52.578 88.6144 52.5468 88.3791 52.4274 88.1761C52.3001 87.9598 52.0806 87.8007 51.8253 87.7399C48.5539 86.9601 44.9749 87.8125 42.2521 90.019C39.6561 92.1263 38.2457 95.1772 38.4791 98.1803C38.5129 98.6029 38.8543 98.9366 39.2814 99.0022ZM50.7417 89.1423C48.2196 88.7548 45.4511 89.519 43.3684 91.2099C41.1698 92.993 39.9775 95.554 40.175 98.0634C40.1915 98.2771 40.1004 98.4813 39.925 98.6236C39.8032 98.7225 39.653 98.7807 39.4907 98.7921C39.0841 98.82 38.7283 98.5378 38.6982 98.1628C38.4704 95.2322 39.8508 92.2515 42.3904 90.1896C45.0606 88.026 48.5688 87.1896 51.7744 87.9537C51.9748 88.0014 52.1394 88.1201 52.2381 88.2876C52.2818 88.3608 52.3102 88.4422 52.3214 88.5267C52.3327 88.6113 52.3266 88.6972 52.3036 88.7794C52.2668 88.9131 52.1884 89.0316 52.0767 89.1222C51.8917 89.2724 51.639 89.3281 51.4005 89.2712C51.1828 89.2193 50.963 89.1763 50.7417 89.1423Z" fill="#111111"/>
</g>
<mask id="mask3_40000788_5067" style="mask-type:luminance" maskUnits="userSpaceOnUse" x="9" y="38" width="27" height="29">
<path d="M9.3432 43.5447L30.5977 38.7344L35.8742 62.0487L14.6198 66.8591L9.3432 43.5447Z" fill="white"/>
</mask>
<g mask="url(#mask3_40000788_5067)">
<path d="M17.6364 43.4932C17.6267 43.377 17.6607 43.273 17.7267 43.1964L19.1948 41.4922C19.1288 41.5689 19.0948 41.6727 19.1046 41.789L19.2925 43.9242L17.8243 45.6283L17.6364 43.4932Z" fill="#94C1F7"/>
<path d="M17.8482 45.7303C17.8694 45.7255 17.8885 45.714 17.9026 45.6976L19.3708 43.9934C19.3796 43.9832 19.3863 43.9714 19.3904 43.9585C19.3945 43.9457 19.3961 43.9322 19.3949 43.9188L19.207 41.7837C19.1998 41.6984 19.2233 41.6193 19.2731 41.5615C19.2818 41.5514 19.2883 41.5397 19.2925 41.5271C19.2966 41.5145 19.2982 41.5013 19.2972 41.488C19.2962 41.4748 19.2925 41.462 19.2865 41.4502C19.2805 41.4383 19.2722 41.4278 19.2621 41.4192C19.252 41.4106 19.2404 41.4041 19.2277 41.4C19.2151 41.3959 19.2018 41.3943 19.1885 41.3954C19.1753 41.3964 19.1623 41.4 19.1505 41.406C19.1386 41.412 19.1281 41.4203 19.1194 41.4304L17.6515 43.1344C17.566 43.2336 17.5255 43.3653 17.5371 43.5052L17.7251 45.6409C17.7263 45.6552 17.7307 45.6691 17.7378 45.6816C17.7448 45.6942 17.7546 45.705 17.7662 45.7135C17.7779 45.722 17.7912 45.7278 17.8054 45.7307C17.8195 45.7336 17.8341 45.7335 17.8482 45.7303ZM19.1896 43.8944L17.9058 45.3846L17.7388 43.4881C17.7318 43.4024 17.7552 43.3235 17.8051 43.2658L19.011 41.8658L19.1896 43.8944Z" fill="#111111"/>
<path d="M30.7593 57.5479L32.9586 58.2442C33.0646 58.277 33.1683 58.277 33.2576 58.2491C33.3266 58.2283 33.3884 58.1884 33.4357 58.1341L31.9676 59.8383C31.921 59.8923 31.8597 59.9314 31.7894 59.9534C31.7001 59.9813 31.5964 59.9813 31.4904 59.9484L29.291 59.252L30.7593 57.5479Z" fill="#94C1F7"/>
<path d="M31.7755 60.0561C31.7895 60.0529 31.8033 60.0493 31.817 60.045C31.904 60.0183 31.9819 59.9678 32.0417 59.8993L33.5095 58.1954C33.527 58.1751 33.536 58.1484 33.534 58.1218C33.532 58.0951 33.5194 58.0703 33.4991 58.0529C33.4787 58.0355 33.4522 58.0268 33.4255 58.0289C33.3987 58.0309 33.3738 58.0435 33.3563 58.0638C33.3229 58.1026 33.2774 58.1318 33.2249 58.1482C33.1523 58.1709 33.0697 58.1691 32.9861 58.1432L30.7875 57.4471C30.7686 57.4411 30.7483 57.4408 30.7292 57.4462C30.7101 57.4517 30.693 57.4626 30.68 57.4777L29.2119 59.1818C29.201 59.1945 29.1934 59.2096 29.1899 59.2259C29.1863 59.2421 29.1868 59.259 29.1913 59.275C29.1959 59.2911 29.2043 59.3057 29.2159 59.3177C29.2275 59.3296 29.2419 59.3385 29.2578 59.3436L31.4571 60.0399C31.5656 60.0735 31.6747 60.0789 31.7755 60.0561ZM33.0965 58.3654L31.8882 59.768C31.8548 59.8068 31.8093 59.836 31.7566 59.8525C31.6841 59.8747 31.6016 59.8733 31.518 59.8474L29.4649 59.1973L30.7897 57.6596L32.9252 58.3356C32.9807 58.3531 33.0383 58.3631 33.0965 58.3654Z" fill="#111111"/>
<path d="M20.1186 49.1849L18.6504 50.8892C19.0075 50.4746 19.4835 50.1595 20.0495 49.9829C20.4438 49.8599 20.882 49.804 21.3539 49.8286C23.1941 49.9255 24.994 51.3061 25.6006 53.0878C26.0421 54.3809 25.8002 55.587 25.0953 56.4051L26.5635 54.7009C27.2684 53.8827 27.5102 52.6767 27.0687 51.3835C26.4622 49.602 24.6622 48.2214 22.8221 48.1244C22.3502 48.0997 21.9118 48.1556 21.5177 48.2786C20.9516 48.4552 20.4757 48.7704 20.1186 49.1849Z" fill="#94C1F7"/>
<path d="M25.1194 56.5071C25.1405 56.5023 25.1596 56.4908 25.1737 56.4744L25.1751 56.4727L26.6419 54.7702C27.4113 53.8771 27.6024 52.6322 27.1662 51.3546C26.5437 49.5263 24.7198 48.1269 22.8292 48.0273C22.3566 48.0026 21.9057 48.0561 21.4892 48.1861C20.9178 48.3644 20.4179 48.6882 20.0434 49.1229L18.5763 50.826L18.5753 50.8271C18.5578 50.8475 18.5491 50.8739 18.5511 50.9005C18.5531 50.9272 18.5656 50.952 18.586 50.9694C18.6063 50.9868 18.6328 50.9956 18.6596 50.9935C18.6863 50.9915 18.7112 50.9789 18.7287 50.9586C19.0784 50.553 19.5464 50.2497 20.0812 50.0828C20.4748 49.9603 20.9017 49.9097 21.3501 49.9331C23.1614 50.0284 24.9093 51.3704 25.5064 53.1239C25.9189 54.3322 25.7417 55.5055 25.0202 56.3431C25.0064 56.3592 24.9979 56.3792 24.9962 56.4004C24.9944 56.4215 24.9994 56.4428 25.0103 56.4609C25.0213 56.4791 25.0378 56.4932 25.0573 56.5015C25.0769 56.5098 25.0986 56.5118 25.1194 56.5071ZM21.8031 48.3104C22.1242 48.2377 22.4647 48.2102 22.8183 48.2287C24.6296 48.324 26.3775 49.6661 26.9746 51.4196C27.3871 52.6279 27.2099 53.8012 26.4884 54.6387L25.7355 55.5128C26.0013 54.7759 25.9939 53.9248 25.6981 53.0586C25.0756 51.2303 23.2516 49.8311 21.3611 49.7315C20.8886 49.7069 20.4379 49.7598 20.0211 49.8901C19.8164 49.9539 19.6209 50.0366 19.437 50.1362L20.1969 49.2542C20.5467 48.8483 21.0143 48.5455 21.5494 48.3784C21.633 48.3524 21.7177 48.3297 21.8031 48.3104Z" fill="#111111"/>
<path d="M27.3911 59.9665L25.9229 61.6707C27.1391 61.283 28.1626 60.5991 28.9335 59.7042L30.4016 58C29.6307 58.8948 28.6071 59.5787 27.3911 59.9665Z" fill="#94C1F7"/>
<path d="M25.9467 61.765C25.9495 61.7644 25.9524 61.7636 25.9552 61.7627C27.1605 61.3784 28.2174 60.6879 29.0118 59.7658L30.4799 58.0616C30.4974 58.0413 30.5061 58.0149 30.5041 57.9882C30.5021 57.9615 30.4896 57.9368 30.4692 57.9193C30.4489 57.9019 30.4224 57.8933 30.3956 57.8953C30.3689 57.8974 30.344 57.9099 30.3265 57.9302L30.3248 57.9322C29.5551 58.8249 28.5307 59.4937 27.362 59.8663C27.3441 59.872 27.3282 59.8826 27.3159 59.8967L25.8478 61.601C25.8339 61.6171 25.8254 61.6371 25.8236 61.6582C25.8218 61.6794 25.8268 61.7005 25.8377 61.7187C25.8487 61.7369 25.8651 61.7511 25.8846 61.7594C25.9042 61.7677 25.9259 61.7697 25.9467 61.765ZM29.2824 59.1423L28.8584 59.6346C28.1668 60.4372 27.2696 61.059 26.2467 61.4475L27.4507 60.0498C28.1128 59.8357 28.7297 59.5291 29.2824 59.1423Z" fill="#111111"/>
<path d="M11.7108 47.5869C11.726 47.5411 11.7501 47.4987 11.7816 47.4621L13.2497 45.7578C13.2191 45.7933 13.1951 45.8351 13.179 45.8827L12.4125 48.1876L10.9443 49.8919L11.7108 47.5869Z" fill="#94C1F7"/>
<path d="M10.9692 49.993C10.9904 49.9882 11.0095 49.9768 11.0237 49.9603L12.4918 48.2561C12.5004 48.2461 12.507 48.2345 12.5111 48.222L13.2776 45.917C13.2888 45.8837 13.3062 45.8528 13.3291 45.8261C13.3462 45.8058 13.3545 45.7795 13.3523 45.7531C13.3501 45.7267 13.3376 45.7022 13.3174 45.6849C13.2972 45.6677 13.271 45.659 13.2445 45.6609C13.218 45.6628 13.1932 45.675 13.1756 45.6949L11.7074 47.3991C11.6674 47.4458 11.6369 47.4997 11.6175 47.5579L10.8509 49.8629C10.8435 49.8851 10.8441 49.9091 10.8525 49.9309C10.861 49.9527 10.8767 49.9709 10.8972 49.9823C10.919 49.9948 10.9447 49.9986 10.9692 49.993ZM12.3253 48.1399L11.2043 49.441L11.8095 47.6213C11.8206 47.588 11.8381 47.5571 11.861 47.5304L12.9474 46.2692L12.3253 48.1399Z" fill="#111111"/>
<path d="M12.68 48.8008L11.2119 50.5051L13.2212 51.7682L14.6893 50.0641L12.68 48.8008Z" fill="#94C1F7"/>
<path d="M13.2413 51.8618C13.2618 51.8572 13.281 51.8461 13.2957 51.8291L14.7638 50.1249C14.7733 50.1139 14.7803 50.101 14.7843 50.0871C14.7884 50.0732 14.7894 50.0585 14.7872 50.0442C14.7851 50.0299 14.7798 50.0162 14.7719 50.0041C14.7639 49.9919 14.7534 49.9817 14.7411 49.974L12.7319 48.7108C12.7114 48.6979 12.6869 48.6928 12.6628 48.6964C12.6388 48.7 12.6169 48.7121 12.6011 48.7305L11.1329 50.4347C11.1234 50.4457 11.1164 50.4586 11.1124 50.4726C11.1083 50.4865 11.1074 50.5011 11.1095 50.5154C11.1117 50.5298 11.1169 50.5435 11.1248 50.5556C11.1328 50.5677 11.1433 50.578 11.1556 50.5857L13.1649 51.8488C13.1761 51.8559 13.1886 51.8607 13.2018 51.8629C13.2149 51.8651 13.2283 51.8648 13.2413 51.8618ZM14.5339 50.0823L13.1992 51.6317L11.3628 50.4772L12.6975 48.9278L14.5339 50.0823Z" fill="#111111"/>
<path d="M12.4135 48.1914L10.9454 49.8957C10.8758 50.1071 10.9876 50.3686 11.211 50.5076L12.6792 48.8034C12.4558 48.6644 12.3439 48.4029 12.4135 48.1914Z" fill="#94C1F7"/>
<path d="M11.2312 50.6019C11.2517 50.5973 11.2709 50.5862 11.2856 50.5692L12.7538 48.865C12.7633 48.8539 12.7703 48.841 12.7743 48.827C12.7783 48.8131 12.7793 48.7984 12.7771 48.7841C12.7749 48.7697 12.7696 48.756 12.7616 48.7439C12.7537 48.7318 12.7431 48.7215 12.7308 48.7138C12.5481 48.6 12.4522 48.3872 12.5077 48.2187C12.515 48.1965 12.5144 48.1725 12.5059 48.1507C12.4974 48.129 12.4817 48.1108 12.4613 48.0994C12.4408 48.0879 12.4171 48.0839 12.394 48.088C12.3709 48.0921 12.35 48.104 12.3347 48.1217L10.8666 49.826C10.8579 49.8361 10.8513 49.8478 10.8472 49.8604C10.7622 50.1187 10.8918 50.4253 11.1553 50.5893C11.1785 50.6037 11.2059 50.6076 11.2312 50.6019ZM12.5295 48.8158L11.1934 50.3667C11.0623 50.2522 10.9969 50.083 11.0341 49.9407L12.3073 48.4628C12.3403 48.594 12.4176 48.7191 12.5295 48.8158Z" fill="#111111"/>
<path d="M14.688 50.0596L13.22 51.7637C13.1913 52.4865 13.2629 53.2421 13.4503 54.0208C13.6368 54.7974 13.9244 55.5448 14.2951 56.2497L15.7633 54.5455C15.3925 53.8406 15.1048 53.0932 14.9185 52.3165C14.7311 51.5379 14.6595 50.7823 14.688 50.0596Z" fill="#94C1F7"/>
<path d="M14.32 56.3518C14.3412 56.347 14.3603 56.3356 14.3744 56.3191L15.8425 54.6149C15.8557 54.5995 15.864 54.5806 15.8663 54.5605C15.8686 54.5404 15.8648 54.5201 15.8554 54.5022C15.4812 53.7909 15.1999 53.0487 15.0194 52.2965C14.8393 51.5486 14.7627 50.7986 14.7916 50.067C14.7924 50.0461 14.7867 50.0254 14.7752 50.0079C14.7637 49.9904 14.7471 49.9769 14.7275 49.9693C14.708 49.9617 14.6866 49.9603 14.6662 49.9653C14.6458 49.9704 14.6275 49.9816 14.6138 49.9975L13.1457 51.7018C13.1308 51.719 13.1222 51.7408 13.1213 51.7635C13.0917 52.5136 13.17 53.2822 13.3545 54.0481C13.539 54.8164 13.8261 55.5742 14.2081 56.3003C14.2184 56.32 14.235 56.3357 14.2552 56.345C14.2755 56.3543 14.2982 56.3567 14.32 56.3518ZM15.6444 54.5354L14.319 56.0741C13.9788 55.4032 13.7207 54.7065 13.5514 54.0007C13.3741 53.2648 13.2971 52.5266 13.3224 51.8062L14.5835 50.3423C14.5812 51.0021 14.6614 51.674 14.8226 52.3438C15.0019 53.0908 15.2783 53.8278 15.6444 54.5354Z" fill="#111111"/>
<path d="M24.5872 62.645L27.1966 62.5279C27.2365 62.5267 27.276 62.52 27.3141 62.5083C27.3822 62.4876 27.4431 62.4482 27.4896 62.3945L26.0215 64.0988C25.9765 64.151 25.9167 64.1904 25.846 64.2125C25.8095 64.2239 25.7702 64.2307 25.7285 64.2321L23.1191 64.3492L24.5872 62.645Z" fill="#94C1F7"/>
<path d="M25.838 64.3228C25.8517 64.3197 25.8652 64.3161 25.8786 64.312C25.9648 64.2855 26.0418 64.2355 26.1009 64.1675L27.5689 62.4633C27.586 62.443 27.5945 62.4167 27.5923 62.3903C27.5901 62.3638 27.5775 62.3393 27.5574 62.3221C27.5372 62.3048 27.511 62.2962 27.4844 62.2981C27.4579 62.3 27.4331 62.3122 27.4155 62.3321C27.3813 62.3711 27.3364 62.4001 27.2866 62.4151C27.2583 62.424 27.2277 62.4291 27.1955 62.4303L24.5853 62.5474C24.5715 62.548 24.5579 62.5514 24.5455 62.5574C24.533 62.5635 24.522 62.572 24.513 62.5825L23.0449 64.2867C23.0321 64.3016 23.0239 64.32 23.0213 64.3395C23.0188 64.359 23.022 64.3789 23.0306 64.3966C23.0393 64.4142 23.0529 64.429 23.0699 64.4391C23.0868 64.4491 23.1064 64.454 23.1261 64.4531L25.7354 64.336C25.7699 64.3349 25.8043 64.3305 25.838 64.3228ZM27.1553 62.6341L25.9474 64.0363C25.9143 64.0747 25.8698 64.1034 25.8185 64.1195C25.7898 64.1283 25.7593 64.1335 25.7277 64.1345L23.3509 64.2412L24.638 62.747L27.1553 62.6341Z" fill="#111111"/>
<path d="M23.1838 60.1538L21.7158 61.858L22.5448 63.9639L24.0129 62.2597L23.1838 60.1538Z" fill="#94C1F7"/>
<path d="M22.5647 64.0583C22.5859 64.0535 22.605 64.042 22.6192 64.0256L24.0873 62.3213C24.0993 62.3074 24.1073 62.2905 24.1104 62.2724C24.1134 62.2544 24.1115 62.2358 24.1048 62.2187L23.2758 60.1129C23.2695 60.0966 23.2591 60.0823 23.2455 60.0713C23.232 60.0604 23.2158 60.0531 23.1986 60.0502C23.1814 60.0473 23.1637 60.0489 23.1472 60.0549C23.1308 60.0609 23.1162 60.071 23.1049 60.0842L21.6367 61.7885C21.6247 61.8024 21.6168 61.8193 21.6137 61.8374C21.6106 61.8555 21.6125 61.874 21.6193 61.8911L22.4482 63.997C22.457 64.0194 22.4736 64.038 22.495 64.0492C22.5164 64.0605 22.5411 64.0637 22.5647 64.0583ZM23.8941 62.2361L22.5753 63.767L21.8299 61.8735L23.1487 60.3427L23.8941 62.2361Z" fill="#111111"/>
<path d="M24.0111 62.2539L22.543 63.9581C22.6347 64.1928 22.8801 64.358 23.1198 64.3473L24.588 62.6431C24.3483 62.6539 24.1028 62.4886 24.0111 62.2539Z" fill="#94C1F7"/>
<path d="M23.1437 64.449C23.1648 64.4442 23.1839 64.4327 23.1981 64.4163L24.6663 62.712C24.6791 62.6971 24.6873 62.6787 24.6899 62.6592C24.6924 62.6397 24.6892 62.6199 24.6806 62.6022C24.6719 62.5845 24.6583 62.5697 24.6413 62.5597C24.6244 62.5496 24.6048 62.5447 24.5851 62.5456C24.3884 62.5546 24.1829 62.4147 24.1071 62.2205C24.1008 62.2043 24.0903 62.1899 24.0768 62.1789C24.0633 62.1679 24.0471 62.1606 24.0298 62.1577C24.0126 62.1548 23.9949 62.1564 23.9785 62.1623C23.962 62.1683 23.9474 62.1784 23.936 62.1917L22.4679 63.8959C22.4559 63.9098 22.4479 63.9267 22.4448 63.9447C22.4417 63.9628 22.4436 63.9813 22.4503 63.9984C22.5579 64.2737 22.842 64.4643 23.1259 64.4516C23.1319 64.4512 23.1378 64.4503 23.1437 64.449ZM24.3907 62.7225L23.0752 64.2495C22.9105 64.2397 22.7464 64.1309 22.6637 63.978L23.9933 62.4346C24.0889 62.5736 24.2327 62.6772 24.3907 62.7225Z" fill="#111111"/>
<path d="M18.7376 58.082L17.2695 59.7862C18.583 60.8087 20.1148 61.5403 21.7128 61.8573L23.1809 60.1531C21.583 59.8359 20.0511 59.1044 18.7376 58.082Z" fill="#94C1F7"/>
<path d="M21.7367 61.9518C21.7579 61.947 21.777 61.9355 21.7912 61.9191L23.2593 60.2148C23.2708 60.2014 23.2787 60.1853 23.282 60.168C23.2853 60.1507 23.2841 60.1329 23.2783 60.1162C23.2726 60.0996 23.2626 60.0847 23.2493 60.0731C23.236 60.0616 23.2199 60.0536 23.2026 60.0502C21.6526 59.7426 20.1308 59.0331 18.8016 57.9985C18.7811 57.9825 18.7552 57.975 18.7293 57.9776C18.7034 57.9802 18.6795 57.9927 18.6625 58.0124L17.1943 59.7166C17.1854 59.727 17.1787 59.739 17.1746 59.7521C17.1705 59.7651 17.1691 59.7788 17.1704 59.7923C17.1718 59.8059 17.1759 59.8191 17.1824 59.831C17.189 59.843 17.198 59.8535 17.2087 59.8619C18.5627 60.9158 20.1138 61.6387 21.6945 61.9524C21.7085 61.9551 21.7228 61.9549 21.7367 61.9518ZM22.9942 60.2131L21.6764 61.7428C20.179 61.4357 18.7098 60.7543 17.4173 59.7673L18.7533 58.2165C20.0406 59.2014 21.5014 59.889 22.9942 60.2131Z" fill="#111111"/>
<path d="M14.382 55.9766L12.9139 57.6808C12.7759 57.841 12.7933 58.0951 12.9582 58.2896L14.4264 56.5853C14.2614 56.3907 14.244 56.1368 14.382 55.9766Z" fill="#94C1F7"/>
<path d="M12.9823 58.3839C13.0035 58.3791 13.0225 58.3676 13.0367 58.3512L14.5049 56.647C14.5206 56.6288 14.5293 56.6057 14.5294 56.5817C14.5295 56.5577 14.5211 56.5345 14.5056 56.5162C14.3743 56.3613 14.3554 56.1602 14.4605 56.0382C14.4692 56.0281 14.4758 56.0164 14.4799 56.0039C14.4841 55.9913 14.4857 55.978 14.4847 55.9648C14.4837 55.9516 14.4801 55.9387 14.4741 55.9269C14.4681 55.9151 14.4599 55.9045 14.4498 55.8959C14.4397 55.8873 14.428 55.8807 14.4154 55.8766C14.4028 55.8725 14.3895 55.8709 14.3762 55.8719C14.3629 55.8729 14.35 55.8765 14.3382 55.8825C14.3263 55.8885 14.3157 55.8968 14.307 55.9068L12.839 57.611C12.6687 57.8087 12.6871 58.1198 12.8827 58.3507C12.8946 58.3648 12.9102 58.3753 12.9278 58.3812C12.9453 58.387 12.9642 58.388 12.9823 58.3839ZM14.2987 56.5769L12.9701 58.1189C12.9036 57.9853 12.909 57.839 12.9923 57.7423L14.201 56.3393C14.2165 56.4206 14.2491 56.5016 14.2987 56.5769Z" fill="#111111"/>
<path d="M16.8606 58.974L15.3926 60.6782L17.2692 59.7823L18.7374 58.0781L16.8606 58.974Z" fill="#94C1F7"/>
<path d="M15.4164 60.7805C15.4238 60.7788 15.431 60.7763 15.4378 60.7731L17.3145 59.8771C17.3272 59.871 17.3385 59.8624 17.3477 59.8518L18.8159 58.1475C18.831 58.13 18.8396 58.1077 18.8403 58.0846C18.841 58.0615 18.8336 58.0388 18.8195 58.0204C18.8054 58.0021 18.7854 57.9891 18.7628 57.9837C18.7402 57.9784 18.7165 57.9809 18.6955 57.9909L16.8188 58.8869C16.8061 58.893 16.7948 58.9015 16.7856 58.9122L15.3175 60.6164C15.3036 60.6325 15.2951 60.6526 15.2933 60.6737C15.2915 60.6949 15.2965 60.716 15.3074 60.7342C15.3184 60.7524 15.3348 60.7666 15.3544 60.7749C15.374 60.7832 15.3957 60.7852 15.4164 60.7805ZM17.2081 59.7044L15.7842 60.3841L16.9253 59.0596L18.3491 58.3798L17.2081 59.7044Z" fill="#111111"/>
<path d="M14.4281 56.5869L12.96 58.2912L14.8039 60.4811L16.272 58.7769L14.4281 56.5869Z" fill="#94C1F7"/>
<path d="M14.8238 60.5752C14.845 60.5704 14.8641 60.5589 14.8783 60.5425L16.3463 58.8383C16.362 58.8201 16.3706 58.797 16.3708 58.7731C16.371 58.7492 16.3626 58.726 16.3472 58.7077L14.5033 56.5178C14.4939 56.5066 14.4822 56.4976 14.4689 56.4914C14.4556 56.4852 14.4411 56.4819 14.4264 56.4819C14.4118 56.4818 14.3972 56.4849 14.3839 56.491C14.3705 56.4971 14.3586 56.506 14.3491 56.5171L12.8809 58.2212C12.8652 58.2394 12.8565 58.2625 12.8564 58.2864C12.8562 58.3103 12.8646 58.3335 12.88 58.3518L14.724 60.5417C14.7359 60.5559 14.7515 60.5665 14.7691 60.5724C14.7868 60.5784 14.8057 60.5793 14.8238 60.5752ZM16.1368 58.772L14.8025 60.321L13.0904 58.2876L14.4247 56.7387L16.1368 58.772Z" fill="#111111"/>
<path d="M16.2699 58.7734L14.8018 60.4776C14.9552 60.6613 15.1982 60.74 15.3927 60.6793L16.8609 58.9751C16.6663 59.0358 16.4234 58.957 16.2699 58.7734Z" fill="#94C1F7"/>
<path d="M15.3841 60.7902C15.3977 60.7871 15.4111 60.7836 15.4244 60.7793C15.4425 60.7737 15.4587 60.7631 15.471 60.7487L16.9392 59.0445C16.9535 59.0279 16.962 59.007 16.9634 58.9852C16.9648 58.9634 16.959 58.9417 16.9469 58.9234C16.9349 58.9051 16.9172 58.8913 16.8965 58.8839C16.8759 58.8766 16.8533 58.8761 16.8324 58.8826C16.6729 58.9316 16.4744 58.8624 16.3493 58.7125C16.3398 58.7013 16.3281 58.6922 16.3148 58.6859C16.3015 58.6797 16.287 58.6764 16.2723 58.6763C16.2575 58.6762 16.243 58.6793 16.2296 58.6854C16.2162 58.6915 16.2043 58.7004 16.1947 58.7115L14.7266 60.4158C14.711 60.4338 14.7023 60.4569 14.7022 60.4807C14.702 60.5046 14.7103 60.5277 14.7256 60.546C14.8916 60.7449 15.1568 60.8417 15.3841 60.7902ZM16.6316 59.0922L15.3379 60.594C15.2074 60.6234 15.0556 60.5777 14.9403 60.4772L16.2766 58.926C16.3772 59.0131 16.5001 59.0707 16.6316 59.0922Z" fill="#111111"/>
<path d="M14.3947 55.9568C14.2423 56.1158 14.2555 56.3798 14.4256 56.5805L16.2695 58.7704C16.4229 58.9541 16.6658 59.0328 16.8604 58.9721L18.7371 58.0762C20.0506 59.0987 21.5825 59.8303 23.1804 60.1473L24.0094 62.2532C24.1011 62.4879 24.3465 62.6531 24.5862 62.6424L27.1956 62.5254C27.2355 62.5241 27.275 62.5175 27.3131 62.5057C27.4872 62.4514 27.5955 62.2918 27.5784 62.0952L27.3905 59.9601C28.8042 59.5093 29.9577 58.6584 30.7565 57.5411L32.9558 58.2374C33.0617 58.2702 33.1655 58.2702 33.2548 58.2423C33.3711 58.206 33.4632 58.1224 33.5036 58.0025L34.2702 55.6972C34.3397 55.4858 34.226 55.2248 34.0045 55.0853L31.9953 53.8221C32.0239 53.0993 31.9523 52.3438 31.7649 51.5651C31.5784 50.7885 31.2919 50.0431 30.9211 49.3382L32.2874 47.9251C32.4397 47.7661 32.4266 47.5022 32.2565 47.3015L30.4127 45.1116C30.2592 44.9279 30.0163 44.8492 29.8217 44.9098L27.945 45.8057C26.6315 44.7833 25.0996 44.0518 23.5017 43.7346L22.6727 41.6288C22.581 41.3941 22.3335 41.2294 22.094 41.2402L19.4866 41.3567C19.4468 41.358 19.4074 41.3646 19.3694 41.3764C19.1943 41.431 19.0875 41.5916 19.1038 41.7868L19.2918 43.922C17.8771 44.3753 16.7245 45.2237 15.9238 46.3416L13.7264 45.6447C13.6205 45.6119 13.5167 45.6119 13.4274 45.6398C13.311 45.6762 13.2191 45.7597 13.1786 45.8797L12.4121 48.1847C12.3426 48.3961 12.4544 48.6576 12.6778 48.7966L14.687 50.0598C14.6584 50.7826 14.73 51.5381 14.9174 52.3168C15.1039 53.0934 15.3915 53.8409 15.7622 54.5458L14.3947 55.9568ZM23.8596 55.7588C22.0194 55.6618 20.2195 54.2813 19.613 52.4996C18.9485 50.5528 19.8348 48.8025 21.5181 48.2772C21.9124 48.1543 22.3506 48.0983 22.8225 48.123C24.6627 48.2198 26.4627 49.6005 27.0692 51.3821C27.7342 53.3297 26.8489 55.0798 25.1665 55.6048C24.7715 55.7281 24.3327 55.7839 23.8596 55.7588Z" fill="white"/>
<path d="M27.304 62.6165C27.3177 62.6134 27.3312 62.6098 27.3445 62.6056C27.5662 62.5365 27.7012 62.3292 27.6805 62.0899L27.4995 60.0347C28.8492 59.5877 29.9864 58.7697 30.7968 57.663L32.9262 58.3371C33.0499 58.3754 33.1742 58.3772 33.2861 58.3421C33.4367 58.2951 33.5514 58.1843 33.6008 58.038L34.3675 55.7328C34.4519 55.4759 34.3226 55.1695 34.06 55.0038L32.0997 53.7714C32.1232 53.0401 32.0441 52.2914 31.8645 51.5452C31.6855 50.7997 31.4102 50.0648 31.0456 49.3597L32.3615 47.9989C32.5511 47.8008 32.5399 47.482 32.3351 47.2401L30.4913 45.0506C30.3155 44.84 30.0283 44.7439 29.7927 44.8175C29.7881 44.8189 29.7835 44.8206 29.7791 44.8227L27.9589 45.6917C26.6322 44.6705 25.1195 43.9658 23.5768 43.6504L22.7679 41.5956C22.6606 41.3208 22.3757 41.1305 22.0906 41.1432L19.4832 41.2596C19.4347 41.2613 19.3866 41.2694 19.3403 41.2838C19.1191 41.3528 18.9839 41.5598 19.0039 41.7989L19.1849 43.8547C17.8339 44.3043 16.696 45.1224 15.8858 46.2269L13.7583 45.552C13.6345 45.5137 13.5105 45.5119 13.3983 45.547C13.2478 45.5939 13.1331 45.7048 13.0837 45.8511L12.317 48.1565C12.2319 48.4151 12.3615 48.7217 12.625 48.8858L14.5848 50.1181C14.5614 50.8497 14.6404 51.5984 14.8201 52.3443C14.9991 53.0898 15.2747 53.8253 15.6398 54.5319L14.3231 55.8906C14.1337 56.0883 14.1446 56.4075 14.3496 56.6494L16.1932 58.839C16.3691 59.0495 16.6563 59.1456 16.892 59.072C16.8966 59.0706 16.9011 59.0689 16.9055 59.0668L18.7258 58.1978C20.0524 59.2189 21.5651 59.9237 23.1079 60.2391L23.9168 62.2939C24.0243 62.5691 24.3084 62.7597 24.5922 62.7469L27.2015 62.6298C27.236 62.6285 27.2703 62.6241 27.304 62.6165ZM30.7355 57.4464C30.7112 57.4519 30.6898 57.4661 30.6753 57.4863C29.8728 58.6088 28.7267 59.4321 27.3609 59.8676C27.339 59.8746 27.3201 59.8888 27.3074 59.9079C27.2946 59.927 27.2888 59.9498 27.2908 59.9726L27.4787 62.1078C27.4915 62.2546 27.417 62.3717 27.2842 62.413C27.2558 62.4216 27.2251 62.4269 27.1932 62.4281L24.583 62.5451C24.3863 62.5541 24.1808 62.4142 24.105 62.22L23.2758 60.1139C23.2696 60.0982 23.2596 60.0843 23.2466 60.0734C23.2336 60.0626 23.2181 60.0552 23.2015 60.0519C21.6515 59.7443 20.1297 59.0348 18.8006 58.0002C18.7857 57.9886 18.768 57.9815 18.7492 57.9794C18.7305 57.9774 18.7116 57.9807 18.6946 57.9888L16.8249 58.8814C16.666 58.9271 16.4718 58.8572 16.3483 58.7094L14.5042 56.5192C14.3671 56.3573 14.3522 56.1519 14.4686 56.0303L15.8358 54.6196C15.8506 54.6043 15.8602 54.5848 15.8632 54.5638C15.8662 54.5428 15.8626 54.5214 15.8527 54.5026C15.4785 53.7912 15.1972 53.0491 15.0167 52.2969C14.8366 51.549 14.76 50.7989 14.7889 50.0674C14.7896 50.0497 14.7856 50.0321 14.7774 50.0165C14.7691 50.0008 14.7569 49.9876 14.7419 49.9782L12.7326 48.7151C12.5496 48.6012 12.4536 48.3882 12.5091 48.2197L13.2755 45.915C13.3042 45.83 13.3692 45.7676 13.4584 45.7398C13.5306 45.7175 13.6135 45.7189 13.6972 45.7448L15.8939 46.4416C15.9143 46.4481 15.9363 46.4479 15.9566 46.4412C15.9769 46.4344 15.9946 46.4214 16.007 46.404C16.8094 45.2838 17.9563 44.4601 19.3235 44.0219C19.3454 44.0149 19.3642 44.0007 19.3769 43.9816C19.3897 43.9626 19.3955 43.9398 19.3935 43.917L19.2055 41.7818C19.1933 41.6352 19.268 41.518 19.4004 41.4767C19.4299 41.4678 19.4604 41.4627 19.4912 41.4616L22.0995 41.3448C22.2975 41.336 22.5038 41.4754 22.5795 41.6693L23.4086 43.7755C23.4212 43.8074 23.4491 43.8307 23.4829 43.8375C25.0327 44.1449 26.5546 44.8544 27.8837 45.8891C27.9139 45.9126 27.955 45.917 27.9897 45.9005L29.8594 45.0081C30.0177 44.9621 30.2126 45.0323 30.336 45.1801L32.1801 47.3702C32.3172 47.5321 32.3321 47.7377 32.2154 47.8593L30.8494 49.272C30.8347 49.2873 30.8251 49.3068 30.8221 49.3278C30.819 49.3488 30.8227 49.3702 30.8326 49.3889C31.2062 50.0991 31.4871 50.8405 31.6676 51.5925C31.8477 52.3406 31.9243 53.0907 31.8953 53.8222C31.8946 53.8398 31.8986 53.8574 31.9068 53.873C31.9151 53.8887 31.9274 53.9019 31.9424 53.9113L33.9516 55.1744C34.1341 55.2895 34.2303 55.5025 34.1752 55.6698L33.4088 57.9744C33.3801 58.0594 33.3151 58.1218 33.2259 58.1496C33.1534 58.1722 33.0708 58.1705 32.9872 58.1446L30.7885 57.4486C30.7713 57.4431 30.7531 57.4424 30.7355 57.4464ZM24.9286 55.7772C25.0198 55.7565 25.1095 55.7324 25.1978 55.7049C26.0134 55.4504 26.6691 54.905 27.0442 54.1692C27.4627 53.3484 27.506 52.3483 27.1662 51.3533C26.5437 49.525 24.7198 48.1257 22.8292 48.026C22.3567 48.0013 21.9058 48.0548 21.4892 48.1847C20.6729 48.4394 20.0164 48.9853 19.6409 49.7217C19.2225 50.5423 19.1789 51.5417 19.5182 52.536C20.1407 54.3643 21.9646 55.7636 23.8553 55.8632C24.2287 55.8831 24.5885 55.8541 24.9286 55.7772ZM21.8031 48.3094C22.1242 48.2367 22.4646 48.2092 22.8183 48.2277C24.6296 48.323 26.3775 49.6651 26.9746 51.4186C27.2966 52.3618 27.2573 53.3063 26.8638 54.0781C26.5137 54.7649 25.9006 55.2742 25.1377 55.5124C24.7435 55.6354 24.3158 55.6856 23.8664 55.6618C22.055 55.5664 20.307 54.2245 19.71 52.4709C19.3884 51.5285 19.428 50.5845 19.8214 49.813C20.1719 49.1256 20.7856 48.6158 21.5494 48.3773C21.633 48.3513 21.7176 48.3287 21.8031 48.3094Z" fill="#111111"/>
</g>
<defs>
<linearGradient id="paint0_linear_40000788_5067" x1="58.116" y1="96.2042" x2="23.9443" y2="98.1486" gradientUnits="userSpaceOnUse">
<stop offset="0.325" stop-color="#0E38A3"/>
<stop offset="0.706" stop-color="#D9EEFF"/>
<stop offset="0.938" stop-color="#0E38A3"/>
</linearGradient>
</defs>
</svg>
