<svg width="181" height="181" viewBox="0 0 181 181" fill="none" xmlns="http://www.w3.org/2000/svg">
<mask id="mask0_40000788_5193" style="mask-type:luminance" maskUnits="userSpaceOnUse" x="48" y="28" width="96" height="130">
<path d="M143.28 28.1636H48.2188V157.036H143.28V28.1636Z" fill="white"/>
</mask>
<g mask="url(#mask0_40000788_5193)">
<path d="M106.273 30.2187C107.593 30.0333 108.992 31.0178 109.397 32.4177L141.179 142.011C141.585 143.411 140.844 144.696 139.525 144.882L88.6029 152.037C87.2802 152.222 85.8818 151.238 85.4757 149.838L53.6942 40.2443C53.2883 38.8444 54.0286 37.5594 55.3514 37.3736L106.273 30.2187ZM88.9191 38.7397C89.913 38.6 90.4757 37.6235 90.1697 36.5687C89.8636 35.5139 88.8014 34.7666 87.8075 34.9062L74.9804 36.7085C73.9867 36.8482 73.4239 37.8246 73.7299 38.8789C74.0359 39.9332 75.0986 40.6815 76.0923 40.5419L88.9191 38.7397Z" fill="white"/>
<path d="M88.2808 152.134C87.0303 152.134 85.7847 151.174 85.4032 149.859L53.6218 40.2652C53.4099 39.5344 53.4988 38.7904 53.8657 38.2237C54.0295 37.9716 54.2464 37.7584 54.5012 37.5987C54.756 37.4391 55.0425 37.3369 55.3408 37.2994L106.263 30.1445C107.616 29.9545 109.054 30.9649 109.469 32.3968L141.251 141.991C141.463 142.722 141.374 143.466 141.007 144.033C140.843 144.285 140.627 144.498 140.373 144.657C140.119 144.816 139.833 144.919 139.535 144.956L88.6128 152.111C88.5028 152.126 88.3919 152.134 88.2808 152.134ZM106.284 30.2928L55.3613 37.4477C55.0843 37.4824 54.8183 37.5772 54.5818 37.7252C54.3452 37.8733 54.1438 38.0712 53.9916 38.3051C53.6483 38.8353 53.566 39.5345 53.7658 40.2235L85.547 149.817C85.9424 151.18 87.3083 152.143 88.5919 151.962L139.514 144.808C139.791 144.773 140.056 144.678 140.292 144.53C140.528 144.382 140.729 144.185 140.881 143.951C141.224 143.421 141.307 142.721 141.107 142.032L109.325 32.4385C108.93 31.0752 107.566 30.1127 106.284 30.2928ZM75.8496 40.6335C74.8973 40.6335 73.9483 39.9022 73.6575 38.8998C73.4963 38.3438 73.5653 37.7759 73.8466 37.3413C73.9712 37.1489 74.1362 36.9859 74.3302 36.8638C74.5242 36.7417 74.7425 36.6634 74.9698 36.6343L87.7969 34.8321C88.8285 34.6872 89.9252 35.457 90.2417 36.5481C90.4029 37.1041 90.334 37.6722 90.0526 38.1067C89.9281 38.2991 89.7631 38.4621 89.5691 38.5842C89.3751 38.7063 89.1568 38.7847 88.9294 38.8138L76.1023 40.616C76.0186 40.6277 75.9342 40.6335 75.8496 40.6335ZM88.0513 34.9641C87.973 34.9641 87.8948 34.9695 87.8173 34.9804L74.9903 36.7826C74.7842 36.8088 74.5863 36.8797 74.4104 36.9902C74.2345 37.1008 74.0849 37.2484 73.9719 37.4227C73.7142 37.8207 73.6519 38.3439 73.8009 38.8581C74.0975 39.8806 75.1202 40.6024 76.0809 40.4676L88.9084 38.6655C89.1145 38.6392 89.3124 38.5684 89.4883 38.4578C89.6642 38.3472 89.8138 38.1996 89.9268 38.0253C90.1845 37.6273 90.2468 37.1041 90.0978 36.5898C89.825 35.6502 88.9384 34.9641 88.0513 34.9641Z" fill="#111111"/>
<path d="M87.8074 34.9064C88.8012 34.7667 89.864 35.5148 90.1698 36.5692C90.4755 37.6236 89.9129 38.6 88.9193 38.7397L76.0922 40.542C75.0984 40.6816 74.0355 39.9334 73.7298 38.8791C73.424 37.8247 73.9868 36.8482 74.9803 36.7086L87.8074 34.9064Z" fill="#BDDFFF"/>
<path d="M75.8498 40.6339C74.8976 40.6339 73.9484 39.9026 73.6578 38.9002C73.4965 38.3443 73.5654 37.7763 73.8468 37.3418C73.9713 37.1493 74.1363 36.9864 74.3303 36.8643C74.5243 36.7422 74.7426 36.6638 74.97 36.6348L87.797 34.8325C88.8286 34.6875 89.9253 35.4574 90.2417 36.5486C90.403 37.1045 90.334 37.6726 90.0527 38.1071C89.9281 38.2995 89.7631 38.4625 89.5691 38.5846C89.3751 38.7067 89.1568 38.7851 88.9295 38.8142L76.1024 40.6164C76.0187 40.6281 75.9343 40.6339 75.8498 40.6339ZM88.0515 34.9645C87.9732 34.9645 87.8951 34.9699 87.8176 34.9808L74.9906 36.783C74.7845 36.8093 74.5866 36.8801 74.4107 36.9907C74.2348 37.1012 74.0852 37.2488 73.9722 37.4231C73.7144 37.8212 73.6521 38.3444 73.8012 38.8585C74.0738 39.7983 74.9599 40.4842 75.8474 40.4843C75.9257 40.4844 76.0038 40.4789 76.0813 40.4681L88.9086 38.6659C89.1147 38.6396 89.3125 38.5688 89.4884 38.4582C89.6643 38.3477 89.814 38.2001 89.9269 38.0258C90.1847 37.6277 90.247 37.1045 90.0979 36.5903C89.8251 35.6506 88.939 34.9645 88.0515 34.9645Z" fill="#111111"/>
<path d="M140.088 146.823L89.1617 153.978C86.8353 154.305 84.3654 152.566 83.6486 150.095L51.8672 40.5011C51.3768 38.8099 51.8341 37.2134 52.918 36.269L49.5401 39.2122C48.4561 40.1566 47.9988 41.7531 48.4893 43.4444L80.2707 153.038C80.9875 155.51 83.4574 157.248 85.7839 156.921L136.71 149.766C137.401 149.676 138.051 149.385 138.58 148.93L141.957 145.986C141.429 146.442 140.779 146.733 140.088 146.823Z" fill="url(#paint0_linear_40000788_5193)"/>
<path d="M85.2182 157.035C83.0392 157.035 80.8661 155.358 80.1993 153.058L48.4179 43.4652C47.9361 41.8038 48.3475 40.1525 49.4914 39.1557L52.8694 36.2125C52.8767 36.2058 52.8854 36.2006 52.8948 36.1972C52.9042 36.1939 52.9142 36.1924 52.9241 36.193C52.9341 36.1935 52.9439 36.1961 52.9528 36.2005C52.9618 36.2049 52.9698 36.211 52.9764 36.2185C52.9829 36.2261 52.9879 36.2348 52.9911 36.2443C52.9942 36.2538 52.9954 36.2638 52.9946 36.2737C52.9938 36.2837 52.991 36.2934 52.9864 36.3022C52.9818 36.3111 52.9754 36.319 52.9678 36.3253C51.8682 37.2836 51.4743 38.8755 51.9396 40.4802L83.721 150.074C84.3697 152.31 86.48 153.942 88.5941 153.942C88.7807 153.943 88.967 153.93 89.1518 153.904L140.077 146.748C140.754 146.659 141.39 146.375 141.908 145.93C141.923 145.917 141.943 145.91 141.963 145.912C141.982 145.913 142.001 145.922 142.014 145.937C142.027 145.952 142.034 145.972 142.032 145.991C142.031 146.011 142.022 146.03 142.007 146.043L138.629 148.986C138.089 149.45 137.426 149.746 136.72 149.84L85.7948 156.995C85.6038 157.022 85.4111 157.035 85.2182 157.035ZM52.1989 36.9954L49.5898 39.2687C48.4903 40.227 48.0963 41.8188 48.5617 43.4236L80.3432 153.017C81.0488 155.45 83.4851 157.168 85.774 156.847L136.699 149.692C137.376 149.602 138.013 149.318 138.53 148.873L141.145 146.595C140.812 146.745 140.46 146.847 140.098 146.897L89.1727 154.052C86.813 154.383 84.3029 152.618 83.5772 150.115L51.7958 40.5222C51.4247 39.2424 51.5835 37.9687 52.1989 36.9954Z" fill="#111111"/>
<path d="M105.711 28.2779C108.041 27.9506 110.511 29.6891 111.228 32.161L143.009 141.754C143.726 144.226 142.418 146.495 140.089 146.822L89.1631 153.978C86.8367 154.305 84.3667 152.566 83.65 150.094L51.8682 40.5013C51.1514 38.0294 52.4591 35.7601 54.7885 35.4331L105.711 28.2779ZM141.18 142.011L109.398 32.4181C108.992 31.0182 107.594 30.0337 106.274 30.219L55.3518 37.3739C54.029 37.5597 53.2885 38.8447 53.6945 40.2447L85.4759 149.838C85.8819 151.238 87.2806 152.222 88.6033 152.037L139.526 144.882C140.845 144.696 141.586 143.411 141.18 142.011Z" fill="#BDDFFF"/>
<path d="M88.5962 154.092C86.4172 154.092 84.2441 152.415 83.5773 150.115L51.7959 40.5221C51.4263 39.2474 51.5808 37.9501 52.2201 36.9628C52.5041 36.5255 52.8801 36.1554 53.322 35.8783C53.7638 35.6013 54.2608 35.4239 54.7782 35.3585L105.7 28.2037C108.062 27.8718 110.573 29.6377 111.299 32.1401L143.08 141.733C143.45 143.008 143.295 144.305 142.656 145.293C142.372 145.73 141.996 146.1 141.554 146.377C141.112 146.654 140.616 146.831 140.098 146.897L89.1728 154.052C88.9818 154.079 88.7891 154.092 88.5962 154.092ZM105.721 28.3519L54.7989 35.5068C54.3028 35.5693 53.8263 35.7392 53.4026 36.0048C52.9789 36.2703 52.6183 36.625 52.3458 37.0442C51.7302 37.995 51.582 39.2474 51.9397 40.4804L83.7211 150.074C84.3696 152.31 86.4801 153.942 88.5941 153.943C88.7807 153.943 88.9671 153.93 89.1519 153.904L140.077 146.749C140.573 146.686 141.05 146.516 141.474 146.251C141.897 145.985 142.258 145.63 142.53 145.211C143.146 144.26 143.294 143.008 142.936 141.775L111.155 32.1817C110.449 29.7481 108.012 28.0301 105.721 28.3519ZM88.2813 152.134C87.0308 152.134 85.785 151.174 85.4036 149.859L53.6222 40.2654C53.4103 39.5348 53.4992 38.7907 53.8661 38.224C54.0299 37.972 54.2468 37.7587 54.5016 37.599C54.7564 37.4394 55.0429 37.3372 55.3412 37.2996L106.263 30.1448C107.616 29.9548 109.054 30.9651 109.469 32.3971L141.251 141.991C141.463 142.722 141.374 143.466 141.007 144.033C140.843 144.285 140.627 144.498 140.373 144.657C140.119 144.816 139.833 144.918 139.535 144.956L88.6133 152.111C88.5033 152.126 88.3924 152.134 88.2813 152.134ZM106.596 30.2714C106.492 30.2713 106.387 30.2786 106.284 30.2931L55.3618 37.4479C55.0847 37.4826 54.8186 37.5773 54.5819 37.7254C54.3452 37.8735 54.1437 38.0714 53.9914 38.3054C53.6481 38.8356 53.5658 39.5348 53.7656 40.2237L85.5474 149.817C85.9427 151.18 87.3088 152.143 88.5925 151.962L139.514 144.808C139.791 144.773 140.056 144.678 140.292 144.53C140.528 144.382 140.729 144.185 140.881 143.951C141.224 143.421 141.307 142.721 141.107 142.032L109.325 32.4388C108.962 31.186 107.78 30.2714 106.596 30.2714Z" fill="#111111"/>
</g>
<mask id="mask1_40000788_5193" style="mask-type:luminance" maskUnits="userSpaceOnUse" x="114" y="32" width="36" height="30">
<path d="M149.434 32.7251H114.32V61.9747H149.434V32.7251Z" fill="white"/>
</mask>
<g mask="url(#mask1_40000788_5193)">
<path d="M120.599 57.5161L122.667 59.1924L116.467 61.2861L114.398 59.6097L120.599 57.5161Z" fill="#0E38A3"/>
<path d="M116.467 61.3645C116.449 61.3645 116.431 61.3585 116.417 61.347L114.349 59.6706C114.338 59.6618 114.329 59.6502 114.324 59.637C114.319 59.6239 114.318 59.6096 114.321 59.5958C114.323 59.5819 114.329 59.569 114.339 59.5584C114.348 59.5477 114.36 59.5398 114.373 59.5353L120.574 57.4416C120.599 57.433 120.627 57.4381 120.648 57.4549L122.717 59.1313C122.728 59.1401 122.736 59.1517 122.741 59.1649C122.746 59.1781 122.747 59.1923 122.745 59.2062C122.742 59.22 122.736 59.2329 122.727 59.2435C122.718 59.2542 122.706 59.2622 122.692 59.2666L116.492 61.3603C116.484 61.363 116.475 61.3645 116.467 61.3645ZM114.558 59.6386L116.483 61.1979L122.507 59.1637L120.583 57.6043L114.558 59.6386Z" fill="#111111"/>
<path d="M142.965 35.9873L145.033 37.6636C148.576 40.5348 150.211 45.0282 148.911 49.8042C146.865 57.3211 138.322 62.6914 129.829 61.7988C127.044 61.506 124.609 60.5753 122.667 59.192L120.599 57.5157C122.541 58.899 124.975 59.8297 127.761 60.1225C136.253 61.0151 144.797 55.6449 146.843 48.1279C148.143 43.3519 146.508 38.8585 142.965 35.9873Z" fill="#0E38A3"/>
<path d="M131.679 61.974C131.061 61.974 130.441 61.9423 129.821 61.8771C127.12 61.5931 124.63 60.6869 122.622 59.2562L120.549 57.577C120.533 57.5641 120.523 57.5456 120.521 57.5254C120.519 57.5052 120.524 57.4849 120.536 57.4687C120.549 57.4525 120.567 57.4417 120.587 57.4386C120.607 57.4355 120.628 57.4404 120.644 57.4521C122.631 58.8672 125.095 59.7636 127.769 60.0447C128.381 60.109 128.996 60.1411 129.612 60.1409C137.419 60.1411 144.882 55.0333 146.767 48.1077C148.015 43.5225 146.575 39.0145 142.915 36.0487C142.907 36.0422 142.9 36.0342 142.895 36.0251C142.89 36.0161 142.887 36.0061 142.886 35.9957C142.885 35.9854 142.885 35.975 142.888 35.965C142.891 35.9551 142.896 35.9458 142.903 35.9377C142.909 35.9297 142.917 35.923 142.927 35.9181C142.936 35.9131 142.946 35.9101 142.956 35.9091C142.966 35.9081 142.977 35.9091 142.987 35.9121C142.997 35.9152 143.006 35.9202 143.014 35.9268L145.082 37.6031C148.792 40.6093 150.252 45.1783 148.987 49.8253C147.084 56.8168 139.553 61.9735 131.679 61.974ZM121.713 58.3179L122.717 59.1314C124.7 60.5435 127.163 61.4399 129.838 61.7211C130.45 61.7853 131.065 61.8174 131.681 61.8173C139.487 61.8174 146.951 56.7097 148.836 49.7839C150.084 45.1988 148.644 40.6908 144.984 37.7249L144.458 37.2986C147.083 40.2329 148.004 44.1622 146.918 48.1489C145.015 55.1404 137.484 60.2973 129.61 60.2977C128.992 60.2977 128.372 60.266 127.752 60.2009C125.55 59.9693 123.488 59.3239 121.713 58.3179Z" fill="#111111"/>
<path d="M135.171 32.9002C143.663 33.7928 148.889 40.6104 146.843 48.1281C144.797 55.645 136.253 61.0153 127.761 60.1227C124.975 59.8299 122.541 58.8992 120.599 57.5159L114.398 59.6095L117.729 54.6619C115.802 51.9531 115.106 48.505 116.089 44.8955C118.135 37.3779 126.679 32.0076 135.171 32.9002Z" fill="white"/>
<path d="M129.61 60.2978C128.992 60.2978 128.373 60.2661 127.752 60.2009C125.066 59.9186 122.589 59.0205 120.586 57.6032L114.423 59.6842C114.408 59.6894 114.391 59.6896 114.375 59.6848C114.36 59.68 114.346 59.6704 114.336 59.6574C114.326 59.6444 114.32 59.6285 114.32 59.6121C114.319 59.5957 114.324 59.5796 114.333 59.566L117.634 54.6634C115.64 51.8343 115.065 48.3606 116.013 44.8752C118.066 37.3342 126.664 31.9278 135.179 32.8224C139.515 33.2781 143.236 35.3443 145.39 38.491C147.308 41.294 147.851 44.7239 146.918 48.1489C145.015 55.1404 137.484 60.2978 129.61 60.2978ZM120.599 57.4377C120.615 57.4377 120.631 57.4426 120.644 57.4523C122.631 58.8673 125.095 59.7639 127.769 60.0449C136.211 60.9326 144.734 55.5773 146.767 48.1077C147.687 44.7279 147.152 41.3441 145.26 38.5797C143.133 35.4709 139.452 33.4294 135.162 32.9785C126.72 32.0911 118.198 37.4465 116.165 44.9164C115.224 48.3738 115.802 51.8188 117.793 54.6168C117.803 54.6298 117.808 54.6453 117.808 54.6613C117.808 54.6773 117.803 54.6929 117.795 54.7061L114.593 59.4613L120.574 57.4418C120.582 57.439 120.59 57.4377 120.599 57.4377Z" fill="#111111"/>
<path d="M139.681 40.9639C140.029 41.0004 140.341 41.1732 140.541 41.4774C140.964 42.1183 140.733 43.101 140.024 43.6707L129.437 52.2003C129.067 52.4984 128.636 52.6261 128.25 52.5855C127.933 52.5521 127.644 52.4046 127.443 52.1458L123.634 47.2495C123.166 46.6475 123.336 45.6641 124.015 45.0525C124.4 44.7048 124.867 44.5523 125.285 44.5962C125.601 44.6294 125.889 44.7758 126.091 45.0356L129.106 48.9117L138.493 41.3494C138.866 41.0498 139.295 40.9234 139.681 40.9639Z" fill="#BDDFFF"/>
<path d="M128.39 52.671C128.34 52.671 128.291 52.6685 128.242 52.6633C127.894 52.6267 127.588 52.46 127.381 52.1939L123.572 47.2975C123.08 46.6647 123.255 45.6314 123.962 44.994C124.351 44.6435 124.835 44.47 125.293 44.518C125.641 44.5545 125.946 44.7212 126.153 44.9872L129.119 48.8004L138.444 41.2881C138.816 40.9884 139.27 40.8416 139.689 40.8856C140.074 40.9261 140.4 41.1209 140.607 41.434C141.051 42.1071 140.812 43.1378 140.074 43.7316L129.486 52.2611C129.157 52.5257 128.765 52.671 128.39 52.671ZM125.141 44.6671C124.769 44.6671 124.384 44.8246 124.067 45.1106C123.42 45.6941 123.253 46.632 123.696 47.2012L127.505 52.0975C127.685 52.3296 127.953 52.4751 128.258 52.5073C128.636 52.5472 129.048 52.4127 129.388 52.139L139.975 43.6094C140.652 43.0649 140.877 42.1279 140.476 41.5204C140.296 41.2472 140.01 41.0772 139.673 41.0416C139.295 41.0018 138.883 41.1363 138.543 41.4103L129.156 48.9726C129.147 48.9792 129.138 48.984 129.128 48.9869C129.118 48.9898 129.108 48.9907 129.097 48.9895C129.087 48.9883 129.077 48.985 129.068 48.9799C129.059 48.9748 129.051 48.9679 129.044 48.9597L126.03 45.0835C125.846 44.8482 125.586 44.7066 125.276 44.674C125.232 44.6693 125.187 44.6671 125.141 44.6671Z" fill="#111111"/>
</g>
<mask id="mask2_40000788_5193" style="mask-type:luminance" maskUnits="userSpaceOnUse" x="69" y="43" width="73" height="110">
<path d="M141.398 43.8018H69.2148V152.257H141.398V43.8018Z" fill="white"/>
</mask>
<g mask="url(#mask2_40000788_5193)">
<path d="M95.0707 70.8779C100.27 68.4767 102.775 62.5093 100.922 56.0634C98.6952 48.3836 91.0224 42.9824 83.7842 43.9995C76.5457 45.0166 72.4835 52.0666 74.7105 59.7466C76.2592 65.0872 80.4413 69.3249 85.2793 71.0695C86.9423 71.6696 88.712 71.9833 90.4809 71.9273L90.4887 71.9272C91.4389 71.8965 92.3871 71.7615 93.3053 71.5143C93.9104 71.3514 94.5009 71.1386 95.0707 70.8779Z" fill="#0E38A3"/>
<path d="M90.0694 72.0084C88.4713 72.0084 86.8536 71.7168 85.2542 71.1397C80.2136 69.322 76.146 64.9644 74.6389 59.7672C73.5032 55.851 73.9766 51.8678 75.9376 48.8391C77.6888 46.1344 80.4718 44.3893 83.7741 43.9254C91.0357 42.9046 98.761 48.3407 100.995 56.0426C101.902 59.1965 101.804 62.2991 100.711 65.0152C99.6472 67.6605 97.6553 69.7667 95.1023 70.9458C94.5288 71.2082 93.934 71.4226 93.3249 71.5864C92.4181 71.8305 91.4647 71.9703 90.4914 72.0018L90.4836 72.0019C90.3458 72.0062 90.2076 72.0084 90.0694 72.0084ZM90.4788 71.8524L90.489 71.927L90.4866 71.8523C91.4484 71.8211 92.3903 71.683 93.2861 71.4419C93.8871 71.2802 94.4736 71.0688 95.0396 70.8099C97.5579 69.6469 99.5228 67.5692 100.573 64.9594C101.652 62.2746 101.749 59.2055 100.851 56.0841C98.6372 48.4511 90.9867 43.0638 83.7948 44.0735C80.5363 44.5313 77.7904 46.2527 76.0632 48.9204C74.1258 51.9126 73.6591 55.851 74.7826 59.7256C76.2766 64.8776 80.3086 69.1973 85.3049 70.9991C87.0248 71.6195 88.7655 71.9061 90.4788 71.8524Z" fill="#111111"/>
<path d="M85.6329 50.3749C83.5158 50.6724 82.3279 52.734 82.9792 54.9801C83.6306 57.2263 85.8742 58.8057 87.9914 58.5083C90.1083 58.2109 91.2962 56.1492 90.6448 53.903C89.9934 51.6569 87.7498 50.0774 85.6329 50.3749Z" fill="white"/>
<path d="M87.4758 58.619C85.4919 58.619 83.5137 57.0929 82.9071 55.0011C82.5706 53.841 82.7114 52.6603 83.2932 51.7618C83.8138 50.9577 84.641 50.439 85.6222 50.3011C87.7706 49.9994 90.0562 51.6056 90.7163 53.8824C91.0528 55.0427 90.9121 56.2235 90.3302 57.122C89.8096 57.926 88.9826 58.4447 88.0015 58.5825C87.8273 58.6068 87.6517 58.619 87.4758 58.619ZM85.643 50.4492C84.7053 50.581 83.9154 51.076 83.4187 51.8431C82.8606 52.7051 82.7264 53.8411 83.0508 54.9595C83.6911 57.1676 85.9027 58.7262 87.9807 58.4344C88.9182 58.3027 89.7081 57.8077 90.2046 57.0407C90.7628 56.1786 90.897 55.0425 90.5726 53.924C89.9323 51.7159 87.7206 50.157 85.643 50.4492Z" fill="#111111"/>
<path d="M88.7078 60.9779C84.4672 61.5737 81.9038 65.3568 82.5009 69.7521C88.0193 73.1273 95.4401 72.7957 99.3147 67.3895C97.4159 63.1772 92.9482 60.3821 88.7078 60.9779Z" fill="white"/>
<path d="M90.084 72.0178C87.4759 72.0178 84.8168 71.2561 82.4619 69.816C82.4525 69.8102 82.4444 69.8024 82.4383 69.7931C82.4323 69.7837 82.4284 69.7732 82.4269 69.7622C82.1335 67.6025 82.5959 65.5197 83.729 63.8974C84.8754 62.2561 86.6399 61.193 88.6975 60.9038C90.7513 60.6153 92.9641 61.1172 94.9284 62.3168C96.8699 63.5026 98.4519 65.2932 99.3829 67.3589C99.3883 67.3708 99.3905 67.384 99.3892 67.397C99.3879 67.41 99.3832 67.4225 99.3755 67.4331C97.551 69.9789 94.7657 71.5788 91.5325 71.9382C91.0515 71.9915 90.5679 72.0181 90.084 72.0178ZM82.5704 69.7069C85.3283 71.3848 88.5036 72.1244 91.5161 71.7895C94.738 71.4314 97.4039 69.9073 99.2289 67.3811C98.3077 65.3591 96.7543 63.6072 94.8506 62.4445C92.9157 61.2627 90.7379 60.7684 88.7184 61.052C86.7023 61.3353 84.9739 62.3762 83.8517 63.9831C82.7464 65.5656 82.2919 67.5972 82.5704 69.7069Z" fill="#111111"/>
<path d="M88.256 75.7856L80.0908 76.9329L81.1962 80.745L89.3614 79.5976L88.256 75.7856Z" fill="#0E38A3"/>
<path d="M81.1968 80.8194C81.1806 80.8194 81.1648 80.8142 81.1519 80.8044C81.1389 80.7947 81.1295 80.781 81.125 80.7654L80.0196 76.9533C80.0166 76.943 80.0159 76.9322 80.0174 76.9216C80.019 76.911 80.0228 76.9009 80.0286 76.8919C80.0344 76.8829 80.0421 76.8752 80.0512 76.8695C80.0602 76.8637 80.0704 76.86 80.081 76.8585L88.2463 75.7112C88.2642 75.7086 88.2823 75.7126 88.2975 75.7224C88.3126 75.7322 88.3237 75.7471 88.3286 75.7645L89.434 79.5765C89.437 79.5868 89.4378 79.5976 89.4362 79.6082C89.4347 79.6188 89.4309 79.6289 89.425 79.6379C89.4192 79.6469 89.4115 79.6546 89.4025 79.6603C89.3934 79.6661 89.3832 79.6698 89.3726 79.6713L81.2073 80.8187C81.2038 80.8192 81.2003 80.8194 81.1968 80.8194ZM80.1872 76.9946L81.2506 80.6615L89.2662 79.5351L88.2029 75.8683L80.1872 76.9946Z" fill="#111111"/>
<path d="M105.54 73.3569L90.6523 75.4488L91.7578 79.2608L106.645 77.1689L105.54 73.3569Z" fill="#0E38A3"/>
<path d="M91.7583 79.3358C91.7421 79.3358 91.7263 79.3305 91.7134 79.3208C91.7004 79.3111 91.691 79.2974 91.6865 79.2818L90.5811 75.4697C90.5781 75.4594 90.5773 75.4486 90.5789 75.438C90.5805 75.4274 90.5843 75.4173 90.5901 75.4083C90.5959 75.3993 90.6036 75.3916 90.6127 75.3859C90.6217 75.3801 90.6319 75.3764 90.6425 75.3749L105.53 73.283C105.548 73.2805 105.566 73.2844 105.582 73.2942C105.597 73.304 105.608 73.319 105.613 73.3363L106.718 77.1483C106.721 77.1586 106.722 77.1694 106.72 77.18C106.719 77.1906 106.715 77.2007 106.709 77.2097C106.703 77.2187 106.696 77.2264 106.687 77.2321C106.678 77.2379 106.667 77.2417 106.657 77.2431L91.7688 79.3351C91.7653 79.3356 91.7618 79.3358 91.7583 79.3358ZM90.7488 75.511L91.8121 79.1779L106.55 77.107L105.487 73.4402L90.7488 75.511Z" fill="#111111"/>
<path d="M105.498 81.3994L90.0547 83.5693L90.4886 85.0655L105.932 82.8955L105.498 81.3994Z" fill="#BDDFFF"/>
<path d="M90.489 85.14C90.4728 85.14 90.4571 85.1347 90.4441 85.125C90.4312 85.1152 90.4218 85.1016 90.4173 85.086L89.9834 83.5898C89.9804 83.5795 89.9797 83.5687 89.9812 83.5581C89.9828 83.5475 89.9866 83.5373 89.9924 83.5283C89.9983 83.5194 90.006 83.5117 90.015 83.506C90.0241 83.5002 90.0342 83.4965 90.0449 83.495L105.488 81.325C105.506 81.3224 105.524 81.3264 105.54 81.3362C105.555 81.3459 105.566 81.3609 105.571 81.3782L106.005 82.8744C106.008 82.8847 106.008 82.8955 106.007 82.9061C106.005 82.9167 106.001 82.9269 105.996 82.9359C105.99 82.9449 105.982 82.9525 105.973 82.9583C105.964 82.964 105.954 82.9678 105.943 82.9692L90.4996 85.1392C90.4961 85.1397 90.4926 85.14 90.489 85.14ZM90.1512 83.6311L90.543 84.982L105.837 82.8331L105.445 81.4822L90.1512 83.6311Z" fill="#111111"/>
<path d="M84.4111 83.5976L85.2713 86.5638L88.5931 86.097L87.7329 83.1309L84.4111 83.5976Z" fill="white"/>
<path d="M85.2708 86.6382C85.2546 86.6382 85.2388 86.6329 85.2259 86.6231C85.2129 86.6134 85.2035 86.5997 85.199 86.5842L84.3389 83.618C84.3359 83.6077 84.3351 83.5969 84.3367 83.5863C84.3383 83.5757 84.3421 83.5655 84.3479 83.5565C84.3537 83.5475 84.3614 83.5399 84.3705 83.5341C84.3795 83.5284 84.3897 83.5246 84.4003 83.5231L87.7221 83.0564C87.7399 83.0538 87.7581 83.0578 87.7732 83.0676C87.7884 83.0774 87.7994 83.0923 87.8044 83.1097L88.6645 86.0758C88.6675 86.0861 88.6683 86.0969 88.6667 86.1075C88.6652 86.1182 88.6614 86.1283 88.6555 86.1373C88.6497 86.1463 88.642 86.1539 88.633 86.1597C88.6239 86.1654 88.6137 86.1692 88.6031 86.1707L85.2813 86.6374C85.2778 86.6379 85.2743 86.6382 85.2708 86.6382ZM84.5066 83.6593L85.3247 86.4803L88.4968 86.0346L87.6787 83.2135L84.5066 83.6593Z" fill="#111111"/>
<path d="M86.514 84.9386C86.5004 84.9386 86.4871 84.9349 86.4755 84.9278L84.3722 83.6613C84.3637 83.6563 84.3564 83.6496 84.3506 83.6417C84.3447 83.6338 84.3405 83.6248 84.3382 83.6153C84.3358 83.6057 84.3353 83.5958 84.3368 83.5861C84.3383 83.5764 84.3416 83.5671 84.3467 83.5587C84.3518 83.5502 84.3585 83.5429 84.3664 83.5371C84.3743 83.5312 84.3833 83.527 84.3928 83.5247C84.4023 83.5223 84.4122 83.5219 84.422 83.5233C84.4317 83.5248 84.441 83.5282 84.4494 83.5332L86.493 84.7638L87.6714 83.0875C87.677 83.0795 87.6842 83.0726 87.6925 83.0673C87.7008 83.0621 87.71 83.0585 87.7197 83.0568C87.7294 83.0551 87.7393 83.0554 87.7489 83.0575C87.7585 83.0597 87.7676 83.0637 87.7756 83.0693C87.7837 83.075 87.7905 83.0822 87.7958 83.0905C87.8011 83.0987 87.8046 83.108 87.8063 83.1177C87.808 83.1274 87.8078 83.1373 87.8056 83.1469C87.8035 83.1565 87.7995 83.1655 87.7938 83.1736L86.5754 84.9068C86.5684 84.9166 86.5592 84.9247 86.5486 84.9302C86.5379 84.9357 86.526 84.9386 86.514 84.9386Z" fill="#111111"/>
<path d="M141.214 142.193L134.195 117.989C133.823 116.705 132.538 115.8 131.328 115.97L94.7524 121.11C93.9438 121.223 93.0884 120.621 92.8407 119.767L91.4794 115.072C91.1072 113.789 89.8262 112.887 88.6165 113.057L77.5848 114.607C76.3719 114.777 75.6937 115.955 76.0659 117.238L85.5536 149.956L85.5697 150.012C85.9662 151.379 87.333 152.342 88.6217 152.16L139.595 144.998C140.884 144.817 141.611 143.561 141.214 142.193Z" fill="white"/>
<path d="M88.3078 152.257C87.0871 152.257 85.8703 151.319 85.4974 150.033L75.9935 117.259C75.7987 116.587 75.8804 115.904 76.2175 115.383C76.5203 114.915 77.0021 114.613 77.5739 114.533L88.6056 112.983C89.8482 112.809 91.1693 113.736 91.5507 115.051L92.912 119.746C93.1497 120.565 93.9706 121.143 94.7415 121.036L131.318 115.896C132.562 115.721 133.885 116.651 134.267 117.968L141.286 142.173C141.493 142.886 141.405 143.613 141.046 144.167C140.724 144.665 140.212 144.987 139.605 145.072L88.6316 152.234C88.5243 152.25 88.4162 152.257 88.3078 152.257ZM88.9118 113.111C88.8165 113.111 88.7212 113.118 88.6264 113.131L77.5947 114.681C77.0665 114.755 76.6221 115.034 76.3432 115.464C76.0296 115.949 75.9546 116.587 76.1373 117.217L85.6412 149.991C86.0271 151.323 87.3598 152.262 88.6109 152.086L139.585 144.924C140.148 144.845 140.622 144.547 140.921 144.086C141.256 143.568 141.337 142.886 141.142 142.214L134.124 118.01C133.761 116.761 132.512 115.879 131.339 116.045L94.7625 121.184C93.9206 121.302 93.026 120.676 92.7685 119.788L91.4072 115.093C91.0748 113.948 89.9942 113.111 88.9118 113.111Z" fill="#111111"/>
<path d="M111.036 112.52L96.8457 114.514L98.0016 118.501L112.192 116.507L111.036 112.52Z" fill="#0E38A3"/>
<path d="M98.0023 118.575C97.9861 118.575 97.9702 118.57 97.9573 118.56C97.9443 118.551 97.935 118.537 97.9305 118.521L96.7744 114.535C96.7714 114.525 96.7707 114.514 96.7722 114.503C96.7738 114.493 96.7776 114.483 96.7834 114.474C96.7893 114.465 96.797 114.457 96.806 114.451C96.8151 114.445 96.8252 114.442 96.8359 114.44L111.027 112.446C111.045 112.444 111.063 112.448 111.078 112.458C111.093 112.467 111.104 112.482 111.109 112.5L112.265 116.486C112.268 116.496 112.269 116.507 112.267 116.518C112.266 116.528 112.262 116.538 112.256 116.547C112.25 116.556 112.242 116.564 112.233 116.57C112.224 116.576 112.214 116.579 112.204 116.581L98.0127 118.575C98.0092 118.575 98.0058 118.575 98.0023 118.575ZM96.9421 114.576L98.056 118.417L112.097 116.445L110.983 112.604L96.9421 114.576Z" fill="#111111"/>
<path d="M89.0486 115.61L78.6055 117.077L79.7614 121.064L90.2046 119.596L89.0486 115.61Z" fill="#BDDFFF"/>
<path d="M79.7609 121.138C79.7447 121.138 79.729 121.133 79.716 121.123C79.7031 121.114 79.6937 121.1 79.6892 121.084L78.5332 117.098C78.5302 117.088 78.5295 117.077 78.531 117.066C78.5326 117.056 78.5364 117.046 78.5422 117.037C78.548 117.028 78.5557 117.02 78.5648 117.014C78.5738 117.008 78.584 117.005 78.5946 117.003L89.0379 115.536C89.0557 115.533 89.0738 115.537 89.0889 115.547C89.1041 115.557 89.1151 115.572 89.1201 115.589L90.2761 119.575C90.2791 119.586 90.2799 119.597 90.2783 119.607C90.2768 119.618 90.273 119.628 90.2671 119.637C90.2613 119.646 90.2536 119.654 90.2446 119.659C90.2355 119.665 90.2253 119.669 90.2147 119.67L79.7715 121.138C79.768 121.138 79.7645 121.138 79.7609 121.138ZM78.7009 117.139L79.8148 120.98L90.1084 119.534L88.9945 115.693L78.7009 117.139Z" fill="#111111"/>
<path d="M129.277 109.957L118.833 111.425L119.989 115.411L130.432 113.944L129.277 109.957Z" fill="#0E38A3"/>
<path d="M119.989 115.486C119.973 115.486 119.957 115.481 119.944 115.471C119.931 115.461 119.922 115.448 119.917 115.432L118.761 111.446C118.758 111.435 118.758 111.425 118.759 111.414C118.761 111.403 118.765 111.393 118.77 111.384C118.776 111.375 118.784 111.368 118.793 111.362C118.802 111.356 118.812 111.352 118.823 111.351L129.266 109.883C129.284 109.881 129.302 109.885 129.317 109.895C129.332 109.904 129.343 109.919 129.348 109.937L130.504 113.923C130.507 113.933 130.508 113.944 130.507 113.955C130.505 113.965 130.501 113.975 130.495 113.984C130.49 113.993 130.482 114.001 130.473 114.007C130.464 114.013 130.454 114.016 130.443 114.018L120 115.485C119.996 115.486 119.993 115.486 119.989 115.486ZM118.929 111.487L120.043 115.328L130.337 113.882L129.223 110.04L118.929 111.487Z" fill="#111111"/>
<path d="M106.338 125.279L81.9766 128.702L88.773 152.139L113.134 148.716L106.338 125.279Z" fill="#0E38A3"/>
<path d="M88.7725 152.214C88.7563 152.214 88.7406 152.209 88.7276 152.199C88.7147 152.189 88.7053 152.176 88.7008 152.16L81.9044 128.722C81.9014 128.712 81.9006 128.701 81.9022 128.691C81.9037 128.68 81.9076 128.67 81.9134 128.661C81.9192 128.652 81.9269 128.644 81.9359 128.639C81.945 128.633 81.9551 128.629 81.9658 128.628L106.327 125.205C106.363 125.199 106.398 125.222 106.409 125.258L113.205 148.695C113.208 148.706 113.209 148.716 113.207 148.727C113.206 148.738 113.202 148.748 113.196 148.757C113.19 148.766 113.183 148.773 113.174 148.779C113.165 148.785 113.154 148.789 113.144 148.79L88.7831 152.213C88.7796 152.214 88.776 152.214 88.7725 152.214ZM82.0721 128.764L88.8264 152.056L113.037 148.654L106.283 125.362L82.0721 128.764Z" fill="#111111"/>
<path d="M132.647 121.582L108.29 125.004L115.086 148.442L139.444 145.019L132.647 121.582Z" fill="#0E38A3"/>
<path d="M115.086 148.517C115.07 148.517 115.054 148.511 115.041 148.502C115.028 148.492 115.019 148.478 115.014 148.463L108.218 125.025C108.215 125.015 108.214 125.004 108.216 124.993C108.217 124.983 108.221 124.973 108.227 124.964C108.233 124.955 108.24 124.947 108.249 124.941C108.258 124.936 108.269 124.932 108.279 124.93L132.637 121.508C132.655 121.505 132.673 121.509 132.688 121.519C132.703 121.529 132.714 121.544 132.719 121.561L139.516 144.999C139.519 145.009 139.519 145.02 139.518 145.03C139.516 145.041 139.513 145.051 139.507 145.06C139.501 145.069 139.493 145.077 139.484 145.082C139.475 145.088 139.465 145.092 139.454 145.093L115.097 148.516C115.093 148.516 115.09 148.517 115.086 148.517ZM108.386 125.066L115.14 148.359L139.348 144.957L132.594 121.665L108.386 125.066Z" fill="#111111"/>
<path d="M129.516 101.851L125.036 86.4035C124.664 85.12 123.379 84.2153 122.169 84.3853L70.9091 91.5879C69.6962 91.7583 69.019 92.9387 69.3911 94.2222L73.8706 109.67C74.2761 111.068 75.6731 112.052 76.9913 111.866L127.86 104.719C129.178 104.533 129.921 103.249 129.516 101.851Z" fill="white"/>
<path d="M76.6713 111.963C75.4238 111.963 74.1802 111.005 73.7992 109.691L69.3197 94.2432C69.1247 93.5705 69.2066 92.8854 69.5444 92.3635C69.8472 91.8959 70.3284 91.5941 70.8992 91.5139L122.159 84.3113C123.403 84.136 124.726 85.0656 125.108 86.3828L129.587 101.83C129.799 102.559 129.71 103.302 129.343 103.869C129.014 104.377 128.491 104.706 127.87 104.793L77.0022 111.94C76.8926 111.956 76.782 111.963 76.6713 111.963ZM122.465 84.4396C122.37 84.4396 122.275 84.4461 122.179 84.4595L70.92 91.662C70.3929 91.736 69.949 92.0141 69.6701 92.4448C69.3558 92.9302 69.2805 93.5706 69.4634 94.2015L73.9428 109.649C74.3377 111.011 75.7008 111.973 76.9814 111.792L127.85 104.645C128.426 104.564 128.912 104.259 129.217 103.787C129.56 103.257 129.643 102.559 129.444 101.872L124.964 86.4244C124.632 85.2771 123.549 84.4396 122.465 84.4396Z" fill="#111111"/>
<path d="M83.8034 91.9541L71.8086 93.6395L72.5379 96.1543L84.5326 94.4689L83.8034 91.9541Z" fill="#0E38A3"/>
<path d="M72.5383 96.2291C72.5221 96.229 72.5063 96.2238 72.4934 96.214C72.4805 96.2043 72.471 96.1906 72.4666 96.1751L71.7373 93.6603C71.7343 93.65 71.7336 93.6392 71.7351 93.6286C71.7367 93.618 71.7405 93.6078 71.7463 93.5988C71.7521 93.5898 71.7598 93.5822 71.7689 93.5764C71.7779 93.5707 71.7881 93.5669 71.7987 93.5655L83.7935 91.8801C83.8113 91.8776 83.8295 91.8816 83.8446 91.8913C83.8597 91.9011 83.8708 91.916 83.8758 91.9333L84.605 94.448C84.608 94.4583 84.6088 94.4691 84.6072 94.4797C84.6057 94.4903 84.6018 94.5005 84.596 94.5095C84.5902 94.5185 84.5825 94.5261 84.5735 94.5319C84.5644 94.5376 84.5542 94.5414 84.5436 94.5428L72.5488 96.2283C72.5453 96.2288 72.5418 96.2291 72.5383 96.2291ZM71.9051 93.7016L72.5922 96.0712L84.4373 94.4067L83.7501 92.0372L71.9051 93.7016Z" fill="#111111"/>
<path d="M79.9013 97.8092C77.1139 98.2009 75.548 100.918 76.4056 103.876C77.2632 106.834 80.2208 108.915 83.0082 108.524C85.7991 108.132 87.3614 105.415 86.5038 102.457C85.6461 99.4992 82.6921 97.417 79.9013 97.8092Z" fill="#BDDFFF"/>
<path d="M82.3294 108.646C79.726 108.646 77.1301 106.643 76.3339 103.897C75.8929 102.376 76.0774 100.828 76.8404 99.6487C77.5226 98.5951 78.6059 97.9153 79.891 97.7348C82.7102 97.3388 85.7092 99.4476 86.5757 102.436C87.017 103.958 86.8327 105.507 86.07 106.685C85.3882 107.738 84.3046 108.417 83.0187 108.598C82.7899 108.63 82.5594 108.646 82.3294 108.646ZM79.9118 97.8829C78.6704 98.0574 77.6242 98.7134 76.966 99.7299C76.2266 100.872 76.0486 102.376 76.4776 103.855C77.3242 106.775 80.2494 108.837 82.9979 108.45C84.2402 108.275 85.2866 107.619 85.9444 106.603C86.6836 105.462 86.8612 103.958 86.432 102.478C85.5855 99.558 82.6604 97.4967 79.9118 97.8829Z" fill="#111111"/>
<path d="M92.3826 96.0552C89.5952 96.4469 88.0295 99.1642 88.8871 102.122C89.7447 105.08 92.7021 107.162 95.4895 106.77C98.2804 106.378 99.8428 103.661 98.9852 100.704C98.1276 97.7453 95.1734 95.6631 92.3826 96.0552Z" fill="#BDDFFF"/>
<path d="M94.8108 106.892C92.2076 106.892 89.6116 104.889 88.8155 102.143C88.3743 100.622 88.559 99.0736 89.3219 97.8952C90.0041 96.8416 91.0874 96.162 92.3724 95.9814C95.1919 95.5854 98.1907 97.6941 99.0572 100.683C99.4985 102.204 99.3143 103.753 98.5516 104.931C97.8698 105.984 96.786 106.663 95.5001 106.844C95.2712 106.876 95.0408 106.892 94.8108 106.892ZM92.3931 96.1296C91.1517 96.304 90.1056 96.9599 89.4475 97.9765C88.7081 99.1185 88.5301 100.622 88.9591 102.102C89.8058 105.021 92.7306 107.083 95.4793 106.696C96.7216 106.521 97.7681 105.866 98.426 104.85C99.1651 103.708 99.3428 102.204 98.9136 100.724C98.0669 97.8046 95.1414 95.7432 92.3931 96.1296Z" fill="#111111"/>
<path d="M104.865 94.3013C102.077 94.693 100.511 97.4103 101.369 100.369C102.227 103.326 105.184 105.408 107.971 105.016C110.762 104.624 112.325 101.907 111.467 98.9491C110.61 95.9914 107.655 93.9092 104.865 94.3013Z" fill="#BDDFFF"/>
<path d="M107.293 105.137C104.689 105.137 102.093 103.134 101.297 100.388C100.856 98.8678 101.041 97.3195 101.804 96.1411C102.486 95.0876 103.569 94.4079 104.854 94.2274C107.673 93.8318 110.673 95.9401 111.539 98.9284C111.98 100.451 111.796 101.999 111.033 103.177C110.352 104.23 109.268 104.909 107.982 105.089C107.753 105.121 107.523 105.137 107.293 105.137ZM104.875 94.3754C103.634 94.5499 102.588 95.2058 101.929 96.2223C101.19 97.3643 101.012 98.8677 101.441 100.347C102.288 103.266 105.212 105.329 107.961 104.942C109.203 104.768 110.25 104.111 110.908 103.095C111.647 101.953 111.825 100.45 111.395 98.97C110.549 96.0506 107.623 93.9896 104.875 94.3754Z" fill="#111111"/>
<path d="M117.346 92.5479C114.558 92.9395 112.993 95.6568 113.85 98.6146C114.708 101.572 117.665 103.654 120.453 103.262C123.244 102.87 124.806 100.154 123.949 97.1957C123.091 94.2379 120.137 92.1557 117.346 92.5479Z" fill="#BDDFFF"/>
<path d="M119.773 103.384C117.17 103.384 114.574 101.381 113.778 98.6352C113.336 97.114 113.521 95.5658 114.284 94.3874C114.966 93.3339 116.05 92.6542 117.335 92.4736C120.154 92.0774 123.153 94.1863 124.019 97.1746C124.461 98.6964 124.276 100.245 123.514 101.423C122.832 102.476 121.748 103.156 120.462 103.336C120.233 103.369 120.003 103.384 119.773 103.384ZM117.355 92.6217C116.114 92.7961 115.068 93.4522 114.41 94.4687C113.67 95.6107 113.492 97.1141 113.921 98.5935C114.768 101.514 117.693 103.575 120.442 103.188C121.684 103.014 122.73 102.358 123.388 101.342C124.127 100.201 124.305 98.6965 123.876 97.2163C123.029 94.2967 120.105 92.2352 117.355 92.6217Z" fill="#111111"/>
</g>
<mask id="mask3_40000788_5193" style="mask-type:luminance" maskUnits="userSpaceOnUse" x="12" y="86" width="54" height="50">
<path d="M51.5859 86.5217L12.9287 102.165L26.5624 135.856L65.2195 120.212L51.5859 86.5217Z" fill="white"/>
</mask>
<g mask="url(#mask3_40000788_5193)">
<path d="M31.127 106.497L33.282 105.351L36.6938 126.976L34.5388 128.121L31.127 106.497Z" fill="#111111"/>
<path d="M34.5707 128.201C34.5586 128.206 34.5456 128.208 34.5326 128.207C34.5197 128.207 34.507 128.203 34.4957 128.196C34.4844 128.19 34.4746 128.181 34.4672 128.17C34.4598 128.16 34.4549 128.148 34.4529 128.135L31.0411 106.511C31.0354 106.474 31.0534 106.438 31.086 106.421L33.2409 105.275C33.2531 105.269 33.2666 105.265 33.2804 105.265C33.2942 105.265 33.3078 105.268 33.3201 105.274C33.3325 105.28 33.3432 105.289 33.3513 105.3C33.3594 105.311 33.3648 105.324 33.3669 105.338L36.7787 126.962C36.7815 126.98 36.7787 126.998 36.7706 127.014C36.7626 127.03 36.7497 127.043 36.7338 127.052L34.5789 128.198C34.5762 128.199 34.5735 128.2 34.5707 128.201ZM31.2215 106.544L34.6048 127.988L36.5983 126.928L33.215 105.485L31.2215 106.544Z" fill="#111111"/>
<path d="M20.626 107.762L22.781 106.617L33.2822 105.351L31.1272 106.497L20.626 107.762Z" fill="#BDDFFF"/>
<path d="M31.1592 106.577C31.1521 106.58 31.1447 106.582 31.137 106.583L20.6358 107.848C20.6158 107.851 20.5955 107.846 20.5786 107.835C20.5616 107.824 20.549 107.808 20.543 107.788C20.537 107.769 20.5379 107.748 20.5455 107.73C20.5532 107.711 20.5672 107.696 20.585 107.686L22.74 106.541C22.7495 106.536 22.7597 106.533 22.7702 106.531L33.2715 105.266C33.2915 105.263 33.3118 105.268 33.3287 105.279C33.3457 105.29 33.3582 105.306 33.3643 105.326C33.3703 105.345 33.3694 105.366 33.3617 105.384C33.354 105.403 33.3401 105.418 33.3222 105.428L31.1673 106.573C31.1646 106.575 31.162 106.576 31.1592 106.577ZM21.0751 107.621L31.1005 106.413L32.8323 105.493L22.8068 106.701L21.0751 107.621Z" fill="#111111"/>
<path d="M20.626 107.762L31.1272 106.497L34.539 128.121L24.0378 129.387L20.626 107.762Z" fill="#0E38A3"/>
<path d="M34.5709 128.201C34.5639 128.204 34.5564 128.206 34.5488 128.207L24.0475 129.472C24.0253 129.475 24.003 129.469 23.9851 129.456C23.9673 129.442 23.9553 129.422 23.9519 129.4L20.5401 107.776C20.5383 107.764 20.5389 107.753 20.5417 107.741C20.5445 107.73 20.5496 107.72 20.5566 107.71C20.5636 107.701 20.5724 107.693 20.5825 107.688C20.5925 107.682 20.6036 107.678 20.6151 107.677L31.1164 106.411C31.1386 106.409 31.161 106.415 31.1788 106.428C31.1967 106.441 31.2086 106.461 31.2121 106.483L34.6238 128.108C34.6268 128.127 34.6232 128.147 34.6136 128.164C34.604 128.181 34.589 128.194 34.5709 128.201ZM24.1097 129.291L34.4393 128.046L31.0543 106.593L20.7248 107.837L24.1097 129.291Z" fill="#111111"/>
<path d="M30.6378 126.675C31.354 126.294 31.6078 125.371 31.2048 124.613C30.8018 123.856 29.8946 123.55 29.1784 123.931C28.4623 124.311 28.2084 125.234 28.6114 125.992C29.0145 126.75 29.9217 127.055 30.6378 126.675Z" fill="white"/>
<path d="M30.5418 126.815C30.4209 126.864 30.2928 126.897 30.1597 126.914C29.3044 127.017 28.4949 126.379 28.3551 125.493C28.2852 125.05 28.3903 124.616 28.6511 124.271C28.8968 123.946 29.2544 123.74 29.6578 123.692C30.513 123.589 31.3225 124.226 31.4623 125.112C31.5322 125.556 31.4273 125.99 31.1667 126.334C31.002 126.552 30.7872 126.716 30.5418 126.815ZM29.3413 123.95C29.1244 124.037 28.9345 124.183 28.7888 124.375C28.5567 124.682 28.4632 125.07 28.5258 125.466C28.6513 126.262 29.3749 126.834 30.139 126.742C30.4957 126.699 30.8117 126.517 31.029 126.23C31.261 125.923 31.3543 125.536 31.2917 125.139C31.1662 124.344 30.4424 123.771 29.6784 123.863C29.5627 123.877 29.4493 123.906 29.3413 123.95Z" fill="#111111"/>
<path d="M43.2792 92.4256C42.6435 91.2394 41.8563 90.7871 41.1937 90.8668C41.0417 90.8852 40.8945 90.9317 40.7595 91.004L38.6045 92.1495C38.7395 92.0774 38.8867 92.0309 39.0387 92.0124C39.7013 91.9326 40.4885 92.385 41.1243 93.5713C43.2896 97.6088 41.8679 102.712 41.2521 104.874L43.4071 103.728C44.0229 101.566 45.4446 96.4632 43.2792 92.4256Z" fill="#BDDFFF"/>
<path d="M41.2842 104.954C41.2692 104.96 41.2528 104.962 41.2368 104.959C41.2209 104.956 41.2059 104.949 41.1939 104.938C41.1819 104.927 41.1732 104.913 41.1687 104.898C41.1642 104.882 41.1642 104.866 41.1687 104.85C41.7289 102.883 43.217 97.6569 41.0476 93.6118C40.4862 92.5643 39.7575 92.0125 39.0485 92.0979C38.9071 92.1151 38.7701 92.1584 38.6445 92.2255C38.6242 92.2362 38.6006 92.2385 38.5787 92.2318C38.5568 92.2251 38.5385 92.21 38.5277 92.1897C38.517 92.1695 38.5146 92.1458 38.5213 92.1239C38.528 92.102 38.5432 92.0837 38.5634 92.0729L40.7186 90.9275C40.863 90.8503 41.0205 90.8006 41.183 90.7809C41.9665 90.6865 42.7583 91.2712 43.3551 92.3846C45.5577 96.4915 44.0554 101.766 43.4899 103.752C43.4867 103.763 43.4812 103.774 43.4739 103.783C43.4665 103.792 43.4575 103.799 43.4472 103.805L41.2923 104.95C41.2896 104.952 41.287 104.953 41.2842 104.954ZM39.2252 91.9169C39.9431 91.9338 40.6533 92.51 41.2 93.5302C43.3338 97.509 41.9903 102.584 41.3903 104.702L43.3338 103.669C43.9015 101.676 45.3594 96.4876 43.2028 92.4662C42.6414 91.4187 41.9128 90.867 41.2037 90.9524C41.0623 90.9695 40.9254 91.0128 40.7998 91.08L39.2252 91.9169Z" fill="#111111"/>
<path d="M54.4834 118.974L56.6384 117.828C57.9219 117.799 59.0888 118.781 59.3007 120.124C59.4756 121.232 58.949 122.257 58.0589 122.73L55.9039 123.876C56.7941 123.403 57.3206 122.378 57.1457 121.269C56.9338 119.926 55.767 118.945 54.4834 118.974Z" fill="#BDDFFF"/>
<path d="M55.9355 123.956C55.915 123.964 55.892 123.964 55.8714 123.956C55.8507 123.948 55.834 123.933 55.8246 123.912C55.8153 123.892 55.814 123.869 55.8211 123.848C55.8282 123.827 55.8431 123.81 55.8628 123.8C56.7425 123.332 57.2236 122.32 57.0598 121.283C56.8555 119.987 55.7484 119.031 54.4848 119.06C54.4654 119.061 54.4464 119.055 54.4308 119.043C54.4153 119.031 54.4042 119.015 54.3993 118.996C54.3892 118.957 54.407 118.917 54.4424 118.898L56.5974 117.752C56.6095 117.746 56.6226 117.743 56.6361 117.742C57.9857 117.711 59.1678 118.729 59.3857 120.11C59.5609 121.221 59.0438 122.304 58.0989 122.807L55.9438 123.952C55.9411 123.954 55.9382 123.955 55.9355 123.956ZM54.8051 118.9C56.0157 119.024 57.0302 119.987 57.2305 121.256C57.3546 122.043 57.1311 122.816 56.654 123.379L58.0178 122.654C58.8974 122.186 59.3785 121.175 59.2148 120.137C59.0115 118.848 57.9152 117.896 56.6601 117.914L54.8051 118.9Z" fill="#111111"/>
<path d="M54.1592 113.782L56.3142 112.636C57.6792 112.472 58.9669 113.487 59.1907 114.904C59.3655 116.013 58.8381 117.039 57.9474 117.513L55.7924 118.658C56.6831 118.185 57.2105 117.159 57.0356 116.05C56.8119 114.632 55.5242 113.617 54.1592 113.782Z" fill="#BDDFFF"/>
<path d="M55.8252 118.738C55.8047 118.747 55.7817 118.747 55.7611 118.739C55.7404 118.731 55.7237 118.715 55.7143 118.695C55.705 118.675 55.7037 118.652 55.7108 118.631C55.7179 118.61 55.7328 118.592 55.7524 118.582C56.6325 118.113 57.1145 117.102 56.9507 116.064C56.7348 114.694 55.4872 113.709 54.17 113.868C54.15 113.87 54.1297 113.866 54.1128 113.855C54.0958 113.844 54.0833 113.827 54.0772 113.808C54.0712 113.789 54.0721 113.768 54.0798 113.749C54.0875 113.731 54.1014 113.715 54.1193 113.706L56.2743 112.56C56.2837 112.555 56.294 112.552 56.3045 112.551C57.713 112.381 59.0461 113.431 59.2766 114.891C59.4519 116.002 58.9343 117.086 57.9885 117.589L55.8352 118.734C55.832 118.735 55.8286 118.737 55.8252 118.738ZM54.536 113.68C55.7943 113.723 56.9124 114.711 57.1215 116.037C57.2457 116.824 57.0219 117.598 56.5442 118.161L57.9075 117.436C58.7882 116.968 59.2697 115.956 59.1058 114.918C58.8906 113.554 57.6524 112.571 56.341 112.72L54.536 113.68Z" fill="#111111"/>
<path d="M53.7705 108.596L55.9255 107.451C57.2892 107.287 58.5771 108.303 58.8009 109.721C58.9758 110.829 58.4482 111.855 57.5578 112.329L55.4028 113.474C56.2932 113.001 56.8208 111.975 56.6459 110.866C56.4221 109.448 55.1342 108.432 53.7705 108.596Z" fill="#BDDFFF"/>
<path d="M55.4345 113.554C55.4139 113.563 55.391 113.563 55.3703 113.555C55.3497 113.547 55.3329 113.531 55.3236 113.511C55.3142 113.491 55.313 113.468 55.3201 113.447C55.3272 113.426 55.3421 113.408 55.3617 113.398C56.2422 112.93 56.7238 111.918 56.5599 110.88C56.3437 109.509 55.0967 108.524 53.7803 108.682C53.7602 108.685 53.74 108.68 53.723 108.669C53.7061 108.658 53.6935 108.642 53.6875 108.622C53.6815 108.603 53.6824 108.582 53.69 108.564C53.6977 108.545 53.7117 108.53 53.7295 108.52L55.8845 107.375C55.894 107.37 55.9042 107.367 55.9147 107.365C57.3224 107.195 58.6551 108.246 58.8858 109.707C59.061 110.818 58.5434 111.902 57.5978 112.405L55.4433 113.55L55.4428 113.551C55.4401 113.552 55.4372 113.553 55.4345 113.554ZM54.1461 108.494C55.4037 108.538 56.5214 109.526 56.7307 110.853C56.8549 111.64 56.631 112.414 56.1534 112.977L57.5167 112.252C58.3972 111.784 58.8788 110.772 58.7149 109.734C58.4996 108.369 57.2617 107.386 55.9511 107.535L54.1461 108.494Z" fill="#111111"/>
<path d="M53.6602 103.379L55.8152 102.233C57.1802 102.069 58.4681 103.085 58.6917 104.501C58.8666 105.61 58.3392 106.636 57.4484 107.109L55.2934 108.255C56.1842 107.781 56.7116 106.755 56.5367 105.647C56.3132 104.23 55.0252 103.214 53.6602 103.379Z" fill="#BDDFFF"/>
<path d="M55.3252 108.335C55.3046 108.344 55.2817 108.344 55.261 108.336C55.2404 108.328 55.2236 108.312 55.2143 108.292C55.2049 108.272 55.2037 108.249 55.2108 108.228C55.2179 108.207 55.2328 108.189 55.2524 108.179C56.1331 107.711 56.6146 106.699 56.4508 105.661C56.2347 104.291 54.9873 103.306 53.67 103.465C53.65 103.467 53.6298 103.462 53.6128 103.451C53.5959 103.44 53.5833 103.424 53.5772 103.405C53.5712 103.385 53.5721 103.365 53.5798 103.346C53.5875 103.327 53.6015 103.312 53.6193 103.303L55.7743 102.157C55.7838 102.152 55.7939 102.149 55.8045 102.147C57.2129 101.978 58.5462 103.028 58.7766 104.488C58.9519 105.599 58.4342 106.683 57.4885 107.186L55.334 108.331C55.3313 108.333 55.3279 108.334 55.3252 108.335ZM54.036 103.277C55.2943 103.32 56.4124 104.308 56.6216 105.634C56.7457 106.421 56.5218 107.195 56.0442 107.758L57.4074 107.033C58.288 106.565 58.7696 105.553 58.6058 104.515C58.3906 103.151 57.1523 102.168 55.841 102.317L54.036 103.277Z" fill="#111111"/>
<path d="M41.252 104.874L43.407 103.728L55.8151 102.233L53.6601 103.379L41.252 104.874Z" fill="#BDDFFF"/>
<path d="M53.692 103.459C53.685 103.462 53.6774 103.464 53.6699 103.464L41.2618 104.96C41.2417 104.962 41.2215 104.957 41.2045 104.946C41.1876 104.936 41.175 104.919 41.169 104.9C41.1629 104.881 41.1639 104.86 41.1715 104.841C41.1792 104.822 41.1932 104.807 41.211 104.798L43.366 103.652C43.3754 103.647 43.3857 103.644 43.3962 103.643L55.8043 102.147C55.8244 102.145 55.8446 102.15 55.8616 102.161C55.8785 102.171 55.8911 102.188 55.8971 102.207C55.9031 102.226 55.9022 102.247 55.8946 102.266C55.8869 102.285 55.8729 102.3 55.8551 102.309L53.7001 103.455C53.6974 103.456 53.6948 103.458 53.692 103.459ZM41.701 104.733L53.6333 103.295L55.3651 102.374L43.4328 103.812L41.701 104.733Z" fill="#111111"/>
<path d="M39.0386 92.0123C39.7013 91.9326 40.4885 92.3849 41.1242 93.5711C43.2896 97.6087 41.8678 102.712 41.2521 104.874L53.6602 103.379C55.0252 103.214 56.313 104.231 56.5366 105.647C56.7603 107.065 55.8351 108.348 54.4701 108.512L53.7707 108.597C55.1344 108.432 56.4223 109.448 56.646 110.866C56.8698 112.284 55.9445 113.567 54.5808 113.731L54.1598 113.782C55.5248 113.618 56.8125 114.632 57.0362 116.05C57.2599 117.468 56.3347 118.751 54.9697 118.915L54.4833 118.974C55.7667 118.945 56.9336 119.926 57.1456 121.269C57.3693 122.687 56.4451 123.969 55.0802 124.133L34.3046 126.637L31.3613 107.982L32.0582 107.612C32.3683 106.338 33.0094 103.71 33.8223 102.318C35.2023 99.9533 38.1681 97.5215 37.7219 94.791C37.4647 93.2172 38.136 92.1211 39.0386 92.0123Z" fill="white"/>
<path d="M55.7182 124.058C55.5196 124.138 55.3089 124.192 55.09 124.219L34.3145 126.722C34.2923 126.725 34.2699 126.719 34.252 126.706C34.2342 126.692 34.2223 126.672 34.2188 126.65L31.2755 107.995C31.2698 107.959 31.2878 107.923 31.3204 107.905L31.983 107.554C32.2954 106.271 32.9336 103.668 33.7473 102.275C34.1589 101.569 34.6975 100.875 35.2676 100.14C36.5835 98.4433 37.9441 96.6892 37.6361 94.8047C37.4882 93.8997 37.6386 93.0679 38.0486 92.5227C38.3075 92.1786 38.6463 91.9725 39.0279 91.9264C39.8114 91.8321 40.6032 92.4166 41.1999 93.5302C43.3578 97.5537 41.9596 102.698 41.3702 104.773L53.6494 103.293C55.0579 103.123 56.3911 104.173 56.6216 105.634C56.7368 106.364 56.5639 107.079 56.1349 107.646C55.7698 108.129 55.2543 108.451 54.669 108.568C55.7017 108.824 56.5512 109.714 56.7309 110.853C56.8461 111.583 56.6732 112.298 56.2441 112.866C55.9229 113.29 55.4855 113.591 54.9863 113.736C56.0519 113.968 56.9374 114.872 57.1212 116.037C57.2364 116.767 57.0636 117.482 56.6345 118.049C56.2727 118.527 55.7636 118.849 55.1842 118.968C56.2225 119.233 57.0515 120.122 57.2306 121.256C57.3458 121.986 57.1732 122.701 56.7445 123.267C56.4742 123.625 56.1212 123.895 55.7182 124.058ZM34.3765 126.541L55.0694 124.047C55.6857 123.973 56.2317 123.659 56.6066 123.163C57.0067 122.634 57.1676 121.966 57.0597 121.283C56.8553 119.987 55.7482 119.031 54.4846 119.06C54.4625 119.061 54.441 119.053 54.4247 119.038C54.4083 119.023 54.3983 119.002 54.3967 118.98C54.3952 118.958 54.4022 118.936 54.4162 118.919C54.4303 118.902 54.4504 118.891 54.4724 118.888L54.9589 118.83C55.5753 118.755 56.1212 118.441 56.4966 117.945C56.8971 117.416 57.0582 116.747 56.9503 116.064C56.7343 114.694 55.4868 113.709 54.1696 113.868C54.1583 113.869 54.1469 113.868 54.1359 113.865C54.125 113.862 54.1148 113.857 54.1059 113.85C54.0969 113.843 54.0895 113.834 54.0839 113.824C54.0784 113.815 54.0748 113.804 54.0734 113.792C54.0721 113.781 54.073 113.77 54.076 113.759C54.0791 113.748 54.0843 113.738 54.0913 113.729C54.0983 113.72 54.107 113.712 54.1169 113.707C54.1268 113.701 54.1377 113.698 54.149 113.696L54.57 113.646C55.1855 113.571 55.7311 113.257 56.1062 112.761C56.5068 112.232 56.668 111.564 56.56 110.88C56.3441 109.511 55.0998 108.526 53.7849 108.682H53.7803C53.7691 108.684 53.7576 108.683 53.7467 108.68C53.7358 108.677 53.7256 108.672 53.7166 108.665C53.7077 108.658 53.7003 108.649 53.6947 108.639C53.6891 108.629 53.6856 108.618 53.6842 108.607C53.6829 108.596 53.6838 108.584 53.6868 108.573C53.6899 108.562 53.6951 108.552 53.7021 108.543C53.7091 108.534 53.7178 108.527 53.7277 108.521C53.7376 108.516 53.7485 108.512 53.7598 108.511L54.4592 108.427C55.0756 108.352 55.6215 108.038 55.9969 107.542C56.3974 107.013 56.5585 106.344 56.4506 105.661C56.2346 104.291 54.9871 103.306 53.6699 103.465L41.2618 104.96C41.2476 104.962 41.2333 104.96 41.2201 104.955C41.2068 104.949 41.195 104.941 41.1858 104.93C41.1765 104.919 41.1701 104.907 41.1671 104.893C41.164 104.879 41.1645 104.864 41.1683 104.851C41.7286 102.883 43.2168 97.6571 41.0473 93.6119C40.4859 92.5644 39.7573 92.0127 39.0482 92.0979C38.714 92.1381 38.4163 92.321 38.1865 92.6264C37.8047 93.1342 37.6661 93.9179 37.8065 94.7768C38.1265 96.7356 36.7425 98.5199 35.404 100.246C34.8374 100.976 34.3023 101.666 33.8964 102.362C33.0874 103.747 32.4485 106.372 32.1416 107.633C32.1387 107.645 32.1333 107.656 32.1258 107.665C32.1183 107.675 32.1088 107.683 32.098 107.689L31.4556 108.029L34.3765 126.541Z" fill="#111111"/>
</g>
<defs>
<linearGradient id="paint0_linear_40000788_5193" x1="69.4058" y1="37.8057" x2="112.414" y2="153.074" gradientUnits="userSpaceOnUse">
<stop stop-color="#111111"/>
<stop offset="0.31" stop-color="#0E38A3"/>
<stop offset="0.761" stop-color="#0E38A3"/>
<stop offset="1" stop-color="#111111"/>
</linearGradient>
</defs>
</svg>
