<svg width="169" height="169" viewBox="0 0 169 169" fill="none" xmlns="http://www.w3.org/2000/svg">
<mask id="mask0_40000788_5377" style="mask-type:luminance" maskUnits="userSpaceOnUse" x="50" y="40" width="87" height="106">
<path d="M136.147 40.1543H50.6328V145.61H136.147V40.1543Z" fill="white"/>
</mask>
<g mask="url(#mask0_40000788_5377)">
<path d="M101.964 57.1274L135.076 93.8936L127.23 145.217L51.3955 134.162L59.2409 83.2442L101.964 57.1274Z" fill="#0E38A3"/>
<path d="M127.231 145.298C127.227 145.298 127.223 145.298 127.219 145.298L51.384 134.242C51.3734 134.24 51.3632 134.237 51.354 134.231C51.3448 134.226 51.3367 134.218 51.3304 134.21C51.324 134.201 51.3194 134.191 51.3168 134.181C51.3142 134.171 51.3138 134.16 51.3154 134.149L59.1609 83.2314C59.1645 83.2078 59.1784 83.187 59.1988 83.1745L101.923 57.0578C101.939 57.0479 101.958 57.044 101.977 57.0467C101.996 57.0494 102.013 57.0587 102.026 57.0728L135.137 93.8389C135.145 93.8479 135.151 93.8585 135.155 93.87C135.158 93.8815 135.159 93.8937 135.157 93.9056L127.312 145.229C127.309 145.249 127.299 145.266 127.284 145.279C127.27 145.291 127.251 145.298 127.231 145.298ZM51.4886 134.093L127.163 145.125L134.991 93.919L101.95 57.2317L59.3159 83.2935L51.4886 134.093Z" fill="#111111"/>
<path d="M127.634 48.006L136.065 60.1127L121.86 140.962L53.9805 131.799L70.0681 40.2354L127.634 48.006Z" fill="white"/>
<path d="M121.861 141.043C121.858 141.043 121.854 141.043 121.85 141.042L53.9699 131.879C53.959 131.878 53.9485 131.874 53.9391 131.869C53.9297 131.863 53.9215 131.856 53.915 131.847C53.9086 131.838 53.904 131.828 53.9015 131.817C53.899 131.807 53.8987 131.796 53.9007 131.785L69.9882 40.2214C69.9919 40.2008 70.0034 40.1824 70.0204 40.17C70.0373 40.1577 70.0584 40.1523 70.0792 40.155L127.646 47.9256C127.669 47.9287 127.689 47.9411 127.702 47.9598L136.133 60.0665C136.145 60.0841 136.15 60.1058 136.146 60.1269L121.941 140.976C121.938 140.995 121.928 141.012 121.913 141.024C121.899 141.036 121.88 141.043 121.861 141.043ZM54.0755 131.73L121.795 140.871L135.98 60.1318L127.589 48.082L70.1349 40.3265L54.0755 131.73Z" fill="#111111"/>
<path d="M127.634 48.006L136.065 60.1127L121.86 140.962L53.9805 131.799L70.068 40.2354L127.634 48.006Z" fill="white"/>
<path d="M121.861 141.043C121.858 141.043 121.854 141.043 121.85 141.042L53.9699 131.879C53.959 131.878 53.9485 131.874 53.9391 131.869C53.9297 131.863 53.9215 131.856 53.915 131.847C53.9086 131.838 53.904 131.828 53.9015 131.817C53.899 131.807 53.8987 131.796 53.9007 131.785L69.9882 40.2214C69.9919 40.2008 70.0034 40.1824 70.0204 40.17C70.0373 40.1577 70.0584 40.1523 70.0792 40.155L127.646 47.9256C127.669 47.9287 127.689 47.9411 127.702 47.9598L136.133 60.0665C136.145 60.0841 136.15 60.1058 136.146 60.1269L121.941 140.976C121.938 140.995 121.928 141.012 121.913 141.024C121.899 141.036 121.88 141.043 121.861 141.043ZM54.0755 131.73L121.795 140.871L135.98 60.1318L127.589 48.082L70.1349 40.3265L54.0755 131.73Z" fill="#111111"/>
<path d="M95.4556 51.8524L77.8329 49.4736L77.2744 52.6525L94.8971 55.0313L95.4556 51.8524Z" fill="#0E38A3"/>
<path d="M94.8975 55.1127C94.8939 55.1127 94.8902 55.1125 94.8865 55.112L77.2638 52.7332C77.2529 52.7317 77.2425 52.728 77.2331 52.7224C77.2237 52.7168 77.2155 52.7094 77.2091 52.7005C77.2026 52.6917 77.198 52.6817 77.1955 52.671C77.193 52.6604 77.1927 52.6494 77.1946 52.6386L77.7531 49.4597C77.7568 49.4391 77.7683 49.4207 77.7853 49.4083C77.8022 49.3959 77.8233 49.3905 77.8441 49.3933L95.4669 51.7721C95.4777 51.7736 95.4882 51.7772 95.4976 51.7828C95.507 51.7884 95.5151 51.7958 95.5216 51.8047C95.528 51.8135 95.5327 51.8235 95.5352 51.8342C95.5376 51.8448 95.538 51.8559 95.5361 51.8666L94.9776 55.0456C94.9742 55.0644 94.9644 55.0814 94.9497 55.0937C94.9351 55.106 94.9166 55.1127 94.8975 55.1127ZM77.3694 52.5834L94.8309 54.9405L95.3613 51.9218L77.8998 49.5648L77.3694 52.5834Z" fill="#111111"/>
<path d="M117.209 119.239L67.4252 112.519L66.7969 116.095L116.581 122.815L117.209 119.239Z" fill="white"/>
<path d="M116.581 122.896C116.578 122.896 116.574 122.896 116.57 122.895L66.7862 116.175C66.7753 116.174 66.765 116.17 66.7556 116.164C66.7462 116.159 66.738 116.151 66.7316 116.142C66.7251 116.134 66.7205 116.124 66.718 116.113C66.7155 116.102 66.7152 116.091 66.7171 116.081L67.3454 112.505C67.349 112.484 67.3605 112.466 67.3774 112.453C67.3944 112.441 67.4155 112.435 67.4363 112.438L117.22 119.158C117.231 119.16 117.242 119.163 117.251 119.169C117.26 119.175 117.269 119.182 117.275 119.191C117.281 119.2 117.286 119.21 117.289 119.22C117.291 119.231 117.291 119.242 117.289 119.253L116.661 122.829C116.658 122.848 116.648 122.865 116.633 122.877C116.619 122.889 116.6 122.896 116.581 122.896ZM66.8918 116.025L116.514 122.724L117.114 119.308L67.4919 112.61L66.8918 116.025Z" fill="#111111"/>
<path d="M105.143 60.8914L76.5057 57.0259L75.9473 60.2047L104.584 64.0703L105.143 60.8914Z" fill="#0E38A3"/>
<path d="M104.584 64.1513C104.581 64.1513 104.577 64.1511 104.573 64.1506L75.9366 60.285C75.9258 60.2835 75.9154 60.2798 75.906 60.2742C75.8966 60.2686 75.8884 60.2612 75.8819 60.2524C75.8755 60.2435 75.8709 60.2335 75.8684 60.2229C75.8659 60.2122 75.8656 60.2012 75.8674 60.1904L76.426 57.0116C76.4296 56.9909 76.4411 56.9724 76.4581 56.96C76.475 56.9476 76.4962 56.9423 76.517 56.9451L105.154 60.8107C105.164 60.8121 105.175 60.8158 105.184 60.8214C105.194 60.827 105.202 60.8344 105.208 60.8433C105.215 60.8521 105.219 60.8621 105.222 60.8728C105.224 60.8834 105.225 60.8945 105.223 60.9052L104.664 64.0841C104.661 64.1029 104.651 64.12 104.636 64.1323C104.622 64.1446 104.603 64.1513 104.584 64.1513ZM76.0423 60.1352L104.518 63.9791L105.048 60.9604L76.5727 57.1166L76.0423 60.1352Z" fill="#111111"/>
<path d="M125.008 74.9418C125.004 74.9418 125 74.9415 124.997 74.941L75.212 68.2208C75.2014 68.2194 75.1912 68.2159 75.182 68.2106C75.1728 68.2052 75.1647 68.1981 75.1582 68.1896C75.1517 68.1811 75.147 68.1714 75.1443 68.1611C75.1415 68.1508 75.1409 68.14 75.1423 68.1294C75.1437 68.1189 75.1472 68.1087 75.1526 68.0995C75.158 68.0902 75.1651 68.0822 75.1736 68.0757C75.1821 68.0692 75.1918 68.0645 75.2021 68.0618C75.2124 68.0591 75.2232 68.0584 75.2338 68.0598L125.018 74.78C125.039 74.7828 125.057 74.7932 125.07 74.8091C125.083 74.8251 125.09 74.8454 125.089 74.8659C125.087 74.8865 125.078 74.9058 125.063 74.9198C125.048 74.9339 125.028 74.9418 125.008 74.9418Z" fill="#111111"/>
<path d="M123.76 82.036C123.756 82.036 123.753 82.0357 123.749 82.0352L73.9649 75.3151C73.9436 75.3122 73.9242 75.301 73.9111 75.2838C73.8981 75.2667 73.8924 75.2451 73.8952 75.2237C73.8981 75.2024 73.9094 75.183 73.9265 75.17C73.9437 75.1569 73.9653 75.1512 73.9867 75.1541L123.771 81.8742C123.791 81.877 123.81 81.8874 123.823 81.9033C123.836 81.9193 123.843 81.9396 123.841 81.9601C123.84 81.9807 123.831 82 123.816 82.014C123.801 82.0281 123.781 82.036 123.76 82.036Z" fill="#111111"/>
<path d="M122.514 89.1306C122.51 89.1306 122.506 89.1304 122.503 89.1299L88.1534 84.4933C88.1428 84.4919 88.1326 84.4884 88.1234 84.483C88.1142 84.4776 88.1061 84.4705 88.0996 84.462C88.0932 84.4535 88.0884 84.4439 88.0857 84.4335C88.083 84.4232 88.0823 84.4125 88.0837 84.4019C88.0852 84.3913 88.0887 84.3811 88.094 84.3719C88.0994 84.3627 88.1066 84.3546 88.115 84.3482C88.1235 84.3417 88.1332 84.337 88.1436 84.3342C88.1539 84.3315 88.1646 84.3308 88.1752 84.3323L122.524 88.9689C122.545 88.9716 122.564 88.982 122.577 88.998C122.59 89.0139 122.596 89.0342 122.595 89.0548C122.593 89.0753 122.584 89.0946 122.569 89.1087C122.554 89.1228 122.534 89.1306 122.514 89.1306Z" fill="#111111"/>
<path d="M121.267 96.2249C121.263 96.2249 121.26 96.2247 121.256 96.2242L86.9073 91.5875C86.8859 91.5847 86.8666 91.5734 86.8536 91.5563C86.8405 91.5391 86.8348 91.5175 86.8377 91.4961C86.8406 91.4748 86.8517 91.4555 86.8689 91.4424C86.886 91.4293 86.9078 91.4236 86.9292 91.4265L121.278 96.0632C121.298 96.0659 121.317 96.0763 121.33 96.0923C121.343 96.1083 121.35 96.1286 121.348 96.1491C121.347 96.1697 121.338 96.1889 121.323 96.203C121.308 96.2171 121.288 96.2249 121.267 96.2249Z" fill="#111111"/>
<path d="M108.817 101.807C108.814 101.807 108.81 101.807 108.806 101.806L85.6612 98.6818C85.6506 98.6803 85.6405 98.6768 85.6313 98.6715C85.622 98.6661 85.6139 98.659 85.6074 98.6505C85.6009 98.642 85.5962 98.6323 85.5935 98.622C85.5907 98.6117 85.5901 98.6009 85.5915 98.5904C85.5945 98.5691 85.6058 98.5498 85.6229 98.5368C85.6401 98.5238 85.6616 98.518 85.683 98.5207L108.828 101.645C108.848 101.648 108.867 101.658 108.88 101.674C108.893 101.69 108.9 101.71 108.898 101.731C108.897 101.752 108.888 101.771 108.873 101.785C108.858 101.799 108.838 101.807 108.817 101.807Z" fill="#111111"/>
<path d="M82.5422 81.8648C81.6555 81.7451 80.805 82.3946 80.643 83.3164C80.4811 84.2383 81.0693 85.082 81.9559 85.2017C82.8433 85.3215 83.6938 84.672 83.8558 83.7501C84.0177 82.8283 83.4296 81.9845 82.5422 81.8648Z" fill="#0E38A3"/>
<path d="M82.167 85.2969C82.0936 85.2969 82.0198 85.292 81.9456 85.282C81.5082 85.2229 81.1235 84.994 80.8625 84.6374C80.585 84.2583 80.4788 83.784 80.5636 83.3021C80.7327 82.3397 81.6259 81.6586 82.5537 81.7839C82.9916 81.843 83.3765 82.072 83.6376 82.4288C83.915 82.8078 84.0211 83.2819 83.9364 83.7638C83.7808 84.6496 83.0122 85.2969 82.167 85.2969ZM82.3321 81.9316C81.5644 81.9316 80.8657 82.5224 80.7238 83.3303C80.6468 83.7683 80.7427 84.1985 80.9938 84.5415C81.2284 84.8621 81.5742 85.0679 81.9674 85.121C82.8108 85.2347 83.6221 84.6135 83.7763 83.7358C83.8532 83.2979 83.7574 82.8679 83.5064 82.5248C83.2716 82.2041 82.9255 81.9983 82.532 81.9451C82.4657 81.9361 82.399 81.9316 82.3321 81.9316Z" fill="#111111"/>
<path d="M81.2961 88.9585C80.4095 88.8388 79.559 89.4883 79.397 90.4101C79.235 91.332 79.8232 92.1757 80.7099 92.2954C81.5972 92.4152 82.4478 91.7657 82.6097 90.8439C82.7716 89.922 82.1834 89.0782 81.2961 88.9585Z" fill="#0E38A3"/>
<path d="M80.9209 92.3912C80.8476 92.3912 80.7736 92.3863 80.6996 92.3763C80.262 92.3172 79.8773 92.0883 79.6164 91.7317C79.339 91.3526 79.2328 90.8783 79.3175 90.3965C79.4865 89.434 80.3794 88.7527 81.3076 88.8782C81.7456 88.9373 82.1305 89.1664 82.3916 89.5231C82.669 89.9021 82.7751 90.3763 82.6904 90.8581C82.5347 91.7439 81.7662 92.3912 80.9209 92.3912ZM81.0859 89.026C80.3182 89.026 79.6196 89.6167 79.4776 90.4246C79.4007 90.8627 79.4965 91.2928 79.7476 91.6358C79.9822 91.9564 80.328 92.1622 80.7213 92.2153C81.5648 92.3293 82.3759 91.7079 82.5302 90.8302C82.6071 90.3922 82.5113 89.9622 82.2603 89.6192C82.0255 89.2985 81.6795 89.0926 81.2858 89.0394C81.2196 89.0304 81.1528 89.026 81.0859 89.026Z" fill="#111111"/>
<path d="M80.05 96.0533C79.1633 95.9336 78.3128 96.5831 78.1508 97.5049C77.9889 98.4268 78.5771 99.2705 79.4637 99.3902C80.3511 99.51 81.2016 98.8605 81.3636 97.9386C81.5255 97.0168 80.9373 96.1731 80.05 96.0533Z" fill="#0E38A3"/>
<path d="M79.6739 99.4856C79.6005 99.4856 79.5266 99.4807 79.4525 99.4707C79.0151 99.4117 78.6304 99.1828 78.3694 98.8261C78.0919 98.447 77.9857 97.9729 78.0704 97.4909C78.2397 96.5284 79.1327 95.8481 80.0606 95.9727C80.4984 96.0318 80.8834 96.2608 81.1445 96.6176C81.4219 96.9966 81.528 97.4707 81.4434 97.9527C81.2877 98.8383 80.519 99.4856 79.6739 99.4856ZM79.8388 96.1204C79.0711 96.1204 78.3725 96.7112 78.2306 97.5191C78.1536 97.9571 78.2495 98.3872 78.5006 98.7302C78.7353 99.0509 79.081 99.2567 79.4742 99.3097C80.3179 99.4237 81.1289 98.8022 81.2831 97.9247C81.36 97.4867 81.2642 97.0565 81.0131 96.7136C80.7784 96.3929 80.4323 96.187 80.0388 96.1339C79.9725 96.1249 79.9057 96.1204 79.8388 96.1204Z" fill="#111111"/>
<path d="M127.649 48.0103L126.25 55.9709C125.986 57.4743 127.026 58.8956 128.54 59.0999L136.08 60.1176L127.649 48.0103Z" fill="#BDDFFF"/>
<path d="M136.08 60.1986C136.076 60.1986 136.073 60.1983 136.069 60.1978L128.529 59.1801C127.775 59.0783 127.112 58.6842 126.663 58.0702C126.213 57.4563 126.039 56.7057 126.17 55.9566L127.569 47.9959C127.572 47.9801 127.579 47.9654 127.59 47.9537C127.601 47.9421 127.616 47.934 127.631 47.9306C127.647 47.9271 127.664 47.9284 127.679 47.9342C127.694 47.9401 127.706 47.9503 127.716 47.9635L136.146 60.0709C136.155 60.0831 136.16 60.0974 136.161 60.1122C136.162 60.127 136.159 60.1418 136.152 60.1549C136.145 60.1681 136.135 60.1791 136.122 60.1868C136.109 60.1945 136.095 60.1986 136.08 60.1986ZM127.695 48.2182L126.33 55.9847C126.207 56.6899 126.371 57.3964 126.794 57.9743C127.217 58.5522 127.841 58.9232 128.551 59.019L135.907 60.012L127.695 48.2182Z" fill="#111111"/>
<path d="M135.065 93.9453L127.194 145.489L51.3594 134.433L53.5158 133.792L135.065 93.9453Z" fill="#BDDFFF"/>
<path d="M127.194 145.57C127.19 145.571 127.186 145.57 127.183 145.57L51.3477 134.514C51.3294 134.511 51.3126 134.502 51.3 134.489C51.2874 134.475 51.2798 134.458 51.2785 134.439C51.2772 134.421 51.2821 134.403 51.2926 134.387C51.3031 134.372 51.3185 134.361 51.3362 134.356L53.4862 133.716L135.029 93.8722C135.043 93.8656 135.058 93.8628 135.072 93.8641C135.087 93.8654 135.101 93.8708 135.113 93.8796C135.125 93.8883 135.135 93.9003 135.14 93.914C135.146 93.9277 135.148 93.9428 135.145 93.9574L127.275 145.501C127.272 145.521 127.262 145.538 127.247 145.551C127.233 145.563 127.214 145.57 127.194 145.57ZM51.7358 134.406L127.126 145.397L134.961 94.0864L53.5517 133.865C53.5476 133.867 53.5435 133.868 53.5391 133.87L51.7358 134.406Z" fill="#111111"/>
<path d="M59.2409 83.2441L122.662 142.174L50.7139 134.327L59.2409 83.2441Z" fill="#BDDFFF"/>
<path d="M122.662 142.256C122.659 142.256 122.657 142.255 122.654 142.255L50.7052 134.407C50.6942 134.406 50.6836 134.403 50.6739 134.397C50.6643 134.392 50.6559 134.385 50.6492 134.376C50.6425 134.367 50.6377 134.357 50.6351 134.346C50.6325 134.335 50.6321 134.324 50.6339 134.313L59.1608 83.2306C59.1632 83.2161 59.1695 83.2025 59.179 83.1913C59.1885 83.1801 59.2008 83.1717 59.2147 83.1669C59.2287 83.1622 59.2436 83.1613 59.258 83.1644C59.2723 83.1675 59.2856 83.1744 59.2963 83.1844L122.718 142.115C122.73 142.126 122.738 142.14 122.742 142.156C122.745 142.172 122.744 142.189 122.738 142.204C122.732 142.219 122.722 142.232 122.708 142.241C122.695 142.251 122.679 142.256 122.662 142.256ZM50.8084 134.255L122.427 142.067L59.2963 83.4063L50.8084 134.255Z" fill="#111111"/>
<path d="M93.3254 108.519L127.168 145.529L88.5191 139.961L50.7139 134.327L93.3254 108.519Z" fill="#BDDFFF"/>
<path d="M127.168 145.61C127.165 145.61 127.161 145.61 127.157 145.609L88.5078 140.041L50.7023 134.407C50.6857 134.405 50.6703 134.397 50.6582 134.386C50.646 134.374 50.6377 134.359 50.6344 134.343C50.6311 134.326 50.633 134.309 50.6397 134.294C50.6465 134.279 50.6578 134.266 50.6721 134.257L93.2835 108.449C93.2996 108.44 93.3186 108.436 93.3372 108.438C93.3559 108.441 93.373 108.45 93.3857 108.464L127.228 145.474C127.239 145.486 127.246 145.5 127.249 145.516C127.251 145.531 127.249 145.547 127.243 145.562C127.236 145.576 127.226 145.588 127.213 145.597C127.2 145.605 127.184 145.61 127.168 145.61ZM50.949 134.28L88.5314 139.88L126.955 145.416L93.3107 108.623L50.949 134.28Z" fill="#111111"/>
</g>
<mask id="mask1_40000788_5377" style="mask-type:luminance" maskUnits="userSpaceOnUse" x="25" y="15" width="41" height="41">
<path d="M65.6394 15.8184H25.8906V55.77H65.6394V15.8184Z" fill="white"/>
</mask>
<g mask="url(#mask1_40000788_5377)">
<path d="M27.9672 31.902L46.828 16.9894C47.5949 16.383 48.4697 16.0663 49.3485 16.0191L51.4569 15.9058C50.5781 15.953 49.7032 16.2698 48.9364 16.8761L30.0755 31.7888C27.9225 33.4911 27.4358 36.8318 28.9882 39.2534L37.9917 53.2976C38.9915 54.8572 40.5926 55.654 42.181 55.5687L40.0726 55.6819C38.4843 55.7673 36.8832 54.9705 35.8834 53.4109L26.8799 39.3667C25.3274 36.9451 25.8141 33.6044 27.9672 31.902Z" fill="#BDDFFF"/>
<path d="M39.8365 55.7703C38.2422 55.7703 36.7527 54.918 35.8151 53.4553L26.8116 39.411C25.2401 36.9599 25.736 33.5628 27.917 31.8384L46.7777 16.9258C47.5322 16.3294 48.4198 15.9878 49.3446 15.9381L51.453 15.8247C51.4741 15.8243 51.4948 15.8321 51.5103 15.8465C51.5257 15.861 51.535 15.8808 51.5362 15.902C51.5373 15.9231 51.5303 15.9439 51.5163 15.9599C51.5024 15.9759 51.4828 15.9858 51.4618 15.9877C50.5713 16.0357 49.715 16.3652 48.9874 16.9405L30.1266 31.8531C28.0097 33.5269 27.53 36.8271 29.0574 39.2097L38.061 53.254C39.0133 54.7396 40.5511 55.575 42.1765 55.4876C42.2227 55.4825 42.2605 55.5197 42.2629 55.5646C42.2641 55.5862 42.2566 55.6074 42.2422 55.6234C42.2277 55.6395 42.2074 55.6492 42.1858 55.6504L40.0774 55.7638C39.997 55.7681 39.9166 55.7703 39.8365 55.7703ZM50.278 16.0512L49.3533 16.101C48.4624 16.1489 47.6069 16.4783 46.8791 17.0537L28.0183 31.9664C25.9012 33.6402 25.4216 36.9404 26.9491 39.3231L35.9526 53.3673C36.9052 54.8532 38.4444 55.6891 40.0687 55.6008L40.9824 55.5517C39.7634 55.2822 38.6691 54.5051 37.9234 53.3419L28.9199 39.2977C27.3485 36.8466 27.8444 33.4497 30.0253 31.7252L48.8861 16.8125C49.3132 16.4748 49.783 16.2188 50.278 16.0512Z" fill="#111111"/>
<path d="M30.0756 31.7891C27.9225 33.4915 27.4358 36.8321 28.9883 39.2537L37.9918 53.298C39.5441 55.7194 42.5457 56.3018 44.6989 54.5994L56.6571 45.1443L61.3988 47.4067L61.0254 41.6905L63.5596 39.6868C65.7127 37.9844 66.2026 34.6414 64.6502 32.2199L55.6467 18.1756C54.0943 15.754 51.0895 15.174 48.9364 16.8765L30.0756 31.7891Z" fill="white"/>
<path d="M41.9529 55.6571C41.7071 55.657 41.4618 55.6365 41.2194 55.5958C39.8824 55.3723 38.712 54.5718 37.9235 53.3418L28.92 39.2976C27.3486 36.8464 27.8445 33.4494 30.0255 31.725L48.8862 16.8124C49.9123 16.0011 51.1676 15.6697 52.4207 15.8792C53.7578 16.1028 54.9281 16.9026 55.7159 18.1316L64.7194 32.1758C66.2907 34.627 65.7934 38.0249 63.6107 39.7506L61.1101 41.7278L61.4808 47.4013C61.4827 47.4302 61.469 47.4579 61.445 47.4742C61.4332 47.4822 61.4196 47.487 61.4053 47.488C61.3911 47.4891 61.3769 47.4864 61.364 47.4803L56.6683 45.2397L44.75 54.6632C43.9255 55.3152 42.953 55.657 41.9529 55.6571ZM51.6867 15.9811C50.7219 15.9811 49.7835 16.3111 48.9875 16.9404L30.1267 31.8529C28.0097 33.5268 27.53 36.8269 29.0575 39.2096L38.061 53.2539C38.8243 54.4446 39.9555 55.2191 41.2463 55.4349C42.4518 55.6365 43.6601 55.3171 44.6487 54.5353L56.6069 45.0803C56.6314 45.061 56.6647 45.0573 56.6928 45.0706L61.3088 47.2731L60.9444 41.6957C60.9427 41.669 60.9542 41.6431 60.9751 41.6264L63.5094 39.6227C65.6282 37.9475 66.1092 34.6464 64.5818 32.2638L55.5783 18.2195C54.8157 17.0299 53.6848 16.2559 52.3937 16.04C52.16 16.0009 51.9236 15.9812 51.6867 15.9811Z" fill="#111111"/>
</g>
<mask id="mask2_40000788_5377" style="mask-type:luminance" maskUnits="userSpaceOnUse" x="39" y="25" width="16" height="18">
<path d="M54.3506 25.0122H39.1406V42.0474H54.3506V25.0122Z" fill="white"/>
</mask>
<g mask="url(#mask2_40000788_5377)">
<path d="M51.5957 25.2369C51.9768 25.0698 52.4361 25.0402 52.8947 25.1867C53.8603 25.5009 54.4538 26.4816 54.2191 27.3796L50.7295 40.8135C50.6042 41.2837 50.2785 41.6385 49.8544 41.8246C49.5082 41.9764 49.0931 42.0126 48.6731 41.9053L40.7131 39.8487C39.7323 39.5943 39.0771 38.6449 39.2463 37.7316C39.3434 37.2095 39.6853 36.8109 40.1423 36.6106C40.4891 36.4585 40.9021 36.4204 41.3245 36.5287L47.6258 38.1555L50.7249 26.2489C50.8466 25.7773 51.173 25.4223 51.5957 25.2369Z" fill="#0E38A3"/>
<path d="M49.1564 42.047C48.9899 42.047 48.8208 42.0258 48.6539 41.9832L40.6938 39.9265C39.6759 39.6625 38.9916 38.6712 39.1684 37.7168C39.2671 37.1864 39.6107 36.7564 40.1111 36.5369C40.4843 36.3732 40.9225 36.3428 41.3447 36.451L47.5695 38.0578L50.6484 26.2285C50.771 25.7532 51.1049 25.3649 51.5644 25.1634C51.9778 24.982 52.4591 24.9632 52.9193 25.1104C53.9235 25.437 54.5412 26.4641 54.2965 27.4002L50.8069 40.8339C50.6802 41.3096 50.3447 41.6974 49.8865 41.8984C49.6615 41.997 49.4122 42.047 49.1564 42.047ZM40.8443 36.5477C40.6099 36.5477 40.3811 36.5934 40.1746 36.684C39.7234 36.8819 39.4138 37.269 39.3251 37.7463C39.1634 38.6193 39.7952 39.5276 40.7335 39.7709L48.6934 41.8275C49.0825 41.9269 49.4839 41.8998 49.8232 41.751C50.2428 41.567 50.5374 41.2267 50.6531 40.7927L54.1427 27.3593C54.3662 26.5042 53.7956 25.5639 52.8708 25.2631C52.4478 25.1278 52.0062 25.1446 51.628 25.3105C51.2137 25.4922 50.9129 25.8415 50.8025 26.269L47.7034 38.1758C47.6981 38.1963 47.6849 38.2139 47.6667 38.2246C47.6486 38.2354 47.6269 38.2384 47.6066 38.2331L41.3053 36.6065C41.1546 36.5676 40.9998 36.5479 40.8443 36.5477Z" fill="#111111"/>
</g>
<mask id="mask3_40000788_5377" style="mask-type:luminance" maskUnits="userSpaceOnUse" x="104" y="108" width="42" height="42">
<path d="M145.678 108.16H104.915V149.329H145.678V108.16Z" fill="white"/>
</mask>
<g mask="url(#mask3_40000788_5377)">
<path d="M115.19 141.509L116.124 144.229L111.103 149.247L110.17 146.527L115.19 141.509Z" fill="#BDDFFF"/>
<path d="M111.104 149.328C111.087 149.328 111.071 149.323 111.057 149.313C111.043 149.303 111.033 149.29 111.027 149.273L110.094 146.554C110.089 146.539 110.088 146.524 110.091 146.509C110.095 146.494 110.102 146.48 110.113 146.469L115.134 141.452C115.143 141.442 115.156 141.435 115.169 141.431C115.182 141.427 115.196 141.427 115.21 141.43C115.223 141.433 115.235 141.44 115.246 141.449C115.256 141.458 115.264 141.47 115.268 141.483L116.201 144.203C116.212 144.232 116.204 144.265 116.182 144.287L111.162 149.305C111.146 149.32 111.126 149.328 111.104 149.328ZM110.264 146.549L111.139 149.097L116.031 144.208L115.157 141.659L110.264 146.549Z" fill="#111111"/>
<path d="M110.17 146.527L111.103 149.247L105.93 145.435L104.996 142.716L110.17 146.527Z" fill="#0E38A3"/>
<path d="M111.104 149.328C111.087 149.328 111.07 149.323 111.056 149.313L105.882 145.501C105.869 145.491 105.859 145.478 105.854 145.462L104.92 142.742C104.915 142.726 104.915 142.708 104.92 142.691C104.925 142.675 104.935 142.66 104.949 142.65C104.963 142.64 104.98 142.634 104.998 142.634C105.015 142.634 105.032 142.64 105.046 142.65L110.219 146.461C110.232 146.471 110.242 146.485 110.248 146.5L111.181 149.22C111.185 149.233 111.187 149.246 111.185 149.259C111.183 149.271 111.178 149.284 111.17 149.294C111.163 149.305 111.153 149.313 111.141 149.319C111.13 149.325 111.117 149.328 111.104 149.328ZM105.999 145.385L110.942 149.027L110.102 146.578L105.159 142.936L105.999 145.385Z" fill="#111111"/>
<path d="M115.19 141.509L110.17 146.527L104.996 142.716L110.017 137.698L115.19 141.509Z" fill="white"/>
<path d="M110.17 146.608C110.152 146.608 110.135 146.603 110.122 146.593L104.948 142.781C104.939 142.774 104.931 142.765 104.925 142.755C104.92 142.745 104.916 142.733 104.915 142.722C104.914 142.71 104.916 142.698 104.92 142.687C104.924 142.676 104.931 142.666 104.939 142.658L109.959 137.64C109.973 137.627 109.991 137.618 110.011 137.617C110.03 137.615 110.05 137.621 110.065 137.632L115.239 141.444C115.248 141.451 115.256 141.46 115.261 141.47C115.267 141.48 115.271 141.492 115.271 141.503C115.272 141.515 115.271 141.527 115.267 141.538C115.262 141.549 115.256 141.559 115.248 141.567L110.227 146.585C110.22 146.592 110.211 146.598 110.201 146.602C110.191 146.606 110.18 146.608 110.17 146.608ZM105.121 142.706L110.162 146.42L115.066 141.519L110.025 137.805L105.121 142.706Z" fill="#111111"/>
<path d="M144.663 112.053L145.596 114.773L119.686 140.669L118.753 137.949L144.663 112.053Z" fill="#BDDFFF"/>
<path d="M119.687 140.75C119.67 140.75 119.653 140.745 119.64 140.735C119.626 140.725 119.615 140.711 119.61 140.695L118.677 137.975C118.672 137.961 118.671 137.945 118.674 137.931C118.678 137.916 118.685 137.902 118.696 137.891L144.607 111.995C144.616 111.985 144.628 111.978 144.642 111.975C144.655 111.971 144.669 111.97 144.682 111.974C144.696 111.977 144.708 111.983 144.719 111.992C144.729 112.002 144.737 112.013 144.741 112.026L145.674 114.746C145.684 114.776 145.677 114.808 145.655 114.83L119.744 140.726C119.729 140.742 119.708 140.75 119.687 140.75ZM118.847 137.971L119.722 140.519L145.504 114.751L144.63 112.203L118.847 137.971Z" fill="#111111"/>
<path d="M118.753 137.949L119.686 140.669L114.513 136.857L113.579 134.137L118.753 137.949Z" fill="#0E38A3"/>
<path d="M119.686 140.75C119.669 140.75 119.652 140.745 119.638 140.734L114.464 136.923C114.451 136.913 114.441 136.899 114.436 136.884L113.502 134.164C113.497 134.148 113.496 134.13 113.502 134.113C113.507 134.097 113.517 134.082 113.531 134.072C113.545 134.061 113.562 134.056 113.579 134.056C113.597 134.056 113.614 134.062 113.628 134.072L118.801 137.883C118.814 137.893 118.824 137.907 118.83 137.922L119.763 140.642C119.767 140.654 119.768 140.668 119.766 140.68C119.765 140.693 119.76 140.705 119.752 140.716C119.745 140.727 119.735 140.735 119.723 140.741C119.712 140.747 119.699 140.75 119.686 140.75ZM114.581 136.807L119.524 140.448L118.684 137.999L113.741 134.358L114.581 136.807Z" fill="#111111"/>
<path d="M144.663 112.053L118.753 137.949L113.579 134.137L139.49 108.241L144.663 112.053Z" fill="white"/>
<path d="M118.753 138.03C118.735 138.03 118.718 138.025 118.704 138.015L113.531 134.203C113.522 134.196 113.514 134.187 113.508 134.177C113.503 134.167 113.499 134.155 113.498 134.144C113.497 134.132 113.499 134.12 113.503 134.109C113.507 134.098 113.514 134.088 113.522 134.08L139.432 108.184C139.446 108.17 139.464 108.162 139.484 108.16C139.503 108.159 139.522 108.164 139.538 108.176L144.711 111.987C144.721 111.994 144.729 112.003 144.734 112.013C144.74 112.024 144.743 112.035 144.744 112.047C144.745 112.058 144.744 112.07 144.739 112.081C144.735 112.092 144.729 112.102 144.721 112.11L118.81 138.007C118.803 138.014 118.794 138.02 118.784 138.024C118.774 138.028 118.763 138.03 118.753 138.03ZM113.704 134.128L118.745 137.842L144.539 112.062L139.498 108.348L113.704 134.128Z" fill="#111111"/>
</g>
<mask id="mask4_40000788_5377" style="mask-type:luminance" maskUnits="userSpaceOnUse" x="25" y="123" width="30" height="29">
<path d="M54.9586 123.979H25.8906V151.965H54.9586V123.979Z" fill="white"/>
</mask>
<g mask="url(#mask4_40000788_5377)">
<path d="M52.9867 145.435L51.2423 147.799C49.8258 149.719 47.6594 151.111 44.9003 151.647C38.0083 152.988 30.0269 148.481 27.0735 141.581C25.3025 137.443 25.7419 133.384 27.8639 130.508L29.6082 128.144C27.4863 131.02 27.0468 135.079 28.8178 139.217C31.7712 146.117 39.7526 150.624 46.6447 149.284C49.4039 148.747 51.5702 147.355 52.9867 145.435Z" fill="url(#paint0_linear_40000788_5377)"/>
<path d="M42.4198 151.964C36.165 151.964 29.6102 147.715 26.9984 141.613C26.1393 139.605 25.7689 137.514 25.9274 135.565C26.081 133.676 26.7279 131.91 27.7981 130.46L29.5425 128.096C29.5556 128.079 29.5746 128.068 29.5957 128.065C29.6168 128.062 29.6381 128.068 29.6552 128.08C29.6723 128.093 29.6838 128.112 29.6873 128.133C29.6907 128.154 29.6857 128.175 29.6735 128.193C28.6212 129.619 27.9852 131.355 27.8341 133.214C27.6778 135.137 28.0437 137.202 28.8924 139.185C31.8267 146.04 39.7834 150.535 46.6289 149.204C49.2813 148.688 51.4556 147.37 52.9172 145.392L52.9209 145.387C52.9339 145.37 52.953 145.359 52.9741 145.356C52.9951 145.353 53.0165 145.358 53.0336 145.371C53.0507 145.384 53.0622 145.402 53.0656 145.423C53.0691 145.444 53.0641 145.466 53.0519 145.483L53.0474 145.489L51.3075 147.847C49.8211 149.862 47.6108 151.203 44.9155 151.727C44.0962 151.887 43.2603 151.964 42.4198 151.964ZM28.6411 129.592L27.9291 130.557C26.8768 131.983 26.2408 133.719 26.0897 135.578C25.9334 137.501 26.2993 139.566 27.148 141.548C30.0823 148.404 38.0393 152.899 44.8845 151.568C47.5391 151.051 49.7149 149.731 51.1765 147.751L51.881 146.796C50.4947 148.086 48.7188 148.963 46.6599 149.363C39.7428 150.709 31.7055 146.171 28.7427 139.249C27.8837 137.241 27.5134 135.15 27.6719 133.201C27.7758 131.921 28.1062 130.698 28.6411 129.592Z" fill="#111111"/>
<path d="M52.9904 145.426C56.7998 140.263 54.6524 132.212 48.1941 127.442C41.7357 122.672 33.4121 122.99 29.6027 128.153C25.7932 133.315 27.9406 141.367 34.399 146.137C40.8573 150.907 49.181 150.589 52.9904 145.426Z" fill="#0E38A3"/>
<path d="M44.1643 149.6C37.9095 149.6 31.3548 145.351 28.7429 139.249C27.2592 135.782 27.2781 132.15 28.795 129.285C30.1961 126.639 32.7316 124.839 35.9345 124.216C42.8514 122.87 50.8889 127.408 53.8518 134.331C55.3356 137.797 55.3166 141.429 53.7998 144.294C52.3988 146.94 49.8633 148.741 46.6602 149.363C45.8408 149.523 45.0049 149.6 44.1643 149.6ZM38.4342 124.142C37.6023 124.142 36.7765 124.218 35.9656 124.376C32.8119 124.989 30.3165 126.76 28.939 129.362C27.4452 132.183 27.4283 135.763 28.8926 139.184C31.4793 145.228 37.9697 149.437 44.1605 149.437C44.9924 149.437 45.8182 149.361 46.6291 149.204C49.7828 148.59 52.2784 146.82 53.6559 144.218C55.1496 141.397 55.1664 137.816 53.702 134.395C51.1154 128.351 44.6251 124.142 38.4342 124.142Z" fill="#111111"/>
<path d="M41.2822 140.287C40.8123 140.379 40.3384 140.27 39.8614 139.96C39.3842 139.651 38.9773 139.103 38.6409 138.317C38.3892 137.729 38.2148 137.032 38.1173 136.226C38.0204 135.42 38.1091 134.768 38.3848 134.269C38.6595 133.769 39.0633 133.467 39.5948 133.364C40.0898 133.268 40.5793 133.375 41.0643 133.687C41.5492 133.998 41.9411 134.503 42.2406 135.203C42.5082 135.828 42.6779 136.526 42.7495 137.296C42.8217 138.067 42.7745 138.673 42.6085 139.114C42.4933 139.425 42.3454 139.665 42.1629 139.834C41.9284 140.068 41.6344 140.219 41.2822 140.287ZM38.0375 127.754C36.2008 128.111 34.73 128.804 33.6234 129.834C32.5174 130.863 31.8743 132.209 31.694 133.87C31.5142 135.531 31.7969 137.231 32.5414 138.97C33.2195 140.554 34.2084 141.949 35.5074 143.155C36.8075 144.361 38.3467 145.164 40.1259 145.566C41.9052 145.968 43.8147 145.97 45.8552 145.573C47.9631 145.164 49.5752 144.407 50.6912 143.305C51.6657 142.344 52.1936 141.176 52.2742 139.799L50.2991 140.183C50.0022 141.132 49.4099 141.917 48.5232 142.535C47.6356 143.153 46.4531 143.606 44.9755 143.894C43.442 144.192 41.9748 144.211 40.5742 143.95C39.1733 143.689 37.9149 143.087 36.7981 142.145C35.6813 141.203 34.8437 140.078 34.2845 138.772C33.7099 137.429 33.4518 136.079 33.5112 134.723C33.57 133.367 34.0363 132.234 34.9091 131.324C35.7819 130.413 37.0559 129.795 38.7316 129.469C40.7036 129.086 42.4594 129.299 43.998 130.109C45.5373 130.92 46.6327 132.086 47.2844 133.609C47.6472 134.457 47.8033 135.315 47.753 136.183C47.7027 137.051 47.4629 137.782 47.0331 138.374C46.7172 138.825 46.4108 139.079 46.114 139.137C46.0152 139.156 45.9135 139.133 45.8087 139.07C45.7045 139.006 45.6197 138.897 45.5533 138.742C45.5005 138.619 45.4272 138.338 45.3334 137.9L43.885 130.971L41.4363 131.447L41.6457 132.523C40.7598 131.783 39.7668 131.52 38.666 131.734C37.1205 132.035 36.1658 133.012 35.8016 134.665C35.4998 136.025 35.6597 137.432 36.2823 138.886C36.7855 140.062 37.5274 140.939 38.5081 141.516C39.4884 142.093 40.4915 142.281 41.5174 142.082C42.4698 141.897 43.1598 141.381 43.5876 140.533C43.822 140.863 44.1082 141.092 44.4442 141.221C44.7808 141.35 45.2052 141.365 45.7185 141.265C47.6231 140.894 48.8395 139.787 49.369 137.94C49.7938 136.476 49.6689 134.956 48.9932 133.377C48.4264 132.053 47.5836 130.894 46.4658 129.901C45.3473 128.908 44.0525 128.226 42.5814 127.855C41.1096 127.484 39.5956 127.451 38.0375 127.754Z" fill="white"/>
<path d="M42.9105 145.949C41.941 145.949 41.0045 145.848 40.1076 145.646C38.3232 145.243 36.7567 144.425 35.4518 143.215C34.1501 142.007 33.1455 140.589 32.4663 139.002C31.7196 137.257 31.4324 135.528 31.6129 133.861C31.7945 132.188 32.4521 130.812 33.5678 129.774C34.6806 128.739 36.1791 128.032 38.0218 127.674C39.5848 127.37 41.1254 127.404 42.6013 127.777C44.0779 128.149 45.3963 128.843 46.5198 129.84C47.6419 130.837 48.4991 132.016 49.0681 133.345C49.7479 134.933 49.8755 136.487 49.4472 137.963C48.9113 139.832 47.6618 140.97 45.734 141.345C45.2078 141.447 44.764 141.431 44.415 141.297C44.1013 141.177 43.8275 140.971 43.5995 140.685C43.1576 141.484 42.463 141.981 41.5328 142.162C40.491 142.364 39.4594 142.171 38.4666 141.586C37.4757 141.003 36.7155 140.106 36.2073 138.918C35.581 137.455 35.4177 136.018 35.7221 134.648C36.092 132.967 37.0773 131.96 38.6503 131.654C39.6989 131.451 40.6645 131.675 41.5236 132.322L41.3562 131.463C41.3542 131.452 41.3541 131.442 41.3562 131.431C41.3583 131.421 41.3626 131.411 41.3686 131.402C41.3746 131.393 41.3822 131.385 41.3911 131.379C41.4 131.374 41.41 131.369 41.4205 131.367L43.8693 130.891C43.8903 130.887 43.9121 130.891 43.9299 130.903C43.9478 130.915 43.9601 130.933 43.9644 130.954L45.4129 137.884C45.5053 138.315 45.5778 138.593 45.628 138.71C45.6873 138.849 45.7622 138.946 45.8509 139C45.9386 139.054 46.0197 139.072 46.0983 139.057C46.3724 139.003 46.6645 138.758 46.9662 138.327C47.3853 137.75 47.6223 137.027 47.6715 136.178C47.7208 135.326 47.5653 134.473 47.2093 133.641C46.5682 132.143 45.4749 130.979 43.9598 130.181C42.4454 129.384 40.6916 129.171 38.7469 129.549C37.0961 129.87 35.8245 130.486 34.9676 131.38C34.1126 132.272 33.6497 133.398 33.5923 134.727C33.5337 136.064 33.7916 137.414 34.359 138.739C34.9107 140.028 35.7488 141.153 36.8502 142.083C37.9509 143.012 39.2088 143.613 40.5888 143.87C41.9732 144.127 43.4438 144.108 44.9597 143.814C46.4186 143.53 47.6018 143.077 48.4764 142.468C49.3441 141.863 49.931 141.086 50.2211 140.159C50.2301 140.13 50.2539 140.109 50.2833 140.103L52.2584 139.719C52.2705 139.717 52.2832 139.717 52.2951 139.72C52.3071 139.724 52.3182 139.729 52.3276 139.738C52.3369 139.746 52.3442 139.756 52.349 139.767C52.3538 139.779 52.3559 139.791 52.3552 139.804C52.2737 141.194 51.7329 142.392 50.7479 143.363C49.6253 144.472 47.9843 145.242 45.8704 145.653C44.8562 145.851 43.8672 145.949 42.9105 145.949ZM40.1102 127.632C39.4314 127.632 38.7445 127.699 38.0528 127.833C36.2404 128.186 34.7687 128.879 33.6786 129.893C32.5925 130.904 31.952 132.245 31.7748 133.879C31.5973 135.517 31.8803 137.219 32.616 138.938C33.2862 140.504 34.2775 141.903 35.5624 143.096C36.8461 144.286 38.3874 145.09 40.1435 145.487C41.9032 145.884 43.8197 145.886 45.8394 145.494C47.9212 145.089 49.5342 144.333 50.6337 143.248C51.5644 142.33 52.0862 141.204 52.1857 139.899L50.3618 140.254C50.056 141.196 49.4531 141.986 48.5696 142.602C47.6761 143.224 46.4722 143.686 44.9909 143.974C43.4549 144.272 41.9639 144.291 40.5593 144.03C39.1511 143.768 37.868 143.155 36.7456 142.207C35.6245 141.261 34.7714 140.116 34.2096 138.804C33.6326 137.455 33.3702 136.081 33.4299 134.72C33.4892 133.35 33.967 132.189 34.8502 131.267C35.7308 130.349 37.0315 129.717 38.716 129.389C40.6982 129.004 42.4879 129.222 44.0358 130.037C45.5849 130.853 46.7029 132.044 47.359 133.577C47.7251 134.432 47.885 135.31 47.8342 136.188C47.7831 137.068 47.5356 137.82 47.0988 138.422C46.7682 138.894 46.4508 139.154 46.1294 139.217C46.0109 139.24 45.8888 139.214 45.7664 139.14C45.648 139.067 45.5512 138.945 45.4784 138.775C45.4233 138.646 45.3498 138.365 45.2536 137.918L43.8216 131.067L41.5316 131.512L41.7255 132.507C41.7287 132.524 41.7267 132.541 41.7198 132.556C41.7129 132.571 41.7014 132.584 41.6869 132.593C41.6725 132.601 41.6557 132.605 41.6389 132.604C41.6222 132.602 41.6063 132.596 41.5934 132.585C40.731 131.866 39.7509 131.606 38.6814 131.814C37.178 132.107 36.2358 133.072 35.881 134.683C35.5842 136.02 35.7444 137.423 36.3571 138.854C36.8512 140.009 37.5888 140.881 38.5492 141.446C39.5069 142.01 40.5002 142.197 41.5017 142.002C42.4236 141.823 43.101 141.316 43.5148 140.497C43.5212 140.484 43.5306 140.473 43.5423 140.466C43.5539 140.458 43.5674 140.453 43.5813 140.452C43.5953 140.451 43.6093 140.454 43.622 140.46C43.6347 140.466 43.6457 140.475 43.6538 140.486C43.8776 140.801 44.1532 141.023 44.4733 141.146C44.7935 141.268 45.207 141.282 45.7028 141.185C47.5658 140.823 48.773 139.724 49.2907 137.918C49.7083 136.479 49.583 134.962 48.9184 133.409C48.3589 132.102 47.5156 130.942 46.4117 129.962C45.308 128.983 44.0125 128.3 42.5615 127.935C41.76 127.733 40.9367 127.631 40.1102 127.632ZM40.9616 140.4C40.5814 140.4 40.1978 140.276 39.8169 140.029C39.328 139.712 38.9071 139.147 38.5658 138.349C38.3124 137.757 38.1342 137.046 38.0362 136.236C37.9376 135.416 38.0309 134.741 38.3132 134.229C38.5988 133.71 39.0246 133.392 39.5789 133.284C40.0927 133.184 40.6073 133.297 41.1079 133.618C41.6046 133.938 42.0107 134.46 42.3151 135.171C42.585 135.802 42.7583 136.514 42.8303 137.289C42.9032 138.068 42.8542 138.692 42.6844 139.143C42.5648 139.465 42.4079 139.718 42.218 139.894C41.9756 140.136 41.6651 140.296 41.2975 140.367C41.186 140.389 41.0739 140.4 40.9616 140.4ZM39.9408 133.412C39.8305 133.412 39.7202 133.423 39.6099 133.444C39.1053 133.542 38.7168 133.833 38.4556 134.308C38.19 134.789 38.1033 135.431 38.1977 136.216C38.294 137.011 38.4681 137.707 38.7154 138.285C39.0437 139.052 39.4441 139.593 39.9054 139.892C40.3622 140.188 40.8203 140.294 41.2664 140.207C41.6017 140.142 41.8839 139.997 42.1051 139.777C42.2783 139.616 42.4212 139.384 42.5319 139.086C42.693 138.658 42.7388 138.058 42.6681 137.304C42.5978 136.546 42.4286 135.85 42.1654 135.235C41.874 134.555 41.4887 134.057 41.0199 133.755C40.6643 133.527 40.3026 133.412 39.9408 133.412Z" fill="#111111"/>
</g>
<defs>
<linearGradient id="paint0_linear_40000788_5377" x1="30.3067" y1="126.861" x2="43.6449" y2="149.83" gradientUnits="userSpaceOnUse">
<stop offset="0.097" stop-color="#0E38A3"/>
<stop offset="1" stop-color="#111111"/>
</linearGradient>
</defs>
</svg>
