<svg width="155" height="140" viewBox="0 0 155 140" fill="none" xmlns="http://www.w3.org/2000/svg">
<g clip-path="url(#clip0_40000788_5539)">
<mask id="mask0_40000788_5539" style="mask-type:luminance" maskUnits="userSpaceOnUse" x="0" y="0" width="155" height="140">
<path d="M154.983 0H0.015625V140H154.983V0Z" fill="white"/>
</mask>
<g mask="url(#mask0_40000788_5539)">
<mask id="mask1_40000788_5539" style="mask-type:luminance" maskUnits="userSpaceOnUse" x="15" y="8" width="140" height="116">
<path d="M154.926 8.04688H15.0527V123.859H154.926V8.04688Z" fill="white"/>
</mask>
<g mask="url(#mask1_40000788_5539)">
<path d="M102.962 25.3009C102.876 24.5849 102.593 23.9067 102.146 23.3411L98.7871 19.1445C99.2345 19.7102 99.517 20.3884 99.6035 21.1044L100.748 29.9905L104.106 34.187L102.962 25.3009Z" fill="#0E38A3"/>
<path d="M104.106 34.2909C104.091 34.2909 104.076 34.2875 104.062 34.2808C104.048 34.2742 104.036 34.2645 104.026 34.2525L100.667 30.056C100.655 30.0412 100.648 30.0235 100.646 30.0048L99.5016 21.1194C99.4162 20.4224 99.1414 19.7621 98.707 19.2104C98.6983 19.1999 98.6919 19.1879 98.688 19.1749C98.684 19.1619 98.6827 19.1483 98.6841 19.1348C98.6855 19.1213 98.6896 19.1082 98.6961 19.0963C98.7026 19.0844 98.7114 19.0739 98.722 19.0654C98.7325 19.057 98.7447 19.0507 98.7577 19.0469C98.7708 19.0432 98.7844 19.0421 98.7979 19.0437C98.8114 19.0453 98.8244 19.0495 98.8362 19.0562C98.848 19.0628 98.8584 19.0718 98.8667 19.0825L98.8686 19.0848L102.225 23.2789C102.683 23.8599 102.973 24.5553 103.063 25.2895L104.207 34.1755C104.21 34.1977 104.206 34.2202 104.195 34.2396C104.184 34.2589 104.166 34.2742 104.146 34.2829C104.133 34.2883 104.12 34.291 104.106 34.2909ZM100.845 29.9511L103.958 33.8405L102.86 25.316C102.775 24.6189 102.5 23.9586 102.066 23.4069L99.4808 20.177C99.5892 20.4731 99.6642 20.7803 99.7046 21.093L100.845 29.9511Z" fill="#232323"/>
<path d="M154.102 48.7082L150.743 44.5117C151.621 45.6069 151.733 47.2596 150.882 48.8842L115.628 116.223C114.373 118.621 111.497 120.046 109.194 119.407L17.6251 93.9756C16.9381 93.7965 16.3258 93.4034 15.877 92.8532L19.2358 97.0497C19.6846 97.5999 20.2968 97.993 20.9838 98.1721L112.553 123.603C114.856 124.243 117.731 122.817 118.987 120.419L154.241 53.0809C155.092 51.4562 154.979 49.8039 154.102 48.7082Z" fill="url(#paint0_linear_40000788_5539)"/>
<path d="M113.698 123.858C113.302 123.86 112.908 123.807 112.527 123.703L20.9578 98.2718C20.2507 98.0859 19.6205 97.6808 19.1576 97.1147L15.7987 92.9182C15.7901 92.9077 15.7837 92.8956 15.7798 92.8827C15.7758 92.8697 15.7745 92.8561 15.7759 92.8426C15.7773 92.8291 15.7814 92.816 15.7879 92.8041C15.7944 92.7922 15.8032 92.7817 15.8138 92.7732C15.8243 92.7647 15.8365 92.7584 15.8495 92.7547C15.8626 92.751 15.8762 92.7499 15.8897 92.7515C15.9032 92.753 15.9162 92.7573 15.928 92.764C15.9398 92.7706 15.9502 92.7795 15.9585 92.7902C16.3948 93.3227 16.9883 93.7035 17.6541 93.8781L109.223 119.309C111.474 119.934 114.308 118.529 115.539 116.176L150.793 48.8374C151.594 47.3082 151.545 45.6755 150.665 44.5765C150.657 44.566 150.651 44.554 150.647 44.5411C150.643 44.5281 150.642 44.5146 150.643 44.5013C150.645 44.4879 150.649 44.4749 150.655 44.4632C150.662 44.4514 150.671 44.441 150.681 44.4326C150.692 44.4242 150.704 44.4179 150.717 44.4142C150.729 44.4105 150.743 44.4093 150.756 44.4108C150.77 44.4123 150.783 44.4164 150.794 44.4228C150.806 44.4293 150.817 44.4381 150.825 44.4486L154.184 48.6451C155.115 49.8086 155.172 51.5267 154.334 53.1289L119.079 120.468C118.011 122.508 115.772 123.858 113.698 123.858ZM16.6676 93.6768L19.317 96.9869C19.7532 97.5194 20.3468 97.9002 21.0126 98.0747L112.582 123.506C114.833 124.131 117.666 122.726 118.898 120.373L154.152 53.0346C154.952 51.5053 154.903 49.8725 154.024 48.7736L151.376 45.466C151.724 46.5052 151.593 47.7506 150.974 48.9331L115.72 116.272C114.446 118.706 111.507 120.157 109.168 119.507L17.599 94.076C17.2718 93.9862 16.9584 93.8519 16.6676 93.6768Z" fill="#232323"/>
<path d="M96.7104 17.8076C98.3141 18.2531 99.3917 19.4852 99.6019 21.1035L100.746 29.9896L148.992 43.3891C151.295 44.0285 152.137 46.4868 150.882 48.8849L115.628 116.223C114.372 118.621 111.496 120.046 109.194 119.407L17.6246 93.9758C15.3283 93.3381 14.4794 90.8781 15.7348 88.4801L56.0415 11.491C57.3002 9.08653 60.1827 7.66299 62.4787 8.30065L96.7104 17.8076Z" fill="#BDDFFF"/>
<path d="M110.338 119.66C109.943 119.662 109.549 119.61 109.168 119.505L17.5986 94.0747C16.5541 93.7846 15.7549 93.1076 15.3481 92.1685C14.871 91.0668 14.9797 89.7052 15.6454 88.4326L55.9522 11.4432C57.2277 9.00637 60.169 7.55202 62.5076 8.20176L96.7391 17.7087C98.3799 18.1644 99.4886 19.4283 99.7047 21.09L100.841 29.9088L149.021 43.2899C150.067 43.5804 150.867 44.257 151.274 45.1952C151.75 46.2959 151.641 47.6579 150.974 48.9311L115.72 116.27C114.652 118.31 112.413 119.66 110.338 119.66ZM61.3321 8.25048C59.3325 8.25048 57.1689 9.56062 56.1332 11.538L15.8267 88.5271C15.1895 89.7451 15.084 91.0419 15.536 92.0866C15.9177 92.9679 16.6696 93.6037 17.6533 93.8769L109.222 119.308C111.473 119.933 114.307 118.528 115.538 116.175L150.793 48.8367C151.431 47.6179 151.537 46.3203 151.085 45.2766C150.704 44.3963 149.951 43.7607 148.966 43.487L100.72 30.0878C100.701 30.0824 100.683 30.0714 100.67 30.0562C100.657 30.041 100.648 30.0222 100.646 30.0022L99.5018 21.1164C99.2971 19.5394 98.243 18.3391 96.6843 17.9062L62.4528 8.399C62.0877 8.29901 61.7107 8.24905 61.3321 8.25048Z" fill="#232323"/>
</g>
<mask id="mask2_40000788_5539" style="mask-type:luminance" maskUnits="userSpaceOnUse" x="117" y="0" width="23" height="24">
<path d="M139.31 0H117.918V23.8601H139.31V0Z" fill="white"/>
</mask>
<g mask="url(#mask2_40000788_5539)">
<path d="M133.099 8.43606L134.29 12.3394C133.983 11.3313 133.301 10.4297 132.278 9.81829C129.914 8.40499 126.625 9.07892 124.931 11.3238C123.969 12.598 123.727 14.1038 124.131 15.4263L122.94 11.5229C122.537 10.2004 122.778 8.69459 123.74 7.42047C125.435 5.17555 128.723 4.50162 131.087 5.91492C132.11 6.52629 132.792 7.42795 133.099 8.43606Z" fill="#0E38A3"/>
<path d="M124.129 15.4944C124.114 15.4944 124.1 15.4897 124.088 15.4809C124.076 15.4722 124.068 15.4598 124.063 15.4458L122.873 11.5425C122.446 10.1439 122.742 8.62628 123.683 7.37884C125.396 5.1108 128.732 4.42747 131.121 5.85566C132.116 6.45057 132.842 7.3597 133.164 8.41563L134.354 12.3189C134.357 12.3276 134.358 12.3366 134.357 12.3456C134.356 12.3545 134.353 12.3632 134.349 12.3712C134.345 12.3791 134.339 12.3862 134.332 12.3919C134.325 12.3976 134.317 12.4019 134.309 12.4045C134.3 12.4072 134.291 12.4081 134.282 12.4072C134.273 12.4063 134.264 12.4037 134.256 12.3994C134.248 12.3952 134.241 12.3894 134.235 12.3825C134.23 12.3755 134.225 12.3675 134.223 12.3589C133.911 11.3354 133.207 10.4539 132.241 9.8766C129.91 8.4834 126.655 9.15095 124.984 11.3646C124.069 12.5767 123.781 14.0497 124.195 15.4058C124.198 15.416 124.199 15.4269 124.197 15.4374C124.195 15.448 124.191 15.458 124.184 15.4666C124.178 15.4752 124.17 15.4822 124.16 15.487C124.15 15.4918 124.14 15.4944 124.129 15.4944ZM128.342 5.24559C126.615 5.24559 124.873 6.03043 123.793 7.46129C122.878 8.6734 122.591 10.1464 123.004 11.5025L123.877 14.3626C123.829 13.2932 124.171 12.2125 124.874 11.2821C126.586 9.01397 129.923 8.33085 132.312 9.75896C132.978 10.1573 133.523 10.6965 133.908 11.3264L133.032 8.45548C132.72 7.43214 132.016 6.55058 131.051 5.97323C130.226 5.48059 129.286 5.24559 128.342 5.24559Z" fill="#232323"/>
<path d="M139.19 9.44634L137.999 5.54297C138.044 5.69038 138.06 5.84787 138.043 6.00865L137.113 14.6204L138.304 18.5238L139.234 9.91209C139.251 9.7555 139.236 9.59709 139.19 9.44634Z" fill="#0E38A3"/>
<path d="M138.304 18.592C138.29 18.592 138.275 18.5872 138.263 18.5785C138.252 18.5697 138.243 18.5574 138.239 18.5433L137.048 14.64C137.045 14.6312 137.044 14.6219 137.045 14.6127L137.975 6.00105C137.991 5.85158 137.977 5.70404 137.934 5.56267C137.93 5.5455 137.932 5.52724 137.941 5.51174C137.949 5.49624 137.964 5.4847 137.981 5.47953C137.998 5.47437 138.016 5.47598 138.032 5.48404C138.048 5.4921 138.06 5.50597 138.066 5.52275L139.256 9.42612C139.305 9.58564 139.321 9.75331 139.302 9.91903L138.373 18.5309C138.371 18.5477 138.363 18.5632 138.35 18.5745C138.338 18.5858 138.321 18.592 138.304 18.592ZM137.183 14.6135L138.272 18.1818L139.166 9.90428C139.182 9.75689 139.168 9.60778 139.125 9.4659L138.101 6.11128L137.183 14.6135Z" fill="#232323"/>
<path d="M137.114 14.6211L138.304 18.5245C138.256 18.9875 137.939 19.4071 137.476 19.622L136.285 15.7187C136.748 15.5037 137.065 15.0841 137.114 14.6211Z" fill="#0E38A3"/>
<path d="M137.476 19.6887C137.461 19.6887 137.447 19.684 137.435 19.6752C137.423 19.6665 137.415 19.6542 137.41 19.6401L136.22 15.7368C136.215 15.721 136.216 15.704 136.223 15.6889C136.23 15.6738 136.242 15.6616 136.257 15.6547C136.697 15.4501 137 15.0506 137.046 14.6122C137.047 14.5964 137.054 14.5817 137.066 14.5706C137.077 14.5594 137.092 14.5525 137.108 14.551C137.14 14.5484 137.17 14.5681 137.18 14.5993L138.371 18.5026C138.373 18.5114 138.374 18.5206 138.373 18.5297C138.322 19.016 137.99 19.4576 137.505 19.6823C137.496 19.6865 137.486 19.6887 137.476 19.6887ZM136.368 15.7528L137.518 19.5226C137.916 19.3119 138.187 18.9382 138.235 18.5291L137.126 14.8924C137.008 15.2522 136.735 15.5659 136.368 15.7528Z" fill="#232323"/>
<path d="M126.261 19.6874L118.581 15.0956C118.311 14.9346 118.122 14.6921 118.037 14.4141L119.228 18.3174C119.313 18.5954 119.502 18.838 119.771 18.999L127.452 23.5908L126.261 19.6874Z" fill="#0E38A3"/>
<path d="M127.453 23.6615C127.44 23.6615 127.428 23.6581 127.417 23.6517L119.736 19.06C119.457 18.8929 119.253 18.6371 119.162 18.3396L117.972 14.4372C117.966 14.4198 117.968 14.4 117.977 14.384C117.985 14.3679 118 14.3559 118.017 14.3506C118.035 14.3453 118.054 14.3472 118.07 14.3558C118.086 14.3643 118.098 14.3789 118.103 14.3963C118.184 14.6612 118.366 14.8894 118.616 15.0389L126.297 19.6306C126.312 19.6393 126.323 19.6532 126.328 19.6695L127.518 23.5728C127.521 23.5831 127.522 23.5939 127.52 23.6045C127.518 23.6151 127.514 23.6251 127.508 23.6337C127.501 23.6423 127.493 23.6493 127.483 23.6542C127.474 23.659 127.463 23.6615 127.453 23.6615ZM118.268 14.9368L119.294 18.2996C119.375 18.5645 119.557 18.7927 119.807 18.9423L127.335 23.4424L126.204 19.7346L118.546 15.1566C118.444 15.0959 118.351 15.022 118.268 14.9368Z" fill="#232323"/>
<path d="M136.286 15.7188L137.477 19.6221L128.869 23.6436L127.679 19.7402L136.286 15.7188Z" fill="#0E38A3"/>
<path d="M128.87 23.7103C128.855 23.7103 128.841 23.7056 128.829 23.6968C128.817 23.6881 128.808 23.6758 128.804 23.6617L127.613 19.7584C127.609 19.7426 127.61 19.7256 127.616 19.7105C127.623 19.6955 127.635 19.6833 127.65 19.6764L136.258 15.6549C136.267 15.6507 136.276 15.6485 136.286 15.6484C136.296 15.6484 136.306 15.6504 136.315 15.6544C136.324 15.6584 136.332 15.6642 136.338 15.6716C136.345 15.6789 136.35 15.6876 136.353 15.697L137.543 19.6003C137.548 19.6161 137.547 19.6331 137.54 19.6481C137.534 19.6632 137.522 19.6754 137.507 19.6823L128.899 23.7038C128.89 23.7081 128.88 23.7103 128.87 23.7103ZM127.762 19.7753L128.912 23.546L137.394 19.5833L136.244 15.8126L127.762 19.7753Z" fill="#232323"/>
<path d="M137.114 14.6212C137.065 15.0842 136.748 15.5038 136.285 15.7188L127.677 19.7403C127.213 19.9566 126.674 19.9372 126.261 19.69L118.58 15.0981C118.168 14.8517 117.943 14.4145 117.993 13.951L118.922 5.3386C118.971 4.87642 119.288 4.45684 119.75 4.24104L128.359 0.220307C128.822 0.00327733 129.362 0.0234437 129.774 0.2699L137.455 4.8616C137.869 5.10882 138.093 5.54521 138.043 6.00951L137.114 14.6212ZM124.95 14.0438C127.314 15.4571 130.604 14.784 132.298 12.539C133.993 10.2941 133.45 7.32918 131.086 5.91588C128.722 4.50259 125.433 5.17652 123.738 7.42144C122.043 9.66643 122.586 12.6306 124.95 14.0438Z" fill="white"/>
<path d="M127.006 19.9552C126.73 19.9552 126.458 19.8852 126.226 19.7465L118.545 15.1547C118.109 14.8943 117.872 14.4295 117.925 13.9414L118.854 5.32899C118.906 4.84383 119.239 4.40222 119.722 4.17662L128.331 0.155886C128.812 -0.0695118 129.379 -0.0492768 129.81 0.208771L137.491 4.80055C137.926 5.06065 138.164 5.52578 138.112 6.01451L137.182 14.6261C137.131 15.1122 136.799 15.5539 136.314 15.7787L127.707 19.8001C127.487 19.9021 127.248 19.9551 127.006 19.9552ZM129.031 0.136954C128.814 0.136954 128.593 0.184421 128.389 0.280108L119.78 4.30091C119.34 4.50628 119.038 4.90584 118.99 5.34367L118.062 13.9561C118.015 14.3904 118.227 14.8045 118.616 15.0371L126.297 19.6288C126.689 19.8634 127.207 19.8814 127.649 19.6758L136.256 15.6544C136.697 15.4497 137 15.0502 137.046 14.6119L137.975 5.9999C138.022 5.56502 137.809 5.15051 137.42 4.91818L129.74 0.326409C129.529 0.200471 129.282 0.136954 129.031 0.136954ZM127.694 14.8471C126.725 14.8471 125.76 14.606 124.915 14.1004C123.772 13.4174 123.008 12.3543 122.764 11.1072C122.513 9.82075 122.839 8.49635 123.684 7.37794C125.396 5.1099 128.732 4.42657 131.121 5.85476C132.264 6.53808 133.028 7.60162 133.272 8.8494C133.524 10.1358 133.198 11.46 132.354 12.578C131.248 14.0433 129.463 14.8471 127.694 14.8471ZM124.985 13.9828C127.317 15.3762 130.573 14.7093 132.244 12.4956C133.064 11.409 133.382 10.1235 133.137 8.87574C132.901 7.66658 132.16 6.63555 131.051 5.97253C128.72 4.57926 125.465 5.24681 123.794 7.46053C122.973 8.54752 122.655 9.83324 122.899 11.0809C123.136 12.2894 123.877 13.32 124.985 13.9828Z" fill="#232323"/>
<path d="M127.679 19.7378L128.87 23.6412C128.406 23.8575 127.867 23.8381 127.453 23.5909L126.263 19.6875C126.676 19.9347 127.215 19.9541 127.679 19.7378Z" fill="#0E38A3"/>
<path d="M128.196 23.8605C127.919 23.8605 127.648 23.7905 127.415 23.6517C127.401 23.643 127.39 23.6292 127.385 23.6129L126.194 19.7096C126.19 19.6963 126.19 19.6822 126.195 19.669C126.199 19.6558 126.207 19.6441 126.218 19.6356C126.229 19.6271 126.242 19.6221 126.256 19.6212C126.27 19.6204 126.284 19.6237 126.296 19.6309C126.688 19.8654 127.206 19.8834 127.648 19.6778C127.657 19.6737 127.666 19.6714 127.676 19.6713C127.686 19.6712 127.696 19.6733 127.705 19.6773C127.714 19.6813 127.722 19.6872 127.728 19.6945C127.735 19.7019 127.74 19.7106 127.743 19.72L128.933 23.6233C128.938 23.6391 128.937 23.6561 128.93 23.6712C128.923 23.6863 128.911 23.6984 128.896 23.7054C128.677 23.8074 128.438 23.8604 128.196 23.8605ZM127.509 23.5473C127.882 23.7601 128.363 23.7813 128.784 23.6051L127.633 19.8337C127.222 20.0019 126.758 19.9976 126.374 19.8257L127.509 23.5473Z" fill="#232323"/>
</g>
<mask id="mask3_40000788_5539" style="mask-type:luminance" maskUnits="userSpaceOnUse" x="59" y="28" width="95" height="112">
<path d="M153.843 28.3828H59.3906V139.945H153.843V28.3828Z" fill="white"/>
</mask>
<g mask="url(#mask3_40000788_5539)">
<path d="M82.0957 41.1909L81.0954 43.6141C81.5876 42.4219 81.5473 41.2962 80.6746 40.5059C77.6758 37.7878 70.6064 31.5224 70.2344 31.1927L71.2346 28.7695C71.6067 29.0993 78.6761 35.3646 81.6749 38.0827C82.5476 38.873 82.5878 39.9987 82.0957 41.1909Z" fill="#232323"/>
<path d="M81.0968 43.6717C81.0876 43.6717 81.0785 43.6694 81.0704 43.6651C81.0623 43.6608 81.0553 43.6545 81.0502 43.6468C81.0451 43.6391 81.0419 43.6303 81.041 43.6212C81.0401 43.612 81.0415 43.6027 81.0451 43.5942L81.0467 43.5901C81.4126 42.7014 81.6378 41.454 80.6383 40.549C77.7343 37.9166 70.9651 31.9155 70.2028 31.2399L70.1986 31.2361C70.1898 31.2284 70.1837 31.2181 70.1811 31.2068C70.1785 31.1954 70.1795 31.1835 70.1839 31.1728L71.1842 28.7496C71.1876 28.7413 71.1929 28.7339 71.1997 28.7282C71.2065 28.7224 71.2146 28.7183 71.2233 28.7163C71.232 28.7143 71.2411 28.7144 71.2498 28.7166C71.2584 28.7188 71.2664 28.7231 71.2731 28.7291L71.2773 28.7328C72.0396 29.4085 78.8093 35.41 81.7138 38.0427C82.5442 38.7948 82.6946 39.8914 82.1488 41.2138L81.1485 43.637C81.1485 43.6371 81.1486 43.637 81.1485 43.637C81.1443 43.6473 81.1371 43.656 81.1279 43.6622C81.1187 43.6684 81.1079 43.6717 81.0968 43.6717ZM70.3027 31.1787C71.1794 31.9558 77.8391 37.8605 80.7135 40.4659C81.328 41.0223 81.5702 41.7673 81.4335 42.653L82.0452 41.171C82.4122 40.2821 82.6395 39.0322 81.6385 38.1258C78.7944 35.5477 72.2429 29.7384 71.2577 28.8651L70.3027 31.1787Z" fill="#232323"/>
<path d="M153.536 129.137L152.536 131.56C152.486 131.68 152.429 131.792 152.363 131.894L153.364 129.471C153.429 129.369 153.486 129.257 153.536 129.137Z" fill="white"/>
<path d="M152.363 131.947C152.353 131.947 152.344 131.945 152.336 131.941C152.328 131.936 152.321 131.93 152.316 131.922C152.311 131.915 152.308 131.906 152.307 131.897C152.306 131.888 152.307 131.878 152.311 131.87L153.311 129.447C153.312 129.444 153.314 129.441 153.316 129.438C153.379 129.34 153.435 129.231 153.484 129.113C153.487 129.106 153.491 129.1 153.496 129.095C153.501 129.089 153.507 129.085 153.514 129.082C153.521 129.08 153.528 129.078 153.536 129.078C153.543 129.078 153.55 129.08 153.557 129.082C153.564 129.085 153.57 129.089 153.575 129.095C153.58 129.1 153.585 129.106 153.587 129.113C153.59 129.119 153.592 129.127 153.592 129.134C153.592 129.141 153.59 129.149 153.587 129.156L152.587 131.579C152.536 131.703 152.476 131.819 152.41 131.922C152.405 131.929 152.398 131.936 152.389 131.94C152.381 131.945 152.372 131.947 152.363 131.947Z" fill="#232323"/>
<path d="M153.361 129.469L152.361 131.893C152.013 131.58 145.394 125.63 142.737 123.311C141.551 122.276 139.769 122.436 138.023 123.221C135.78 124.23 133.6 126.271 132.83 128.135L133.83 125.712C134.6 123.847 136.78 121.807 139.023 120.798C140.769 120.013 142.552 119.853 143.737 120.887C146.394 123.206 153.013 129.156 153.361 129.469Z" fill="#232323"/>
<path d="M152.362 131.948C152.348 131.948 152.335 131.943 152.325 131.934C151.613 131.294 145.296 125.617 142.701 123.352C141.641 122.427 139.988 122.399 138.047 123.272C135.807 124.279 133.635 126.333 132.883 128.155C132.877 128.169 132.866 128.18 132.852 128.185C132.839 128.191 132.824 128.191 132.81 128.185C132.796 128.179 132.786 128.169 132.78 128.155C132.774 128.142 132.774 128.126 132.779 128.113L133.78 125.689C134.542 123.843 136.738 121.764 139.001 120.746C140.985 119.854 142.68 119.889 143.775 120.844C146.37 123.11 152.688 128.787 153.4 129.427C153.408 129.435 153.414 129.445 153.417 129.456C153.42 129.468 153.419 129.479 153.414 129.49L152.414 131.913C152.41 131.924 152.402 131.932 152.393 131.938C152.384 131.945 152.373 131.948 152.362 131.948ZM140.633 122.525C141.479 122.525 142.207 122.773 142.774 123.268C145.309 125.48 151.394 130.947 152.341 131.797L153.295 129.484C152.455 128.728 146.263 123.165 143.701 120.929C142.641 120.004 140.988 119.975 139.047 120.848C136.807 121.856 134.635 123.91 133.883 125.732L133.311 127.117C134.321 125.563 136.138 124.007 138.001 123.169C138.957 122.739 139.846 122.525 140.633 122.525Z" fill="#232323"/>
<path d="M125.386 130.487C120.711 125.772 125.555 116.927 122.607 112.928L83.5169 59.8965C81.0001 56.4821 71.5706 56.394 67.6633 53.4293C63.1907 50.0334 59.3787 40.7265 60.7203 37.4766L59.72 39.8998C58.3785 43.1498 62.1905 52.4566 66.6631 55.8525C70.5704 58.8172 79.9998 58.9053 82.5167 62.3197L121.607 115.351C124.555 119.35 119.711 128.195 124.386 132.91C128.828 137.39 139.744 140.976 142.842 139.583L143.843 137.16C140.744 138.553 129.829 134.967 125.386 130.487Z" fill="url(#paint1_linear_40000788_5539)"/>
<path d="M140.973 139.945C139.233 139.945 136.799 139.446 134.1 138.503C130.031 137.082 126.384 135.007 124.346 132.951C123.178 131.773 122.499 130.232 122.268 128.239C122.066 126.484 122.226 124.607 122.381 122.792C122.629 119.892 122.864 117.152 121.562 115.386L82.4716 62.3544C81.1169 60.5166 77.7962 59.6647 74.2804 58.7628C71.4013 58.0242 68.4241 57.2605 66.6293 55.8985C64.5563 54.3245 62.4368 51.3138 60.9597 47.8447C59.5255 44.4763 59.0306 41.4243 59.6683 39.8797L60.6685 37.4565C60.6742 37.4428 60.6851 37.4319 60.6988 37.4262C60.7125 37.4205 60.7279 37.4204 60.7417 37.4261C60.7485 37.4289 60.7547 37.433 60.7599 37.4382C60.7651 37.4434 60.7692 37.4496 60.772 37.4564C60.7749 37.4632 60.7763 37.4705 60.7763 37.4779C60.7763 37.4852 60.7749 37.4925 60.772 37.4993C60.1456 39.0171 60.6402 42.0359 62.0631 45.3776C63.5328 48.8295 65.639 51.8233 67.6972 53.386C69.4742 54.7343 72.4402 55.4951 75.3087 56.231C78.8443 57.138 82.1838 57.9947 83.5621 59.8645L122.652 112.896C123.979 114.696 123.743 117.457 123.493 120.379C123.179 124.054 122.854 127.855 125.426 130.449C127.453 132.493 131.083 134.559 135.137 135.974C139.028 137.333 142.355 137.768 143.82 137.11C143.83 137.105 143.841 137.104 143.853 137.105C143.864 137.107 143.874 137.113 143.882 137.12C143.89 137.128 143.896 137.138 143.898 137.149C143.9 137.16 143.899 137.172 143.895 137.182L142.894 139.605C142.889 139.619 142.879 139.629 142.865 139.635C142.402 139.844 141.758 139.945 140.973 139.945ZM60.4544 38.2689L59.7719 39.9225C59.1453 41.4403 59.64 44.4591 61.0628 47.8008C62.5325 51.2527 64.6388 54.2465 66.6969 55.8093C68.4738 57.1575 71.4399 57.9183 74.3083 58.6542C77.8439 59.5612 81.1834 60.4179 82.5617 62.2878L121.652 115.319C122.979 117.119 122.743 119.88 122.493 122.802C122.179 126.477 121.854 130.278 124.426 132.872C126.453 134.916 130.083 136.982 134.137 138.398C138.01 139.75 141.324 140.188 142.799 139.542L143.739 137.264C142.192 137.858 138.91 137.411 135.1 136.08C131.031 134.659 127.385 132.583 125.346 130.528C124.179 129.35 123.499 127.809 123.269 125.816C123.066 124.061 123.226 122.184 123.382 120.369C123.63 117.469 123.864 114.729 122.562 112.963L83.4718 59.9311C82.1172 58.0933 78.7965 57.2415 75.2807 56.3396C72.4015 55.601 69.4244 54.8372 67.6294 53.4753C65.5565 51.9013 63.437 48.8905 61.96 45.4215C60.7457 42.5696 60.2047 39.9443 60.4544 38.2689Z" fill="#232323"/>
<path d="M71.236 28.7683C74.5989 27.2558 86.4396 31.1486 91.2587 36.007C96.3321 41.1226 90.7206 50.8787 93.9192 55.2181L133.009 108.249C135.329 111.396 143.534 111.697 147.136 114.429C151.426 117.686 155.054 126.84 153.363 129.469C153.015 129.155 146.396 123.205 143.739 120.886C142.554 119.852 140.771 120.012 139.025 120.797C135.46 122.401 132.051 126.612 134.22 128.577C136.983 131.081 143.499 136.856 143.842 137.16C140.744 138.553 129.828 134.967 125.386 130.487C120.711 125.772 125.555 116.927 122.607 112.928L83.5167 59.8966C80.9999 56.4821 71.5704 56.3941 67.6631 53.4294C63.0097 49.8962 59.0715 39.9647 60.9082 37.1131C61.2862 37.4529 68.4673 43.9094 71.3491 46.4234C72.6341 47.5459 74.5682 47.3721 76.4625 46.5201C80.3307 44.7804 84.0292 40.2122 81.6762 38.0814C78.6774 35.3633 71.608 29.098 71.236 28.7683Z" fill="#0E38A3"/>
<path d="M141.972 137.522C140.232 137.522 137.798 137.023 135.099 136.081C131.03 134.659 127.384 132.584 125.345 130.528C124.178 129.35 123.498 127.809 123.268 125.816C123.065 124.061 123.225 122.185 123.381 120.37C123.629 117.469 123.863 114.729 122.561 112.963L83.4708 59.9315C82.1162 58.0937 78.7955 57.2419 75.2798 56.3399C72.4005 55.6013 69.4234 54.8376 67.6285 53.4757C65.4599 51.8291 63.2807 48.675 61.7993 45.0384C60.3505 41.4824 59.9907 38.4345 60.8604 37.0844C60.8648 37.0776 60.8706 37.0718 60.8774 37.0674C60.8843 37.0631 60.892 37.0603 60.9 37.0592C60.9081 37.0581 60.9162 37.0588 60.924 37.0612C60.9317 37.0636 60.9389 37.0677 60.9449 37.0731C61.2522 37.3494 68.5036 43.8691 71.3852 46.3828C72.5356 47.3878 74.3305 47.4189 76.4388 46.4707C79.344 45.1641 81.9817 42.3632 82.3188 40.2269C82.4549 39.3643 82.2258 38.6571 81.6378 38.1246C78.7337 35.4923 71.9645 29.4912 71.2022 28.8156L71.198 28.8118C71.191 28.8056 71.1856 28.7978 71.1825 28.789C71.1793 28.7802 71.1783 28.7707 71.1797 28.7614C71.1811 28.7522 71.1849 28.7434 71.1905 28.7359C71.1962 28.7285 71.2037 28.7226 71.2122 28.7188C72.8275 27.9923 76.4703 28.463 80.719 29.9473C85.1321 31.489 89.0868 33.7402 91.2978 35.9692C92.5628 37.2448 93.278 38.9235 93.4839 41.1011C93.6653 43.0193 93.4409 45.0752 93.2241 47.0635C92.8762 50.253 92.5476 53.2655 93.9636 55.1866L133.054 108.218C134.312 109.924 137.269 110.773 140.4 111.671C142.922 112.395 145.53 113.143 147.169 114.387C149.169 115.904 151.178 118.812 152.544 122.165C153.879 125.444 154.211 128.255 153.41 129.501C153.405 129.507 153.399 129.513 153.393 129.518C153.386 129.522 153.378 129.525 153.37 129.526C153.362 129.527 153.354 129.526 153.346 129.524C153.338 129.521 153.331 129.517 153.325 129.512C152.613 128.872 146.296 123.195 143.701 120.93C142.642 120.005 140.989 119.977 139.047 120.85C136.371 122.053 133.941 124.634 133.631 126.602C133.505 127.396 133.716 128.047 134.257 128.537C136.935 130.964 143.173 136.494 143.876 137.117C143.89 137.129 143.898 137.15 143.896 137.168C143.893 137.187 143.882 137.205 143.865 137.212C143.401 137.421 142.757 137.522 141.972 137.522ZM60.9197 37.2012C60.1147 38.5488 60.4878 41.5224 61.903 44.9961C63.3552 48.5609 65.575 51.7759 67.6961 53.3864C69.4731 54.7346 72.4391 55.4955 75.3076 56.2313C78.8432 57.1384 82.1827 57.995 83.561 59.8649L122.651 112.896C123.978 114.697 123.742 117.457 123.492 120.379C123.178 124.055 122.853 127.855 125.425 130.449C127.452 132.493 131.082 134.559 135.136 135.975C138.957 137.309 142.235 137.753 143.738 137.144C142.776 136.292 136.79 130.984 134.182 128.62C133.611 128.103 133.388 127.418 133.52 126.585C133.836 124.583 136.295 121.965 139.001 120.747C140.985 119.855 142.68 119.89 143.775 120.846C146.318 123.065 152.434 128.56 153.35 129.383C154.087 128.14 153.742 125.403 152.44 122.207C151.102 118.922 149.056 115.959 147.102 114.476C145.479 113.245 142.881 112.499 140.369 111.779C137.219 110.875 134.244 110.022 132.964 108.284L93.8734 55.253C92.4315 53.2967 92.7623 50.2631 93.1127 47.0512C93.3289 45.0685 93.5526 43.0184 93.3723 41.1116C93.1689 38.9608 92.4643 37.3045 91.2182 36.0481C89.0186 33.8306 85.0798 31.5895 80.682 30.0531C76.529 28.6022 72.9677 28.1216 71.3384 28.7866C72.3476 29.6811 78.8752 35.4693 81.713 38.0416C82.3307 38.601 82.5718 39.3421 82.4294 40.2444C82.2597 41.3202 81.5338 42.5758 80.3855 43.7797C79.2664 44.9529 77.8811 45.9449 76.4848 46.5729C74.3341 47.5402 72.4968 47.5027 71.3114 46.4673C68.5206 44.0326 61.6324 37.8418 60.9197 37.2012Z" fill="#232323"/>
<path d="M88.1584 56.643C86.5649 57.3597 86.166 59.1507 87.2656 60.6424L123.665 110.023C124.766 111.517 126.949 112.146 128.542 111.43C130.134 110.714 130.533 108.923 129.432 107.429L93.0325 58.0487C91.933 56.557 89.7498 55.9273 88.1584 56.643Z" fill="#0E38A3"/>
<path d="M127.106 111.78C125.797 111.781 124.423 111.145 123.621 110.057L87.2213 60.6759C86.6567 59.9098 86.4606 59.0497 86.6692 58.2538C86.8612 57.5214 87.3822 56.9313 88.1363 56.5921C89.7483 55.867 91.9655 56.5057 93.0785 58.0156L129.478 107.396C130.043 108.164 130.24 109.025 130.031 109.821C129.839 110.553 129.319 111.143 128.566 111.481C128.115 111.684 127.615 111.78 127.106 111.78ZM89.5981 56.4041C89.1043 56.4041 88.6202 56.4974 88.1822 56.6944C87.4596 57.0193 86.9608 57.5833 86.7776 58.2822C86.5778 59.0447 86.7674 59.8711 87.3115 60.6093L123.711 109.99C124.795 111.461 126.953 112.084 128.52 111.379C129.242 111.054 129.74 110.491 129.923 109.793C130.123 109.03 129.933 108.202 129.388 107.463L92.9883 58.0822C92.2078 57.0233 90.8705 56.4041 89.5981 56.4041Z" fill="#232323"/>
</g>
<mask id="mask4_40000788_5539" style="mask-type:luminance" maskUnits="userSpaceOnUse" x="-2" y="65" width="73" height="67">
<path d="M70.3214 80.0111L10.9365 65L-1.99836 116.171L57.3865 131.182L70.3214 80.0111Z" fill="white"/>
</mask>
<g mask="url(#mask4_40000788_5539)">
<path d="M62.1092 112.171L62.6906 109.4C62.418 110.698 61.3502 111.791 59.77 112.18L27.7447 120.073C25.3964 120.652 22.8085 119.459 21.9648 117.409L7.41004 82.0371C7.14521 81.4128 7.07592 80.723 7.21132 80.0586L6.63 82.829C6.49461 83.4933 6.56391 84.1831 6.82874 84.8074L21.3835 120.179C22.2272 122.229 24.8149 123.422 27.1634 122.844L59.1886 114.95C60.769 114.561 61.837 113.468 62.1092 112.171Z" fill="url(#paint2_linear_40000788_5539)"/>
<path d="M24.627 122.899C23.1477 122.525 21.8638 121.545 21.3134 120.208L6.75868 84.8363C6.48894 84.1975 6.41822 83.4923 6.55578 82.8128L7.13695 80.043C7.13902 80.0331 7.14313 80.0233 7.14883 80.015C7.15453 80.0066 7.16182 79.9995 7.17028 79.994C7.17874 79.9885 7.1882 79.9847 7.19814 79.9828C7.20807 79.9809 7.21827 79.981 7.22816 79.9831C7.23805 79.9852 7.24744 79.9892 7.25579 79.9949C7.26413 80.0006 7.27127 80.0079 7.2768 80.0163C7.28233 80.0248 7.28614 80.0342 7.28801 80.0442C7.28988 80.0541 7.28978 80.0643 7.28771 80.0742C7.15657 80.7235 7.22437 81.3974 7.48225 82.0077L22.0369 117.379C22.8654 119.393 25.418 120.568 27.7272 119.999L59.7528 112.105C61.2442 111.738 62.3416 110.695 62.6166 109.384C62.6187 109.374 62.6227 109.365 62.6284 109.357C62.6341 109.348 62.6414 109.341 62.6498 109.336C62.6583 109.33 62.6678 109.326 62.6777 109.325C62.6876 109.323 62.6978 109.323 62.7077 109.325C62.7176 109.327 62.727 109.331 62.7353 109.337C62.7437 109.342 62.7508 109.35 62.7563 109.358C62.7619 109.367 62.7657 109.376 62.7675 109.386C62.7694 109.396 62.7693 109.406 62.7672 109.416L62.1859 112.186C61.8987 113.555 60.7578 114.643 59.2085 115.025L27.1829 122.918C26.3422 123.121 25.4647 123.114 24.627 122.899ZM7.08359 81.0464L6.7063 82.8443C6.57519 83.4936 6.64299 84.1674 6.90086 84.7778L21.4556 120.149C22.2841 122.163 24.8368 123.338 27.1459 122.769L59.1715 114.876C60.6629 114.508 61.7603 113.465 62.0353 112.155L62.412 110.36C61.9002 111.273 60.9618 111.966 59.7897 112.255L27.7642 120.148C25.384 120.734 22.751 119.519 21.8947 117.438L7.33995 82.0661C7.205 81.7406 7.11862 81.397 7.08359 81.0464Z" fill="#232323"/>
<path d="M34.9717 71.1553L50.5193 78.3231L62.4923 107.42C63.336 109.471 62.119 111.602 59.7708 112.18L27.7455 120.074C25.3972 120.652 22.8093 119.459 21.9656 117.409L7.41084 82.0374C6.56721 79.987 7.78706 77.8556 10.1354 77.2766L34.9717 71.1553Z" fill="#BDDFFF"/>
<path d="M25.2081 120.129C23.7288 119.755 22.4448 118.775 21.8944 117.437L7.33981 82.0658C7.14563 81.6135 7.05286 81.1242 7.068 80.6322C7.08315 80.1403 7.20584 79.6576 7.42747 79.2182C7.92653 78.2345 8.90679 77.4993 10.1169 77.2014L34.9532 71.0799C34.9701 71.0757 34.988 71.0774 35.0038 71.0847L50.5512 78.2525C50.5688 78.2606 50.5827 78.2751 50.5901 78.293L62.5634 107.39C62.7577 107.843 62.8506 108.332 62.8356 108.825C62.8205 109.317 62.6978 109.8 62.4762 110.24C61.9777 111.222 60.9984 111.956 59.7892 112.254L27.7638 120.148C26.9232 120.35 26.0457 120.344 25.2081 120.129ZM34.9639 71.2356L10.1537 77.3505C8.98703 77.6381 8.04333 78.3441 7.56467 79.2876C7.35317 79.7074 7.23616 80.1684 7.22187 80.6383C7.20758 81.1081 7.29635 81.5754 7.48195 82.0074L22.0367 117.379C22.8652 119.392 25.4178 120.567 27.7269 119.998L59.7526 112.105C60.9183 111.818 61.8612 111.112 62.3393 110.17C62.5508 109.75 62.6678 109.289 62.682 108.819C62.6962 108.349 62.6072 107.881 62.4214 107.449L50.4597 78.3795L34.9639 71.2356Z" fill="#232323"/>
<path d="M34.9707 71.1562L50.5183 78.3242L41.7845 80.4766C40.2896 80.845 38.6455 80.0875 38.1086 78.7819L34.9707 71.1562Z" fill="white"/>
<path d="M40.1654 80.5378C39.2161 80.2978 38.3917 79.6685 38.0384 78.8098L34.9005 71.1843C34.8946 71.17 34.8931 71.1543 34.8963 71.1391C34.8995 71.124 34.9072 71.1102 34.9183 71.0995C34.9295 71.0888 34.9436 71.0817 34.9588 71.0792C34.9741 71.0766 34.9898 71.0787 35.0038 71.0852L50.5512 78.2527C50.5657 78.2594 50.5777 78.2704 50.5856 78.2842C50.5936 78.298 50.597 78.3139 50.5955 78.3298C50.594 78.3456 50.5876 78.3606 50.5772 78.3726C50.5668 78.3847 50.5529 78.3932 50.5375 78.3971L41.8036 80.5495C41.2648 80.6795 40.7023 80.6755 40.1654 80.5378ZM35.1172 71.3065L38.1806 78.7513C38.7024 80.0194 40.3113 80.7593 41.767 80.4005L50.2878 78.3003L35.1172 71.3065ZM22.3572 85.47C22.3406 85.4658 22.3258 85.4562 22.3152 85.4427C22.3047 85.4291 22.299 85.4124 22.299 85.3953C22.2991 85.3781 22.3048 85.3615 22.3155 85.348C22.3261 85.3345 22.3409 85.3249 22.3576 85.3208L38.2187 81.4115C38.2286 81.4089 38.2389 81.4083 38.249 81.4097C38.2591 81.4111 38.2688 81.4145 38.2776 81.4197C38.2864 81.4249 38.2941 81.4318 38.3002 81.44C38.3062 81.4482 38.3106 81.4575 38.3131 81.4674C38.3155 81.4773 38.316 81.4876 38.3144 81.4977C38.3128 81.5078 38.3093 81.5175 38.3039 81.5262C38.2985 81.5348 38.2915 81.5424 38.2832 81.5483C38.2749 81.5543 38.2655 81.5585 38.2556 81.5608L22.3943 85.4703C22.3821 85.4733 22.3694 85.4732 22.3572 85.47ZM19.7319 93.4098C19.7152 93.4056 19.7005 93.396 19.69 93.3825C19.6794 93.3689 19.6737 93.3523 19.6738 93.3351C19.6738 93.318 19.6796 93.3014 19.6901 93.2879C19.7007 93.2744 19.7155 93.2648 19.7321 93.2607L46.2929 86.7143C46.3027 86.7117 46.313 86.7111 46.3231 86.7125C46.3333 86.7139 46.343 86.7173 46.3518 86.7225C46.3605 86.7277 46.3682 86.7346 46.3743 86.7428C46.3804 86.751 46.3848 86.7603 46.3872 86.7702C46.3897 86.7802 46.3901 86.7904 46.3885 86.8005C46.387 86.8106 46.3834 86.8203 46.378 86.829C46.3727 86.8377 46.3657 86.8452 46.3574 86.8511C46.3491 86.8571 46.3397 86.8613 46.3297 86.8636L19.7687 93.4099C19.7566 93.4129 19.744 93.4128 19.7319 93.4098ZM23.0145 101.388C22.9979 101.383 22.9831 101.374 22.9725 101.36C22.962 101.347 22.9563 101.33 22.9563 101.313C22.9563 101.296 22.9621 101.279 22.9727 101.265C22.9833 101.252 22.9981 101.242 23.0148 101.238L49.5755 94.6919C49.5953 94.6871 49.6162 94.6902 49.6337 94.7008C49.6512 94.7113 49.6637 94.7284 49.6686 94.7482C49.6735 94.768 49.6703 94.7889 49.6598 94.8064C49.6492 94.8238 49.6322 94.8364 49.6124 94.8413L23.0517 101.388C23.0395 101.391 23.0268 101.391 23.0145 101.388ZM26.2961 109.363C26.2795 109.358 26.2647 109.349 26.2542 109.335C26.2436 109.322 26.2379 109.305 26.2379 109.288C26.238 109.271 26.2438 109.254 26.2544 109.241C26.265 109.227 26.2798 109.218 26.2965 109.213L44.6587 104.688C44.6686 104.685 44.6789 104.685 44.689 104.686C44.6991 104.687 44.7088 104.691 44.7176 104.696C44.7264 104.701 44.734 104.708 44.7401 104.716C44.7462 104.724 44.7506 104.734 44.7531 104.744C44.7555 104.754 44.756 104.764 44.7544 104.774C44.7528 104.784 44.7492 104.794 44.7439 104.802C44.7385 104.811 44.7315 104.819 44.7232 104.825C44.7149 104.831 44.7055 104.835 44.6955 104.837L26.3333 109.363C26.3211 109.366 26.3083 109.366 26.2961 109.363Z" fill="#232323"/>
</g>
</g>
</g>
<defs>
<linearGradient id="paint0_linear_40000788_5539" x1="65.225" y1="110.762" x2="106.927" y2="32.832" gradientUnits="userSpaceOnUse">
<stop stop-color="#111111"/>
<stop offset="0.743" stop-color="#0E38A3"/>
</linearGradient>
<linearGradient id="paint1_linear_40000788_5539" x1="65.2881" y1="70.1692" x2="138.831" y2="111.59" gradientUnits="userSpaceOnUse">
<stop stop-color="#0E38A3"/>
<stop offset="1" stop-color="#111111"/>
</linearGradient>
<linearGradient id="paint2_linear_40000788_5539" x1="25.9517" y1="73.1241" x2="42.4942" y2="118.233" gradientUnits="userSpaceOnUse">
<stop offset="0.078" stop-color="#0E38A3"/>
<stop offset="1" stop-color="#111111"/>
</linearGradient>
<clipPath id="clip0_40000788_5539">
<rect width="155" height="140" fill="white"/>
</clipPath>
</defs>
</svg>
