<svg width="183" height="131" viewBox="0 0 183 131" fill="none" xmlns="http://www.w3.org/2000/svg">
<g clip-path="url(#clip0_40000788_5690)">
<path d="M91.5 130.66C142.034 130.66 183 121.034 183 109.16C183 97.286 142.034 87.6602 91.5 87.6602C40.9659 87.6602 0 97.286 0 109.16C0 121.034 40.9659 130.66 91.5 130.66Z" fill="#E5EAEE"/>
<path d="M30.5503 18.3501C29.9625 18.3488 29.3801 18.4634 28.8366 18.6875C28.2932 18.9115 27.7992 19.2406 27.3831 19.6558C26.9669 20.071 26.6368 20.5642 26.4115 21.1072C26.1863 21.6502 26.0703 22.2323 26.0703 22.8201V102.82C26.0703 103.616 26.3864 104.379 26.949 104.941C27.5116 105.504 28.2747 105.82 29.0703 105.82H153.07C153.866 105.82 154.629 105.504 155.192 104.941C155.754 104.379 156.07 103.616 156.07 102.82V22.8201C156.07 22.2323 155.954 21.6502 155.729 21.1072C155.504 20.5642 155.174 20.071 154.758 19.6558C154.341 19.2406 153.847 18.9115 153.304 18.6875C152.76 18.4634 152.178 18.3488 151.59 18.3501H30.5503Z" fill="#D9EEFF" stroke="#94C1F7"/>
<path d="M30.79 98.7501H152.42V23.6001H30.79V98.7501Z" fill="#94C1F7"/>
<path d="M31.1396 98.39H152.06V24H31.1396V98.39Z" fill="white"/>
<path d="M170.5 105.25H12V108C12.18 108 15.57 109.93 18.15 109.93H164.39C166.96 109.93 170.31 107.99 170.49 107.99V105.3L170.5 105.25Z" fill="#D9EEFF" stroke="#94C1F7"/>
<path d="M12.3001 107.48L12.1201 107.83H169.9L170.08 107.48H12.3001Z" fill="#94C1F7"/>
<path d="M99.3504 106.94H81.3504C81.1206 106.939 80.8933 106.892 80.6814 106.803C80.4696 106.714 80.2774 106.584 80.1159 106.421C79.9543 106.257 79.8265 106.063 79.7398 105.851C79.653 105.638 79.6091 105.41 79.6104 105.18H101.16C101.163 105.41 101.12 105.637 101.035 105.85C100.949 106.063 100.822 106.256 100.661 106.42C100.501 106.584 100.309 106.714 100.098 106.803C99.8866 106.892 99.6597 106.939 99.4304 106.94" fill="#94C1F7"/>
<path d="M90.9998 21.4301C90.9998 21.5945 90.9344 21.7522 90.8182 21.8685C90.7019 21.9847 90.5442 22.0501 90.3798 22.0501C90.2153 22.0501 90.0576 21.9847 89.9414 21.8685C89.8251 21.7522 89.7598 21.5945 89.7598 21.4301C89.7598 21.2656 89.8251 21.1079 89.9414 20.9917C90.0576 20.8754 90.2153 20.8101 90.3798 20.8101C90.5442 20.8101 90.7019 20.8754 90.8182 20.9917C90.9344 21.1079 90.9998 21.2656 90.9998 21.4301Z" fill="#94C1F7"/>
<path d="M76.3298 52.39C77.3349 52.39 78.1498 51.5752 78.1498 50.57C78.1498 49.5648 77.3349 48.75 76.3298 48.75C75.3246 48.75 74.5098 49.5648 74.5098 50.57C74.5098 51.5752 75.3246 52.39 76.3298 52.39Z" fill="#94C1F7"/>
<path d="M104.59 52.39C105.595 52.39 106.41 51.5752 106.41 50.57C106.41 49.5648 105.595 48.75 104.59 48.75C103.584 48.75 102.77 49.5648 102.77 50.57C102.77 51.5752 103.584 52.39 104.59 52.39Z" fill="#94C1F7"/>
<path d="M71.6596 45.8298C71.5996 45.2798 72.6596 39.2898 78.0896 41.6498C78.4296 42.1798 78.3496 42.5298 76.9896 42.0898C76.4896 41.9498 73.1396 40.7198 72.3796 46.3998C72.0696 46.5798 71.7096 46.3798 71.6596 45.8298Z" fill="#94C1F7" stroke="#94C1F7"/>
<path d="M102.55 41.82C102.97 41.46 108.47 38.82 109.65 44.69C109.42 45.27 109.09 45.41 108.65 44.04C108.49 43.55 107.57 40.11 102.49 42.74C102.17 42.59 102.13 42.18 102.55 41.82Z" fill="#94C1F7" stroke="#94C1F7"/>
<path d="M91 74.58C80.65 74.58 72.13 70.06 71.11 64.27C71.0382 64.6559 71.0014 65.0475 71 65.44C71 71.79 80 76.93 91 76.93C102 76.93 111 71.79 111 65.44C110.997 65.048 110.963 64.6569 110.9 64.27C109.88 70.06 101.36 74.58 91 74.58Z" fill="#94C1F7"/>
<path d="M162.28 18.3402L161.04 11.3702L154.06 10.1302L161.04 8.88016L162.28 1.91016L163.52 8.88016L170.5 10.1302L163.52 11.3702L162.28 18.3402Z" fill="#94C1F7"/>
<path d="M175.93 17.9898L175.5 15.5598L173.06 15.1298L175.5 14.6898L175.93 12.2598L176.36 14.6898L178.8 15.1298L176.36 15.5598L175.93 17.9898Z" fill="#94C1F7"/>
<path d="M170.05 23.1902C171.364 23.1902 172.43 22.1246 172.43 20.8102C172.43 19.4957 171.364 18.4302 170.05 18.4302C168.735 18.4302 167.67 19.4957 167.67 20.8102C167.67 22.1246 168.735 23.1902 170.05 23.1902Z" fill="#94C1F7"/>
<path d="M169.86 2.38C170.517 2.38 171.05 1.84722 171.05 1.19C171.05 0.532781 170.517 0 169.86 0C169.203 0 168.67 0.532781 168.67 1.19C168.67 1.84722 169.203 2.38 169.86 2.38Z" fill="#94C1F7"/>
<path d="M10.8499 94.41L9.60988 87.44L2.62988 86.19L9.60988 84.95L10.8499 77.98L12.0899 84.95L19.0699 86.19L12.0899 87.44L10.8499 94.41Z" fill="#94C1F7"/>
<path d="M15.6202 99.26C16.9347 99.26 18.0002 98.1944 18.0002 96.88C18.0002 95.5656 16.9347 94.5 15.6202 94.5C14.3058 94.5 13.2402 95.5656 13.2402 96.88C13.2402 98.1944 14.3058 99.26 15.6202 99.26Z" fill="#94C1F7"/>
<path d="M15.4302 78.4498C16.0875 78.4498 16.6202 77.917 16.6202 77.2598C16.6202 76.6026 16.0875 76.0698 15.4302 76.0698C14.773 76.0698 14.2402 76.6026 14.2402 77.2598C14.2402 77.917 14.773 78.4498 15.4302 78.4498Z" fill="#94C1F7"/>
</g>
<defs>
<clipPath id="clip0_40000788_5690">
<rect width="183" height="130.66" fill="white"/>
</clipPath>
</defs>
</svg>
