<svg width="189" height="148" viewBox="0 0 189 148" fill="none" xmlns="http://www.w3.org/2000/svg">
<g clip-path="url(#clip0_40000789_6901)">
<path d="M91.5 147.977C142.034 147.977 183 138.351 183 126.477C183 114.603 142.034 104.977 91.5 104.977C40.9659 104.977 0 114.603 0 126.477C0 138.351 40.9659 147.977 91.5 147.977Z" fill="#E5EAEE"/>
<path d="M30.5513 35.6587C29.3636 35.6579 28.2242 36.1289 27.3837 36.9681C26.5432 37.8073 26.0704 38.946 26.0693 40.1337V120.115C26.0696 120.507 26.1471 120.895 26.2974 121.257C26.4477 121.619 26.6679 121.948 26.9454 122.225C27.2229 122.502 27.5522 122.722 27.9146 122.872C28.277 123.021 28.6653 123.098 29.0573 123.098H153.083C153.475 123.098 153.864 123.021 154.226 122.872C154.588 122.722 154.918 122.502 155.195 122.225C155.473 121.948 155.693 121.619 155.843 121.257C155.994 120.895 156.071 120.507 156.071 120.115V40.1337C156.07 38.946 155.598 37.8073 154.757 36.9681C153.916 36.1289 152.777 35.6579 151.589 35.6587H30.5513Z" fill="#D9EEFF" stroke="#94C1F7"/>
<path d="M30.7881 116.065H152.42V40.9131H30.7881V116.065Z" fill="#94C1F7"/>
<path d="M31.1445 115.708H152.064V41.269H31.1445V115.708Z" fill="white"/>
<path d="M170.5 122.565H12V125.259C12.183 125.259 15.565 127.195 18.153 127.195H164.385C166.955 127.195 170.312 125.254 170.485 125.254C170.49 125.254 170.492 125.238 170.492 125.238L170.5 122.565Z" fill="#D9EEFF" stroke="#94C1F7"/>
<path d="M12.2971 124.791L12.1191 125.147H169.902L170.08 124.791H12.2971Z" fill="#94C1F7"/>
<path d="M99.3511 124.257H81.318C81.0884 124.255 80.8613 124.208 80.6498 124.119C80.4383 124.029 80.2466 123.899 80.0854 123.735C79.9243 123.571 79.797 123.377 79.7108 123.164C79.6246 122.952 79.5812 122.724 79.5831 122.494V122.476H101.131V122.494C101.133 122.724 101.089 122.952 101.003 123.165C100.917 123.378 100.79 123.572 100.628 123.735C100.467 123.899 100.275 124.029 100.064 124.119C99.852 124.208 99.6248 124.255 99.3951 124.257" fill="#94C1F7"/>
<path d="M91.0106 38.7451C91.0106 38.8683 90.9741 38.9888 90.9056 39.0912C90.8372 39.1937 90.7399 39.2735 90.626 39.3206C90.5122 39.3678 90.387 39.3801 90.2661 39.3561C90.1453 39.3321 90.0342 39.2727 89.9471 39.1856C89.86 39.0985 89.8007 38.9875 89.7766 38.8666C89.7526 38.7458 89.7649 38.6205 89.8121 38.5067C89.8592 38.3928 89.9391 38.2955 90.0415 38.2271C90.144 38.1586 90.2644 38.1221 90.3876 38.1221C90.5528 38.1223 90.7111 38.1881 90.8279 38.3048C90.9447 38.4216 91.0104 38.5799 91.0106 38.7451Z" fill="#94C1F7"/>
<path d="M76.3326 78.697C77.3361 78.697 78.1496 77.8835 78.1496 76.88C78.1496 75.8765 77.3361 75.063 76.3326 75.063C75.3291 75.063 74.5156 75.8765 74.5156 76.88C74.5156 77.8835 75.3291 78.697 76.3326 78.697Z" fill="#94C1F7"/>
<path d="M104.591 78.697C105.595 78.697 106.408 77.8835 106.408 76.88C106.408 75.8765 105.595 75.063 104.591 75.063C103.588 75.063 102.774 75.8765 102.774 76.88C102.774 77.8835 103.588 78.697 104.591 78.697Z" fill="#94C1F7"/>
<path d="M71.657 72.1443C71.6039 71.5942 72.6394 65.5995 78.0855 67.9685C78.4272 68.4946 78.3487 68.8402 76.9866 68.4055C76.4883 68.2628 73.1435 67.0366 72.3776 72.7118C72.0716 72.8927 71.7085 72.6919 71.657 72.1443Z" fill="#94C1F7" stroke="#94C1F7" stroke-width="1.00047"/>
<path d="M102.548 68.1338C102.968 67.775 108.47 65.1867 109.652 71.004C109.417 71.5854 109.089 71.7192 108.664 70.3547C108.495 69.8648 107.582 66.4231 102.496 69.0491C102.172 68.9022 102.129 68.4898 102.548 68.1338Z" fill="#94C1F7" stroke="#94C1F7"/>
<path d="M149.172 38.1632C149.652 37.5261 150.257 37.1562 150.987 37.0535C151.736 36.9263 152.429 37.1027 153.066 37.5827C154.071 38.3396 155.088 38.8757 156.118 39.1908C157.167 39.4815 158.182 39.4592 159.165 39.1239C160.172 38.8071 161.1 38.0851 161.949 36.958C162.577 36.1249 162.922 35.2329 162.986 34.282C163.074 33.3495 162.901 32.4318 162.467 31.5289C162.058 30.6444 161.412 29.8699 160.53 29.2053C159.844 28.6884 159.103 28.3217 158.305 28.1052C157.533 27.9071 156.744 27.8318 155.941 27.8791C155.29 27.9267 154.618 27.824 153.926 27.5709C153.276 27.3118 152.826 26.7616 152.576 25.9205C152.321 25.0364 152.399 24.2696 152.811 23.6201C153.224 22.9706 153.881 22.5824 154.784 22.4555C156.349 22.2136 157.904 22.2906 159.449 22.6867C161.038 23.0767 162.506 23.7795 163.853 24.7948C165.544 26.0687 166.768 27.6053 167.525 29.4048C168.325 31.1982 168.64 33.0488 168.47 34.9567C168.3 36.8646 167.596 38.6393 166.36 40.281C165.436 41.5061 164.431 42.458 163.344 43.1367C162.275 43.7909 161.139 44.2026 159.936 44.3717C158.775 44.5349 157.585 44.4831 156.365 44.2166C155.187 43.9441 154.007 43.4966 152.824 42.8743C152.757 42.8619 152.689 42.8495 152.622 42.837C152.579 42.8431 152.539 42.8706 152.502 42.9196L151.477 44.2795C150.997 44.9166 150.383 45.2987 149.634 45.4259C148.904 45.5286 148.22 45.34 147.583 44.86C146.946 44.38 146.576 43.7748 146.473 43.0444C146.389 42.2895 146.587 41.5935 147.067 40.9565L149.172 38.1632ZM142.442 51.3005C141.732 50.7651 141.319 50.166 141.204 49.503C141.132 48.8341 141.363 48.1443 141.899 47.4337L142.369 46.8089C142.905 46.0983 143.495 45.6977 144.139 45.6071C144.827 45.5105 145.526 45.7298 146.236 46.2652L146.714 46.6252C147.425 47.1606 147.816 47.7627 147.888 48.4317C148.003 49.0946 147.793 49.7814 147.258 50.4919L146.787 51.1168C146.252 51.8273 145.64 52.231 144.953 52.3276C144.308 52.4182 143.631 52.1959 142.92 51.6605L142.442 51.3005Z" fill="#94C1F7"/>
<path d="M128.127 35.1347C128.002 34.3472 128.156 33.6552 128.59 33.0587C129.018 32.432 129.626 32.0562 130.414 31.9315C131.656 31.7348 132.748 31.3756 133.69 30.8538C134.627 30.3017 135.316 29.5561 135.757 28.6168C136.229 27.6728 136.354 26.5041 136.133 25.1108C135.97 24.081 135.569 23.2131 134.929 22.5071C134.32 21.7964 133.54 21.2834 132.59 20.9682C131.67 20.6482 130.664 20.5745 129.574 20.7472C128.726 20.8815 127.947 21.1601 127.238 21.5829C126.559 22.001 125.957 22.5154 125.433 23.1263C125.016 23.6271 124.475 24.0386 123.812 24.361C123.175 24.6483 122.467 24.5896 121.689 24.1851C120.875 23.755 120.379 23.1661 120.198 22.4185C120.018 21.6709 120.195 20.9286 120.73 20.1918C121.643 18.8984 122.779 17.8337 124.137 16.9977C125.52 16.1265 127.045 15.559 128.71 15.2952C130.8 14.9641 132.755 15.1513 134.575 15.8567C136.419 16.5271 137.969 17.5857 139.223 19.0327C140.476 20.4797 141.264 22.2179 141.585 24.2473C141.825 25.7618 141.812 27.1456 141.544 28.3988C141.272 29.6218 140.779 30.7245 140.066 31.7069C139.377 32.6542 138.514 33.4741 137.475 34.1665C136.461 34.8238 135.32 35.3617 134.051 35.78C133.995 35.8198 133.939 35.8597 133.883 35.8996C133.858 35.9347 133.85 35.9825 133.86 36.0431L134.126 37.7242C134.251 38.5117 134.099 39.2188 133.67 39.8456C133.237 40.442 132.626 40.8026 131.839 40.9274C131.051 41.0521 130.359 40.8978 129.763 40.4644C129.162 40.0008 128.799 39.3752 128.674 38.5877L128.127 35.1347ZM132.9 49.096C132.021 49.2351 131.304 49.1159 130.747 48.7383C130.216 48.3256 129.881 47.6801 129.742 46.8017L129.62 46.0293C129.48 45.151 129.602 44.4486 129.984 43.9223C130.392 43.3609 131.035 43.0107 131.914 42.8716L132.504 42.778C133.383 42.6389 134.088 42.7757 134.619 43.1883C135.175 43.5659 135.523 44.1939 135.662 45.0723L135.785 45.8446C135.924 46.723 135.789 47.4429 135.381 48.0043C134.999 48.5306 134.369 48.8633 133.49 49.0024L132.9 49.096Z" fill="#94C1F7"/>
<path d="M79.5 93.4771L104.5 89.4771" stroke="#94C1F7" stroke-width="2" stroke-linecap="round"/>
</g>
<defs>
<clipPath id="clip0_40000789_6901">
<rect width="188.817" height="147.977" fill="white"/>
</clipPath>
</defs>
</svg>
