<svg width="183" height="113" viewBox="0 0 183 113" fill="none" xmlns="http://www.w3.org/2000/svg">
<g clip-path="url(#clip0_40000788_6633)">
<path d="M91.5 112.818C142.034 112.818 183 103.192 183 91.3179C183 79.4437 142.034 69.8179 91.5 69.8179C40.9659 69.8179 0 79.4437 0 91.3179C0 103.192 40.9659 112.818 91.5 112.818Z" fill="#E5EAEE"/>
<path d="M30.5513 0.500001C29.3636 0.499205 28.2242 0.970191 27.3837 1.80939C26.5432 2.64858 26.0704 3.78728 26.0693 4.97501V84.956C26.0696 85.3481 26.1471 85.7363 26.2974 86.0984C26.4477 86.4605 26.6679 86.7895 26.9454 87.0665C27.2229 87.3435 27.5522 87.5631 27.9146 87.7128C28.277 87.8625 28.6653 87.9394 29.0573 87.939H153.083C153.475 87.9394 153.864 87.8625 154.226 87.7128C154.588 87.5631 154.918 87.3435 155.195 87.0665C155.473 86.7895 155.693 86.4605 155.843 86.0984C155.994 85.7363 156.071 85.3481 156.071 84.956V4.97501C156.07 3.78728 155.598 2.64858 154.757 1.80939C153.916 0.970191 152.777 0.499205 151.589 0.500001H30.5513Z" fill="#D9EEFF" stroke="#94C1F7"/>
<path d="M30.7881 80.9049H152.42V5.75293H30.7881V80.9049Z" fill="#94C1F7"/>
<path d="M31.1445 80.5493H152.064V6.11035H31.1445V80.5493Z" fill="white"/>
<path d="M170.5 87.4062H12V90.1002C12.183 90.1002 15.565 92.0363 18.153 92.0363H164.385C166.955 92.0363 170.312 90.0953 170.485 90.0953C170.49 90.0953 170.492 90.0792 170.492 90.0792L170.5 87.4062Z" fill="#D9EEFF" stroke="#94C1F7"/>
<path d="M12.2981 89.6309L12.1201 89.9869H169.903L170.081 89.6309H12.2981Z" fill="#94C1F7"/>
<path d="M99.3511 89.0969H81.318C81.0884 89.0951 80.8613 89.048 80.6498 88.9584C80.4383 88.8688 80.2466 88.7385 80.0854 88.5748C79.9243 88.4111 79.797 88.2172 79.7108 88.0043C79.6246 87.7914 79.5812 87.5636 79.5831 87.3339V87.3159H101.131V87.3339C101.133 87.5637 101.089 87.7915 101.003 88.0045C100.917 88.2175 100.79 88.4114 100.628 88.5751C100.467 88.7389 100.275 88.8692 100.064 88.9587C99.852 89.0483 99.6248 89.0952 99.3951 89.0969" fill="#94C1F7"/>
<path d="M91.0116 3.58591C91.0116 3.70912 90.9751 3.82959 90.9066 3.93204C90.8382 4.03449 90.7409 4.11432 90.627 4.16147C90.5132 4.20862 90.3879 4.22097 90.2671 4.19693C90.1462 4.17289 90.0352 4.11356 89.9481 4.02643C89.8609 3.9393 89.8016 3.82831 89.7776 3.70746C89.7536 3.58661 89.7659 3.46134 89.8131 3.3475C89.8602 3.23367 89.94 3.13636 90.0425 3.0679C90.1449 2.99945 90.2654 2.96289 90.3886 2.96289C90.5538 2.96316 90.7121 3.02888 90.8289 3.14566C90.9456 3.26244 91.0113 3.42076 91.0116 3.58591Z" fill="#94C1F7"/>
<path d="M76.3336 37.5388C77.3371 37.5388 78.1506 36.7253 78.1506 35.7218C78.1506 34.7183 77.3371 33.9048 76.3336 33.9048C75.3301 33.9048 74.5166 34.7183 74.5166 35.7218C74.5166 36.7253 75.3301 37.5388 76.3336 37.5388Z" fill="#94C1F7"/>
<path d="M104.591 37.5388C105.595 37.5388 106.408 36.7253 106.408 35.7218C106.408 34.7183 105.595 33.9048 104.591 33.9048C103.588 33.9048 102.774 34.7183 102.774 35.7218C102.774 36.7253 103.588 37.5388 104.591 37.5388Z" fill="#94C1F7"/>
<path d="M71.657 30.9861C71.6039 30.436 72.6394 24.4413 78.0855 26.8103C78.4272 27.3364 78.3487 27.682 76.9866 27.2473C76.4883 27.1046 73.1435 25.8784 72.3776 31.5536C72.0716 31.7345 71.7085 31.5337 71.657 30.9861Z" fill="#94C1F7" stroke="#94C1F7" stroke-width="1.00047"/>
<path d="M102.549 26.9756C102.969 26.6168 108.471 24.0285 109.653 29.8458C109.418 30.4272 109.09 30.561 108.665 29.1965C108.496 28.7066 107.583 25.2649 102.497 27.8909C102.173 27.744 102.13 27.3316 102.549 26.9756Z" fill="#94C1F7" stroke="#94C1F7"/>
<path d="M91.4754 44.5747C97.4754 44.5747 102.342 49.1837 102.342 54.8687C102.342 60.5537 97.4774 51.1617 91.4754 51.1617C85.4734 51.1617 80.6084 60.5537 80.6084 54.8687C80.6084 49.1837 85.4734 44.5747 91.4754 44.5747Z" fill="#94C1F7"/>
</g>
<defs>
<clipPath id="clip0_40000788_6633">
<rect width="183" height="112.818" fill="white"/>
</clipPath>
</defs>
</svg>
