<svg width="120" height="110" viewBox="0 0 120 110" fill="none" xmlns="http://www.w3.org/2000/svg">
<g clip-path="url(#clip0_40000788_6560)">
<mask id="mask0_40000788_6560" style="mask-type:luminance" maskUnits="userSpaceOnUse" x="95" y="55" width="25" height="38">
<path d="M120 55.4355H95.7979V92.3863H120V55.4355Z" fill="white"/>
</mask>
<g mask="url(#mask0_40000788_6560)">
<path d="M101.998 65.4785L103.795 66.9763L97.674 66.3709L95.877 64.873L101.998 65.4785Z" fill="#0E38A3"/>
<path d="M103.795 67.0536H103.788L97.6665 66.4482C97.6509 66.4466 97.6361 66.4403 97.6241 66.4301L95.8262 64.9362C95.8096 64.9269 95.7969 64.9118 95.7906 64.8938C95.7842 64.8758 95.7847 64.8561 95.7918 64.8384C95.7989 64.8206 95.8122 64.8061 95.8293 64.7975C95.8463 64.7889 95.8659 64.7868 95.8844 64.7916L102.009 65.3993C102.024 65.4002 102.039 65.4063 102.051 65.4166L103.848 66.9105C103.861 66.9212 103.871 66.9357 103.875 66.952C103.879 66.9682 103.877 66.9854 103.871 67.0009C103.866 67.0167 103.855 67.0302 103.842 67.0397C103.828 67.0492 103.812 67.054 103.795 67.0536ZM97.7058 66.2933L103.548 66.8712L101.966 65.5534L96.1234 64.9748L97.7058 66.2933Z" fill="#111111"/>
<path d="M109.973 62.2093C109.384 61.7187 108.571 61.3947 107.57 61.2957C104.975 61.0386 102.843 62.5639 102.067 65.1798L101.994 65.4785L103.791 66.9763L103.865 66.6776C104.637 64.0617 106.769 62.5364 109.367 62.7927C110.368 62.8918 111.182 63.2165 111.77 63.7063L109.973 62.2093Z" fill="#0E38A3"/>
<path d="M103.794 67.0546C103.776 67.0547 103.758 67.0483 103.744 67.0365L101.947 65.5427C101.935 65.5333 101.927 65.5209 101.922 65.507C101.918 65.4932 101.917 65.4783 101.921 65.464L101.993 65.1653C102.779 62.5101 104.968 60.9627 107.574 61.2214C108.56 61.3189 109.405 61.6413 110.02 62.1531L111.817 63.647C111.826 63.6533 111.833 63.6614 111.839 63.6707C111.844 63.68 111.848 63.6903 111.849 63.701C111.851 63.7117 111.85 63.7226 111.847 63.733C111.844 63.7433 111.838 63.7529 111.831 63.7612C111.825 63.7695 111.816 63.7763 111.806 63.7811C111.797 63.7859 111.786 63.7887 111.775 63.7893C111.765 63.7899 111.754 63.7882 111.744 63.7844C111.734 63.7806 111.724 63.7748 111.717 63.7673C111.127 63.2759 110.31 62.9661 109.358 62.8718C108.106 62.7475 106.937 63.0424 105.978 63.7225C105.019 64.4026 104.317 65.4302 103.942 66.7L103.871 66.9941C103.868 67.0072 103.862 67.0192 103.852 67.0292C103.843 67.0391 103.832 67.0465 103.819 67.0507C103.811 67.0532 103.802 67.0545 103.794 67.0546ZM102.086 65.4491L103.748 66.8368L103.791 66.6607C104.577 64.0055 106.766 62.459 109.372 62.7169C109.903 62.7644 110.423 62.8938 110.914 63.1006L109.923 62.2687C109.332 61.7773 108.516 61.4675 107.564 61.3732C106.312 61.2497 105.143 61.5438 104.184 62.2239C103.225 62.904 102.52 63.9324 102.145 65.2014L102.086 65.4491Z" fill="#111111"/>
<path d="M105.667 79.4835L107.464 80.9813L101.468 80.3877L99.6709 78.8906L105.667 79.4835Z" fill="#0E38A3"/>
<path d="M107.463 81.0587H107.455L101.457 80.4651C101.441 80.4636 101.426 80.4573 101.414 80.447L99.6198 78.9492C99.607 78.9384 99.598 78.9238 99.594 78.9076C99.5901 78.8913 99.5914 78.8742 99.5978 78.8587C99.6042 78.8435 99.6153 78.8307 99.6294 78.822C99.6435 78.8134 99.66 78.8095 99.6764 78.8108L105.671 79.4036C105.687 79.4051 105.702 79.4114 105.714 79.4217L107.51 80.9195C107.523 80.9298 107.533 80.9438 107.537 80.9594C107.541 80.975 107.541 80.9916 107.535 81.0068C107.53 81.022 107.519 81.0352 107.505 81.0445C107.492 81.0538 107.476 81.0587 107.46 81.0587H107.463ZM101.499 80.311L107.217 80.8763L105.634 79.5577L99.917 78.9924L101.499 80.311Z" fill="#111111"/>
<path d="M109.375 55.5922C115.833 56.2315 119.174 60.4552 117.83 65.9771C116.958 69.564 114.7 71.9101 111.033 73.5802C107.582 75.1236 106.461 76.2149 105.902 78.5084L105.667 79.4802L99.6708 78.8874L99.8838 77.8652C100.521 74.0126 102.289 71.9817 105.876 70.3534C109.236 68.8005 110.396 67.7399 110.937 65.5171C111.478 63.2944 110.145 61.5489 107.571 61.2941C104.976 61.037 102.844 62.5624 102.068 65.1782L101.995 65.477L95.877 64.87L95.9493 64.5713C97.5097 58.6319 102.441 54.909 109.375 55.5922Z" fill="white"/>
<path d="M105.667 79.561H105.659L99.6625 78.9674C99.6515 78.9664 99.6409 78.9631 99.6312 78.9576C99.6216 78.9522 99.6133 78.9448 99.6067 78.936C99.6002 78.927 99.5956 78.9168 99.5933 78.906C99.591 78.8951 99.591 78.8839 99.5933 78.8731L99.8064 77.8509C100.428 74.0966 102.12 71.9737 105.844 70.284C109.211 68.7225 110.336 67.6524 110.861 65.4989C111.107 64.4838 110.964 63.5608 110.446 62.8303C109.87 62.0166 108.848 61.4992 107.564 61.3718C106.311 61.2484 105.142 61.5425 104.183 62.2226C103.224 62.9027 102.521 63.9311 102.146 65.2001L102.074 65.4989C102.07 65.5173 102.059 65.5335 102.043 65.5445C102.028 65.5555 102.009 65.5605 101.99 65.5586L95.8687 64.9485C95.8575 64.9475 95.8466 64.9441 95.8369 64.9385C95.8271 64.933 95.8186 64.9254 95.8121 64.9163C95.8056 64.907 95.8012 64.8965 95.7991 64.8853C95.7971 64.8742 95.7975 64.8628 95.8003 64.8518L95.8765 64.5554C97.5109 58.3165 102.687 54.8538 109.383 55.5135C112.726 55.8437 115.382 57.1764 116.863 59.2647C118.169 61.1069 118.53 63.4318 117.907 65.995C117.059 69.4781 114.886 71.9108 111.067 73.6508C107.672 75.169 106.531 76.2627 105.98 78.5255L105.744 79.4974C105.741 79.5154 105.731 79.5316 105.717 79.5433C105.703 79.5549 105.685 79.5612 105.667 79.561ZM99.7647 78.8196L105.606 79.3975L105.826 78.4925C106.391 76.1707 107.552 75.0535 111.001 73.5108C114.775 71.7929 116.918 69.3932 117.754 65.9628C118.366 63.4468 118.014 61.1666 116.732 59.3583C115.281 57.3077 112.665 55.9994 109.367 55.6707C102.755 55.0189 97.6422 58.4368 96.0251 64.5923L95.974 64.8023L101.937 65.392L101.994 65.1561C102.78 62.5009 104.969 60.9536 107.575 61.2122C108.904 61.3435 109.968 61.8853 110.571 62.7368C111.117 63.505 111.268 64.472 111.01 65.5327C110.472 67.7436 109.328 68.8405 105.906 70.4224C102.245 72.0908 100.573 74.1799 99.9644 77.8785L99.7647 78.8196Z" fill="#111111"/>
<path d="M117.28 59.3962L115.483 57.9023C117.744 59.7894 118.642 62.649 117.83 65.9842C116.958 69.5711 114.7 71.9173 111.033 73.5873C107.582 75.1307 106.46 76.2221 105.902 78.5156L105.667 79.4874L107.464 80.9813L107.699 80.0094C108.258 77.7152 109.379 76.6246 112.83 75.0812C116.496 73.4104 118.754 71.065 119.627 67.4781C120.439 64.1421 119.539 61.2801 117.28 59.3962Z" fill="#94C1F7"/>
<path d="M107.464 81.0594C107.445 81.0594 107.427 81.053 107.413 81.0413L105.616 79.5435C105.605 79.5341 105.596 79.5219 105.592 79.508C105.587 79.4941 105.586 79.4791 105.589 79.4648L105.825 78.4938C106.391 76.172 107.551 75.0547 111 73.5121C114.774 71.7941 116.918 69.3945 117.753 65.9641C118.545 62.7105 117.72 59.8682 115.432 57.9616C115.424 57.955 115.417 57.9469 115.412 57.9377C115.408 57.9286 115.405 57.9186 115.404 57.9083C115.403 57.898 115.404 57.8876 115.407 57.8777C115.41 57.8678 115.415 57.8587 115.422 57.8507C115.428 57.8427 115.436 57.8362 115.445 57.8313C115.455 57.8265 115.465 57.8235 115.475 57.8226C115.485 57.8216 115.496 57.8227 115.505 57.8258C115.515 57.8289 115.524 57.8339 115.532 57.8405L117.33 59.3352C119.667 61.2827 120.511 64.1808 119.704 67.4957C118.857 70.9796 116.682 73.4122 112.865 75.1522C109.471 76.6705 108.329 77.7642 107.779 80.027L107.543 80.998C107.54 81.0111 107.533 81.0232 107.524 81.0331C107.515 81.043 107.504 81.0504 107.491 81.0546C107.482 81.0577 107.473 81.0593 107.464 81.0594ZM105.755 79.4538L107.417 80.8392L107.624 79.9908C108.188 77.669 109.349 76.551 112.798 75.0091C116.572 73.2904 118.716 70.8915 119.551 67.4611C120.343 64.2076 119.518 61.3653 117.23 59.4586L116.631 58.9593C118.114 60.8251 118.567 63.2711 117.903 65.9987C117.056 69.4818 114.882 71.9144 111.064 73.6544C107.669 75.1727 106.528 76.2663 105.977 78.5292L105.755 79.4538Z" fill="#111111"/>
<path d="M104.576 84.4639L103.033 90.8098L97.0381 90.2169L98.582 83.8711L104.576 84.4639Z" fill="white"/>
<path d="M103.03 90.8885H103.022L97.0276 90.2957C97.0075 90.2929 96.9892 90.2825 96.9765 90.2666C96.97 90.2575 96.9655 90.2471 96.9634 90.2361C96.9612 90.2251 96.9614 90.2138 96.964 90.2029L98.5079 83.8562C98.5125 83.838 98.5236 83.8219 98.539 83.8111C98.5545 83.8003 98.5733 83.7954 98.592 83.7973L104.586 84.3901C104.597 84.3911 104.608 84.3945 104.618 84.4001C104.628 84.4056 104.636 84.4132 104.643 84.4223C104.649 84.4315 104.654 84.4421 104.656 84.4532C104.658 84.4643 104.658 84.4758 104.655 84.4868L103.108 90.8287C103.104 90.8462 103.094 90.8616 103.08 90.8725C103.065 90.8834 103.048 90.889 103.03 90.8885ZM97.1338 90.1478L102.97 90.725L104.476 84.534L98.64 83.9561L97.1338 90.1478Z" fill="#111111"/>
<path d="M104.575 84.4648L106.373 85.9627L104.829 92.3085L103.032 90.8107L104.575 84.4648Z" fill="#94C1F7"/>
<path d="M104.829 92.3894C104.811 92.3894 104.793 92.383 104.779 92.3713L102.982 90.8703C102.97 90.861 102.962 90.8487 102.957 90.8349C102.952 90.821 102.952 90.806 102.955 90.7917L104.499 84.4482C104.502 84.4351 104.508 84.4231 104.517 84.4132C104.527 84.4032 104.538 84.3958 104.551 84.3916C104.564 84.3867 104.578 84.3855 104.592 84.388C104.606 84.3905 104.619 84.3966 104.629 84.4058L106.427 85.9036C106.438 85.913 106.447 85.9253 106.451 85.9392C106.456 85.9531 106.457 85.968 106.453 85.9822L104.905 92.3265C104.902 92.3394 104.896 92.3513 104.887 92.3611C104.877 92.3709 104.866 92.3782 104.853 92.3823C104.846 92.3859 104.837 92.3883 104.829 92.3894ZM103.119 90.7815L104.783 92.1669L106.285 85.9909L104.622 84.6055L103.119 90.7815Z" fill="#111111"/>
<path d="M103.033 90.8096L104.83 92.3074L98.836 91.7146L97.0381 90.2168L103.033 90.8096Z" fill="#0E38A3"/>
<path d="M104.829 92.3892H104.821L98.8274 91.7955C98.8118 91.7941 98.7971 91.7881 98.7849 91.7783L96.9871 90.2773C96.9743 90.2665 96.9652 90.252 96.9612 90.2357C96.9573 90.2194 96.9586 90.2023 96.9651 90.1869C96.9715 90.1716 96.9825 90.1588 96.9966 90.1502C97.0107 90.1416 97.0272 90.1376 97.0437 90.1389L103.038 90.7317C103.053 90.7334 103.068 90.7397 103.08 90.7498L104.878 92.2437C104.89 92.254 104.899 92.268 104.904 92.2836C104.908 92.2992 104.907 92.3158 104.902 92.331C104.896 92.3462 104.886 92.3594 104.873 92.3687C104.86 92.3779 104.844 92.3829 104.828 92.3829L104.829 92.3892ZM98.8635 91.6383L104.579 92.2044L103 90.8859L97.285 90.3205L98.8635 91.6383Z" fill="#111111"/>
</g>
<mask id="mask1_40000788_6560" style="mask-type:luminance" maskUnits="userSpaceOnUse" x="0" y="66" width="45" height="44">
<path d="M44.5599 66.3828H0V109.629H44.5599V66.3828Z" fill="white"/>
</mask>
<g mask="url(#mask1_40000788_6560)">
<path d="M11.6889 71.3274C11.671 71.2293 11.673 71.1287 11.6946 71.0314C11.7163 70.9342 11.7572 70.8422 11.815 70.761L14.3063 67.377C14.2484 67.4584 14.2075 67.5505 14.1858 67.648C14.1642 67.7455 14.1623 67.8463 14.1802 67.9445L14.8354 71.9043L12.3453 75.2907L11.6889 71.3274Z" fill="#94C1F7"/>
<path d="M12.3454 75.4086C12.3171 75.409 12.2897 75.3992 12.2681 75.381C12.2464 75.3629 12.232 75.3376 12.2275 75.3097L11.5735 71.3499C11.5529 71.2363 11.5552 71.1198 11.5803 71.0072C11.6054 70.8946 11.6528 70.7881 11.7196 70.694L14.2109 67.3076C14.2201 67.2952 14.2316 67.2846 14.2449 67.2766C14.2582 67.2687 14.2729 67.2634 14.2882 67.2611C14.3036 67.2588 14.3192 67.2595 14.3342 67.2633C14.3493 67.267 14.3634 67.2737 14.3759 67.2829C14.3883 67.2921 14.3989 67.3036 14.4069 67.3169C14.4149 67.3302 14.4201 67.3449 14.4224 67.3602C14.4247 67.3755 14.424 67.3911 14.4203 67.4061C14.4165 67.4212 14.4098 67.4353 14.4006 67.4477C14.3524 67.5165 14.3184 67.5943 14.3006 67.6763C14.2828 67.7584 14.2815 67.8432 14.2969 67.9258L14.9521 71.8856C14.9546 71.901 14.954 71.9167 14.9504 71.9319C14.9467 71.9471 14.9401 71.9614 14.9309 71.9739L12.4396 75.3603C12.4288 75.3752 12.4146 75.3873 12.3982 75.3957C12.3819 75.404 12.3638 75.4085 12.3454 75.4086ZM11.8056 71.3122L12.4161 74.9965L14.7117 71.875L14.0647 67.9635C14.0612 67.9472 14.0589 67.9306 14.0577 67.914L11.9105 70.8341C11.8619 70.9027 11.8275 70.9804 11.8095 71.0625C11.7915 71.1447 11.7902 71.2296 11.8056 71.3122Z" fill="#111111"/>
<path d="M38.1397 95.7324L42.3362 96.725C42.5209 96.7717 42.7154 96.7606 42.8936 96.6932C43.0187 96.646 43.1278 96.5644 43.2083 96.4577L40.7182 99.8441C40.6374 99.951 40.5278 100.033 40.4023 100.08C40.2241 100.147 40.0298 100.158 39.8449 100.113L35.6484 99.1165L38.1397 95.7324Z" fill="#94C1F7"/>
<path d="M40.0791 100.258C39.9915 100.257 39.9041 100.247 39.8187 100.227L35.621 99.2344C35.6021 99.23 35.5846 99.2211 35.57 99.2084C35.5554 99.1956 35.5442 99.1795 35.5374 99.1614C35.5307 99.143 35.5287 99.1233 35.5316 99.104C35.5345 99.0846 35.5421 99.0663 35.5539 99.0507L38.0439 95.6643C38.0573 95.6465 38.0755 95.6328 38.0964 95.6249C38.1172 95.6169 38.1399 95.6151 38.1618 95.6196L42.3583 96.6122C42.5195 96.6529 42.6893 96.6435 42.845 96.5851C42.95 96.5444 43.0415 96.475 43.109 96.3849C43.1182 96.3725 43.1297 96.3619 43.143 96.3539C43.1563 96.346 43.171 96.3407 43.1863 96.3384C43.2016 96.3361 43.2173 96.3368 43.2323 96.3406C43.2473 96.3443 43.2615 96.351 43.2739 96.3602C43.2988 96.3787 43.3153 96.4063 43.32 96.4369C43.3246 96.4676 43.3169 96.4988 43.2987 96.5239L40.8074 99.9103C40.7135 100.035 40.5866 100.132 40.4409 100.189C40.3256 100.234 40.2029 100.257 40.0791 100.258ZM35.8485 99.046L39.8717 99.9974C40.0329 100.038 40.2028 100.029 40.3584 99.9703C40.4635 99.9296 40.5549 99.8603 40.6224 99.7701L42.7696 96.8512C42.617 96.8805 42.4599 96.8769 42.3088 96.8406L38.1842 95.8645L35.8485 99.046Z" fill="#111111"/>
<path d="M17.1299 81.6126L14.6387 84.999C15.2694 84.1505 16.1273 83.4974 17.1134 83.115C17.8817 82.8167 18.6969 82.6572 19.521 82.644C22.9633 82.5687 26.514 84.8954 27.8975 88.1369C28.9051 90.4919 28.627 92.775 27.4261 94.4011L29.9174 91.0135C31.1135 89.3874 31.3917 87.1031 30.3888 84.7494C29.0041 81.5078 25.4546 79.1823 22.0123 79.2576C21.1881 79.27 20.3727 79.4295 19.6047 79.7286C18.6186 80.111 17.7607 80.7641 17.1299 81.6126Z" fill="#94C1F7"/>
<path d="M27.4326 94.5176C27.4075 94.5174 27.3831 94.5091 27.363 94.4941C27.3506 94.4849 27.34 94.4733 27.332 94.4601C27.3241 94.4468 27.3188 94.4321 27.3165 94.4168C27.3142 94.4015 27.3149 94.3859 27.3186 94.3708C27.3224 94.3558 27.3291 94.3417 27.3383 94.3292C28.5757 92.6443 28.7395 90.4047 27.7896 88.184C26.438 85.019 23.0499 82.7677 19.6877 82.7677H19.5239C18.7148 82.7769 17.9139 82.9305 17.1588 83.221C16.192 83.5975 15.3508 84.2381 14.7311 85.0696C14.7127 85.0949 14.685 85.1119 14.654 85.1167C14.6231 85.1216 14.5915 85.114 14.5662 85.0955C14.5408 85.0771 14.5239 85.0494 14.519 85.0185C14.5142 84.9876 14.5218 84.956 14.5402 84.9307L17.0315 81.5443C17.6773 80.677 18.5546 80.0089 19.5628 79.6168C20.3441 79.3129 21.1734 79.151 22.0117 79.1387C25.5176 79.0586 29.0895 81.4018 30.4966 84.7023C31.4818 87.003 31.3062 89.3285 30.0169 91.083L27.5257 94.4694C27.5149 94.484 27.5009 94.496 27.4848 94.5044C27.4686 94.5128 27.4508 94.5173 27.4326 94.5176ZM19.6901 82.5239C23.143 82.5239 26.6206 84.8412 28.0077 88.0887C28.7418 89.8031 28.8326 91.5316 28.2964 93.027L29.8284 90.9428C31.0669 89.2579 31.2331 87.0172 30.2809 84.7953C28.908 81.5784 25.4339 79.3 22.0164 79.3789C21.206 79.3905 20.4042 79.5469 19.6488 79.8405C18.6831 80.2171 17.8428 80.8572 17.2236 81.6879L15.6798 83.7885C16.1064 83.4668 16.5745 83.2042 17.0716 83.0079C17.8526 82.7047 18.6814 82.5428 19.5192 82.5298L19.6901 82.5239Z" fill="#111111"/>
<path d="M32.2149 100.717L29.7236 104.105C31.846 103.264 33.6909 101.846 35.0503 100.013L37.5415 96.627C36.1823 98.4599 34.3373 99.8767 32.2149 100.717Z" fill="#94C1F7"/>
<path d="M29.7243 104.224C29.7024 104.224 29.681 104.218 29.6623 104.206C29.6437 104.195 29.6287 104.178 29.6189 104.159C29.6091 104.139 29.605 104.117 29.6069 104.095C29.6089 104.074 29.6169 104.053 29.63 104.035L32.1201 100.648C32.1331 100.63 32.1506 100.617 32.1708 100.609C34.2701 99.7732 36.0958 98.3713 37.4444 96.5596C37.4536 96.5471 37.4651 96.5366 37.4784 96.5286C37.4917 96.5206 37.5064 96.5153 37.5217 96.513C37.5371 96.5107 37.5527 96.5115 37.5677 96.5152C37.5828 96.519 37.5969 96.5256 37.6094 96.5348C37.6218 96.544 37.6324 96.5556 37.6404 96.5689C37.6484 96.5821 37.6537 96.5968 37.656 96.6121C37.6583 96.6275 37.6575 96.6431 37.6538 96.6581C37.65 96.6731 37.6433 96.6873 37.6341 96.6997L35.144 100.086C33.7694 101.934 31.9077 103.364 29.7667 104.217C29.7531 104.222 29.7387 104.224 29.7243 104.224ZM32.2898 100.815L30.0743 103.827C32.0123 102.978 33.6951 101.639 34.9567 99.9413L36.0503 98.4529C34.9461 99.4558 33.6729 100.255 32.2898 100.815Z" fill="#111111"/>
<path d="M1.23777 79.8059C1.26096 79.7179 1.30098 79.6351 1.35562 79.5622L3.84335 76.1699C3.78884 76.2425 3.74883 76.3248 3.7255 76.4125L2.62718 80.8233L0.140625 84.2097L1.23777 79.8059Z" fill="#94C1F7"/>
<path d="M0.140415 84.3283C0.122972 84.3283 0.105717 84.3247 0.0897413 84.3177C0.0650745 84.306 0.0452429 84.2861 0.0336358 84.2614C0.0220286 84.2367 0.0193665 84.2088 0.0261045 84.1823L1.12325 79.7715C1.14942 79.6692 1.19503 79.5729 1.25759 79.4878L3.74768 76.1014C3.75679 76.0888 3.76829 76.0782 3.78152 76.0701C3.79475 76.062 3.80946 76.0566 3.82479 76.0542C3.84012 76.0518 3.85577 76.0524 3.87085 76.0561C3.88593 76.0597 3.90014 76.0663 3.91266 76.0755C3.92513 76.0846 3.93567 76.0962 3.94366 76.1095C3.95166 76.1227 3.95696 76.1374 3.95926 76.1527C3.96156 76.1681 3.96081 76.1837 3.95706 76.1987C3.95331 76.2137 3.94664 76.2279 3.93741 76.2403C3.89334 76.3012 3.86134 76.3699 3.84313 76.4428L2.74481 80.8524C2.74172 80.8674 2.73528 80.8815 2.72596 80.8937L0.23587 84.2812C0.224774 84.296 0.210352 84.308 0.193769 84.3162C0.177186 84.3244 0.158909 84.3285 0.140415 84.3283ZM1.35187 79.8292L0.398498 83.6607L2.51972 80.7736L3.50138 76.8302L1.44733 79.6279C1.40229 79.6879 1.36982 79.7564 1.35187 79.8292Z" fill="#111111"/>
<path d="M3.21392 81.9297L0.722656 85.3161L4.64574 87.3943L7.13701 84.0079L3.21392 81.9297Z" fill="#94C1F7"/>
<path d="M4.64591 87.5121C4.62657 87.512 4.60754 87.5071 4.59052 87.4979L0.667428 85.4197C0.652402 85.4118 0.639254 85.4008 0.628881 85.3874C0.618508 85.374 0.611156 85.3585 0.607327 85.342C0.603659 85.3256 0.603549 85.3086 0.607005 85.2921C0.61046 85.2757 0.617401 85.2602 0.62736 85.2466L3.11863 81.8602C3.13537 81.8376 3.15968 81.8217 3.18713 81.8155C3.21458 81.8092 3.24338 81.813 3.26829 81.8261L7.18902 83.9031C7.20383 83.9111 7.21675 83.9222 7.22691 83.9356C7.23708 83.949 7.24425 83.9644 7.24795 83.9808C7.25179 83.9974 7.25199 84.0146 7.24853 84.0313C7.24507 84.048 7.23804 84.0637 7.22791 84.0774L4.74136 87.4603C4.73078 87.4759 4.71658 87.4888 4.69997 87.4978C4.68335 87.5068 4.66481 87.5117 4.64591 87.5121ZM0.898406 85.2749L4.61055 87.2413L6.96747 84.0468L3.25415 82.0804L0.898406 85.2749Z" fill="#111111"/>
<path d="M2.63047 80.8238L0.140383 84.2102C0.0402135 84.6153 0.286512 85.0875 0.722542 85.3159L3.21263 81.926C2.77777 81.6975 2.53148 81.2195 2.63047 80.8203" fill="#94C1F7"/>
<path d="M0.722302 85.4327C0.703116 85.4324 0.684215 85.428 0.666914 85.4197C0.181389 85.1654 -0.0884785 84.6449 0.0246536 84.181C0.0291556 84.1663 0.0359141 84.1524 0.0446874 84.1398L2.53595 80.7534C2.55228 80.732 2.57545 80.7168 2.60161 80.7104C2.62776 80.704 2.65533 80.7067 2.67972 80.7182C2.7041 80.7296 2.72384 80.749 2.73563 80.7732C2.74743 80.7974 2.75057 80.8249 2.74454 80.8511C2.65851 81.2044 2.88242 81.6224 3.26777 81.8237C3.28283 81.8316 3.296 81.8427 3.30638 81.8561C3.31677 81.8696 3.32411 81.8851 3.32792 81.9017C3.33173 81.9182 3.3319 81.9354 3.32844 81.952C3.32497 81.9687 3.31795 81.9843 3.30784 81.998L0.816578 85.3844C0.805725 85.3992 0.791546 85.4113 0.775175 85.4197C0.758804 85.4281 0.740697 85.4325 0.722302 85.4327ZM0.250918 84.2552C0.183746 84.5755 0.368764 84.9452 0.691662 85.1548L3.04033 81.9639C2.90467 81.8766 2.78772 81.7633 2.69627 81.6305C2.60483 81.4977 2.54072 81.348 2.50767 81.1903L0.250918 84.2552Z" fill="#111111"/>
<path d="M7.13677 84.0078L4.64551 87.3942C4.70152 88.8179 4.95454 90.227 5.39737 91.5813C5.85866 93.0006 6.49439 94.3572 7.28997 95.62L9.78123 92.2336C8.98521 90.9689 8.34948 89.6103 7.88863 88.189C7.44634 86.8366 7.19332 85.4295 7.13677 84.0078Z" fill="#94C1F7"/>
<path d="M7.28993 95.7367C7.2707 95.736 7.25196 95.7306 7.23532 95.7209C7.21868 95.7113 7.20465 95.6977 7.19447 95.6814C6.39379 94.4084 5.75411 93.0411 5.29008 91.6109C4.84516 90.248 4.59018 88.8303 4.53233 87.3979C4.53121 87.3714 4.5391 87.3452 4.55472 87.3237L7.04599 83.9373C7.06037 83.9175 7.08059 83.9026 7.10383 83.8948C7.12706 83.887 7.15216 83.8866 7.17562 83.8937C7.19912 83.9008 7.21982 83.9151 7.23482 83.9345C7.24982 83.9539 7.25837 83.9776 7.25929 84.0021C7.31618 85.4132 7.56719 86.8099 8.00525 88.1527C8.46554 89.5644 9.09887 90.9138 9.89079 92.1702C9.90396 92.1896 9.911 92.2126 9.911 92.2361C9.911 92.2596 9.90396 92.2826 9.89079 92.3021L7.3842 95.6885C7.37335 95.7033 7.35917 95.7154 7.3428 95.7238C7.32643 95.7322 7.30832 95.7366 7.28993 95.7367ZM4.76449 87.4297C4.82516 88.8269 5.07572 90.2093 5.50928 91.5391C5.9493 92.8953 6.54985 94.1942 7.29818 95.4082L9.6386 92.2291C8.85735 90.9752 8.23208 89.6308 7.77663 88.2257C7.36617 86.9669 7.1171 85.6613 7.03538 84.34L4.76449 87.4297Z" fill="#111111"/>
<path d="M27.376 106.117L32.2195 105.535C32.2938 105.527 32.3668 105.509 32.4363 105.482C32.56 105.434 32.6675 105.352 32.7463 105.246L30.2562 108.632C30.1767 108.739 30.0688 108.82 29.9451 108.868C29.8759 108.895 29.8033 108.913 29.7294 108.921L24.8848 109.51L27.376 106.117Z" fill="#94C1F7"/>
<path d="M24.8841 109.621C24.8636 109.621 24.8435 109.616 24.8258 109.606C24.808 109.596 24.7932 109.581 24.7827 109.564C24.7711 109.544 24.7656 109.521 24.7668 109.498C24.7681 109.475 24.7761 109.453 24.7898 109.434L27.2811 106.048C27.2905 106.035 27.3025 106.024 27.3163 106.016C27.3301 106.008 27.3454 106.003 27.3612 106.001L32.2047 105.412C32.2688 105.404 32.3317 105.389 32.3921 105.366C32.4949 105.326 32.5846 105.258 32.6513 105.169C32.66 105.156 32.6714 105.144 32.6847 105.135C32.6981 105.126 32.7131 105.12 32.729 105.117C32.7448 105.114 32.761 105.115 32.7767 105.118C32.7924 105.122 32.8072 105.129 32.8202 105.138C32.8332 105.148 32.8441 105.16 32.8522 105.173C32.8603 105.187 32.8655 105.203 32.8675 105.219C32.8694 105.235 32.8681 105.251 32.8636 105.266C32.859 105.282 32.8514 105.296 32.8411 105.308L30.3498 108.701C30.2576 108.825 30.1322 108.921 29.988 108.977C29.9086 109.009 29.8254 109.029 29.7405 109.039L24.8982 109.62L24.8841 109.621ZM27.4402 106.228L25.141 109.36L29.7146 108.81C29.7785 108.804 29.8412 108.788 29.9008 108.764C30.004 108.724 30.0938 108.656 30.1601 108.568L32.3096 105.646C32.2836 105.646 32.2589 105.655 32.233 105.657L27.4402 106.228Z" fill="#111111"/>
<path d="M24.4003 101.654L21.9102 105.041L23.7545 108.857L26.2458 105.47L24.4003 101.654Z" fill="#94C1F7"/>
<path d="M23.7549 108.975H23.7432C23.7229 108.973 23.7035 108.966 23.6867 108.954C23.67 108.943 23.6566 108.927 23.6477 108.909L21.8011 105.092C21.7923 105.074 21.7886 105.053 21.7905 105.032C21.7924 105.011 21.7997 104.992 21.8117 104.975L24.3053 101.588C24.3174 101.572 24.3334 101.559 24.3519 101.551C24.3704 101.543 24.3906 101.54 24.4107 101.542C24.4309 101.543 24.4502 101.55 24.4668 101.562C24.4834 101.573 24.4968 101.589 24.5056 101.607L26.3511 105.423C26.3599 105.442 26.3635 105.463 26.3617 105.484C26.3598 105.504 26.3525 105.524 26.3405 105.541L23.8492 108.929C23.8381 108.943 23.8238 108.955 23.8075 108.963C23.7911 108.971 23.7731 108.975 23.7549 108.975ZM22.0462 105.054L23.775 108.63L26.1083 105.457L24.3795 101.881L22.0462 105.054Z" fill="#111111"/>
<path d="M26.2451 105.475L23.7539 108.861C23.8553 109.07 24.0174 109.243 24.219 109.359C24.4207 109.474 24.6524 109.526 24.884 109.507L27.3753 106.121C27.1437 106.139 26.9122 106.087 26.7107 105.972C26.5091 105.856 26.3469 105.683 26.2451 105.475Z" fill="#94C1F7"/>
<path d="M24.7713 109.629C24.5361 109.623 24.307 109.553 24.1089 109.426C23.9108 109.299 23.7515 109.12 23.6483 108.909C23.6397 108.89 23.6362 108.869 23.6383 108.849C23.6404 108.828 23.6479 108.808 23.6601 108.791L26.1513 105.405C26.1634 105.389 26.1796 105.376 26.1981 105.368C26.2167 105.359 26.2371 105.356 26.2574 105.358C26.2774 105.36 26.2966 105.367 26.3131 105.379C26.3296 105.39 26.3429 105.406 26.3517 105.424C26.4433 105.61 26.5883 105.764 26.7682 105.868C26.948 105.971 27.1546 106.019 27.3616 106.004C27.3846 106.001 27.4081 106.005 27.4291 106.015C27.45 106.025 27.4676 106.041 27.4794 106.061C27.4921 106.08 27.4989 106.103 27.4989 106.126C27.4989 106.149 27.4921 106.171 27.4794 106.19L24.9835 109.573C24.9739 109.586 24.9617 109.597 24.9477 109.605C24.9337 109.613 24.9182 109.619 24.9021 109.62C24.8588 109.626 24.8151 109.629 24.7713 109.629ZM23.8934 108.868C23.9871 109.03 24.1226 109.164 24.2857 109.256C24.4488 109.348 24.6336 109.394 24.8208 109.391L27.1424 106.235C26.9607 106.213 26.7858 106.153 26.6294 106.058C26.4729 105.963 26.3385 105.836 26.235 105.685L23.8934 108.868Z" fill="#111111"/>
<path d="M15.8281 98.4102L13.3369 101.797C15.9295 103.523 18.8874 104.674 21.9102 105.043L24.4002 101.656C21.3787 101.288 18.4207 100.135 15.8281 98.4102Z" fill="#94C1F7"/>
<path d="M21.9094 105.16H21.8941C18.9161 104.796 15.9346 103.667 13.2713 101.894C13.258 101.885 13.2467 101.873 13.238 101.86C13.2293 101.847 13.2234 101.832 13.2206 101.816C13.2178 101.801 13.2181 101.785 13.2216 101.769C13.225 101.754 13.2315 101.739 13.2407 101.727L15.7319 98.339C15.7499 98.3146 15.7766 98.2981 15.8064 98.2928C15.8363 98.2875 15.867 98.294 15.8922 98.3108C18.5249 100.064 21.4722 101.18 24.4136 101.539C24.434 101.542 24.4534 101.55 24.4699 101.562C24.4864 101.574 24.4994 101.59 24.5076 101.609C24.5158 101.628 24.5189 101.649 24.5167 101.669C24.5145 101.689 24.507 101.709 24.495 101.725L22.0037 105.113C21.9927 105.128 21.9785 105.139 21.9621 105.148C21.9458 105.156 21.9277 105.16 21.9094 105.16ZM13.5046 101.765C16.0902 103.466 18.9739 104.554 21.8552 104.918L24.1862 101.748C21.3096 101.363 18.4353 100.268 15.8557 98.5686L13.5046 101.765Z" fill="#111111"/>
<path d="M7.41198 95.0879L4.92072 98.4743C4.68502 98.7922 4.75573 99.2644 5.09042 99.6047L7.58168 96.2183C7.247 95.878 7.17865 95.4058 7.41198 95.0879Z" fill="#94C1F7"/>
<path d="M5.09079 99.7208C5.0752 99.7207 5.05977 99.7176 5.04541 99.7115C5.03105 99.7055 5.01803 99.6966 5.00712 99.6855C4.63473 99.3075 4.55813 98.7623 4.83153 98.4091L7.31808 95.0168C7.33646 94.9918 7.36398 94.975 7.39465 94.9702C7.42532 94.9653 7.45667 94.9728 7.48189 94.9909C7.49445 95 7.50509 95.0115 7.51319 95.0247C7.5213 95.0379 7.52671 95.0526 7.52912 95.068C7.53153 95.0833 7.53089 95.0989 7.52723 95.114C7.52357 95.129 7.51697 95.1432 7.50781 95.1558C7.30865 95.4266 7.37464 95.8387 7.6669 96.1342C7.68638 96.1542 7.69814 96.1804 7.70008 96.2082C7.70203 96.2361 7.69403 96.2637 7.67751 96.2861L5.18507 99.6725C5.17507 99.6863 5.16221 99.6978 5.14735 99.7061C5.1325 99.7144 5.11602 99.7195 5.09904 99.7208H5.09079ZM7.1637 95.6232L5.01655 98.5422C4.83978 98.7777 4.87278 99.1309 5.08372 99.4147L7.43003 96.2249C7.28411 96.0548 7.19149 95.8455 7.1637 95.6232Z" fill="#111111"/>
<path d="M12.46 100.343L9.96875 103.729L13.3368 101.795L15.8281 98.4082L12.46 100.343Z" fill="#94C1F7"/>
<path d="M9.96854 103.847C9.94685 103.847 9.92563 103.841 9.90721 103.83C9.88879 103.818 9.87388 103.802 9.86414 103.783C9.85439 103.763 9.85018 103.742 9.85196 103.72C9.85375 103.698 9.86147 103.678 9.87426 103.66L12.3643 100.273C12.3745 100.26 12.3869 100.249 12.4009 100.241L15.7689 98.3063C15.7924 98.293 15.8196 98.2882 15.8462 98.2926C15.8728 98.297 15.897 98.3104 15.9149 98.3305C15.9329 98.3506 15.9433 98.3762 15.9446 98.4031C15.9459 98.4299 15.938 98.4564 15.9221 98.4782L13.4344 101.865C13.4243 101.878 13.4119 101.889 13.3979 101.898L10.0275 103.832C10.0093 103.842 9.98912 103.847 9.96854 103.847ZM12.5399 100.433L10.3951 103.355L13.2564 101.707L15.4012 98.7902L12.5399 100.433Z" fill="#111111"/>
<path d="M7.58208 96.2168L5.09082 99.6032L8.8395 103.435L11.3296 100.048L7.58208 96.2168Z" fill="#94C1F7"/>
<path d="M8.83847 103.553C8.82268 103.553 8.80704 103.55 8.79246 103.544C8.77788 103.538 8.76468 103.529 8.75362 103.518L5.00612 99.6865C4.98664 99.6665 4.97488 99.6403 4.97294 99.6125C4.971 99.5847 4.979 99.5571 4.99552 99.5346L7.48678 96.1482C7.49678 96.1344 7.50964 96.123 7.52449 96.1146C7.53935 96.1063 7.55583 96.1013 7.57281 96.0999C7.58997 96.0987 7.60719 96.1012 7.62328 96.1073C7.63936 96.1134 7.65391 96.1229 7.66591 96.1352L11.4134 99.9667C11.4329 99.9867 11.4446 100.013 11.4466 100.041C11.4485 100.069 11.4405 100.096 11.424 100.119L8.93393 103.505C8.92393 103.519 8.91107 103.53 8.89622 103.539C8.88136 103.547 8.86488 103.552 8.8479 103.553H8.83847ZM5.24417 99.5935L8.82669 103.254L11.1765 100.059L7.5952 96.399L5.24417 99.5935Z" fill="#111111"/>
<path d="M11.3301 100.049L8.83887 103.435C9.15116 103.757 9.6143 103.87 9.96783 103.73L12.4591 100.343C12.1056 100.483 11.6413 100.37 11.329 100.049" fill="#94C1F7"/>
<path d="M9.64959 103.907C9.48224 103.904 9.3171 103.868 9.16361 103.801C9.01011 103.735 8.8713 103.639 8.75514 103.518C8.73566 103.498 8.72391 103.472 8.72197 103.444C8.72003 103.416 8.72801 103.389 8.74453 103.366L11.2358 99.9798C11.2459 99.966 11.2589 99.9546 11.2738 99.9464C11.2888 99.9381 11.3053 99.9332 11.3224 99.9319C11.3394 99.9307 11.3565 99.9332 11.3725 99.9392C11.3885 99.9453 11.403 99.9547 11.4149 99.9669C11.6895 100.249 12.1008 100.359 12.4166 100.234C12.4404 100.225 12.4666 100.223 12.4913 100.23C12.516 100.237 12.5377 100.252 12.5533 100.272C12.5686 100.292 12.5769 100.317 12.5769 100.342C12.5769 100.368 12.5686 100.393 12.5533 100.413L10.0644 103.8C10.0513 103.817 10.0333 103.831 10.0126 103.84C9.89684 103.884 9.77371 103.907 9.64959 103.907ZM8.99672 103.422C9.11639 103.531 9.26237 103.608 9.42053 103.645C9.57868 103.682 9.74364 103.677 9.89943 103.631L12.1892 100.519C11.8836 100.527 11.586 100.422 11.3525 100.225L8.99672 103.422Z" fill="#111111"/>
<path d="M9.78106 92.2339C8.98504 90.9692 8.3493 89.6106 7.88845 88.1893C7.44616 86.8368 7.19315 85.4298 7.1366 84.0081L3.21233 81.9263C2.77748 81.6979 2.53118 81.2198 2.63017 80.8207L3.72849 76.4099C3.75591 76.301 3.80922 76.2004 3.8839 76.1165C3.95859 76.0327 4.05243 75.9681 4.15745 75.9283C4.33556 75.8622 4.52959 75.8519 4.71369 75.8988L8.90547 76.8938C10.2383 74.6943 12.2629 72.9493 14.8331 71.906L14.1779 67.9462C14.1447 67.7825 14.1701 67.6124 14.2495 67.4654C14.329 67.3184 14.4575 67.204 14.6127 67.142C14.6833 67.1154 14.7569 67.098 14.8319 67.0902L19.6719 66.5097C19.9037 66.4908 20.1359 66.5421 20.3382 66.657C20.5404 66.7719 20.7033 66.945 20.8055 67.1538L22.651 70.97C25.6726 71.3385 28.6364 72.4901 31.229 74.2162L34.5959 72.2817C34.9494 72.1404 35.4137 72.2534 35.726 72.5748L39.4735 76.4063C39.8188 76.7596 39.8813 77.2482 39.6208 77.5661L37.2781 80.3921C38.0715 81.6555 38.7048 83.0126 39.1636 84.432C39.6057 85.7849 39.8591 87.1923 39.9166 88.6143L43.8385 90.6949C44.271 90.9245 44.5197 91.4014 44.4207 91.8006L43.3224 96.2114C43.2952 96.3205 43.242 96.4214 43.1673 96.5055C43.0926 96.5895 42.9986 96.6543 42.8934 96.6941C42.7152 96.7615 42.5207 96.7726 42.336 96.7259L38.1395 95.7333C36.7609 97.9954 34.6808 99.7459 32.2154 100.719L32.8706 104.68C32.9049 104.843 32.8801 105.014 32.8005 105.161C32.7208 105.308 32.5916 105.422 32.4358 105.483C32.3662 105.51 32.2933 105.528 32.2189 105.536L27.3755 106.119C27.1439 106.136 26.9124 106.084 26.7109 105.969C26.5093 105.854 26.3472 105.681 26.2453 105.472L24.3998 101.656C21.3783 101.287 18.4203 100.135 15.8277 98.4097L12.4597 100.344C12.1062 100.484 11.6418 100.371 11.3296 100.05L7.58206 96.2184C7.23677 95.8652 7.17431 95.3765 7.43593 95.0586L9.78106 92.2339ZM25.0374 93.3678C25.8633 93.3567 26.6804 93.1972 27.4497 92.8968C30.5137 91.6828 31.9078 88.2917 30.39 84.7475C29.0053 81.506 25.4557 79.1805 22.0135 79.2558C21.1893 79.2682 20.3739 79.4277 19.6059 79.7268C16.5419 80.9419 15.1454 84.3342 16.6597 87.8761C18.0444 91.1176 21.5951 93.4443 25.0362 93.3678" fill="white"/>
<path d="M27.2624 106.242C27.027 106.237 26.7978 106.167 26.5997 106.04C26.4016 105.912 26.2424 105.733 26.1393 105.522L24.3221 101.765C21.3878 101.395 18.4522 100.283 15.8231 98.5465L12.5234 100.445L12.5081 100.453C12.1062 100.612 11.5889 100.48 11.2507 100.13L7.5031 96.2999C7.11303 95.9031 7.04821 95.3497 7.34872 94.9823L9.64082 92.2224C8.85991 90.9702 8.23427 89.6279 7.77768 88.2248C7.33984 86.8833 7.08574 85.4886 7.02229 84.079L3.15812 82.0325C2.67259 81.7782 2.40273 81.2578 2.51586 80.795L3.61418 76.3842C3.64679 76.2575 3.70911 76.1404 3.796 76.0425C3.88288 75.9446 3.99184 75.8688 4.11385 75.8214C4.31429 75.7444 4.53356 75.7308 4.74197 75.7825L8.85244 76.7586C10.2307 74.5377 12.2803 72.8124 14.7047 71.8321L14.0648 67.9641C14.0274 67.7741 14.0577 67.5769 14.1505 67.4068C14.2432 67.2367 14.3926 67.1044 14.5727 67.0327C14.6516 67.0012 14.7345 66.9806 14.819 66.9715L19.6578 66.3898C19.9138 66.3669 20.1708 66.4221 20.3947 66.5483C20.6186 66.6744 20.7988 66.8656 20.9117 67.0963L22.7288 70.8572C25.6632 71.2257 28.5999 72.3372 31.2279 74.074L34.5276 72.1759L34.5429 72.1689C34.9459 72.0087 35.4621 72.1418 35.8015 72.4903L39.549 76.3206C39.9391 76.7174 40.0027 77.2708 39.7022 77.6382L37.4125 80.4017C38.193 81.6536 38.8187 82.9955 39.2756 84.3981C39.713 85.7397 39.9667 87.1343 40.0298 88.5439L43.894 90.5904C44.3783 90.8482 44.6482 91.3687 44.5351 91.8279L43.4367 96.2387C43.4043 96.3656 43.3421 96.483 43.2552 96.5811C43.1683 96.6792 43.0592 96.7551 42.9371 96.8027C42.7363 96.8785 42.5173 96.8916 42.309 96.8404L38.1961 95.8666C36.8204 98.0881 34.7716 99.8134 32.3474 100.792L32.9873 104.659C33.0248 104.849 32.9945 105.046 32.9018 105.217C32.809 105.387 32.6596 105.519 32.4794 105.591C32.4 105.622 32.3168 105.643 32.2319 105.651L27.3897 106.234C27.3474 106.239 27.3049 106.242 27.2624 106.242ZM15.8313 98.291C15.8543 98.2909 15.8768 98.2974 15.8961 98.3099C18.5288 100.063 21.4761 101.179 24.4176 101.538C24.4372 101.541 24.4559 101.548 24.472 101.56C24.488 101.571 24.5009 101.587 24.5095 101.604L26.355 105.421C26.4466 105.607 26.5916 105.761 26.7715 105.864C26.9513 105.968 27.1579 106.015 27.3649 106.001L32.2084 105.412C32.2725 105.405 32.3354 105.389 32.3958 105.366C32.5261 105.316 32.6344 105.222 32.7013 105.099C32.7682 104.977 32.7894 104.834 32.7611 104.698L32.1047 100.738C32.1003 100.711 32.105 100.684 32.1181 100.661C32.1312 100.638 32.1518 100.62 32.1766 100.609C34.6184 99.6457 36.6786 97.9117 38.0441 95.6712C38.0571 95.6499 38.0766 95.6333 38.0997 95.6237C38.1228 95.6142 38.1483 95.6123 38.1726 95.6182L42.3691 96.6108C42.5303 96.6515 42.7001 96.6421 42.8558 96.5837C42.9428 96.55 43.0204 96.4957 43.0819 96.4256C43.1435 96.3555 43.1872 96.2716 43.2093 96.181L44.31 91.7714C44.396 91.4181 44.1709 91.0025 43.7867 90.7988L39.8636 88.7206C39.8453 88.7108 39.8299 88.6965 39.819 88.6789C39.808 88.6613 39.8019 88.6412 39.8012 88.6205C39.7434 87.2097 39.492 85.8135 39.054 84.4711C38.5966 83.0607 37.966 81.7125 37.1768 80.4571C37.1635 80.4362 37.1571 80.4116 37.1586 80.3869C37.16 80.3621 37.1693 80.3385 37.185 80.3193L39.529 77.4934C39.7517 77.2214 39.6928 76.7999 39.3887 76.4902L35.6365 72.6563C35.3643 72.3761 34.9577 72.2701 34.6466 72.3879L31.2821 74.3166C31.2635 74.328 31.2421 74.3341 31.2202 74.3341C31.1984 74.3341 31.177 74.328 31.1584 74.3166C28.5257 72.561 25.5784 71.4459 22.6369 71.0844C22.6174 71.0821 22.5988 71.075 22.5827 71.0637C22.5667 71.0524 22.5537 71.0372 22.545 71.0197L20.6995 67.207C20.6077 67.0204 20.4621 66.8656 20.2815 66.7624C20.1009 66.6591 19.8936 66.6122 19.6861 66.6277L14.8485 67.207C14.7847 67.2137 14.7221 67.2287 14.6623 67.2518C14.532 67.3039 14.4242 67.4002 14.3578 67.5237C14.2914 67.6473 14.2707 67.7903 14.2993 67.9276L14.9545 71.8874C14.9589 71.9138 14.9542 71.9409 14.9411 71.9642C14.9281 71.9875 14.9074 72.0057 14.8827 72.0158C12.382 73.0284 10.3515 74.7428 9.00917 76.9529C8.99631 76.9744 8.97692 76.9913 8.95382 77.001C8.93072 77.0108 8.90511 77.0129 8.88072 77.0071L4.68776 76.0121C4.52644 75.9726 4.35699 75.982 4.20106 76.0392C4.11404 76.0729 4.03646 76.1272 3.97491 76.1973C3.91336 76.2674 3.86965 76.3513 3.84752 76.4419L2.74919 80.8515C2.66317 81.2048 2.88707 81.6228 3.27243 81.8241L7.18845 83.9023C7.20675 83.9121 7.22216 83.9264 7.23313 83.944C7.24409 83.9616 7.25023 83.9817 7.25091 84.0024C7.3078 85.4136 7.55881 86.8102 7.99687 88.153C8.45717 89.5648 9.09049 90.9142 9.88241 92.1705C9.89545 92.1913 9.90166 92.2157 9.90018 92.2402C9.8987 92.2646 9.8896 92.2881 9.87416 92.3071L7.52903 95.1331C7.3063 95.4039 7.36404 95.8254 7.66926 96.1351L11.4168 99.9666C11.689 100.247 12.0968 100.357 12.4114 100.236L15.7712 98.3063C15.7886 98.297 15.808 98.2921 15.8278 98.2922L15.8313 98.291ZM24.8748 93.487C21.4219 93.487 17.9431 91.1697 16.5561 87.9211C15.7901 86.1301 15.7312 84.278 16.3828 82.7049C16.6781 82.0027 17.112 81.3673 17.6587 80.8366C18.2055 80.3059 18.8537 79.8909 19.5647 79.6164C20.3459 79.3125 21.1753 79.1506 22.0135 79.1383C25.5194 79.0582 29.0913 81.4014 30.4984 84.7019C31.2668 86.494 31.3234 88.352 30.674 89.9204C30.3788 90.6222 29.9448 91.2573 29.398 91.7876C28.8513 92.3179 28.2031 92.7325 27.4922 93.0065C26.7096 93.3116 25.8785 93.4735 25.0386 93.4846L24.8748 93.487ZM22.1809 79.3714H22.0171C21.2067 79.3831 20.4049 79.5394 19.6495 79.833C18.9675 80.096 18.3456 80.4936 17.821 81.0022C17.2963 81.5109 16.8798 82.12 16.5961 82.7932C15.9668 84.3062 16.0281 86.0901 16.7694 87.8269C18.1435 91.0425 21.6235 93.3233 25.0351 93.2432C25.8467 93.2328 26.6497 93.0768 27.4062 92.7828C28.0875 92.5201 28.7088 92.1227 29.2328 91.6145C29.7568 91.1063 30.1729 90.4977 30.456 89.825C31.0865 88.3108 31.024 86.5281 30.2816 84.789C28.9299 81.6298 25.543 79.3714 22.1809 79.3714Z" fill="#111111"/>
</g>
<mask id="mask2_40000788_6560" style="mask-type:luminance" maskUnits="userSpaceOnUse" x="21" y="0" width="79" height="79">
<path d="M60.0326 0.371221L21.3242 39.0796L60.3989 78.1543L99.1073 39.4459L60.0326 0.371221Z" fill="white"/>
</mask>
<g mask="url(#mask2_40000788_6560)">
<path d="M80.5428 21.5493L83.4332 25.5507C86.8041 30.2175 88.4642 36.1553 87.694 42.5221C85.9842 56.6558 72.943 67.5508 58.5655 66.8568C50.6618 66.4754 44 62.6722 39.8865 56.9773L36.9961 52.9759C41.1098 58.6709 47.7716 62.4741 55.6752 62.8555C70.0528 63.5495 83.0941 52.6544 84.8037 38.5208C85.5739 32.1539 83.9139 26.2162 80.5428 21.5493Z" fill="url(#paint0_linear_40000788_6560)"/>
<path d="M79.911 58.6105C74.4093 64.1123 66.6889 67.4222 58.5574 67.0297C50.9037 66.6603 44.0474 63.0332 39.7462 57.0786L36.856 53.0771C36.8001 52.9996 36.8176 52.891 36.8949 52.8355C36.9724 52.7795 37.0806 52.7969 37.1366 52.8744C41.3756 58.7432 48.1357 62.3181 55.6835 62.6826C69.9495 63.371 82.9359 52.5228 84.6319 38.4998C85.3662 32.4292 83.8659 26.4477 80.4068 21.656L80.4026 21.6504C80.3467 21.5729 80.3631 21.4649 80.4415 21.4087C80.519 21.3528 80.6272 21.3702 80.6832 21.4477L83.5734 25.4492C87.0865 30.3127 88.6108 36.3833 87.8659 42.5429C87.1154 48.748 84.1817 54.3398 79.911 58.6105ZM39.4908 56.1337L40.0268 56.8759C44.2659 62.7446 51.0261 66.3195 58.5738 66.6839C72.8395 67.3725 85.8262 56.5242 87.5222 42.5013C88.2569 36.4285 86.7547 30.4447 83.2928 25.6519L82.7467 24.896C84.7667 29.0435 85.5531 33.7656 84.9756 38.5413C83.2577 52.7403 70.1102 63.7253 55.6667 63.0284C49.4273 62.7271 43.718 60.2613 39.4908 56.1337Z" fill="#111111"/>
<path d="M61.867 11.6691C76.2446 12.3631 86.5138 24.3833 84.8038 38.5192C83.0941 52.6528 70.0528 63.5479 55.6752 62.8539C41.2954 62.1598 31.0262 50.1396 32.7358 36.006C34.4458 21.8701 47.4871 10.975 61.867 11.6691Z" fill="#BDDFFF"/>
<path d="M77.0209 54.6091C71.5191 60.1108 63.7986 63.4209 55.6673 63.0284C48.6096 62.6879 42.3176 59.6506 37.95 54.4771C33.6507 49.384 31.7379 42.8173 32.5642 35.9867C34.2821 21.7864 47.431 10.8006 61.8755 11.4977C68.9318 11.8382 75.2227 14.8749 79.5897 20.0481C83.8896 25.1417 85.8023 31.7094 84.976 38.5414C84.2254 44.7467 81.2914 50.3385 77.0209 54.6091ZM40.7646 20.1601C36.5463 24.3785 33.6494 29.8996 32.9081 36.0282C32.0934 42.7624 33.9779 49.235 38.2146 54.2537C42.5193 59.3532 48.7233 62.3467 55.6838 62.6826C69.9499 63.3711 82.9362 52.5229 84.6323 38.4998C85.4471 31.7643 83.5623 25.2906 79.3253 20.2714C75.021 15.1726 68.818 12.1794 61.859 11.8435C53.8267 11.4558 46.1987 14.726 40.7646 20.1601Z" fill="#111111"/>
<path d="M51.4815 24.1006C49.7686 24.0179 48.1261 26.0365 47.8149 28.6092C47.5037 31.1819 48.6417 33.3347 50.3545 33.4174C52.0674 33.5002 53.7076 31.4814 54.0188 28.9087C54.3298 26.3359 53.1942 24.1832 51.4815 24.1006Z" fill="#111111"/>
<path d="M52.5199 32.6216C51.8793 33.2622 51.1191 33.628 50.3453 33.5907C49.6846 33.5587 49.0826 33.2421 48.6041 32.6752C47.8065 31.7303 47.4468 30.2027 47.642 28.5886C47.9635 25.9317 49.6892 23.8408 51.4889 23.9279C52.1489 23.9599 52.7504 24.2759 53.2284 24.8421C54.0256 25.7867 54.385 27.3147 54.1897 28.9298C54.0066 30.4432 53.368 31.7733 52.5199 32.6216ZM49.5511 25.1364C48.7604 25.9271 48.1601 27.1899 47.9859 28.6304C47.8019 30.1507 48.1319 31.5793 48.8686 32.4521C49.2836 32.9434 49.8 33.2177 50.3618 33.2448C51.9831 33.3229 53.5459 31.3685 53.8458 28.8883C54.0299 27.3669 53.7001 25.9379 52.9638 25.0656C52.5494 24.5749 52.0337 24.301 51.4723 24.2739C50.792 24.2409 50.1219 24.5656 49.5511 25.1364Z" fill="#111111"/>
<path d="M69.1414 24.9522C67.4286 24.8694 65.7883 26.8882 65.4771 29.4609C65.166 32.0335 66.3016 34.1862 68.0143 34.2688C69.7272 34.3516 71.3674 32.3328 71.6786 29.7602C71.9898 27.1875 70.8542 25.0349 69.1414 24.9522Z" fill="#111111"/>
<path d="M70.1815 33.4725C69.5409 34.1131 68.7808 34.479 68.0069 34.4416C67.3469 34.4096 66.7454 34.0936 66.2674 33.5274C65.4702 32.5828 65.1108 31.0548 65.3062 29.4397C65.6274 26.783 67.3522 24.6919 69.1506 24.779C69.8106 24.8109 70.4121 25.127 70.8901 25.6932C71.6873 26.6377 72.0467 28.1657 71.8513 29.7809C71.6682 31.2942 71.0297 32.6243 70.1815 33.4725ZM67.2152 25.9865C66.4247 26.777 65.8243 28.0401 65.65 29.4814C65.4659 31.0028 65.7957 32.4319 66.532 33.3041C66.9464 33.7949 67.4621 34.0687 68.0235 34.0959C69.6446 34.174 71.2073 32.2202 71.5075 29.7394C71.6916 28.218 71.3618 26.7889 70.6255 25.9167C70.2111 25.4259 69.6954 25.1521 69.134 25.1249C68.4547 25.092 67.7854 25.4163 67.2152 25.9865Z" fill="#111111"/>
<path d="M58.4279 41.396C52.8314 41.1283 47.5716 43.4967 44.2882 47.363C43.8114 47.9245 43.8671 48.7265 44.4101 49.1525C44.6158 49.3153 44.8628 49.4008 45.1162 49.413C45.5289 49.433 45.9584 49.259 46.2539 48.9111C48.9299 45.7525 53.348 43.7154 58.1193 43.948C58.1219 43.9481 58.1244 43.9483 58.127 43.9484C62.7038 44.1693 66.4564 46.4224 68.4175 49.5905C68.6321 49.9366 69.0004 50.1316 69.3954 50.1507C69.6664 50.1637 69.9499 50.0941 70.2045 49.9333C70.8281 49.5384 71.0416 48.7446 70.68 48.1587C68.2805 44.2908 63.8021 41.6579 58.4279 41.396Z" fill="#111111"/>
<path d="M70.5737 49.8589C70.4917 49.941 70.3994 50.0154 70.2972 50.0799C70.0197 50.2551 69.7049 50.3394 69.387 50.3239C68.9233 50.3016 68.5059 50.0617 68.2704 49.6822C66.2446 46.4093 62.4496 44.3308 58.1188 44.1217C53.6259 43.9028 49.1344 45.7801 46.3862 49.0236C46.0678 49.3995 45.5894 49.6098 45.108 49.5863C44.809 49.572 44.5306 49.4692 44.3029 49.2887C44.0148 49.0629 43.8354 48.7351 43.798 48.3662C43.7583 47.9729 43.889 47.5665 44.1566 47.2514C47.5851 43.213 52.9241 40.9598 58.4365 41.2235C63.6956 41.4795 68.3275 44.0382 70.8273 48.0679C71.1778 48.6359 71.0551 49.3776 70.5737 49.8589ZM46.8385 48.0219C49.6807 45.1796 53.9082 43.5699 58.1278 43.7756C62.5802 43.9903 66.4791 46.1303 68.5648 49.4999C68.7428 49.7866 69.0486 49.9609 69.4038 49.9781C69.6506 49.9901 69.8955 49.9241 70.1122 49.7872C70.6546 49.4438 70.8438 48.754 70.5328 48.2499C68.0933 44.3174 63.565 41.8199 58.4197 41.5691C53.014 41.3107 47.7799 43.5182 44.4203 47.4754C44.2102 47.7227 44.1117 48.0266 44.1423 48.3312C44.1701 48.6055 44.3031 48.8488 44.517 49.0166C44.6883 49.1521 44.8982 49.2294 45.1244 49.2404C45.4991 49.2586 45.872 49.0938 46.1219 48.7994C46.3494 48.5312 46.5888 48.2716 46.8385 48.0219Z" fill="#111111"/>
</g>
</g>
<defs>
<linearGradient id="paint0_linear_40000788_6560" x1="44.0485" y1="63.8576" x2="89.2635" y2="34.4931" gradientUnits="userSpaceOnUse">
<stop offset="0.3248" stop-color="#0E38A3"/>
<stop offset="0.7055" stop-color="#BDDFFF"/>
<stop offset="0.9383" stop-color="#0E38A3"/>
</linearGradient>
<clipPath id="clip0_40000788_6560">
<rect width="120" height="110" fill="white"/>
</clipPath>
</defs>
</svg>
