<svg width="452" height="400" viewBox="0 0 452 400" fill="none" xmlns="http://www.w3.org/2000/svg">
<g clip-path="url(#clip0_40000788_5758)">
<mask id="mask0_40000788_5758" style="mask-type:luminance" maskUnits="userSpaceOnUse" x="0" y="0" width="452" height="400">
<path d="M452 0H0V400H452V0Z" fill="white"/>
</mask>
<g mask="url(#mask0_40000788_5758)">
<mask id="mask1_40000788_5758" style="mask-type:luminance" maskUnits="userSpaceOnUse" x="-21" y="20" width="362" height="380">
<path d="M340.388 79.2207L42.1357 20.6055L-20.8932 341.316L277.359 399.931L340.388 79.2207Z" fill="white"/>
</mask>
<g mask="url(#mask1_40000788_5758)">
<path d="M66.7706 264.961L30.9611 182.259L10.3203 184.849L46.1298 267.552C90.5022 370.03 178.396 386.967 219.639 381.791L240.279 379.201C199.037 384.377 111.143 367.44 66.7706 264.961Z" fill="url(#paint0_linear_40000788_5758)"/>
<path d="M176.477 380.106C163.76 377.607 149.199 373.15 133.854 365.449C116.055 356.517 99.8977 344.482 85.8317 329.677C69.6212 312.616 56.1235 291.774 45.7137 267.734L9.90377 185.031C9.87569 184.966 9.86306 184.896 9.86688 184.826C9.8707 184.755 9.89087 184.687 9.92578 184.625C9.96069 184.564 10.0094 184.512 10.068 184.472C10.1266 184.433 10.1935 184.408 10.2635 184.4L30.9047 181.809C31.1047 181.786 31.2968 181.894 31.3768 182.079L67.1863 264.782C86.7324 309.923 116.244 342.648 154.902 362.047C195.449 382.395 230.459 379.977 240.223 378.752C240.34 378.741 240.456 378.776 240.548 378.85C240.639 378.924 240.699 379.031 240.713 379.148C240.728 379.264 240.697 379.382 240.626 379.477C240.556 379.571 240.451 379.634 240.335 379.653L240.295 379.657L219.694 382.243C213.564 383.012 197.552 384.248 176.477 380.106ZM10.9764 185.226L46.5455 267.372C66.0912 312.513 95.603 345.239 134.261 364.637C174.807 384.986 209.818 382.567 219.581 381.342L226.755 380.442C210.576 380.48 183.984 377.656 154.495 362.859C136.696 353.927 120.539 341.891 106.472 327.086C90.2621 310.025 76.7644 289.184 66.3546 265.143L30.68 182.753L10.9764 185.226Z" fill="#111111"/>
<path d="M30.9591 182.26L10.3184 184.85L93.6824 64.2763L114.323 61.686L30.9591 182.26Z" fill="#BDDFFF"/>
<path d="M10.2312 185.294C10.1573 185.279 10.0882 185.247 10.0301 185.199C9.97204 185.151 9.92681 185.089 9.8985 185.019C9.87019 184.949 9.8597 184.874 9.86798 184.799C9.87625 184.724 9.90304 184.652 9.9459 184.59L93.3101 64.0151C93.3836 63.9088 93.4989 63.8394 93.6268 63.8229L114.268 61.233C114.355 61.2221 114.443 61.2366 114.522 61.2746C114.6 61.3127 114.667 61.3727 114.712 61.4476C114.805 61.6009 114.799 61.794 114.697 61.9415L31.3326 182.517C31.2591 182.623 31.1438 182.692 31.0159 182.709L10.3746 185.299C10.3255 185.305 10.2774 185.303 10.2312 185.294ZM93.9402 64.6987L11.2681 184.272L30.7025 181.833L113.375 62.2603L93.9402 64.6987Z" fill="#111111"/>
<path d="M114.324 61.686L249.998 61.9208L285.807 144.623C334.496 257.07 278.874 352.62 250.906 377.122C216.546 386.864 115.458 377.409 66.7696 264.963L30.96 182.26L114.324 61.686Z" fill="white"/>
<path d="M197.416 377.55C185.962 375.296 174.775 371.854 164.034 367.279C144.364 358.892 126.498 346.894 110.933 331.618C92.7076 313.733 77.7086 291.367 66.3536 265.142L30.5441 182.439C30.5135 182.368 30.5015 182.29 30.509 182.214C30.5165 182.137 30.5433 182.063 30.587 181.999L113.952 61.4252C113.994 61.3646 114.049 61.315 114.115 61.2809C114.18 61.2468 114.253 61.2291 114.326 61.2295L250 61.4642C250.181 61.466 250.344 61.5719 250.415 61.7373L286.224 144.44C297.578 170.662 303.99 197.739 305.282 224.92C306.385 248.129 303.78 271.361 297.54 293.971C286.757 333.053 266.498 364.064 251.205 377.462C251.155 377.506 251.095 377.538 251.03 377.557C238.476 381.116 219.056 381.803 197.417 377.551L197.416 377.55ZM31.4763 182.309L67.1854 264.78C93.6152 325.82 134.634 353.756 164.389 366.443C198.128 380.83 232.015 381.967 250.685 376.711C265.867 363.366 285.951 332.563 296.667 293.729C306.115 259.489 311.829 205.857 285.392 144.801L249.701 62.3714L114.562 62.1376L31.4763 182.309Z" fill="#111111"/>
<path d="M122.659 80.9302L49.4629 186.794L80.9035 259.406C123.651 358.132 212.405 366.431 242.576 357.88C267.128 336.366 315.965 252.474 273.217 153.749L241.777 81.1365L122.659 80.9302Z" fill="#BDDFFF"/>
<path d="M195.597 358.308C185.537 356.328 175.711 353.305 166.278 349.287C149.002 341.921 133.31 331.383 119.639 317.967C103.632 302.259 90.4598 282.615 80.4872 259.584L49.0471 186.972C49.0165 186.901 49.0044 186.824 49.0119 186.747C49.0194 186.67 49.0463 186.596 49.09 186.533L122.287 80.6693C122.329 80.6089 122.385 80.5595 122.45 80.5255C122.515 80.4915 122.587 80.4738 122.661 80.4741L241.779 80.6805C241.867 80.6805 241.954 80.7064 242.027 80.7549C242.101 80.8034 242.159 80.8725 242.194 80.9535L273.634 153.566C283.605 176.594 289.236 200.374 290.37 224.245C291.339 244.627 289.051 265.03 283.572 284.887C274.102 319.209 256.308 346.449 242.876 358.22C242.825 358.264 242.765 358.297 242.701 358.315C231.669 361.441 214.609 362.045 195.598 358.308H195.597ZM49.9798 186.842L81.3195 259.223C122.798 355.016 209.188 366.796 242.355 357.469C269.318 333.754 314.298 249.762 272.801 153.927L241.479 81.5875L122.896 81.3825L49.9792 186.843L49.9798 186.842Z" fill="#111111"/>
<path d="M161.645 170.968C147.803 178.573 142.315 197.979 149.387 214.311C154.623 226.404 165.275 233.413 176.068 233.159L188.324 261.466C191.162 268.02 198.031 270.891 203.589 267.838C209.147 264.784 211.367 256.919 208.529 250.365L196.273 222.059C203.095 212.635 204.746 198.867 199.509 186.774C192.438 170.442 175.484 163.365 161.645 170.968Z" fill="#0E38A3"/>
<path d="M196.87 269.318C196.392 269.224 195.918 269.096 195.447 268.935C192.175 267.814 189.427 265.158 187.908 261.647L175.772 233.619C164.564 233.743 154.069 226.267 148.971 214.493C141.819 197.977 147.407 178.273 161.427 170.571C167.676 167.138 174.856 166.529 181.644 168.853C189.553 171.563 196.216 178.029 199.925 186.594C205.022 198.367 203.786 212.278 196.79 222.115L208.944 250.185C211.882 256.968 209.577 265.066 203.806 268.237C201.694 269.406 199.236 269.789 196.87 269.317V269.318ZM176.154 232.715C176.299 232.743 176.423 232.841 176.483 232.98L188.739 261.286C190.158 264.562 192.709 267.037 195.74 268.076C198.31 268.957 201.021 268.732 203.371 267.441C208.741 264.49 210.869 256.912 208.112 250.547L195.856 222.241C195.825 222.169 195.813 222.089 195.821 222.011C195.83 221.933 195.859 221.858 195.905 221.794C202.851 212.201 204.101 198.526 199.093 186.956C195.485 178.625 189.018 172.341 181.35 169.713C174.809 167.472 167.885 168.058 161.862 171.367C148.242 178.85 142.832 198.035 149.802 214.132C154.799 225.673 165.106 232.963 176.056 232.707C176.089 232.706 176.122 232.709 176.154 232.715Z" fill="#111111"/>
</g>
<mask id="mask2_40000788_5758" style="mask-type:luminance" maskUnits="userSpaceOnUse" x="242" y="156" width="210" height="210">
<path d="M451.46 281.732L325.067 365.16L242.582 240.196L368.975 156.768L451.46 281.732Z" fill="white"/>
</mask>
<g mask="url(#mask2_40000788_5758)">
<path d="M426.1 272.3C425.87 274.713 424.815 276.754 423.24 278.206L415.192 285.625C416.767 284.173 417.822 282.132 418.052 279.718C418.292 277.194 417.587 274.693 416.224 272.599C414.556 270.037 411.904 268.083 408.796 267.44C407.582 267.189 406.398 267.158 405.281 267.319C403.425 267.587 401.755 268.387 400.446 269.593L408.494 262.175C409.803 260.968 411.473 260.168 413.329 259.9C414.446 259.739 415.63 259.771 416.844 260.022C419.952 260.664 422.604 262.618 424.272 265.181C425.635 267.274 426.34 269.775 426.1 272.3Z" fill="#0E38A3"/>
<path d="M409.372 260.941C408.958 261.215 408.567 261.521 408.202 261.857L400.154 269.276C400.073 269.353 400.026 269.46 400.023 269.573C400.019 269.685 400.06 269.795 400.137 269.878C400.213 269.961 400.319 270.011 400.431 270.017C400.543 270.023 400.653 269.985 400.737 269.911L400.739 269.909C402.001 268.746 403.594 267.997 405.344 267.745C406.439 267.587 407.572 267.626 408.71 267.862C411.588 268.457 414.195 270.269 415.864 272.833C417.22 274.917 417.845 277.347 417.623 279.675C417.41 281.914 416.468 283.861 414.9 285.306C414.819 285.384 414.772 285.491 414.769 285.603C414.765 285.716 414.806 285.826 414.883 285.909C414.959 285.992 415.065 286.042 415.177 286.048C415.289 286.054 415.399 286.016 415.483 285.941L423.531 278.523C425.232 276.955 426.296 274.76 426.527 272.342C426.768 269.821 426.094 267.194 424.631 264.946C422.837 262.19 420.03 260.241 416.929 259.6C415.692 259.344 414.46 259.302 413.265 259.474C411.85 259.679 410.526 260.18 409.372 260.941ZM403.607 267.265L408.785 262.492C410.049 261.328 411.641 260.579 413.392 260.327C414.487 260.169 415.62 260.208 416.758 260.444C419.636 261.039 422.243 262.851 423.912 265.415C425.268 267.499 425.893 269.929 425.671 272.257C425.458 274.496 424.516 276.443 422.948 277.888L417.756 282.674C418.141 281.746 418.385 280.763 418.479 279.76C418.719 277.239 418.046 274.612 416.583 272.365C414.789 269.608 411.982 267.659 408.881 267.018C407.643 266.762 406.411 266.72 405.217 266.892C404.671 266.971 404.132 267.096 403.607 267.265Z" fill="#111111"/>
<path d="M367.269 235.209L359.221 242.628C356.146 245.462 353.589 248.881 351.702 252.773L359.75 245.355C361.636 241.463 364.194 238.044 367.269 235.209Z" fill="#0E38A3"/>
<path d="M367.032 234.851C367.012 234.863 366.994 234.878 366.977 234.893L358.929 242.312C355.77 245.224 353.207 248.681 351.315 252.586C351.271 252.676 351.26 252.778 351.284 252.876C351.308 252.973 351.365 253.059 351.446 253.12C351.526 253.18 351.625 253.21 351.725 253.205C351.825 253.2 351.919 253.16 351.993 253.093L360.041 245.674C360.081 245.638 360.113 245.594 360.136 245.546C361.981 241.739 364.479 238.369 367.56 235.529C367.64 235.456 367.69 235.355 367.698 235.247C367.707 235.139 367.675 235.032 367.609 234.946C367.542 234.86 367.445 234.803 367.338 234.785C367.231 234.767 367.122 234.791 367.032 234.851ZM353.265 250.747C354.943 247.846 357.049 245.216 359.513 242.947L361.957 240.694C360.998 242.095 360.143 243.566 359.399 245.094L353.265 250.747Z" fill="#111111"/>
<path d="M351.044 270.004L342.996 277.423L349.232 278.712L357.28 271.293L351.044 270.004Z" fill="white"/>
<path d="M350.808 269.645C350.788 269.658 350.77 269.672 350.754 269.688L342.706 277.106C342.648 277.16 342.606 277.229 342.584 277.305C342.562 277.381 342.562 277.462 342.584 277.538C342.605 277.614 342.647 277.684 342.705 277.738C342.763 277.792 342.835 277.829 342.912 277.845L349.148 279.135C349.215 279.149 349.284 279.147 349.349 279.129C349.415 279.111 349.475 279.077 349.525 279.031L357.573 271.612C357.631 271.559 357.673 271.49 357.694 271.414C357.716 271.338 357.716 271.257 357.695 271.181C357.673 271.104 357.631 271.035 357.573 270.981C357.515 270.927 357.444 270.89 357.366 270.874L351.131 269.584C351.075 269.572 351.018 269.572 350.963 269.582C350.907 269.593 350.855 269.614 350.808 269.645ZM343.906 277.172L351.175 270.471L356.371 271.546L349.102 278.247L343.906 277.172Z" fill="#111111"/>
<path d="M344.954 263.732L336.907 271.15L342.996 277.425L351.044 270.006L344.954 263.732Z" fill="#0E38A3"/>
<path d="M344.717 263.369C344.698 263.382 344.68 263.396 344.663 263.412L336.615 270.83C336.573 270.869 336.539 270.916 336.515 270.968C336.491 271.021 336.478 271.077 336.477 271.135C336.475 271.192 336.485 271.25 336.506 271.303C336.527 271.357 336.559 271.406 336.599 271.447L342.689 277.722C342.767 277.802 342.873 277.849 342.985 277.852C343.097 277.856 343.206 277.815 343.288 277.74L351.336 270.321C351.378 270.283 351.412 270.236 351.436 270.183C351.459 270.131 351.472 270.075 351.474 270.017C351.476 269.96 351.465 269.902 351.444 269.849C351.423 269.795 351.392 269.746 351.352 269.705L345.262 263.43C345.192 263.358 345.099 263.313 345 263.302C344.901 263.291 344.801 263.314 344.717 263.369ZM337.523 271.166L344.939 264.33L350.428 269.986L343.012 276.822L337.523 271.166Z" fill="#111111"/>
<path d="M415.859 304.191C410.829 308.828 404.415 311.902 397.286 312.931C393.004 313.549 388.464 313.429 383.812 312.467C371.874 309.997 361.685 302.491 355.276 292.645C352.493 288.369 350.422 283.651 349.232 278.713L357.279 271.294C358.47 276.232 360.541 280.95 363.324 285.227C369.733 295.072 379.922 302.579 391.86 305.048C396.512 306.011 401.051 306.13 405.334 305.512C412.463 304.483 418.877 301.409 423.907 296.773L415.859 304.191Z" fill="white"/>
<path d="M357.043 270.935C357.023 270.947 357.005 270.962 356.989 270.977L348.941 278.396C348.884 278.447 348.843 278.513 348.821 278.587C348.799 278.66 348.797 278.738 348.815 278.813C350.007 283.757 352.06 288.49 354.918 292.88C361.634 303.198 372.135 310.491 383.727 312.889C388.328 313.84 392.911 313.998 397.35 313.357C404.488 312.327 410.99 309.267 416.152 304.508L424.2 297.09C424.281 297.012 424.328 296.906 424.332 296.793C424.335 296.68 424.294 296.571 424.218 296.487C424.141 296.404 424.036 296.354 423.923 296.348C423.811 296.342 423.701 296.381 423.617 296.455C418.582 301.096 412.238 304.081 405.271 305.086C400.931 305.713 396.448 305.558 391.946 304.627C380.577 302.275 370.276 295.119 363.685 284.993C360.882 280.686 358.867 276.044 357.698 271.195C357.682 271.128 357.65 271.065 357.604 271.013C357.559 270.96 357.502 270.92 357.437 270.894C357.373 270.869 357.304 270.859 357.235 270.866C357.166 270.873 357.1 270.897 357.043 270.935ZM349.71 278.859L357.04 272.103C358.253 276.791 360.245 281.282 362.966 285.462C369.682 295.78 380.182 303.073 391.775 305.47C396.376 306.422 400.959 306.579 405.398 305.939C409.912 305.287 414.173 303.823 418.001 301.632L415.569 303.874C410.534 308.514 404.19 311.499 397.223 312.505C392.883 313.131 388.4 312.977 383.897 312.045C372.528 309.694 362.228 302.537 355.636 292.412C352.881 288.178 350.888 283.619 349.71 278.859Z" fill="#111111"/>
<path d="M339.506 267.617L331.458 275.035L336.907 271.147L344.955 263.729L339.506 267.617Z" fill="#0E38A3"/>
<path d="M344.718 263.37L344.705 263.379L339.256 267.267C339.242 267.278 339.228 267.289 339.215 267.301L331.167 274.719C331 274.873 330.982 275.13 331.125 275.307C331.269 275.484 331.524 275.522 331.709 275.388L337.158 271.5C337.172 271.489 337.186 271.478 337.199 271.466L345.247 264.048C345.326 263.974 345.375 263.874 345.383 263.766C345.392 263.659 345.36 263.551 345.293 263.466C345.226 263.381 345.13 263.323 345.024 263.306C344.917 263.288 344.808 263.311 344.718 263.37Z" fill="#111111"/>
<path d="M324.006 264.413L315.958 271.832L331.459 275.038L339.507 267.619L324.006 264.413Z" fill="white"/>
<path d="M323.767 264.051C323.748 264.063 323.73 264.078 323.713 264.093L315.665 271.512C315.607 271.565 315.565 271.634 315.543 271.71C315.522 271.786 315.522 271.867 315.543 271.943C315.565 272.02 315.607 272.089 315.664 272.143C315.722 272.197 315.794 272.234 315.872 272.251L331.373 275.457C331.44 275.471 331.509 275.468 331.574 275.45C331.64 275.432 331.7 275.399 331.75 275.352L339.798 267.934C339.856 267.881 339.898 267.812 339.92 267.736C339.941 267.66 339.941 267.579 339.92 267.502C339.898 267.426 339.856 267.357 339.799 267.303C339.741 267.249 339.669 267.211 339.591 267.195L324.09 263.989C323.978 263.966 323.862 263.988 323.767 264.051ZM316.865 271.578L324.134 264.877L338.597 267.868L331.327 274.569L316.865 271.578Z" fill="#111111"/>
<path d="M314.288 256.862L306.24 264.28L315.957 271.832L324.005 264.413L314.288 256.862Z" fill="#0E38A3"/>
<path d="M314.05 256.5C314.031 256.513 314.013 256.527 313.996 256.543L305.948 263.961C305.902 264.003 305.866 264.055 305.843 264.113C305.819 264.171 305.808 264.233 305.811 264.296C305.814 264.358 305.83 264.419 305.859 264.475C305.888 264.531 305.928 264.58 305.977 264.618L315.694 272.169C315.775 272.232 315.874 272.264 315.976 272.26C316.077 272.256 316.174 272.216 316.248 272.147L324.296 264.729C324.342 264.686 324.378 264.634 324.402 264.577C324.425 264.519 324.436 264.457 324.433 264.394C324.431 264.332 324.414 264.27 324.386 264.215C324.357 264.159 324.316 264.11 324.267 264.072L314.55 256.521C314.403 256.406 314.201 256.401 314.05 256.5ZM306.905 264.252L314.313 257.423L323.339 264.438L315.932 271.267L306.905 264.252Z" fill="#111111"/>
<path d="M304.594 260.397L296.546 267.815L306.24 264.279L314.288 256.86L304.594 260.397Z" fill="#0E38A3"/>
<path d="M304.356 260.038C304.337 260.051 304.319 260.065 304.302 260.081L296.254 267.499C296.181 267.567 296.134 267.657 296.12 267.756C296.107 267.854 296.128 267.955 296.18 268.04C296.231 268.125 296.311 268.19 296.405 268.223C296.499 268.256 296.601 268.255 296.694 268.221L306.388 264.685C306.441 264.666 306.49 264.636 306.531 264.598L314.579 257.179C314.652 257.112 314.699 257.021 314.713 256.923C314.726 256.824 314.706 256.724 314.654 256.639C314.602 256.554 314.522 256.489 314.428 256.456C314.334 256.423 314.232 256.423 314.139 256.457L304.445 259.994C304.414 260.005 304.384 260.02 304.356 260.038ZM298.422 266.674L304.823 260.774L312.411 258.006L306.011 263.905L298.422 266.674Z" fill="#111111"/>
<path d="M282.711 249.792L274.663 257.211L280.907 264.581L288.955 257.162L282.711 249.792Z" fill="#0E38A3"/>
<path d="M282.473 249.434C282.453 249.446 282.435 249.46 282.418 249.476L274.371 256.894C274.289 256.97 274.24 257.073 274.233 257.184C274.227 257.295 274.263 257.405 274.335 257.49L280.58 264.86C280.618 264.904 280.664 264.94 280.716 264.966C280.767 264.992 280.824 265.008 280.882 265.011C280.939 265.015 280.997 265.007 281.052 264.988C281.106 264.968 281.156 264.938 281.199 264.899L289.247 257.481C289.328 257.406 289.377 257.302 289.384 257.191C289.391 257.08 289.354 256.971 289.282 256.886L283.037 249.516C282.969 249.435 282.874 249.383 282.77 249.367C282.666 249.352 282.56 249.376 282.473 249.434ZM275.257 257.25L282.673 250.414L288.36 257.125L280.944 263.961L275.257 257.25Z" fill="#111111"/>
<path d="M288.955 257.162L280.906 264.58L296.545 267.815L304.593 260.397L288.955 257.162Z" fill="white"/>
<path d="M288.718 256.803C288.699 256.816 288.681 256.83 288.664 256.846L280.616 264.264C280.558 264.318 280.516 264.387 280.494 264.463C280.473 264.539 280.473 264.62 280.494 264.696C280.515 264.772 280.557 264.842 280.615 264.896C280.673 264.95 280.745 264.987 280.823 265.003L296.461 268.238C296.528 268.252 296.597 268.25 296.663 268.232C296.728 268.214 296.789 268.18 296.838 268.134L304.886 260.715C304.944 260.662 304.986 260.593 305.008 260.517C305.03 260.441 305.03 260.36 305.008 260.284C304.987 260.207 304.945 260.138 304.887 260.084C304.829 260.03 304.757 259.993 304.68 259.976L289.041 256.742C288.929 256.719 288.813 256.741 288.718 256.803ZM281.816 264.331L289.086 257.63L303.686 260.65L296.416 267.351L281.816 264.331Z" fill="#111111"/>
<path d="M275.585 254.399L267.537 261.817L274.664 257.213L282.712 249.794L275.585 254.399Z" fill="#0E38A3"/>
<path d="M275.347 254.038C275.328 254.05 275.309 254.064 275.293 254.08L267.245 261.498C267.164 261.571 267.114 261.671 267.105 261.779C267.095 261.887 267.127 261.995 267.194 262.081C267.26 262.168 267.357 262.225 267.464 262.243C267.571 262.261 267.68 262.238 267.77 262.178L274.897 257.574C274.917 257.561 274.937 257.546 274.955 257.529L283.003 250.111C283.083 250.038 283.133 249.938 283.143 249.83C283.152 249.722 283.121 249.614 283.054 249.528C282.987 249.442 282.891 249.384 282.784 249.366C282.677 249.348 282.567 249.371 282.477 249.431L275.35 254.035L275.347 254.038ZM271.524 258.726L275.849 254.74L278.724 252.882L274.399 256.869L271.524 258.726Z" fill="#111111"/>
<path d="M268.707 252.976L260.659 260.395L267.535 261.817L275.583 254.398L268.707 252.976Z" fill="white"/>
<path d="M268.47 252.614C268.451 252.627 268.433 252.641 268.416 252.657L260.368 260.075C260.31 260.129 260.268 260.197 260.247 260.273C260.225 260.35 260.225 260.43 260.246 260.507C260.268 260.583 260.31 260.652 260.368 260.706C260.426 260.761 260.497 260.798 260.575 260.814L267.451 262.236C267.518 262.25 267.587 262.248 267.652 262.23C267.718 262.212 267.778 262.178 267.828 262.132L275.876 254.714C275.934 254.66 275.976 254.591 275.998 254.515C276.019 254.439 276.019 254.358 275.998 254.282C275.977 254.206 275.935 254.137 275.877 254.082C275.819 254.028 275.747 253.991 275.67 253.975L268.793 252.552C268.682 252.529 268.565 252.552 268.47 252.614ZM261.569 260.141L268.838 253.44L274.675 254.648L267.406 261.349L261.569 260.141Z" fill="#111111"/>
<path d="M245.637 244.054L260.651 260.39L268.699 252.972L253.684 236.635L245.637 244.054Z" fill="white"/>
<path d="M253.454 236.276C253.435 236.289 253.417 236.303 253.4 236.319L245.352 243.737C245.31 243.775 245.277 243.821 245.253 243.873C245.229 243.924 245.216 243.979 245.214 244.036C245.212 244.092 245.22 244.149 245.24 244.202C245.26 244.255 245.29 244.304 245.328 244.345L260.344 260.682C260.422 260.766 260.529 260.817 260.643 260.821C260.757 260.826 260.868 260.786 260.951 260.709L268.999 253.29C269.041 253.252 269.074 253.206 269.098 253.155C269.122 253.104 269.135 253.048 269.137 252.992C269.14 252.935 269.131 252.879 269.111 252.826C269.091 252.773 269.061 252.724 269.023 252.682L254.007 236.345C253.938 236.27 253.844 236.222 253.743 236.209C253.642 236.196 253.539 236.22 253.454 236.276ZM246.251 244.081L253.668 237.245L268.101 252.946L260.684 259.783L246.251 244.081Z" fill="#111111"/>
<path d="M265.185 225.794L257.137 233.212L245.645 244.055L253.692 236.636L265.185 225.794Z" fill="white"/>
<path d="M264.946 225.436C264.927 225.449 264.909 225.463 264.892 225.479L256.844 232.897L245.348 243.744C245.264 243.822 245.215 243.929 245.212 244.044C245.208 244.158 245.249 244.269 245.327 244.353C245.405 244.436 245.513 244.486 245.627 244.49C245.741 244.495 245.851 244.453 245.935 244.376L253.983 236.957L265.479 226.111C265.557 226.037 265.606 225.937 265.613 225.829C265.621 225.721 265.589 225.614 265.521 225.529C265.454 225.444 265.358 225.388 265.251 225.37C265.145 225.353 265.036 225.377 264.946 225.436Z" fill="#111111"/>
<path d="M434.883 274.117C432.826 295.686 413.57 309.541 391.86 305.05C374.736 301.509 361.211 287.602 357.279 271.297L351.044 270.007L344.954 263.732L339.505 267.62L324.004 264.413L314.287 256.862L304.594 260.399L288.955 257.164L282.71 249.794L275.583 254.398L268.707 252.976L253.691 236.639L265.183 225.796L359.75 245.356C366.576 231.272 382.181 223.394 399.308 226.937C421.018 231.428 436.94 252.549 434.883 274.117ZM416.844 260.023C411.186 258.852 406.175 262.455 405.64 268.069C405.103 273.693 409.247 279.189 414.905 280.359C420.552 281.528 425.563 277.924 426.099 272.301C426.635 266.687 422.491 261.191 416.844 260.023Z" fill="#BDDFFF"/>
<path d="M264.947 225.437C264.926 225.45 264.907 225.466 264.889 225.483L253.396 236.326C253.314 236.403 253.266 236.51 253.262 236.623C253.259 236.737 253.299 236.847 253.376 236.931L268.392 253.268C268.454 253.334 268.534 253.38 268.622 253.398L275.499 254.82C275.609 254.843 275.724 254.822 275.818 254.761L282.629 250.361L288.629 257.442C288.691 257.516 288.776 257.567 288.871 257.586L304.51 260.821C304.588 260.837 304.669 260.831 304.744 260.804L314.214 257.349L323.743 264.754C323.795 264.795 323.856 264.823 323.92 264.836L339.421 268.042C339.479 268.054 339.539 268.054 339.597 268.042C339.654 268.03 339.709 268.006 339.757 267.972L344.906 264.297L350.738 270.307C350.798 270.369 350.876 270.411 350.96 270.429L356.928 271.663C361.087 288.447 375.058 302.014 391.776 305.472C402.565 307.704 413.067 305.564 421.346 299.45C429.361 293.53 434.321 284.548 435.312 274.16C437.385 252.414 421.273 231.042 399.394 226.516C382.663 223.056 366.681 230.425 359.511 244.868L265.269 225.375C265.157 225.352 265.041 225.374 264.947 225.437ZM254.295 236.662L265.317 226.263L359.665 245.778C359.758 245.797 359.855 245.785 359.941 245.743C360.026 245.701 360.095 245.632 360.137 245.546C362.833 239.984 366.864 235.478 371.751 232.252C379.411 227.195 389.177 225.281 399.224 227.359C420.684 231.798 436.489 252.754 434.456 274.074C433.489 284.216 428.651 292.982 420.833 298.756C412.75 304.724 402.493 306.81 391.946 304.628C375.461 301.219 361.698 287.783 357.698 271.197C357.679 271.117 357.637 271.044 357.578 270.987C357.52 270.93 357.446 270.891 357.365 270.874L351.259 269.611L345.262 263.432C345.191 263.358 345.095 263.312 344.993 263.303C344.89 263.293 344.788 263.321 344.705 263.38L339.408 267.16L324.188 264.013L314.551 256.523C314.493 256.478 314.425 256.448 314.353 256.437C314.282 256.426 314.208 256.433 314.14 256.458L304.56 259.952L289.186 256.773L283.038 249.516C282.971 249.436 282.876 249.384 282.773 249.368C282.67 249.353 282.565 249.375 282.477 249.432L275.497 253.941L268.929 252.582L254.295 236.662ZM409.38 260.938C409.241 261.029 409.106 261.124 408.972 261.223C406.814 262.817 405.479 265.233 405.213 268.025C404.658 273.848 408.968 279.57 414.82 280.78C417.716 281.379 420.537 280.805 422.764 279.159C424.924 277.564 426.261 275.143 426.528 272.343C427.083 266.526 422.778 260.81 416.93 259.601C414.202 259.037 411.541 259.511 409.38 260.938ZM421.882 278.724C419.915 280.022 417.486 280.454 414.991 279.937C409.557 278.813 405.554 273.508 406.068 268.111C406.311 265.564 407.524 263.364 409.484 261.917C411.514 260.416 414.099 259.893 416.76 260.444C422.188 261.566 426.187 266.866 425.673 272.257C425.429 274.811 424.214 277.016 422.252 278.465C422.131 278.555 422.008 278.641 421.882 278.724Z" fill="#111111"/>
</g>
<mask id="mask3_40000788_5758" style="mask-type:luminance" maskUnits="userSpaceOnUse" x="202" y="0" width="128" height="124">
<path d="M329.622 0H202.528V123.347H329.622V0Z" fill="white"/>
</mask>
<g mask="url(#mask3_40000788_5758)">
<path d="M235.869 14.1034C235.818 13.8237 235.823 13.5368 235.885 13.2593C235.947 12.9819 236.063 12.7196 236.228 12.488L243.334 2.83594C243.169 3.06818 243.052 3.33103 242.99 3.60902C242.929 3.88701 242.923 4.17454 242.974 4.45469L244.843 15.749L237.741 25.4077L235.869 14.1034Z" fill="#D9EEFF"/>
<path d="M237.74 25.7423C237.66 25.7433 237.581 25.7154 237.52 25.6636C237.458 25.6118 237.417 25.5396 237.404 25.4602L235.539 14.1659C235.48 13.8421 235.487 13.5098 235.558 13.1886C235.63 12.8673 235.765 12.5636 235.955 12.2952L243.061 2.6365C243.087 2.60096 243.12 2.57093 243.158 2.54815C243.196 2.52537 243.238 2.51027 243.282 2.50372C243.325 2.49716 243.37 2.49929 243.413 2.50997C243.456 2.52066 243.496 2.53968 243.532 2.56597C243.567 2.59218 243.597 2.62515 243.62 2.66298C243.643 2.70081 243.658 2.74276 243.664 2.78643C243.671 2.8301 243.669 2.87464 243.658 2.91749C243.647 2.96034 243.628 3.00066 243.602 3.03615C243.465 3.2324 243.368 3.45406 243.317 3.68816C243.266 3.92227 243.263 4.16414 243.306 4.39966L245.175 15.6939C245.182 15.7378 245.181 15.7827 245.17 15.8259C245.16 15.8692 245.141 15.9099 245.115 15.9458L238.009 25.6046C237.978 25.6469 237.938 25.6814 237.891 25.7053C237.844 25.7292 237.793 25.7419 237.74 25.7423ZM236.201 14.0584L237.942 24.5668L244.489 15.6637L242.644 4.50712C242.634 4.46064 242.627 4.41351 242.624 4.36607L236.5 12.6949C236.361 12.8906 236.263 13.1121 236.212 13.3463C236.16 13.5805 236.157 13.8227 236.201 14.0584Z" fill="#111111"/>
<path d="M311.312 83.7109L323.281 86.5421C323.808 86.6751 324.363 86.6434 324.871 86.4514C325.227 86.3168 325.539 86.0839 325.768 85.7797L318.666 95.4385C318.436 95.7431 318.123 95.9761 317.765 96.1101C317.257 96.3012 316.703 96.334 316.175 96.2042L304.206 93.363L311.312 83.7109Z" fill="#D9EEFF"/>
<path d="M316.844 96.6183C316.594 96.6171 316.345 96.5878 316.101 96.531L304.129 93.6999C304.075 93.6874 304.025 93.6619 303.983 93.6256C303.942 93.5893 303.91 93.5433 303.89 93.4916C303.871 93.4393 303.866 93.383 303.874 93.3279C303.882 93.2727 303.904 93.2205 303.937 93.176L311.039 83.5172C311.078 83.4663 311.13 83.4273 311.189 83.4047C311.249 83.3821 311.313 83.3769 311.376 83.3896L323.345 86.2207C323.805 86.337 324.289 86.31 324.733 86.1435C325.033 86.0274 325.294 85.8296 325.486 85.5725C325.512 85.537 325.545 85.507 325.583 85.4842C325.621 85.4614 325.663 85.4463 325.707 85.4398C325.75 85.4332 325.795 85.4353 325.838 85.446C325.881 85.4567 325.921 85.4757 325.957 85.502C326.027 85.5549 326.075 85.6336 326.088 85.7209C326.101 85.8083 326.079 85.8974 326.027 85.9688L318.922 95.6276C318.654 95.9845 318.292 96.2601 317.876 96.4235C317.547 96.5515 317.197 96.6176 316.844 96.6183ZM304.778 93.1625L316.253 95.8761C316.713 95.9924 317.197 95.9654 317.641 95.7989C317.94 95.6828 318.201 95.485 318.394 95.2279L324.518 86.9025C324.083 86.9861 323.635 86.9758 323.204 86.8723L311.439 84.0881L304.778 93.1625Z" fill="#111111"/>
<path d="M251.388 43.4367L244.282 53.0955C246.081 50.6754 248.528 48.8127 251.341 47.722C253.532 46.8711 255.857 46.4162 258.208 46.3787C268.026 46.1637 278.153 52.7999 282.099 62.0456C284.973 68.7624 284.18 75.2743 280.755 79.9123L287.86 70.2502C291.272 65.6122 292.065 59.0969 289.205 52.3835C285.255 43.1378 275.131 36.505 265.313 36.7199C262.963 36.7551 260.637 37.2101 258.446 38.0633C255.634 39.1539 253.187 41.0167 251.388 43.4367Z" fill="#D9EEFF"/>
<path d="M280.772 80.2447C280.7 80.244 280.631 80.2205 280.574 80.1775C280.538 80.1513 280.508 80.1184 280.485 80.0805C280.462 80.0427 280.447 80.0007 280.441 79.9571C280.434 79.9134 280.436 79.8689 280.447 79.826C280.458 79.7832 280.477 79.7428 280.503 79.7074C284.032 74.9015 284.499 68.5138 281.79 62.1799C277.935 53.1525 268.271 46.7313 258.682 46.7313H258.215C255.907 46.7577 253.622 47.1956 251.469 48.0242C248.711 49.098 246.312 50.9252 244.545 53.2969C244.492 53.3691 244.413 53.4174 244.325 53.4312C244.236 53.4451 244.146 53.4234 244.074 53.3708C244.002 53.3183 243.953 53.2392 243.94 53.151C243.926 53.0628 243.948 52.9728 244 52.9006L251.106 43.2419C252.948 40.7681 255.45 38.8628 258.326 37.7442C260.554 36.8776 262.919 36.4158 265.31 36.3807C275.31 36.1523 285.498 42.8355 289.511 52.2491C292.321 58.8114 291.82 65.4442 288.143 70.4483L281.037 80.107C281.007 80.1489 280.967 80.1831 280.921 80.207C280.875 80.2309 280.824 80.2438 280.772 80.2447ZM258.689 46.0361C268.537 46.0361 278.456 52.6454 282.412 61.9079C284.506 66.7977 284.765 71.7278 283.236 75.993L287.605 70.0486C291.138 65.2427 291.612 58.8517 288.896 52.5144C284.98 43.3393 275.071 36.8408 265.324 37.0658C263.012 37.0989 260.725 37.5448 258.571 38.3823C255.817 39.4564 253.42 41.2822 251.654 43.6516L247.25 49.643C248.467 48.7254 249.802 47.9765 251.22 47.4164C253.448 46.5517 255.812 46.09 258.201 46.0529L258.689 46.0361Z" fill="#111111"/>
<path d="M294.414 97.9288L287.309 107.591C293.362 105.191 298.624 101.149 302.501 95.9205L309.607 86.2617C305.73 91.4897 300.468 95.5308 294.414 97.9288Z" fill="#D9EEFF"/>
<path d="M287.308 107.93C287.245 107.93 287.184 107.913 287.131 107.88C287.078 107.847 287.035 107.8 287.007 107.744C286.979 107.688 286.967 107.626 286.973 107.564C286.979 107.502 287.001 107.442 287.039 107.393L294.141 97.7304C294.178 97.6809 294.228 97.6426 294.286 97.6196C300.273 95.236 305.481 91.2376 309.327 86.0701C309.353 86.0346 309.386 86.0045 309.424 85.9817C309.462 85.959 309.504 85.9439 309.548 85.9373C309.591 85.9308 309.636 85.9329 309.679 85.9436C309.722 85.9542 309.762 85.9733 309.798 85.9996C309.833 86.0258 309.863 86.0587 309.886 86.0966C309.909 86.1344 309.924 86.1764 309.931 86.22C309.937 86.2637 309.935 86.3082 309.924 86.3511C309.914 86.3939 309.895 86.4343 309.868 86.4697L302.766 96.1285C298.845 101.4 293.535 105.479 287.429 107.91C287.39 107.924 287.349 107.931 287.308 107.93ZM294.625 98.2073L288.306 106.798C293.834 104.377 298.633 100.557 302.232 95.7154L305.351 91.4704C302.201 94.3307 298.57 96.6115 294.625 98.2073Z" fill="#111111"/>
<path d="M206.059 38.2848C206.125 38.0336 206.239 37.7975 206.395 37.5896L213.491 27.9141C213.335 28.121 213.221 28.3559 213.155 28.6059L210.022 41.1864L202.93 50.8452L206.059 38.2848Z" fill="#D9EEFF"/>
<path d="M202.929 51.1858C202.879 51.1859 202.83 51.1756 202.785 51.1556C202.714 51.1222 202.658 51.0654 202.625 50.995C202.592 50.9246 202.584 50.8448 202.603 50.7694L205.732 38.1888C205.807 37.897 205.937 37.6222 206.116 37.3795L213.218 27.7207C213.244 27.6849 213.277 27.6546 213.314 27.6315C213.352 27.6084 213.394 27.593 213.438 27.5861C213.482 27.5792 213.526 27.5811 213.569 27.5915C213.612 27.6019 213.653 27.6207 213.688 27.6468C213.724 27.673 213.754 27.706 213.777 27.7438C213.8 27.7817 213.815 27.8236 213.821 27.8673C213.828 27.911 213.826 27.9555 213.815 27.9983C213.804 28.0412 213.785 28.0815 213.759 28.117C213.633 28.2906 213.542 28.4867 213.49 28.6946L210.357 41.2718C210.349 41.3146 210.33 41.3548 210.304 41.3894L203.201 51.0515C203.17 51.0937 203.129 51.1278 203.081 51.1511C203.034 51.1745 202.982 51.1864 202.929 51.1858ZM206.385 38.3534L203.665 49.2816L209.715 41.0468L212.515 29.7996L206.657 37.7791C206.528 37.9503 206.436 38.1456 206.385 38.3534Z" fill="#111111"/>
<path d="M211.694 44.3438L204.589 54.0024L215.778 59.93L222.884 50.2713L211.694 44.3438Z" fill="#D9EEFF"/>
<path d="M215.778 60.2642C215.723 60.264 215.669 60.2501 215.62 60.2239L204.43 54.2964C204.388 54.2739 204.35 54.2425 204.321 54.2042C204.291 54.166 204.27 54.1218 204.259 54.0747C204.249 54.0279 204.248 53.9794 204.258 53.9325C204.268 53.8856 204.288 53.8413 204.316 53.8027L211.422 44.1439C211.47 44.0794 211.539 44.0341 211.617 44.0162C211.695 43.9984 211.778 44.0091 211.849 44.0465L223.031 49.9707C223.074 49.9935 223.111 50.0251 223.14 50.0634C223.169 50.1016 223.189 50.1456 223.2 50.1924C223.21 50.2397 223.211 50.2888 223.201 50.3363C223.191 50.3839 223.171 50.4287 223.142 50.4678L216.05 60.1165C216.02 60.1611 215.98 60.1978 215.932 60.2236C215.885 60.2493 215.832 60.2632 215.778 60.2642ZM205.089 53.8833L215.677 59.4918L222.4 50.3805L211.808 44.7719L205.089 53.8833Z" fill="#111111"/>
<path d="M210.03 41.1898L202.928 50.8485C202.642 52.0038 203.344 53.3505 204.588 54.002L211.69 44.3332C210.45 43.6817 209.748 42.3182 210.03 41.1797" fill="#D9EEFF"/>
<path d="M204.589 54.334C204.535 54.3333 204.481 54.3207 204.431 54.2971C203.046 53.5717 202.277 52.0873 202.599 50.7641C202.612 50.7222 202.632 50.6825 202.657 50.6465L209.762 40.9878C209.809 40.9267 209.875 40.8834 209.949 40.8651C210.024 40.8469 210.103 40.8547 210.172 40.8872C210.242 40.9198 210.298 40.9752 210.332 41.0442C210.365 41.1133 210.374 41.1917 210.357 41.2665C210.112 42.274 210.75 43.4663 211.85 44.0405C211.892 44.063 211.93 44.0945 211.96 44.1329C211.989 44.1713 212.01 44.2156 212.021 44.2628C212.032 44.31 212.032 44.359 212.023 44.4065C212.013 44.4539 211.993 44.4986 211.964 44.5376L204.858 54.1963C204.827 54.2387 204.787 54.2732 204.74 54.2971C204.693 54.321 204.642 54.3336 204.589 54.334ZM203.245 50.9756C203.053 51.8891 203.581 52.9437 204.502 53.5414L211.201 44.4402C210.814 44.1913 210.48 43.8681 210.219 43.4893C209.959 43.1106 209.776 42.6837 209.682 42.2337L203.245 50.9756Z" fill="#111111"/>
<path d="M222.884 50.2695L215.778 59.9283C215.938 63.9889 216.66 68.0079 217.923 71.8707C219.238 75.9188 221.052 79.7881 223.321 83.3901L230.426 73.7313C228.156 70.1241 226.343 66.249 225.028 62.1952C223.767 58.3377 223.045 54.3245 222.884 50.2695Z" fill="#D9EEFF"/>
<path d="M223.322 83.7229C223.267 83.7208 223.213 83.7053 223.166 83.6778C223.118 83.6503 223.078 83.6116 223.049 83.5651C220.766 79.9342 218.941 76.0345 217.618 71.9551C216.349 68.0677 215.621 64.0243 215.456 59.9387C215.453 59.863 215.476 59.7885 215.52 59.7272L222.626 50.0684C222.667 50.0119 222.725 49.9695 222.791 49.9472C222.857 49.9249 222.929 49.9239 222.996 49.9442C223.063 49.9644 223.122 50.0051 223.164 50.0605C223.207 50.1158 223.232 50.1832 223.234 50.2531C223.396 54.2781 224.112 58.2616 225.362 62.0915C226.675 66.1181 228.481 69.9669 230.74 73.5503C230.777 73.6059 230.797 73.6714 230.797 73.7384C230.797 73.8054 230.777 73.8709 230.74 73.9265L223.59 83.5852C223.56 83.6276 223.519 83.6621 223.472 83.686C223.426 83.7099 223.374 83.7225 223.322 83.7229ZM216.118 60.0294C216.292 64.0145 217.006 67.9576 218.243 71.7502C219.498 75.6186 221.211 79.3234 223.345 82.7859L230.021 73.7183C227.792 70.1419 226.009 66.3075 224.71 62.2997C223.539 58.7096 222.829 54.9857 222.596 51.217L216.118 60.0294Z" fill="#111111"/>
<path d="M280.61 113.333L294.425 111.67C294.637 111.648 294.845 111.597 295.044 111.519C295.396 111.384 295.703 111.151 295.928 110.848L288.825 120.506C288.598 120.809 288.291 121.042 287.938 121.178C287.741 121.256 287.534 121.306 287.323 121.329L273.505 123.008L280.61 113.333Z" fill="#D9EEFF"/>
<path d="M273.504 123.325C273.446 123.325 273.388 123.31 273.338 123.281C273.287 123.252 273.245 123.211 273.215 123.161C273.182 123.104 273.166 123.039 273.169 122.973C273.173 122.907 273.196 122.844 273.235 122.791L280.341 113.133C280.368 113.096 280.402 113.065 280.441 113.042C280.48 113.019 280.524 113.004 280.569 112.998L294.384 111.319C294.567 111.298 294.746 111.254 294.918 111.188C295.212 111.073 295.468 110.879 295.658 110.627C295.682 110.589 295.715 110.555 295.753 110.53C295.791 110.504 295.834 110.487 295.879 110.478C295.924 110.47 295.971 110.471 296.015 110.481C296.06 110.491 296.102 110.511 296.139 110.538C296.176 110.565 296.207 110.599 296.231 110.639C296.254 110.678 296.269 110.722 296.274 110.768C296.28 110.813 296.276 110.859 296.263 110.903C296.25 110.947 296.228 110.988 296.199 111.024L289.093 120.699C288.83 121.054 288.473 121.327 288.061 121.488C287.835 121.578 287.598 121.637 287.355 121.663L273.544 123.322L273.504 123.325ZM280.794 113.646L274.237 122.58L287.282 121.011C287.464 120.993 287.643 120.949 287.813 120.88C288.107 120.767 288.363 120.572 288.552 120.32L294.683 111.987C294.609 111.987 294.538 112.011 294.464 112.018L280.794 113.646Z" fill="#111111"/>
<path d="M272.124 100.602L265.021 110.26L270.282 121.145L277.387 111.486L272.124 100.602Z" fill="#D9EEFF"/>
<path d="M270.283 121.479H270.249C270.192 121.474 270.136 121.454 270.089 121.421C270.041 121.388 270.002 121.344 269.977 121.291L264.71 110.407C264.685 110.353 264.675 110.294 264.68 110.235C264.685 110.176 264.706 110.119 264.74 110.071L271.853 100.412C271.887 100.366 271.933 100.33 271.986 100.306C272.038 100.283 272.096 100.273 272.154 100.279C272.211 100.284 272.266 100.304 272.313 100.337C272.361 100.37 272.399 100.414 272.424 100.466L277.688 111.351C277.713 111.404 277.723 111.464 277.718 111.523C277.713 111.581 277.692 111.638 277.658 111.686L270.552 121.348C270.52 121.39 270.48 121.423 270.433 121.445C270.386 121.468 270.335 121.48 270.283 121.479ZM265.409 110.296L270.34 120.495L276.995 111.448L272.065 101.248L265.409 110.296Z" fill="#111111"/>
<path d="M277.386 111.5L270.28 121.159C270.57 121.754 271.032 122.249 271.607 122.578C272.182 122.907 272.843 123.055 273.504 123.003L280.609 113.344C279.949 113.395 279.289 113.246 278.714 112.917C278.139 112.589 277.676 112.095 277.386 111.5Z" fill="#D9EEFF"/>
<path d="M273.182 123.347C272.511 123.331 271.857 123.131 271.292 122.769C270.727 122.407 270.273 121.897 269.978 121.295C269.954 121.241 269.944 121.181 269.95 121.122C269.956 121.063 269.977 121.007 270.012 120.959L277.118 111.3C277.152 111.253 277.198 111.217 277.251 111.193C277.304 111.169 277.362 111.16 277.42 111.166C277.477 111.171 277.532 111.192 277.579 111.225C277.626 111.258 277.664 111.302 277.689 111.354C277.95 111.884 278.364 112.325 278.877 112.62C279.39 112.915 279.979 113.05 280.57 113.009C280.635 113 280.702 113.01 280.762 113.039C280.822 113.068 280.872 113.114 280.906 113.171C280.942 113.225 280.961 113.29 280.961 113.355C280.961 113.421 280.942 113.485 280.906 113.54L273.787 123.189C273.759 123.226 273.725 123.257 273.685 123.28C273.645 123.303 273.601 123.318 273.555 123.323C273.431 123.34 273.306 123.348 273.182 123.347ZM270.678 121.177C270.945 121.639 271.331 122.021 271.796 122.283C272.262 122.546 272.789 122.679 273.323 122.668L279.944 113.668C279.426 113.605 278.927 113.433 278.481 113.162C278.035 112.892 277.651 112.529 277.356 112.099L270.678 121.177Z" fill="#111111"/>
<path d="M247.673 91.3477L240.567 101.006C247.962 105.93 256.399 109.214 265.02 110.266L272.123 100.607C263.504 99.5556 255.068 96.2677 247.673 91.3477Z" fill="#D9EEFF"/>
<path d="M265.021 110.6H264.977C256.484 109.562 247.98 106.341 240.383 101.284C240.345 101.258 240.313 101.226 240.288 101.188C240.263 101.15 240.247 101.107 240.239 101.062C240.231 101.018 240.232 100.973 240.241 100.929C240.251 100.885 240.27 100.843 240.296 100.807L247.402 91.1447C247.453 91.0751 247.529 91.0279 247.614 91.0129C247.699 90.9979 247.787 91.0163 247.859 91.0641C255.368 96.0648 263.774 99.2485 272.164 100.273C272.222 100.28 272.277 100.302 272.324 100.337C272.371 100.372 272.408 100.418 272.432 100.472C272.455 100.525 272.464 100.584 272.458 100.642C272.451 100.701 272.43 100.756 272.396 100.803L265.29 110.466C265.259 110.507 265.218 110.541 265.171 110.564C265.125 110.588 265.073 110.6 265.021 110.6ZM241.049 100.918C248.423 105.767 256.648 108.87 264.866 109.908L271.515 100.867C263.31 99.7691 255.112 96.6458 247.754 91.7996L241.049 100.918Z" fill="#111111"/>
<path d="M223.67 81.875L216.564 91.5338C215.892 92.4405 216.093 93.7872 217.048 94.7578L224.154 85.0991C223.199 84.1285 223.004 82.7818 223.67 81.875Z" fill="#D9EEFF"/>
<path d="M217.049 95.089C217.004 95.0889 216.96 95.0799 216.919 95.0626C216.878 95.0453 216.841 95.02 216.81 94.9883C215.748 93.9102 215.529 92.3553 216.309 91.3478L223.401 81.6722C223.454 81.6009 223.532 81.5531 223.62 81.5393C223.707 81.5255 223.797 81.5467 223.869 81.5984C223.904 81.6243 223.935 81.6571 223.958 81.6948C223.981 81.7325 223.996 81.7744 224.003 81.8181C224.01 81.8618 224.008 81.9064 223.998 81.9494C223.988 81.9924 223.969 82.0328 223.943 82.0685C223.375 82.841 223.563 84.0164 224.396 84.8594C224.452 84.9163 224.485 84.9911 224.491 85.0704C224.497 85.1498 224.474 85.2285 224.427 85.2926L217.318 94.9514C217.289 94.9907 217.252 95.0233 217.21 95.0471C217.168 95.0709 217.121 95.0852 217.072 95.089H217.049ZM222.961 83.4018L216.837 91.7273C216.333 92.399 216.427 93.4065 217.029 94.2159L223.721 85.118C223.305 84.6327 223.04 84.0359 222.961 83.4018Z" fill="#111111"/>
<path d="M238.068 96.8615L230.962 106.52L240.568 101.003L247.674 91.3438L238.068 96.8615Z" fill="#D9EEFF"/>
<path d="M230.962 106.856C230.9 106.855 230.839 106.838 230.787 106.805C230.734 106.773 230.692 106.726 230.664 106.671C230.636 106.616 230.624 106.554 230.629 106.492C230.634 106.431 230.656 106.372 230.693 106.322L237.795 96.6599C237.824 96.6236 237.859 96.5928 237.899 96.5692L247.505 91.0513C247.572 91.0135 247.65 90.9998 247.726 91.0123C247.802 91.0249 247.871 91.063 247.922 91.1203C247.973 91.1776 248.003 91.2507 248.007 91.3274C248.01 91.404 247.988 91.4797 247.942 91.5416L240.847 101.2C240.818 101.238 240.783 101.27 240.743 101.294L231.13 106.812C231.078 106.84 231.02 106.855 230.962 106.856ZM238.296 97.1166L232.178 105.452L240.339 100.75L246.457 92.4316L238.296 97.1166Z" fill="#111111"/>
<path d="M224.153 85.0938L217.048 94.7524L227.74 105.681L234.842 96.0219L224.153 85.0938Z" fill="#D9EEFF"/>
<path d="M227.738 106.017C227.693 106.018 227.648 106.009 227.607 105.992C227.565 105.974 227.528 105.949 227.496 105.917L216.807 94.9884C216.752 94.9314 216.718 94.8567 216.713 94.7773C216.707 94.698 216.73 94.6193 216.777 94.5552L223.883 84.8964C223.911 84.8571 223.948 84.8244 223.99 84.8007C224.033 84.7769 224.08 84.7626 224.128 84.7587C224.177 84.7551 224.226 84.7623 224.272 84.7797C224.318 84.7971 224.359 84.8243 224.394 84.8595L235.082 95.7877C235.138 95.8446 235.171 95.9194 235.177 95.9988C235.182 96.0781 235.16 96.1568 235.113 96.2209L228.01 105.88C227.982 105.919 227.945 105.952 227.903 105.975C227.86 105.999 227.813 106.013 227.765 106.017H227.738ZM217.486 94.7231L227.704 105.164L234.407 96.0496L224.192 85.6117L217.486 94.7231Z" fill="#111111"/>
<path d="M234.843 96.0234L227.737 105.682C228.628 106.599 229.949 106.921 230.957 106.522L238.063 96.863C237.055 97.2627 235.73 96.9403 234.84 96.0234" fill="#D9EEFF"/>
<path d="M230.05 107.025C229.573 107.017 229.102 106.915 228.664 106.725C228.226 106.535 227.83 106.26 227.499 105.917C227.443 105.86 227.41 105.785 227.404 105.706C227.399 105.626 227.421 105.548 227.469 105.484L234.574 95.8249C234.603 95.7856 234.64 95.7531 234.683 95.7295C234.725 95.7059 234.772 95.6919 234.821 95.6884C234.87 95.6849 234.918 95.6919 234.964 95.7091C235.01 95.7263 235.051 95.7532 235.085 95.7879C235.868 96.594 237.041 96.9063 237.942 96.5503C238.01 96.5235 238.085 96.5195 238.155 96.5389C238.225 96.5583 238.287 96.6 238.332 96.6578C238.376 96.7159 238.399 96.7866 238.399 96.8593C238.399 96.9319 238.376 97.0026 238.332 97.0608L231.233 106.72C231.196 106.771 231.144 106.81 231.085 106.834C230.755 106.962 230.404 107.027 230.05 107.025ZM228.188 105.641C228.529 105.954 228.945 106.174 229.397 106.278C229.848 106.383 230.318 106.37 230.762 106.239L237.293 97.363C236.422 97.3843 235.573 97.0856 234.907 96.5234L228.188 105.641Z" fill="#111111"/>
<path d="M230.426 73.7334C228.155 70.1262 226.342 66.2512 225.028 62.1973C223.766 58.3399 223.044 54.3267 222.883 50.2717L211.69 44.334C210.45 43.6825 209.748 42.319 210.03 41.1805L213.163 28.5999C213.241 28.2895 213.393 28.0025 213.606 27.7633C213.819 27.5242 214.086 27.34 214.386 27.2263C214.894 27.0379 215.447 27.0086 215.972 27.1424L227.928 29.9802C231.73 23.7068 237.504 18.7296 244.835 15.7541L242.966 4.45977C242.872 3.99285 242.944 3.50754 243.171 3.08839C243.397 2.66925 243.764 2.34282 244.207 2.16599C244.408 2.09004 244.618 2.04037 244.832 2.01822L258.636 0.362526C259.298 0.308517 259.96 0.454912 260.537 0.782613C261.114 1.11032 261.578 1.60411 261.87 2.19957L267.134 13.0841C275.752 14.1353 284.205 17.4198 291.6 22.3432L301.203 16.8254C302.211 16.4224 303.536 16.7448 304.426 17.6616L315.115 28.5899C316.1 29.5974 316.278 30.9911 315.535 31.8979L308.853 39.958C311.116 43.5617 312.923 47.4322 314.231 51.4807C315.492 55.3396 316.215 59.3537 316.379 63.4097L327.565 69.344C328.799 69.9989 329.508 71.3591 329.225 72.4976L326.093 85.0781C326.015 85.3893 325.864 85.6771 325.651 85.9169C325.437 86.1567 325.169 86.3414 324.869 86.4551C324.361 86.6471 323.806 86.6787 323.279 86.5457L311.31 83.7146C307.378 90.1665 301.445 95.1593 294.413 97.9341L296.282 109.232C296.38 109.698 296.309 110.185 296.082 110.604C295.855 111.023 295.486 111.349 295.042 111.522C294.843 111.6 294.635 111.651 294.423 111.673L280.609 113.336C279.948 113.387 279.288 113.238 278.713 112.909C278.138 112.58 277.676 112.087 277.385 111.492L272.122 100.607C263.504 99.5562 255.067 96.2683 247.672 91.3482L238.066 96.8661C237.057 97.2657 235.733 96.9433 234.842 96.0265L224.154 85.0983C223.169 84.0907 222.991 82.697 223.737 81.7902L230.426 73.7334ZM273.94 76.9676C276.296 76.9359 278.626 76.4809 280.821 75.6242C289.56 72.1617 293.536 62.4895 289.207 52.3808C285.257 43.1351 275.133 36.5022 265.315 36.7172C262.964 36.7524 260.639 37.2073 258.448 38.0605C249.709 41.5264 245.726 51.202 250.045 61.304C253.995 70.5497 264.122 77.1859 273.937 76.9676" fill="white"/>
<path d="M280.287 113.687C279.616 113.671 278.962 113.47 278.397 113.108C277.832 112.745 277.378 112.235 277.084 111.631L271.901 100.915C263.532 99.8602 255.159 96.6899 247.66 91.7362L238.248 97.15L238.205 97.1735C237.059 97.6269 235.583 97.2507 234.618 96.2533L223.93 85.3284C222.817 84.1966 222.632 82.6182 223.489 81.5704L230.027 73.6983C227.8 70.1269 226.015 66.2983 224.713 62.2965C223.464 58.47 222.739 54.4923 222.558 50.4716L211.537 44.6347C210.152 43.9093 209.382 42.4249 209.705 41.105L212.838 28.5245C212.931 28.1631 213.108 27.829 213.356 27.5499C213.604 27.2707 213.915 27.0545 214.263 26.9192C214.834 26.6996 215.46 26.661 216.054 26.8083L227.778 29.5924C231.709 23.2579 237.555 18.3368 244.47 15.5409L242.645 4.50857C242.538 3.96645 242.625 3.40414 242.889 2.91899C243.154 2.43385 243.58 2.05642 244.094 1.85207C244.319 1.76213 244.555 1.70338 244.796 1.67744L258.597 0.0183889C259.327 -0.0470928 260.06 0.110502 260.699 0.470319C261.338 0.830136 261.852 1.37522 262.174 2.03343L267.357 12.7602C275.726 13.8113 284.102 16.9817 291.598 21.9353L301.009 16.5216L301.053 16.5014C302.202 16.0447 303.675 16.4242 304.643 17.4182L315.331 28.3431C316.444 29.4749 316.625 31.0533 315.768 32.1012L309.237 39.9833C311.464 43.554 313.248 47.3814 314.551 51.3817C315.799 55.2084 316.523 59.1861 316.703 63.2066L327.724 69.0435C329.106 69.779 329.875 71.2634 329.553 72.5732L326.42 85.1538C326.327 85.5158 326.15 85.8505 325.902 86.1303C325.654 86.4101 325.343 86.6268 324.995 86.7624C324.422 86.9785 323.798 87.016 323.203 86.8699L311.473 84.0925C307.549 90.4287 301.705 95.3497 294.791 98.1407L296.616 109.17C296.723 109.712 296.637 110.275 296.372 110.761C296.107 111.246 295.681 111.625 295.167 111.83C294.941 111.918 294.703 111.976 294.461 112.001L280.65 113.663C280.53 113.678 280.409 113.686 280.287 113.687ZM247.683 91.0075C247.749 91.007 247.813 91.0257 247.868 91.0612C255.377 96.0618 263.784 99.2456 272.173 100.27C272.229 100.277 272.283 100.298 272.328 100.33C272.374 100.363 272.411 100.407 272.435 100.458L277.699 111.343C277.961 111.873 278.374 112.314 278.887 112.609C279.4 112.903 279.989 113.039 280.58 112.998L294.394 111.319C294.577 111.298 294.757 111.254 294.929 111.188C295.3 111.045 295.609 110.775 295.8 110.425C295.991 110.076 296.051 109.67 295.971 109.281L294.098 97.9862C294.086 97.911 294.099 97.8338 294.137 97.7673C294.174 97.7007 294.233 97.6489 294.303 97.6201C301.268 94.8712 307.144 89.9256 311.039 83.535C311.076 83.4743 311.132 83.4269 311.198 83.3998C311.263 83.3726 311.336 83.367 311.405 83.3839L323.375 86.215C323.834 86.3313 324.319 86.3043 324.763 86.1378C325.011 86.0416 325.232 85.8869 325.408 85.6869C325.583 85.487 325.708 85.2476 325.771 84.9892L328.911 72.412C329.156 71.4045 328.514 70.219 327.418 69.638L316.229 63.7104C316.177 63.6827 316.133 63.6417 316.101 63.5916C316.07 63.5414 316.053 63.484 316.051 63.4249C315.886 59.4011 315.169 55.4189 313.92 51.5899C312.615 47.5674 310.816 43.7218 308.565 40.1412C308.527 40.0815 308.509 40.0114 308.513 39.9409C308.517 39.8703 308.544 39.8029 308.589 39.7482L315.274 31.6881C315.909 30.9123 315.741 29.71 314.874 28.8267L304.172 17.8918C303.396 17.0925 302.236 16.7902 301.349 17.1261L291.752 22.6271C291.699 22.6598 291.638 22.6771 291.576 22.6771C291.514 22.6771 291.452 22.6598 291.399 22.6271C283.89 17.6198 275.484 14.4393 267.094 13.4083C267.039 13.4018 266.986 13.3815 266.94 13.3492C266.894 13.317 266.857 13.2738 266.832 13.2236L261.569 2.34912C261.307 1.81701 260.891 1.37534 260.376 1.08089C259.861 0.786443 259.27 0.652674 258.678 0.696785L244.88 2.34912C244.698 2.36815 244.52 2.41106 244.349 2.47674C243.977 2.62536 243.67 2.9 243.481 3.25249C243.291 3.60498 243.232 4.01282 243.314 4.40446L245.183 15.6987C245.195 15.774 245.182 15.8512 245.144 15.9177C245.107 15.9842 245.048 16.0361 244.978 16.0648C237.845 18.953 232.054 23.8429 228.225 30.1466C228.189 30.2079 228.133 30.256 228.067 30.2838C228.001 30.3115 227.928 30.3176 227.859 30.3011L215.9 27.4632C215.44 27.3505 214.956 27.3774 214.511 27.5405C214.263 27.6367 214.042 27.7913 213.866 27.9913C213.691 28.1913 213.566 28.4306 213.503 28.689L210.37 41.2662C210.125 42.2738 210.764 43.466 211.863 44.0403L223.032 49.9678C223.084 49.9956 223.128 50.0366 223.16 50.0867C223.191 50.1368 223.208 50.1943 223.21 50.2533C223.373 54.2783 224.089 58.2618 225.338 62.0917C226.651 66.1182 228.457 69.9671 230.716 73.5505C230.753 73.6098 230.771 73.6792 230.767 73.7491C230.762 73.8189 230.736 73.8857 230.692 73.9401L224.004 82.0002C223.368 82.7727 223.533 83.975 224.404 84.8582L235.092 95.7865C235.869 96.5858 237.032 96.9015 237.929 96.5555L247.512 91.0511C247.561 91.0244 247.617 91.0105 247.673 91.0108L247.683 91.0075ZM273.477 77.3052C263.629 77.3052 253.707 70.6959 249.751 61.4301C247.566 56.3219 247.398 51.0392 249.256 46.5523C250.098 44.5497 251.336 42.7373 252.896 41.2237C254.455 39.7101 256.304 38.5263 258.332 37.7433C260.56 36.8767 262.925 36.4149 265.316 36.3798C275.316 36.1514 285.504 42.8346 289.517 52.2482C291.709 57.3597 291.87 62.6592 290.018 67.1326C289.176 69.1344 287.938 70.9458 286.379 72.4583C284.819 73.9708 282.97 75.1533 280.943 75.935C278.711 76.805 276.34 77.2669 273.945 77.2985L273.477 77.3052ZM265.794 37.0447H265.326C263.015 37.0779 260.728 37.5237 258.574 38.3612C256.629 39.1112 254.855 40.2454 253.358 41.6961C251.862 43.1468 250.674 44.8842 249.865 46.8042C248.07 51.1198 248.245 56.2077 250.359 61.1614C254.278 70.3332 264.204 76.8384 273.934 76.61C276.249 76.5802 278.54 76.1355 280.697 75.2969C282.641 74.5475 284.413 73.4142 285.907 71.9646C287.402 70.515 288.589 68.7791 289.396 66.8606C291.194 62.5417 291.016 57.4571 288.899 52.4967C285.043 43.4861 275.383 37.0447 265.794 37.0447Z" fill="#111111"/>
</g>
</g>
</g>
<defs>
<linearGradient id="paint0_linear_40000788_5758" x1="108.123" y1="180.901" x2="146.728" y2="406.77" gradientUnits="userSpaceOnUse">
<stop offset="0.576" stop-color="#0E38A3"/>
<stop offset="1" stop-color="#111111"/>
</linearGradient>
<clipPath id="clip0_40000788_5758">
<rect width="452" height="400" fill="white"/>
</clipPath>
</defs>
</svg>
