<?xml version="1.0" encoding="UTF-8"?> <svg xmlns="http://www.w3.org/2000/svg" viewBox="0 0 1500 500" fill="none" role="img"><title>Нужна экспертная</title><rect width="1500" height="500" rx="32" fill="#F7F5F2"></rect><circle cx="1320" cy="75" r="60" fill="#2F7D46" opacity="0.08"></circle><path d="M0 400C330 345, 540 440, 854 385 S1290 315, 1500 360V500H0Z" fill="#2F7D46" opacity="0.06"></path><g opacity="0.9"><path d="M0 390H1500" stroke="#D8DEE8" stroke-width="2"></path><rect x="869" y="140" width="180" height="240" rx="4" fill="none" stroke="#D8DEE8" stroke-width="3"></rect><rect x="1050" y="90" width="195" height="290" rx="4" fill="none" stroke="#D8DEE8" stroke-width="3"></rect><rect x="1260" y="180" width="120" height="200" rx="4" fill="none" stroke="#D8DEE8" stroke-width="3"></rect><path d="M900 190h120M900 245h120M900 300h120" stroke="#D8DEE8" stroke-width="2"></path><path d="M1095 150h105M1095 200h105M1095 250h105M1095 300h105" stroke="#D8DEE8" stroke-width="2"></path><path d="M1305 230h60M1305 280h60" stroke="#D8DEE8" stroke-width="2"></path></g><text x="120" y="170" font-family="Georgia, serif" font-size="40" font-weight="700" fill="#10233F">Нужна экспертная</text><text x="120" y="210" font-family="Arial, sans-serif" font-size="16" fill="#10233F" opacity="0.86">консультация?</text><g transform="translate(120,250)"><path d="M0 10h8M22 10h8M44 10h8" stroke="#2F7D46" stroke-width="3" opacity="0"></path><text x="0" y="0" font-family="Arial, sans-serif" font-size="14" fill="#10233F" opacity="0.88"></text><text x="0" y="0" font-family="Arial, sans-serif" font-size="14" fill="#10233F" opacity="0.88"></text></g><g><rect x="120" y="290" width="360" height="50" rx="25" fill="#2F7D46"></rect><text x="300" y="322" text-anchor="middle" font-family="Arial, sans-serif" font-size="14" font-weight="700" fill="#FFFFFF">Получить консультацию</text></g></svg> 