<svg width="1446" height="135" viewBox="0 12.5 1446 135" fill="none" xmlns="http://www.w3.org/2000/svg">
<path d="M0 41.4286C0 25.4518 12.9518 12.5 28.9286 12.5H106.071C122.048 12.5 135 25.4518 135 41.4286V118.571C135 134.548 122.048 147.5 106.071 147.5H28.9286C12.9518 147.5 0 134.548 0 118.571V41.4286Z" fill="#1145C9"/>
<path fill-rule="evenodd" clip-rule="evenodd" d="M90.419 118.568H68.7037C66.3524 118.568 64.4439 116.645 64.4439 114.277C64.4439 111.91 66.3524 109.987 68.7037 109.987H82.8885C85.1022 109.834 86.8532 107.975 86.8532 105.707C86.8532 103.339 84.9444 101.417 82.593 101.417L60.3966 101.416C58.0487 101.416 56.1424 99.4967 56.1424 97.132C56.1424 94.7673 58.0487 92.8471 60.3966 92.8471H63.076L63.0704 92.8418H67.0539C69.4007 92.8418 71.3062 90.9231 71.3062 88.5596C71.3062 86.196 69.4007 84.2773 67.0539 84.2773H57.0348V84.2735H36.0247C33.6779 84.2735 31.7724 82.3545 31.7724 79.9905C31.7724 77.627 33.6779 75.7075 36.0247 75.7075H57.0348V75.6958H65.2612C67.6058 75.6958 69.5095 73.7786 69.5095 71.417C69.5095 69.0553 67.6058 67.1381 65.2612 67.1381L54.6501 67.1374C52.3022 67.1374 50.3963 65.2175 50.3963 62.8532C50.3963 60.4882 52.3022 58.5683 54.6501 58.5683H74.8233C74.9241 58.5683 75.0235 58.5717 75.1221 58.5785H82.3332C84.6838 58.5785 86.5927 56.6564 86.5927 54.2883C86.5927 51.9206 84.6838 49.9985 82.3332 49.9985H71.7333C69.5271 49.8373 67.7851 47.9816 67.7851 45.7193C67.7851 43.3512 69.6936 41.4287 72.0449 41.4287H88.7423C88.7606 41.4287 88.7786 41.4287 88.7985 41.4291H108.486L73.9898 79.3701L115.714 118.572H90.5319L90.5259 118.566C90.4907 118.567 90.455 118.568 90.419 118.568ZM49.5455 109.987C51.8886 109.987 53.7907 111.902 53.7907 114.262C53.7907 116.622 51.8886 118.537 49.5455 118.537H33.9681C31.6254 118.537 29.7233 116.622 29.7233 114.262C29.7233 111.902 31.6254 109.987 33.9681 109.987H49.5455ZM43.3787 92.8471C45.7285 92.8471 47.6362 94.7685 47.6362 97.1354C47.6362 99.5016 45.7285 101.423 43.3787 101.423C41.0285 101.423 39.1207 99.5016 39.1207 97.1354C39.1207 94.7685 41.0285 92.8471 43.3787 92.8471ZM21.1324 75.7075C23.4826 75.7075 25.3903 77.6289 25.3903 79.9958C25.3903 82.3624 23.4826 84.2837 21.1324 84.2837C18.7825 84.2837 16.8748 82.3624 16.8748 79.9958C16.8748 77.6289 18.7825 75.7075 21.1324 75.7075ZM37.6325 58.5683C39.9823 58.5683 41.8905 60.4897 41.8905 62.8566C41.8905 65.2232 39.9823 67.1442 37.6325 67.1442C35.2827 67.1442 33.3746 65.2232 33.3746 62.8566C33.3746 60.4897 35.2827 58.5683 37.6325 58.5683ZM52.9017 41.4287C55.2448 41.4287 57.1465 43.3444 57.1465 45.7038C57.1465 48.0636 55.2448 49.9793 52.9017 49.9793H43.0551C40.7124 49.9793 38.8102 48.0636 38.8102 45.7038C38.8102 43.3444 40.712 41.4287 43.0551 41.4287H52.9017Z" fill="#FEFBF2"/>
<path d="M173.33 124V36.5947H186.625V78.3277L223.434 36.5947H239.561L206.076 74.7577L241.777 124H226.142L197.212 84.1137L186.625 95.932V124H173.33Z" fill="#1E1004"/>
<path d="M264.875 125.477C258.063 125.477 252.605 123.918 248.501 120.799C244.48 117.681 242.469 113.29 242.469 107.627C242.469 101.964 244.152 97.5734 247.517 94.4547C250.964 91.2539 256.257 88.9559 263.397 87.5607L285.926 83.252C285.926 78.1636 284.736 74.3883 282.356 71.9262C279.976 69.382 276.447 68.1099 271.768 68.1099C267.583 68.1099 264.3 69.0537 261.92 70.9414C259.54 72.7469 257.899 75.4553 256.996 79.0664L243.577 78.2046C244.808 71.639 247.845 66.4685 252.687 62.6932C257.611 58.918 263.972 57.0303 271.768 57.0303C280.632 57.0303 287.362 59.4104 291.958 64.1705C296.636 68.8486 298.975 75.4553 298.975 83.9906V124H287.403L286.911 109.474L288.142 109.966C287.567 113.003 286.172 115.67 283.956 117.968C281.74 120.266 278.95 122.113 275.585 123.508C272.302 124.821 268.732 125.477 264.875 125.477ZM266.967 115.137C270.907 115.137 274.272 114.398 277.062 112.921C279.852 111.361 282.027 109.227 283.587 106.519C285.146 103.811 285.926 100.733 285.926 97.2861V93.1005L266.721 96.7937C262.782 97.5323 259.991 98.7224 258.35 100.364C256.791 101.923 256.011 103.934 256.011 106.396C256.011 109.186 256.955 111.361 258.842 112.921C260.812 114.398 263.52 115.137 266.967 115.137Z" fill="#1E1004"/>
<path d="M335.608 125.477C330.027 125.477 325.144 124.082 320.958 121.292C316.855 118.501 313.695 114.562 311.479 109.474C309.345 104.303 308.278 98.2299 308.278 91.2539C308.278 84.2779 309.386 78.2457 311.602 73.1573C313.818 67.9868 316.978 64.0064 321.081 61.216C325.185 58.4256 330.027 57.0303 335.608 57.0303C340.122 57.0303 344.143 57.9742 347.672 59.8618C351.201 61.7494 353.869 64.3757 355.674 67.7406V36.5947H368.723V124H356.536L356.167 114.152C354.361 117.681 351.612 120.471 347.918 122.523C344.307 124.493 340.204 125.477 335.608 125.477ZM339.055 114.152C342.584 114.152 345.579 113.249 348.042 111.443C350.504 109.638 352.391 107.012 353.704 103.565C355.018 100.118 355.674 96.014 355.674 91.2539C355.674 86.3297 355.018 82.1851 353.704 78.8202C352.391 75.3732 350.504 72.788 348.042 71.0645C345.579 69.2589 342.584 68.3561 339.055 68.3561C333.802 68.3561 329.617 70.4079 326.498 74.5115C323.379 78.5329 321.82 84.1137 321.82 91.2539C321.82 98.312 323.379 103.893 326.498 107.996C329.617 112.1 333.802 114.152 339.055 114.152Z" fill="#1E1004"/>
<path d="M409.303 125.477C402.902 125.477 397.362 124.082 392.684 121.292C388.088 118.501 384.518 114.521 381.974 109.351C379.512 104.18 378.28 98.1479 378.28 91.2539C378.28 84.36 379.512 78.3688 381.974 73.2804C384.518 68.1099 388.088 64.1295 392.684 61.3391C397.28 58.4666 402.697 57.0303 408.934 57.0303C414.843 57.0303 420.055 58.4256 424.568 61.216C429.082 63.9243 432.57 67.8637 435.032 73.0342C437.577 78.2046 438.849 84.442 438.849 91.7463V95.0702H391.822C392.15 101.472 393.833 106.273 396.87 109.474C399.988 112.674 404.174 114.275 409.426 114.275C413.284 114.275 416.484 113.372 419.029 111.566C421.573 109.761 423.337 107.34 424.322 104.303L437.864 105.165C436.14 111.238 432.734 116.162 427.646 119.938C422.64 123.631 416.525 125.477 409.303 125.477ZM391.822 85.2217H425.061C424.651 79.3947 422.968 75.0859 420.014 72.2955C417.141 69.5051 413.448 68.1099 408.934 68.1099C404.256 68.1099 400.399 69.5872 397.362 72.5417C394.407 75.4142 392.561 79.6409 391.822 85.2217Z" fill="#1E1004"/>
<path d="M448.378 124V58.5076H460.319L460.812 75.9887L459.211 75.127C459.95 70.8593 461.345 67.4123 463.397 64.786C465.449 62.1598 467.952 60.2311 470.906 59.0001C473.861 57.6869 477.062 57.0303 480.509 57.0303C485.433 57.0303 489.495 58.1383 492.696 60.3542C495.979 62.4881 498.441 65.4426 500.083 69.2179C501.806 72.9111 502.668 77.1377 502.668 81.8978V124H489.619V85.8372C489.619 81.9799 489.208 78.7381 488.388 76.1118C487.567 73.4856 486.213 71.4748 484.325 70.0796C482.437 68.6844 479.975 67.9868 476.939 67.9868C472.343 67.9868 468.608 69.5051 465.736 72.5417C462.863 75.5784 461.427 80.0102 461.427 85.8372V124H448.378Z" fill="#1E1004"/>
<path d="M542.936 125.477C536.699 125.477 531.241 124.082 526.563 121.292C521.885 118.501 518.274 114.521 515.73 109.351C513.185 104.18 511.913 98.1479 511.913 91.2539C511.913 84.36 513.185 78.3688 515.73 73.2804C518.274 68.1099 521.885 64.1295 526.563 61.3391C531.241 58.4666 536.699 57.0303 542.936 57.0303C548.271 57.0303 552.99 57.9742 557.093 59.8618C561.279 61.6674 564.644 64.3347 567.188 67.8637C569.814 71.3928 571.497 75.7015 572.235 80.7899L558.571 81.5285C557.914 77.2608 556.191 74.019 553.4 71.8031C550.61 69.5051 547.122 68.3561 542.936 68.3561C537.437 68.3561 533.129 70.4079 530.01 74.5115C526.973 78.5329 525.455 84.1137 525.455 91.2539C525.455 98.3941 526.973 104.016 530.01 108.119C533.129 112.141 537.437 114.152 542.936 114.152C547.122 114.152 550.61 113.003 553.4 110.705C556.191 108.325 557.914 104.755 558.571 99.9945L572.235 100.733C571.497 105.739 569.814 110.089 567.188 113.782C564.644 117.476 561.279 120.348 557.093 122.4C552.99 124.452 548.271 125.477 542.936 125.477Z" fill="#1E1004"/>
<path d="M607.408 125.477C601.007 125.477 595.467 124.082 590.789 121.292C586.193 118.501 582.623 114.521 580.079 109.351C577.617 104.18 576.385 98.1479 576.385 91.2539C576.385 84.36 577.617 78.3688 580.079 73.2804C582.623 68.1099 586.193 64.1295 590.789 61.3391C595.385 58.4666 600.802 57.0303 607.039 57.0303C612.948 57.0303 618.16 58.4256 622.673 61.216C627.187 63.9243 630.675 67.8637 633.137 73.0342C635.682 78.2046 636.954 84.442 636.954 91.7463V95.0702H589.927C590.255 101.472 591.938 106.273 594.975 109.474C598.093 112.674 602.279 114.275 607.531 114.275C611.389 114.275 614.589 113.372 617.134 111.566C619.678 109.761 621.442 107.34 622.427 104.303L635.969 105.165C634.245 111.238 630.84 116.162 625.751 119.938C620.745 123.631 614.63 125.477 607.408 125.477ZM589.927 85.2217H623.166C622.756 79.3947 621.073 75.0859 618.119 72.2955C615.246 69.5051 611.553 68.1099 607.039 68.1099C602.361 68.1099 598.504 69.5872 595.467 72.5417C592.512 75.4142 590.666 79.6409 589.927 85.2217Z" fill="#1E1004"/>
<path d="M706.796 125.97C699.82 125.97 693.747 124.698 688.577 122.154C683.488 119.609 679.467 116.08 676.512 111.566C673.558 107.053 671.834 101.8 671.342 95.8088L685.007 94.9471C685.581 99.0506 686.771 102.539 688.577 105.411C690.382 108.202 692.803 110.335 695.84 111.813C698.959 113.208 702.693 113.905 707.043 113.905C710.818 113.905 714.019 113.454 716.645 112.551C719.353 111.566 721.405 110.13 722.8 108.243C724.195 106.355 724.893 104.057 724.893 101.349C724.893 98.8865 724.278 96.7116 723.047 94.824C721.898 92.8543 719.641 91.0898 716.276 89.5304C712.993 87.889 708.151 86.2886 701.749 84.7293C694.773 83.0058 689.192 81.1182 685.007 79.0664C680.821 77.0146 677.784 74.4704 675.897 71.4338C674.091 68.3151 673.188 64.4988 673.188 59.9849C673.188 54.9786 674.378 50.5878 676.758 46.8125C679.221 42.9552 682.709 39.9596 687.223 37.8258C691.736 35.6919 697.153 34.625 703.473 34.625C710.12 34.625 715.783 35.8561 720.461 38.3182C725.221 40.7803 728.956 44.1452 731.664 48.4129C734.454 52.6806 736.178 57.5638 736.834 63.0626L723.17 63.8012C722.759 60.4363 721.733 57.4817 720.092 54.9375C718.451 52.3113 716.235 50.3005 713.444 48.9053C710.654 47.4281 707.248 46.6894 703.226 46.6894C698.138 46.6894 694.116 47.8794 691.162 50.2595C688.289 52.5575 686.853 55.6351 686.853 59.4925C686.853 61.9546 687.428 64.0474 688.577 65.7709C689.808 67.4123 691.942 68.8486 694.978 70.0796C698.097 71.3107 702.488 72.6238 708.151 74.019C715.701 75.7425 721.692 77.8764 726.124 80.4206C730.638 82.8827 733.839 85.7962 735.726 89.1611C737.614 92.526 738.558 96.3423 738.558 100.61C738.558 105.78 737.204 110.294 734.495 114.152C731.869 117.927 728.176 120.84 723.416 122.892C718.656 124.944 713.116 125.97 706.796 125.97Z" fill="#1E1004"/>
<path d="M779.185 125.477C772.783 125.477 767.244 124.082 762.566 121.292C757.97 118.501 754.399 114.521 751.855 109.351C749.393 104.18 748.162 98.1479 748.162 91.2539C748.162 84.36 749.393 78.3688 751.855 73.2804C754.399 68.1099 757.97 64.1295 762.566 61.3391C767.161 58.4666 772.578 57.0303 778.816 57.0303C784.725 57.0303 789.936 58.4256 794.45 61.216C798.964 63.9243 802.452 67.8637 804.914 73.0342C807.458 78.2046 808.73 84.442 808.73 91.7463V95.0702H761.704C762.032 101.472 763.715 106.273 766.751 109.474C769.87 112.674 774.055 114.275 779.308 114.275C783.165 114.275 786.366 113.372 788.91 111.566C791.455 109.761 793.219 107.34 794.204 104.303L807.746 105.165C806.022 111.238 802.616 116.162 797.528 119.938C792.521 123.631 786.407 125.477 779.185 125.477ZM761.704 85.2217H794.943C794.532 79.3947 792.85 75.0859 789.895 72.2955C787.023 69.5051 783.33 68.1099 778.816 68.1099C774.138 68.1099 770.28 69.5872 767.244 72.5417C764.289 75.4142 762.442 79.6409 761.704 85.2217Z" fill="#1E1004"/>
<path d="M845.22 125.477C838.983 125.477 833.525 124.082 828.847 121.292C824.169 118.501 820.558 114.521 818.013 109.351C815.469 104.18 814.197 98.1479 814.197 91.2539C814.197 84.36 815.469 78.3688 818.013 73.2804C820.558 68.1099 824.169 64.1295 828.847 61.3391C833.525 58.4666 838.983 57.0303 845.22 57.0303C850.555 57.0303 855.274 57.9742 859.377 59.8618C863.563 61.6674 866.928 64.3347 869.472 67.8637C872.098 71.3928 873.781 75.7015 874.519 80.7899L860.854 81.5285C860.198 77.2608 858.474 74.019 855.684 71.8031C852.893 69.5051 849.406 68.3561 845.22 68.3561C839.721 68.3561 835.412 70.4079 832.294 74.5115C829.257 78.5329 827.739 84.1137 827.739 91.2539C827.739 98.3941 829.257 104.016 832.294 108.119C835.412 112.141 839.721 114.152 845.22 114.152C849.406 114.152 852.893 113.003 855.684 110.705C858.474 108.325 860.198 104.755 860.854 99.9945L874.519 100.733C873.781 105.739 872.098 110.089 869.472 113.782C866.928 117.476 863.563 120.348 859.377 122.4C855.274 124.452 850.555 125.477 845.22 125.477Z" fill="#1E1004"/>
<path d="M904.275 125.477C897.71 125.477 892.457 123.303 888.518 118.953C884.66 114.521 882.732 108.407 882.732 100.61V58.5076H895.781V97.2861C895.781 103.195 896.807 107.545 898.859 110.335C900.91 113.126 904.029 114.521 908.215 114.521C912.975 114.521 916.668 113.003 919.294 109.966C922.003 106.847 923.357 102.498 923.357 96.9168V58.5076H936.406V124H924.219L923.972 106.888L925.819 107.627C924.67 113.372 922.249 117.804 918.556 120.923C914.863 123.959 910.102 125.477 904.275 125.477Z" fill="#1E1004"/>
<path d="M951.171 124V58.5076H963.112L963.605 75.8656L962.497 75.4963C963.4 69.5872 965.205 65.2785 967.914 62.5701C970.704 59.8618 974.438 58.5076 979.116 58.5076H985.395V70.2027H979.116C975.833 70.2027 973.084 70.7362 970.868 71.8031C968.652 72.87 966.97 74.5115 965.821 76.7274C964.754 78.9433 964.22 81.8158 964.22 85.3448V124H951.171Z" fill="#1E1004"/>
<path d="M992.441 124V58.5076H1005.49V124H992.441ZM992.194 49.0284V35.9792H1005.74V49.0284H992.194Z" fill="#1E1004"/>
<path d="M1040.91 124C1034.67 124 1030.08 122.564 1027.12 119.691C1024.17 116.819 1022.69 112.346 1022.69 106.273V43.1193H1035.74V105.288C1035.74 108.325 1036.4 110.417 1037.71 111.566C1039.02 112.715 1041.03 113.29 1043.74 113.29H1053.1V124H1040.91ZM1012.72 69.2179V58.5076H1053.1V69.2179H1012.72Z" fill="#1E1004"/>
<path d="M1064.97 142.466V131.756H1072.97C1075.19 131.756 1076.83 131.428 1077.89 130.771C1078.96 130.114 1079.78 129.007 1080.36 127.447L1082.45 122.03H1078.39L1054.75 58.5076H1068.54L1086.51 109.966L1103.62 58.5076H1117.53L1091.44 131.633C1090.12 135.408 1088.15 138.157 1085.53 139.881C1082.98 141.604 1079.41 142.466 1074.82 142.466H1064.97Z" fill="#1E1004"/>
<path d="M1153.22 124V36.5947H1184.61C1195.12 36.5947 1203.04 38.4823 1208.37 42.2576C1213.71 46.0329 1216.38 52.024 1216.38 60.2311C1216.38 63.9243 1215.6 67.1661 1214.04 69.9565C1212.48 72.7469 1210.18 74.9628 1207.14 76.6043C1204.19 78.1636 1200.66 78.9843 1196.56 79.0664L1196.43 78.574C1203.9 78.7381 1209.69 80.7899 1213.79 84.7293C1217.98 88.5866 1220.07 93.675 1220.07 99.9945C1220.07 107.955 1217.4 113.947 1212.07 117.968C1206.73 121.989 1199.14 124 1189.29 124H1153.22ZM1166.52 112.059H1188.92C1194.42 112.059 1198.69 110.951 1201.73 108.735C1204.84 106.437 1206.4 103.113 1206.4 98.7634C1206.4 94.4957 1204.84 91.1718 1201.73 88.7918C1198.69 86.4117 1194.42 85.2217 1188.92 85.2217H1166.52V112.059ZM1166.52 73.8959H1184.37C1190.2 73.8959 1194.71 72.788 1197.91 70.572C1201.11 68.3561 1202.71 65.2374 1202.71 61.216C1202.71 56.9483 1201.15 53.7886 1198.03 51.7368C1195 49.6029 1190.44 48.536 1184.37 48.536H1166.52V73.8959Z" fill="#1E1004"/>
<path d="M1249.7 125.477C1242.88 125.477 1237.43 123.918 1233.32 120.799C1229.3 117.681 1227.29 113.29 1227.29 107.627C1227.29 101.964 1228.97 97.5734 1232.34 94.4547C1235.79 91.2539 1241.08 88.9559 1248.22 87.5607L1270.75 83.252C1270.75 78.1636 1269.56 74.3883 1267.18 71.9262C1264.8 69.382 1261.27 68.1099 1256.59 68.1099C1252.4 68.1099 1249.12 69.0537 1246.74 70.9414C1244.36 72.7469 1242.72 75.4553 1241.82 79.0664L1228.4 78.2046C1229.63 71.639 1232.67 66.4685 1237.51 62.6932C1242.43 58.918 1248.79 57.0303 1256.59 57.0303C1265.45 57.0303 1272.18 59.4104 1276.78 64.1705C1281.46 68.8486 1283.8 75.4553 1283.8 83.9906V124H1272.22L1271.73 109.474L1272.96 109.966C1272.39 113.003 1270.99 115.67 1268.78 117.968C1266.56 120.266 1263.77 122.113 1260.41 123.508C1257.12 124.821 1253.55 125.477 1249.7 125.477ZM1251.79 115.137C1255.73 115.137 1259.09 114.398 1261.88 112.921C1264.67 111.361 1266.85 109.227 1268.41 106.519C1269.97 103.811 1270.75 100.733 1270.75 97.2861V93.1005L1251.54 96.7937C1247.6 97.5323 1244.81 98.7224 1243.17 100.364C1241.61 101.923 1240.83 103.934 1240.83 106.396C1240.83 109.186 1241.78 111.361 1243.66 112.921C1245.63 114.398 1248.34 115.137 1251.79 115.137Z" fill="#1E1004"/>
<path d="M1322.4 125.477C1316.24 125.477 1311.03 124.534 1306.76 122.646C1302.58 120.758 1299.34 118.173 1297.04 114.89C1294.74 111.525 1293.43 107.668 1293.1 103.318L1306.52 102.703C1307.18 106.314 1308.73 109.186 1311.2 111.32C1313.66 113.454 1317.39 114.521 1322.4 114.521C1326.5 114.521 1329.74 113.864 1332.12 112.551C1334.5 111.238 1335.69 109.145 1335.69 106.273C1335.69 104.714 1335.28 103.4 1334.46 102.333C1333.72 101.184 1332.25 100.241 1330.03 99.502C1327.82 98.6813 1324.53 97.9017 1320.18 97.163C1313.7 95.932 1308.61 94.4957 1304.92 92.8543C1301.22 91.2129 1298.6 89.1201 1297.04 86.5759C1295.48 84.0317 1294.7 80.954 1294.7 77.3429C1294.7 71.3517 1296.92 66.4685 1301.35 62.6932C1305.86 58.918 1312.35 57.0303 1320.8 57.0303C1326.46 57.0303 1331.22 58.0152 1335.08 59.9849C1338.94 61.8725 1341.93 64.4578 1344.07 67.7406C1346.28 70.9414 1347.68 74.5525 1348.25 78.574L1334.83 79.3126C1334.42 77.0146 1333.6 75.0449 1332.37 73.4035C1331.22 71.68 1329.66 70.3669 1327.69 69.4641C1325.72 68.4792 1323.38 67.9868 1320.68 67.9868C1316.49 67.9868 1313.37 68.8075 1311.32 70.4489C1309.27 72.0904 1308.24 74.2242 1308.24 76.8505C1308.24 78.8202 1308.69 80.4206 1309.6 81.6516C1310.58 82.8827 1312.14 83.9086 1314.27 84.7293C1316.41 85.4679 1319.24 86.1245 1322.77 86.699C1329.58 87.848 1334.92 89.2842 1338.77 91.0077C1342.63 92.6491 1345.34 94.7009 1346.9 97.163C1348.46 99.6251 1349.24 102.621 1349.24 106.15C1349.24 110.253 1348.09 113.741 1345.79 116.614C1343.49 119.486 1340.33 121.702 1336.31 123.262C1332.29 124.739 1327.65 125.477 1322.4 125.477Z" fill="#1E1004"/>
<path d="M1358.75 124V58.5076H1371.8V124H1358.75ZM1358.5 49.0284V35.9792H1372.04V49.0284H1358.5Z" fill="#1E1004"/>
<path d="M1412.31 125.477C1406.07 125.477 1400.62 124.082 1395.94 121.292C1391.26 118.501 1387.65 114.521 1385.11 109.351C1382.56 104.18 1381.29 98.1479 1381.29 91.2539C1381.29 84.36 1382.56 78.3688 1385.11 73.2804C1387.65 68.1099 1391.26 64.1295 1395.94 61.3391C1400.62 58.4666 1406.07 57.0303 1412.31 57.0303C1417.65 57.0303 1422.37 57.9742 1426.47 59.8618C1430.65 61.6674 1434.02 64.3347 1436.56 67.8637C1439.19 71.3928 1440.87 75.7015 1441.61 80.7899L1427.95 81.5285C1427.29 77.2608 1425.57 74.019 1422.78 71.8031C1419.99 69.5051 1416.5 68.3561 1412.31 68.3561C1406.81 68.3561 1402.5 70.4079 1399.39 74.5115C1396.35 78.5329 1394.83 84.1137 1394.83 91.2539C1394.83 98.3941 1396.35 104.016 1399.39 108.119C1402.5 112.141 1406.81 114.152 1412.31 114.152C1416.5 114.152 1419.99 113.003 1422.78 110.705C1425.57 108.325 1427.29 104.755 1427.95 99.9945L1441.61 100.733C1440.87 105.739 1439.19 110.089 1436.56 113.782C1434.02 117.476 1430.65 120.348 1426.47 122.4C1422.37 124.452 1417.65 125.477 1412.31 125.477Z" fill="#1E1004"/>
</svg>
