<svg width="1329" height="135" viewBox="0 12.5 1329 135" fill="none" xmlns="http://www.w3.org/2000/svg">
<path d="M0 41.4286C0 25.4518 12.9518 12.5 28.9286 12.5H106.071C122.048 12.5 135 25.4518 135 41.4286V118.571C135 134.548 122.048 147.5 106.071 147.5H28.9286C12.9518 147.5 0 134.548 0 118.571V41.4286Z" fill="#1145C9"/>
<path fill-rule="evenodd" clip-rule="evenodd" d="M90.419 118.568H68.7037C66.3524 118.568 64.4439 116.645 64.4439 114.277C64.4439 111.91 66.3524 109.987 68.7037 109.987H82.8885C85.1022 109.834 86.8532 107.975 86.8532 105.707C86.8532 103.339 84.9444 101.417 82.593 101.417L60.3966 101.416C58.0487 101.416 56.1424 99.4967 56.1424 97.132C56.1424 94.7673 58.0487 92.8471 60.3966 92.8471H63.076L63.0704 92.8418H67.0539C69.4007 92.8418 71.3062 90.9231 71.3062 88.5596C71.3062 86.196 69.4007 84.2773 67.0539 84.2773H57.0348V84.2735H36.0247C33.6779 84.2735 31.7724 82.3545 31.7724 79.9905C31.7724 77.627 33.6779 75.7075 36.0247 75.7075H57.0348V75.6958H65.2612C67.6058 75.6958 69.5095 73.7786 69.5095 71.417C69.5095 69.0553 67.6058 67.1381 65.2612 67.1381L54.6501 67.1374C52.3022 67.1374 50.3963 65.2175 50.3963 62.8532C50.3963 60.4882 52.3022 58.5683 54.6501 58.5683H74.8233C74.9241 58.5683 75.0235 58.5717 75.1221 58.5785H82.3332C84.6838 58.5785 86.5927 56.6564 86.5927 54.2883C86.5927 51.9206 84.6838 49.9985 82.3332 49.9985H71.7333C69.5271 49.8373 67.7851 47.9816 67.7851 45.7193C67.7851 43.3512 69.6936 41.4287 72.0449 41.4287H88.7423C88.7606 41.4287 88.7786 41.4287 88.7985 41.4291H108.486L73.9898 79.3701L115.714 118.572H90.5319L90.5259 118.566C90.4907 118.567 90.455 118.568 90.419 118.568ZM49.5455 109.987C51.8886 109.987 53.7907 111.902 53.7907 114.262C53.7907 116.622 51.8886 118.537 49.5455 118.537H33.9681C31.6254 118.537 29.7233 116.622 29.7233 114.262C29.7233 111.902 31.6254 109.987 33.9681 109.987H49.5455ZM43.3787 92.8471C45.7285 92.8471 47.6362 94.7685 47.6362 97.1354C47.6362 99.5016 45.7285 101.423 43.3787 101.423C41.0285 101.423 39.1207 99.5016 39.1207 97.1354C39.1207 94.7685 41.0285 92.8471 43.3787 92.8471ZM21.1324 75.7075C23.4826 75.7075 25.3903 77.6289 25.3903 79.9958C25.3903 82.3624 23.4826 84.2837 21.1324 84.2837C18.7825 84.2837 16.8748 82.3624 16.8748 79.9958C16.8748 77.6289 18.7825 75.7075 21.1324 75.7075ZM37.6325 58.5683C39.9823 58.5683 41.8905 60.4897 41.8905 62.8566C41.8905 65.2232 39.9823 67.1442 37.6325 67.1442C35.2827 67.1442 33.3746 65.2232 33.3746 62.8566C33.3746 60.4897 35.2827 58.5683 37.6325 58.5683ZM52.9017 41.4287C55.2448 41.4287 57.1465 43.3444 57.1465 45.7038C57.1465 48.0636 55.2448 49.9793 52.9017 49.9793H43.0551C40.7124 49.9793 38.8102 48.0636 38.8102 45.7038C38.8102 43.3444 40.712 41.4287 43.0551 41.4287H52.9017Z" fill="#FEFBF2"/>
<path d="M173.25 123.999V36.7761H186.517V78.4221L223.249 36.7761H239.343L205.927 74.8595L241.554 123.999H225.952L197.082 84.196L186.517 95.9896V123.999H173.25Z" fill="#1E1004"/>
<path d="M264.603 125.473C257.806 125.473 252.359 123.917 248.264 120.805C244.251 117.693 242.245 113.311 242.245 107.66C242.245 102.009 243.924 97.6276 247.282 94.5154C250.721 91.3213 256.004 89.0281 263.129 87.6358L285.611 83.3361C285.611 78.2583 284.423 74.4909 282.048 72.0339C279.673 69.495 276.151 68.2256 271.483 68.2256C267.306 68.2256 264.03 69.1674 261.655 71.0511C259.28 72.8529 257.642 75.5556 256.741 79.1592L243.35 78.2993C244.579 71.7473 247.609 66.5876 252.441 62.8202C257.355 59.0528 263.703 57.1691 271.483 57.1691C280.328 57.1691 287.044 59.5442 291.63 64.2944C296.299 68.9627 298.633 75.5556 298.633 84.0732V123.999H287.085L286.594 109.503L287.822 109.994C287.249 113.025 285.856 115.686 283.645 117.98C281.434 120.273 278.649 122.116 275.291 123.508C272.015 124.818 268.453 125.473 264.603 125.473ZM266.692 115.154C270.623 115.154 273.981 114.417 276.766 112.943C279.55 111.387 281.72 109.257 283.277 106.555C284.833 103.852 285.611 100.781 285.611 97.3409V93.164L266.446 96.8495C262.515 97.5866 259.73 98.7742 258.092 100.412C256.536 101.968 255.758 103.975 255.758 106.432C255.758 109.216 256.7 111.387 258.584 112.943C260.549 114.417 263.252 115.154 266.692 115.154Z" fill="#1E1004"/>
<path d="M335.189 125.473C329.62 125.473 324.747 124.081 320.57 121.297C316.475 118.512 313.322 114.581 311.111 109.503C308.981 104.343 307.917 98.2828 307.917 91.3213C307.917 84.3598 309.022 78.3402 311.233 73.2624C313.445 68.1028 316.598 64.1306 320.693 61.346C324.788 58.5614 329.62 57.1691 335.189 57.1691C339.694 57.1691 343.707 58.111 347.228 59.9947C350.75 61.8784 353.412 64.4992 355.214 67.8571V36.7761H368.236V123.999H356.074L355.705 114.171C353.903 117.693 351.16 120.478 347.474 122.525C343.87 124.491 339.775 125.473 335.189 125.473ZM338.629 114.171C342.151 114.171 345.14 113.27 347.597 111.469C350.054 109.667 351.938 107.046 353.248 103.606C354.558 100.166 355.214 96.0715 355.214 91.3213C355.214 86.4073 354.558 82.2714 353.248 78.9135C351.938 75.4737 350.054 72.8939 347.597 71.174C345.14 69.3722 342.151 68.4713 338.629 68.4713C333.387 68.4713 329.21 70.5188 326.098 74.6138C322.986 78.6269 321.43 84.196 321.43 91.3213C321.43 98.3647 322.986 103.934 326.098 108.029C329.21 112.124 333.387 114.171 338.629 114.171Z" fill="#1E1004"/>
<path d="M408.731 125.473C402.343 125.473 396.814 124.081 392.146 121.297C387.56 118.512 383.997 114.54 381.458 109.38C379.001 104.221 377.773 98.2009 377.773 91.3213C377.773 84.4417 379.001 78.4631 381.458 73.3853C383.997 68.2256 387.56 64.2535 392.146 61.4689C396.733 58.6024 402.138 57.1691 408.362 57.1691C414.259 57.1691 419.46 58.5614 423.964 61.346C428.469 64.0487 431.949 67.9799 434.406 73.1396C436.945 78.2993 438.215 84.5236 438.215 91.8127V95.1296H391.286C391.614 101.518 393.293 106.309 396.323 109.503C399.435 112.697 403.612 114.294 408.854 114.294C412.703 114.294 415.897 113.393 418.436 111.591C420.975 109.79 422.736 107.374 423.718 104.343L437.232 105.203C435.512 111.264 432.113 116.178 427.035 119.945C422.04 123.631 415.938 125.473 408.731 125.473ZM391.286 85.3017H424.456C424.046 79.4868 422.367 75.1871 419.419 72.4025C416.552 69.6179 412.867 68.2256 408.362 68.2256C403.694 68.2256 399.845 69.6998 396.814 72.6482C393.866 75.5147 392.023 79.7325 391.286 85.3017Z" fill="#1E1004"/>
<path d="M447.724 123.999V58.6433H459.64L460.132 76.088L458.535 75.228C459.272 70.9692 460.664 67.5295 462.712 64.9087C464.759 62.2879 467.257 60.3632 470.206 59.1347C473.154 57.8243 476.348 57.1691 479.788 57.1691C484.702 57.1691 488.756 58.2748 491.95 60.4861C495.226 62.6155 497.683 65.5639 499.321 69.3312C501.041 73.0167 501.901 77.2346 501.901 81.9847V123.999H488.879V85.9159C488.879 82.0666 488.469 78.8316 487.65 76.2108C486.831 73.59 485.48 71.5835 483.596 70.1912C481.712 68.7989 479.255 68.1028 476.225 68.1028C471.639 68.1028 467.912 69.6179 465.046 72.6482C462.179 75.6785 460.746 80.1011 460.746 85.9159V123.999H447.724Z" fill="#1E1004"/>
<path d="M542.085 125.473C535.861 125.473 530.414 124.081 525.746 121.297C521.078 118.512 517.474 114.54 514.935 109.38C512.396 104.221 511.127 98.2009 511.127 91.3213C511.127 84.4417 512.396 78.4631 514.935 73.3853C517.474 68.2256 521.078 64.2535 525.746 61.4689C530.414 58.6024 535.861 57.1691 542.085 57.1691C547.408 57.1691 552.118 58.111 556.213 59.9947C560.389 61.7965 563.747 64.4582 566.286 67.9799C568.907 71.5016 570.586 75.8013 571.323 80.8791L557.687 81.6162C557.032 77.3574 555.312 74.1224 552.527 71.9111C549.743 69.6179 546.262 68.4713 542.085 68.4713C536.598 68.4713 532.298 70.5188 529.186 74.6138C526.155 78.6269 524.64 84.196 524.64 91.3213C524.64 98.4466 526.155 104.057 529.186 108.152C532.298 112.165 536.598 114.171 542.085 114.171C546.262 114.171 549.743 113.025 552.527 110.732C555.312 108.356 557.032 104.794 557.687 100.044L571.323 100.781C570.586 105.777 568.907 110.117 566.286 113.803C563.747 117.488 560.389 120.355 556.213 122.402C552.118 124.45 547.408 125.473 542.085 125.473Z" fill="#1E1004"/>
<path d="M606.423 125.473C600.034 125.473 594.506 124.081 589.838 121.297C585.251 118.512 581.689 114.54 579.15 109.38C576.693 104.221 575.464 98.2009 575.464 91.3213C575.464 84.4417 576.693 78.4631 579.15 73.3853C581.689 68.2256 585.251 64.2535 589.838 61.4689C594.424 58.6024 599.83 57.1691 606.054 57.1691C611.951 57.1691 617.151 58.5614 621.656 61.346C626.16 64.0487 629.641 67.9799 632.098 73.1396C634.637 78.2993 635.906 84.5236 635.906 91.8127V95.1296H588.978C589.306 101.518 590.984 106.309 594.015 109.503C597.127 112.697 601.304 114.294 606.545 114.294C610.395 114.294 613.589 113.393 616.128 111.591C618.667 109.79 620.427 107.374 621.41 104.343L634.924 105.203C633.204 111.264 629.805 116.178 624.727 119.945C619.731 123.631 613.63 125.473 606.423 125.473ZM588.978 85.3017H622.147C621.738 79.4868 620.059 75.1871 617.11 72.4025C614.244 69.6179 610.558 68.2256 606.054 68.2256C601.386 68.2256 597.536 69.6998 594.506 72.6482C591.558 75.5147 589.715 79.7325 588.978 85.3017Z" fill="#1E1004"/>
<path d="M705.603 125.965C698.642 125.965 692.581 124.695 687.422 122.157C682.344 119.618 678.331 116.096 675.382 111.591C672.434 107.087 670.714 101.845 670.223 95.8667L683.859 95.0068C684.432 99.1018 685.62 102.583 687.422 105.449C689.223 108.234 691.639 110.363 694.67 111.837C697.782 113.229 701.508 113.926 705.849 113.926C709.616 113.926 712.81 113.475 715.431 112.574C718.134 111.591 720.182 110.158 721.574 108.275C722.966 106.391 723.662 104.098 723.662 101.395C723.662 98.938 723.048 96.7676 721.819 94.8839C720.673 92.9184 718.421 91.1575 715.063 89.6014C711.787 87.9634 706.955 86.3664 700.567 84.8103C693.605 83.0904 688.036 81.2067 683.859 79.1592C679.682 77.1117 676.652 74.5728 674.768 71.5425C672.966 68.4304 672.065 64.622 672.065 60.1175C672.065 55.1217 673.253 50.74 675.628 46.9726C678.085 43.1234 681.566 40.134 686.07 38.0046C690.575 35.8752 695.98 34.8105 702.286 34.8105C708.92 34.8105 714.571 36.039 719.24 38.496C723.99 40.953 727.716 44.3109 730.419 48.5697C733.204 52.8285 734.923 57.7015 735.579 63.1888L721.942 63.9259C721.533 60.568 720.509 57.6196 718.871 55.0807C717.233 52.4599 715.022 50.4534 712.237 49.0611C709.453 47.5869 706.054 46.8498 702.041 46.8498C696.963 46.8498 692.95 48.0373 690.001 50.4124C687.135 52.7056 685.702 55.7769 685.702 59.6261C685.702 62.0831 686.275 64.1716 687.422 65.8915C688.65 67.5295 690.78 68.9627 693.81 70.1912C696.922 71.4197 701.304 72.7301 706.955 74.1224C714.49 75.8423 720.468 77.9717 724.891 80.5106C729.395 82.9675 732.589 85.875 734.473 89.2329C736.357 92.5908 737.299 96.3991 737.299 100.658C737.299 105.818 735.947 110.322 733.244 114.171C730.624 117.939 726.938 120.846 722.188 122.894C717.438 124.941 711.91 125.965 705.603 125.965Z" fill="#1E1004"/>
<path d="M777.841 125.473C771.453 125.473 765.924 124.081 761.256 121.297C756.67 118.512 753.107 114.54 750.568 109.38C748.111 104.221 746.883 98.2009 746.883 91.3213C746.883 84.4417 748.111 78.4631 750.568 73.3853C753.107 68.2256 756.67 64.2535 761.256 61.4689C765.842 58.6024 771.248 57.1691 777.472 57.1691C783.369 57.1691 788.57 58.5614 793.074 61.346C797.579 64.0487 801.059 67.9799 803.516 73.1396C806.055 78.2993 807.325 84.5236 807.325 91.8127V95.1296H760.396C760.724 101.518 762.403 106.309 765.433 109.503C768.545 112.697 772.722 114.294 777.964 114.294C781.813 114.294 785.007 113.393 787.546 111.591C790.085 109.79 791.846 107.374 792.828 104.343L806.342 105.203C804.622 111.264 801.223 116.178 796.145 119.945C791.149 123.631 785.048 125.473 777.841 125.473ZM760.396 85.3017H793.565C793.156 79.4868 791.477 75.1871 788.529 72.4025C785.662 69.6179 781.977 68.2256 777.472 68.2256C772.804 68.2256 768.955 69.6998 765.924 72.6482C762.976 75.5147 761.133 79.7325 760.396 85.3017Z" fill="#1E1004"/>
<path d="M843.738 125.473C837.514 125.473 832.067 124.081 827.399 121.297C822.731 118.512 819.127 114.54 816.588 109.38C814.049 104.221 812.78 98.2009 812.78 91.3213C812.78 84.4417 814.049 78.4631 816.588 73.3853C819.127 68.2256 822.731 64.2535 827.399 61.4689C832.067 58.6024 837.514 57.1691 843.738 57.1691C849.061 57.1691 853.771 58.111 857.866 59.9947C862.043 61.7965 865.4 64.4582 867.939 67.9799C870.56 71.5016 872.239 75.8013 872.976 80.8791L859.34 81.6162C858.685 77.3574 856.965 74.1224 854.18 71.9111C851.396 69.6179 847.915 68.4713 843.738 68.4713C838.251 68.4713 833.951 70.5188 830.839 74.6138C827.809 78.6269 826.293 84.196 826.293 91.3213C826.293 98.4466 827.809 104.057 830.839 108.152C833.951 112.165 838.251 114.171 843.738 114.171C847.915 114.171 851.396 113.025 854.18 110.732C856.965 108.356 858.685 104.794 859.34 100.044L872.976 100.781C872.239 105.777 870.56 110.117 867.939 113.803C865.4 117.488 862.043 120.355 857.866 122.402C853.771 124.45 849.061 125.473 843.738 125.473Z" fill="#1E1004"/>
<path d="M902.67 125.473C896.118 125.473 890.877 123.303 886.945 118.962C883.096 114.54 881.172 108.438 881.172 100.658V58.6433H894.194V97.3409C894.194 103.238 895.217 107.578 897.265 110.363C899.312 113.148 902.424 114.54 906.601 114.54C911.352 114.54 915.037 113.025 917.658 109.994C920.361 106.882 921.712 102.542 921.712 96.9724V58.6433H934.734V123.999H922.572L922.326 106.923L924.169 107.66C923.022 113.393 920.606 117.816 916.921 120.928C913.235 123.958 908.485 125.473 902.67 125.473Z" fill="#1E1004"/>
<path d="M949.468 123.999V58.6433H961.385L961.876 75.9651L960.77 75.5966C961.671 69.6998 963.473 65.4001 966.176 62.6974C968.96 59.9947 972.687 58.6433 977.355 58.6433H983.62V70.314H977.355C974.079 70.314 971.335 70.8464 969.124 71.9111C966.913 72.9758 965.234 74.6138 964.087 76.8251C963.023 79.0364 962.49 81.9028 962.49 85.4245V123.999H949.468Z" fill="#1E1004"/>
<path d="M990.652 123.999V58.6433H1003.67V123.999H990.652ZM990.406 49.1839V36.1619H1003.92V49.1839H990.406Z" fill="#1E1004"/>
<path d="M1039.02 123.999C1032.8 123.999 1028.21 122.566 1025.26 119.7C1022.31 116.833 1020.84 112.37 1020.84 106.309V43.2872H1033.86V105.326C1033.86 108.356 1034.52 110.445 1035.83 111.591C1037.14 112.738 1039.14 113.311 1041.85 113.311H1051.18V123.999H1039.02ZM1010.89 69.3312V58.6433H1051.18V69.3312H1010.89Z" fill="#1E1004"/>
<path d="M1063.03 142.427V131.739H1071.01C1073.22 131.739 1074.86 131.411 1075.93 130.756C1076.99 130.101 1077.81 128.995 1078.38 127.439L1080.47 122.034H1076.42L1052.83 58.6433H1066.59L1084.53 109.994L1101.6 58.6433H1115.48L1089.44 131.616C1088.13 135.383 1086.16 138.127 1083.54 139.847C1081 141.567 1077.44 142.427 1072.86 142.427H1063.03Z" fill="#1E1004"/>
<path d="M1151.1 123.999V36.7761H1183.65C1193.64 36.7761 1201.43 39.1922 1206.99 44.0243C1212.56 48.7744 1215.35 55.4083 1215.35 63.9259C1215.35 69.577 1214.08 74.4909 1211.54 78.6678C1209 82.7628 1205.36 85.9159 1200.61 88.1272C1195.94 90.2566 1190.29 91.3213 1183.65 91.3213H1164.37V123.999H1151.1ZM1164.37 79.2821H1183.28C1189.26 79.2821 1193.81 78.0126 1196.92 75.4737C1200.03 72.8529 1201.59 69.0037 1201.59 63.9259C1201.59 58.93 1200.03 55.2036 1196.92 52.7466C1193.81 50.2077 1189.26 48.9382 1183.28 48.9382H1164.37V79.2821Z" fill="#1E1004"/>
<path d="M1225.72 123.999V58.6433H1237.64L1238.13 75.9651L1237.02 75.5966C1237.92 69.6998 1239.73 65.4001 1242.43 62.6974C1245.21 59.9947 1248.94 58.6433 1253.61 58.6433H1259.87V70.314H1253.61C1250.33 70.314 1247.59 70.8464 1245.38 71.9111C1243.17 72.9758 1241.49 74.6138 1240.34 76.8251C1239.28 79.0364 1238.74 81.9028 1238.74 85.4245V123.999H1225.72Z" fill="#1E1004"/>
<path d="M1292.37 125.473C1286.14 125.473 1280.7 124.081 1276.03 121.297C1271.36 118.512 1267.76 114.54 1265.22 109.38C1262.68 104.221 1261.41 98.2009 1261.41 91.3213C1261.41 84.3598 1262.68 78.3402 1265.22 73.2624C1267.76 68.1847 1271.36 64.2535 1276.03 61.4689C1280.7 58.6024 1286.14 57.1691 1292.37 57.1691C1298.59 57.1691 1304.04 58.6024 1308.71 61.4689C1313.38 64.2535 1316.98 68.1847 1319.52 73.2624C1322.06 78.3402 1323.33 84.3598 1323.33 91.3213C1323.33 98.2009 1322.06 104.221 1319.52 109.38C1316.98 114.54 1313.38 118.512 1308.71 121.297C1304.04 124.081 1298.59 125.473 1292.37 125.473ZM1292.37 114.171C1297.94 114.171 1302.24 112.165 1305.27 108.152C1308.3 104.057 1309.81 98.4466 1309.81 91.3213C1309.81 84.196 1308.3 78.6269 1305.27 74.6138C1302.24 70.5188 1297.94 68.4713 1292.37 68.4713C1286.88 68.4713 1282.58 70.5188 1279.47 74.6138C1276.44 78.6269 1274.92 84.196 1274.92 91.3213C1274.92 98.4466 1276.44 104.057 1279.47 108.152C1282.58 112.165 1286.88 114.171 1292.37 114.171Z" fill="#1E1004"/>
</svg>
