<svg width="1122" height="135" viewBox="0 12.5 1122 135" fill="none" xmlns="http://www.w3.org/2000/svg">
<path d="M0 41.4286C0 25.4518 12.9518 12.5 28.9286 12.5H106.071C122.048 12.5 135 25.4518 135 41.4286V118.571C135 134.548 122.048 147.5 106.071 147.5H28.9286C12.9518 147.5 0 134.548 0 118.571V41.4286Z" fill="#1145C9"/>
<path fill-rule="evenodd" clip-rule="evenodd" d="M90.419 118.568H68.7037C66.3524 118.568 64.4439 116.645 64.4439 114.277C64.4439 111.91 66.3524 109.987 68.7037 109.987H82.8885C85.1022 109.834 86.8532 107.975 86.8532 105.707C86.8532 103.339 84.9444 101.417 82.593 101.417L60.3966 101.416C58.0487 101.416 56.1424 99.4967 56.1424 97.132C56.1424 94.7673 58.0487 92.8471 60.3966 92.8471H63.076L63.0704 92.8418H67.0539C69.4007 92.8418 71.3062 90.9231 71.3062 88.5596C71.3062 86.196 69.4007 84.2773 67.0539 84.2773H57.0348V84.2735H36.0247C33.6779 84.2735 31.7724 82.3545 31.7724 79.9905C31.7724 77.627 33.6779 75.7075 36.0247 75.7075H57.0348V75.6958H65.2612C67.6058 75.6958 69.5095 73.7786 69.5095 71.417C69.5095 69.0553 67.6058 67.1381 65.2612 67.1381L54.6501 67.1374C52.3022 67.1374 50.3963 65.2175 50.3963 62.8532C50.3963 60.4882 52.3022 58.5683 54.6501 58.5683H74.8233C74.9241 58.5683 75.0235 58.5717 75.1221 58.5785H82.3332C84.6838 58.5785 86.5927 56.6564 86.5927 54.2883C86.5927 51.9206 84.6838 49.9985 82.3332 49.9985H71.7333C69.5271 49.8373 67.7851 47.9816 67.7851 45.7193C67.7851 43.3512 69.6936 41.4287 72.0449 41.4287H88.7423C88.7606 41.4287 88.7786 41.4287 88.7985 41.4291H108.486L73.9898 79.3701L115.714 118.572H90.5319L90.5259 118.566C90.4907 118.567 90.455 118.568 90.419 118.568ZM49.5455 109.987C51.8886 109.987 53.7907 111.902 53.7907 114.262C53.7907 116.622 51.8886 118.537 49.5455 118.537H33.9681C31.6254 118.537 29.7233 116.622 29.7233 114.262C29.7233 111.902 31.6254 109.987 33.9681 109.987H49.5455ZM43.3787 92.8471C45.7285 92.8471 47.6362 94.7685 47.6362 97.1354C47.6362 99.5016 45.7285 101.423 43.3787 101.423C41.0285 101.423 39.1207 99.5016 39.1207 97.1354C39.1207 94.7685 41.0285 92.8471 43.3787 92.8471ZM21.1324 75.7075C23.4826 75.7075 25.3903 77.6289 25.3903 79.9958C25.3903 82.3624 23.4826 84.2837 21.1324 84.2837C18.7825 84.2837 16.8748 82.3624 16.8748 79.9958C16.8748 77.6289 18.7825 75.7075 21.1324 75.7075ZM37.6325 58.5683C39.9823 58.5683 41.8905 60.4897 41.8905 62.8566C41.8905 65.2232 39.9823 67.1442 37.6325 67.1442C35.2827 67.1442 33.3746 65.2232 33.3746 62.8566C33.3746 60.4897 35.2827 58.5683 37.6325 58.5683ZM52.9017 41.4287C55.2448 41.4287 57.1465 43.3444 57.1465 45.7038C57.1465 48.0636 55.2448 49.9793 52.9017 49.9793H43.0551C40.7124 49.9793 38.8102 48.0636 38.8102 45.7038C38.8102 43.3444 40.712 41.4287 43.0551 41.4287H52.9017Z" fill="#FEFBF2"/>
<path d="M173.37 124V36.503H186.679V78.2799L223.527 36.503H239.67L206.15 74.706L241.889 124H226.238L197.277 84.0719L186.679 95.9026V124H173.37Z" fill="#1E1004"/>
<path d="M265.011 125.479C258.192 125.479 252.728 123.918 248.62 120.796C244.595 117.674 242.582 113.279 242.582 107.61C242.582 101.941 244.266 97.5457 247.634 94.4237C251.085 91.2196 256.384 88.9192 263.532 87.5225L286.084 83.2093C286.084 78.1156 284.893 74.3363 282.51 71.8716C280.128 69.3248 276.595 68.0513 271.912 68.0513C267.722 68.0513 264.436 68.9961 262.053 70.8857C259.67 72.6932 258.027 75.4044 257.124 79.0193L243.691 78.1566C244.923 71.5841 247.963 66.4082 252.81 62.629C257.74 58.8497 264.107 56.9601 271.912 56.9601C280.785 56.9601 287.522 59.3427 292.122 64.1078C296.805 68.7907 299.147 75.4044 299.147 83.9487V124H287.563L287.07 109.458L288.302 109.951C287.727 112.991 286.33 115.661 284.112 117.962C281.894 120.262 279.101 122.111 275.732 123.507C272.446 124.822 268.872 125.479 265.011 125.479ZM267.106 115.127C271.049 115.127 274.418 114.388 277.211 112.909C280.004 111.348 282.181 109.212 283.742 106.501C285.303 103.79 286.084 100.709 286.084 97.2581V93.0681L266.859 96.7652C262.916 97.5046 260.122 98.6959 258.479 100.339C256.918 101.9 256.138 103.913 256.138 106.378C256.138 109.171 257.083 111.348 258.972 112.909C260.944 114.388 263.655 115.127 267.106 115.127Z" fill="#1E1004"/>
<path d="M335.818 125.479C330.231 125.479 325.343 124.082 321.153 121.289C317.045 118.496 313.882 114.552 311.664 109.458C309.528 104.283 308.46 98.203 308.46 91.2196C308.46 84.2363 309.569 78.1977 311.787 73.104C314.005 67.9281 317.169 63.9435 321.276 61.1501C325.384 58.3568 330.231 56.9601 335.818 56.9601C340.337 56.9601 344.362 57.9049 347.895 59.7945C351.428 61.6841 354.098 64.3132 355.906 67.6816V36.503H368.969V124H356.768L356.398 114.141C354.591 117.674 351.839 120.468 348.142 122.521C344.527 124.493 340.419 125.479 335.818 125.479ZM339.269 114.141C342.801 114.141 345.8 113.238 348.265 111.43C350.73 109.623 352.619 106.994 353.934 103.543C355.248 100.093 355.906 95.9847 355.906 91.2196C355.906 86.2902 355.248 82.1413 353.934 78.7728C352.619 75.3222 350.73 72.7343 348.265 71.009C345.8 69.2015 342.801 68.2978 339.269 68.2978C334.011 68.2978 329.821 70.3517 326.699 74.4596C323.577 78.4853 322.016 84.0719 322.016 91.2196C322.016 98.2851 323.577 103.872 326.699 107.98C329.821 112.087 334.011 114.141 339.269 114.141Z" fill="#1E1004"/>
<path d="M409.591 125.479C403.183 125.479 397.637 124.082 392.954 121.289C388.353 118.496 384.78 114.511 382.233 109.335C379.768 104.159 378.536 98.1208 378.536 91.2196C378.536 84.3184 379.768 78.3209 382.233 73.2272C384.78 68.0513 388.353 64.0667 392.954 61.2734C397.555 58.3979 402.977 56.9601 409.221 56.9601C415.137 56.9601 420.354 58.3568 424.872 61.1501C429.391 63.8613 432.883 67.8048 435.347 72.9807C437.894 78.1566 439.168 84.4006 439.168 91.7125V95.0399H392.092C392.42 101.448 394.104 106.254 397.144 109.458C400.266 112.663 404.456 114.265 409.714 114.265C413.576 114.265 416.78 113.361 419.327 111.553C421.873 109.746 423.64 107.322 424.626 104.283L438.182 105.145C436.456 111.225 433.047 116.154 427.953 119.933C422.942 123.631 416.821 125.479 409.591 125.479ZM392.092 85.1811H425.365C424.954 79.3479 423.27 75.0347 420.313 72.2413C417.437 69.448 413.74 68.0513 409.221 68.0513C404.538 68.0513 400.677 69.5301 397.637 72.4878C394.68 75.3633 392.831 79.5944 392.092 85.1811Z" fill="#1E1004"/>
<path d="M448.707 124V58.4389H460.661L461.154 75.9384L459.551 75.0757C460.291 70.8036 461.688 67.353 463.741 64.724C465.795 62.0949 468.301 60.1642 471.259 58.9319C474.216 57.6174 477.421 56.9601 480.871 56.9601C485.801 56.9601 489.867 58.0692 493.072 60.2875C496.358 62.4236 498.823 65.3812 500.466 69.1604C502.191 72.8575 503.054 77.0886 503.054 81.8537V124H489.991V85.7972C489.991 81.9359 489.58 78.6907 488.758 76.0616C487.937 73.4326 486.581 71.4198 484.692 70.0231C482.802 68.6264 480.337 67.9281 477.297 67.9281C472.697 67.9281 468.958 69.448 466.083 72.4878C463.207 75.5276 461.77 79.9641 461.77 85.7972V124H448.707Z" fill="#1E1004"/>
<path d="M543.364 125.479C537.12 125.479 531.657 124.082 526.974 121.289C522.291 118.496 518.676 114.511 516.129 109.335C513.582 104.159 512.309 98.1208 512.309 91.2196C512.309 84.3184 513.582 78.3209 516.129 73.2272C518.676 68.0513 522.291 64.0667 526.974 61.2734C531.657 58.3979 537.12 56.9601 543.364 56.9601C548.704 56.9601 553.428 57.9049 557.536 59.7945C561.726 61.602 565.095 64.2721 567.642 67.8048C570.271 71.3376 571.955 75.6508 572.694 80.7446L559.015 81.484C558.358 77.2118 556.633 73.9666 553.839 71.7484C551.046 69.448 547.554 68.2978 543.364 68.2978C537.86 68.2978 533.546 70.3517 530.424 74.4596C527.385 78.4853 525.865 84.0719 525.865 91.2196C525.865 98.3673 527.385 103.995 530.424 108.103C533.546 112.129 537.86 114.141 543.364 114.141C547.554 114.141 551.046 112.991 553.839 110.691C556.633 108.308 558.358 104.734 559.015 99.9693L572.694 100.709C571.955 105.72 570.271 110.075 567.642 113.772C565.095 117.469 561.726 120.344 557.536 122.398C553.428 124.452 548.704 125.479 543.364 125.479Z" fill="#1E1004"/>
<path d="M607.904 125.479C601.496 125.479 595.95 124.082 591.267 121.289C586.666 118.496 583.093 114.511 580.546 109.335C578.081 104.159 576.849 98.1208 576.849 91.2196C576.849 84.3184 578.081 78.3209 580.546 73.2272C583.093 68.0513 586.666 64.0667 591.267 61.2734C595.868 58.3979 601.29 56.9601 607.534 56.9601C613.45 56.9601 618.667 58.3568 623.185 61.1501C627.704 63.8613 631.195 67.8048 633.66 72.9807C636.207 78.1566 637.481 84.4006 637.481 91.7125V95.0399H590.405C590.733 101.448 592.417 106.254 595.457 109.458C598.579 112.663 602.769 114.265 608.027 114.265C611.889 114.265 615.093 113.361 617.64 111.553C620.186 109.746 621.953 107.322 622.939 104.283L636.495 105.145C634.769 111.225 631.36 116.154 626.266 119.933C621.255 123.631 615.134 125.479 607.904 125.479ZM590.405 85.1811H623.678C623.267 79.3479 621.583 75.0347 618.625 72.2413C615.75 69.448 612.053 68.0513 607.534 68.0513C602.851 68.0513 598.99 69.5301 595.95 72.4878C592.992 75.3633 591.144 79.5944 590.405 85.1811Z" fill="#1E1004"/>
<path d="M707.396 125.972C700.413 125.972 694.333 124.699 689.158 122.152C684.064 119.605 680.038 116.072 677.081 111.553C674.123 107.035 672.398 101.777 671.905 95.7793L685.584 94.9167C686.159 99.0245 687.35 102.516 689.158 105.392C690.965 108.185 693.389 110.321 696.429 111.8C699.55 113.197 703.289 113.895 707.643 113.895C711.422 113.895 714.626 113.443 717.255 112.539C719.966 111.553 722.02 110.116 723.417 108.226C724.814 106.337 725.512 104.036 725.512 101.325C725.512 98.8602 724.896 96.683 723.664 94.7934C722.513 92.8217 720.254 91.0553 716.886 89.4943C713.599 87.8512 708.752 86.2491 702.344 84.6881C695.36 82.9628 689.774 81.0732 685.584 79.0193C681.394 76.9654 678.354 74.4185 676.464 71.3787C674.657 68.2567 673.753 64.4364 673.753 59.9178C673.753 54.9062 674.944 50.5108 677.327 46.7316C679.792 42.8702 683.283 39.8715 687.802 37.7354C692.321 35.5993 697.743 34.5312 704.069 34.5312C710.724 34.5312 716.393 35.7636 721.076 38.2283C725.841 40.693 729.579 44.0615 732.29 48.3336C735.083 52.6058 736.809 57.4941 737.466 62.9987L723.787 63.7381C723.376 60.3696 722.349 57.412 720.706 54.8651C719.063 52.2361 716.845 50.2232 714.051 48.8266C711.258 47.3477 707.848 46.6083 703.823 46.6083C698.729 46.6083 694.703 47.7996 691.746 50.1822C688.87 52.4826 687.432 55.5634 687.432 59.4248C687.432 61.8895 688.007 63.9845 689.158 65.7098C690.39 67.353 692.526 68.7907 695.566 70.0231C698.688 71.2554 703.083 72.57 708.752 73.9666C716.311 75.6919 722.308 77.828 726.744 80.3749C731.263 82.8396 734.467 85.7562 736.357 89.1246C738.246 92.493 739.191 96.3133 739.191 100.586C739.191 105.761 737.836 110.28 735.125 114.141C732.495 117.921 728.798 120.837 724.033 122.891C719.268 124.945 713.723 125.972 707.396 125.972Z" fill="#1E1004"/>
<path d="M779.861 125.479C773.453 125.479 767.907 124.082 763.224 121.289C758.623 118.496 755.049 114.511 752.503 109.335C750.038 104.159 748.806 98.1208 748.806 91.2196C748.806 84.3184 750.038 78.3209 752.503 73.2272C755.049 68.0513 758.623 64.0667 763.224 61.2734C767.825 58.3979 773.247 56.9601 779.491 56.9601C785.406 56.9601 790.623 58.3568 795.142 61.1501C799.661 63.8613 803.152 67.8048 805.617 72.9807C808.164 78.1566 809.437 84.4006 809.437 91.7125V95.0399H762.361C762.69 101.448 764.374 106.254 767.414 109.458C770.536 112.663 774.726 114.265 779.984 114.265C783.846 114.265 787.05 113.361 789.596 111.553C792.143 109.746 793.91 107.322 794.896 104.283L808.452 105.145C806.726 111.225 803.317 116.154 798.223 119.933C793.211 123.631 787.091 125.479 779.861 125.479ZM762.361 85.1811H795.635C795.224 79.3479 793.54 75.0347 790.582 72.2413C787.707 69.448 784.01 68.0513 779.491 68.0513C774.808 68.0513 770.947 69.5301 767.907 72.4878C764.949 75.3633 763.101 79.5944 762.361 85.1811Z" fill="#1E1004"/>
<path d="M845.965 125.479C839.721 125.479 834.258 124.082 829.575 121.289C824.892 118.496 821.277 114.511 818.73 109.335C816.183 104.159 814.91 98.1208 814.91 91.2196C814.91 84.3184 816.183 78.3209 818.73 73.2272C821.277 68.0513 824.892 64.0667 829.575 61.2734C834.258 58.3979 839.721 56.9601 845.965 56.9601C851.305 56.9601 856.029 57.9049 860.137 59.7945C864.327 61.602 867.696 64.2721 870.243 67.8048C872.872 71.3376 874.556 75.6508 875.295 80.7446L861.616 81.484C860.959 77.2118 859.234 73.9666 856.44 71.7484C853.647 69.448 850.155 68.2978 845.965 68.2978C840.461 68.2978 836.147 70.3517 833.025 74.4596C829.986 78.4853 828.466 84.0719 828.466 91.2196C828.466 98.3673 829.986 103.995 833.025 108.103C836.147 112.129 840.461 114.141 845.965 114.141C850.155 114.141 853.647 112.991 856.44 110.691C859.234 108.308 860.959 104.734 861.616 99.9693L875.295 100.709C874.556 105.72 872.872 110.075 870.243 113.772C867.696 117.469 864.327 120.344 860.137 122.398C856.029 124.452 851.305 125.479 845.965 125.479Z" fill="#1E1004"/>
<path d="M905.083 125.479C898.51 125.479 893.252 123.302 889.309 118.948C885.447 114.511 883.516 108.39 883.516 100.586V58.4389H896.579V97.2581C896.579 103.173 897.606 107.528 899.66 110.321C901.714 113.114 904.836 114.511 909.026 114.511C913.791 114.511 917.488 112.991 920.117 109.951C922.829 106.829 924.184 102.475 924.184 96.8884V58.4389H937.247V124H925.047L924.8 106.871L926.649 107.61C925.499 113.361 923.075 117.797 919.378 120.919C915.681 123.959 910.916 125.479 905.083 125.479Z" fill="#1E1004"/>
<path d="M952.028 124V58.4389H963.982L964.474 75.8152L963.365 75.4455C964.269 69.5301 966.077 65.2169 968.788 62.5057C971.581 59.7945 975.319 58.4389 980.002 58.4389H986.287V70.1463H980.002C976.716 70.1463 973.964 70.6803 971.745 71.7484C969.527 72.8164 967.843 74.4596 966.693 76.6778C965.625 78.896 965.091 81.7715 965.091 85.3043V124H952.028Z" fill="#1E1004"/>
<path d="M993.341 124V58.4389H1006.4V124H993.341ZM993.094 48.9498V35.8868H1006.65V48.9498H993.094Z" fill="#1E1004"/>
<path d="M1041.86 124C1035.62 124 1031.02 122.563 1028.06 119.687C1025.1 116.812 1023.62 112.334 1023.62 106.254V43.0345H1036.69V105.268C1036.69 108.308 1037.34 110.403 1038.66 111.553C1039.97 112.704 1041.98 113.279 1044.7 113.279H1054.06V124H1041.86ZM1013.64 69.1604V58.4389H1054.06V69.1604H1013.64Z" fill="#1E1004"/>
<path d="M1065.94 142.486V131.764H1073.95C1076.17 131.764 1077.82 131.435 1078.88 130.778C1079.95 130.121 1080.77 129.012 1081.35 127.451L1083.44 122.028H1079.38L1055.72 58.4389H1069.52L1087.51 109.951L1104.64 58.4389H1118.57L1092.44 131.641C1091.12 135.42 1089.15 138.172 1086.52 139.898C1083.98 141.623 1080.4 142.486 1075.8 142.486H1065.94Z" fill="#1E1004"/>
</svg>
