<svg xmlns="http://www.w3.org/2000/svg" viewBox="0 0 1600 900" fill="none" role="img"><title>Найдите квартиру</title>
    <rect width="1600" height="900" rx="32" fill="#F7F5F2"/>
    <circle cx="1408" cy="135" r="108" fill="#2F7D46" opacity="0.08"/>
    <path d="M0 720C352 621, 576 792, 911 693 S1376 567, 1600 648V900H0Z" fill="#2F7D46" opacity="0.06"/>
    <g opacity="0.9"><path d="M0 702H1600" stroke="#D8DEE8" stroke-width="2"/><rect x="927" y="252" width="192" height="432" rx="4" fill="none" stroke="#D8DEE8" stroke-width="3"/><rect x="1120" y="162" width="208" height="522" rx="4" fill="none" stroke="#D8DEE8" stroke-width="3"/><rect x="1344" y="324" width="128" height="360" rx="4" fill="none" stroke="#D8DEE8" stroke-width="3"/><path d="M960 342h128M960 441h128M960 540h128" stroke="#D8DEE8" stroke-width="2"/><path d="M1168 270h112M1168 360h112M1168 450h112M1168 540h112" stroke="#D8DEE8" stroke-width="2"/><path d="M1392 414h64M1392 504h64" stroke="#D8DEE8" stroke-width="2"/></g>
    <text x="128" y="306" font-family="Georgia, serif" font-size="72" font-weight="700" fill="#10233F">Найдите квартиру</text>
    <text x="128" y="378" font-family="Arial, sans-serif" font-size="28" fill="#10233F" opacity="0.86">для жизни и инвестиций</text>
    <g transform="translate(128,450)"><path d="M0 10h8M22 10h8M44 10h8" stroke="#2F7D46" stroke-width="3" opacity="0"/><text x="0" y="0" font-family="Arial, sans-serif" font-size="25" fill="#10233F" opacity="0.88"></text><text x="0" y="0" font-family="Arial, sans-serif" font-size="25" fill="#10233F" opacity="0.88"></text></g>
    <g><rect x="128" y="522" width="384" height="90" rx="45" fill="#2F7D46"/><text x="320" y="580" text-anchor="middle" font-family="Arial, sans-serif" font-size="25" font-weight="700" fill="#FFFFFF">Подобрать квартиру</text></g>
    </svg>