<svg xmlns="http://www.w3.org/2000/svg" viewBox="0 0 900 1400" fill="none" role="img"><title>Экспертные решения</title>
    <rect width="900" height="1400" rx="32" fill="#10233F"/><circle cx="792" cy="210" r="108" fill="#C8A468" opacity="0.08"/><path d="M0 1120C198 965, 324 1232, 513 1078 S774 882, 900 1008V1400H0Z" fill="#C8A468" opacity="0.06"/>
    <g opacity="0.35"><path d="M0 1092H900" stroke="#284061" stroke-width="2"/><rect x="522" y="392" width="108" height="672" rx="4" fill="none" stroke="#284061" stroke-width="3"/><rect x="630" y="252" width="117" height="812" rx="4" fill="none" stroke="#284061" stroke-width="3"/><rect x="756" y="504" width="72" height="560" rx="4" fill="none" stroke="#284061" stroke-width="3"/><path d="M540 532h72M540 686h72M540 840h72" stroke="#284061" stroke-width="2"/><path d="M657 420h63M657 560h63M657 700h63M657 840h63" stroke="#284061" stroke-width="2"/><path d="M783 644h36M783 784h36" stroke="#284061" stroke-width="2"/></g>
    <text x="72" y="476" font-family="Georgia, serif" font-size="72" font-weight="700" fill="#FFFFFF">Экспертные решения</text><text x="72" y="588" font-family="Arial, sans-serif" font-size="28" fill="#FFFFFF" opacity="0.86">в недвижимости</text>
    <g transform="translate(72,700)"><path d="M0 10h8M22 10h8M44 10h8" stroke="#C8A468" stroke-width="3" opacity="0"/><text x="0" y="0" font-family="Arial, sans-serif" font-size="25" fill="#FFFFFF" opacity="0.88"></text><text x="0" y="0" font-family="Arial, sans-serif" font-size="25" fill="#FFFFFF" opacity="0.88"></text></g>
    <g><rect x="72" y="812" width="216" height="140" rx="70" fill="#C8A468"/><text x="180" y="903" text-anchor="middle" font-family="Arial, sans-serif" font-size="25" font-weight="700" fill="#10233F">Подобрать объект</text></g>
    </svg>