<svg width="134" height="96" viewBox="0 0 134 96" fill="none" xmlns="http://www.w3.org/2000/svg">
<g clip-path="url(#clip0_40000788_6200)">
<mask id="mask0_40000788_6200" style="mask-type:luminance" maskUnits="userSpaceOnUse" x="0" y="0" width="134" height="96">
<path d="M133.211 0H0.288086V96H133.211V0Z" fill="white"/>
</mask>
<g mask="url(#mask0_40000788_6200)">
<mask id="mask1_40000788_6200" style="mask-type:luminance" maskUnits="userSpaceOnUse" x="0" y="52" width="34" height="34">
<path d="M24.2802 52.7172L0.0634766 62.8789L9.35347 85.0183L33.5702 74.8566L24.2802 52.7172Z" fill="white"/>
</mask>
<g mask="url(#mask1_40000788_6200)">
<path d="M19.3156 54.8633L31.576 71.9327L14.4684 81.7535L2.20801 64.684L19.3156 54.8633Z" fill="#111111"/>
<path d="M14.4919 81.8074C14.4798 81.8125 14.4664 81.8133 14.4538 81.8098C14.4412 81.8062 14.4302 81.7985 14.4225 81.7879L2.16219 64.7184C2.15748 64.7118 2.1542 64.7043 2.15257 64.6964C2.15093 64.6885 2.15097 64.6803 2.15268 64.6724C2.1544 64.6645 2.15775 64.6571 2.16252 64.6505C2.16729 64.644 2.17338 64.6385 2.1804 64.6345L19.288 54.8138C19.3004 54.8067 19.3151 54.8044 19.3291 54.8074C19.3431 54.8104 19.3555 54.8185 19.3639 54.8302L31.6242 71.8996C31.6289 71.9062 31.6322 71.9137 31.6338 71.9216C31.6355 71.9295 31.6354 71.9376 31.6337 71.9455C31.632 71.9534 31.6286 71.9609 31.6239 71.9674C31.6191 71.974 31.613 71.9794 31.606 71.9835L14.4984 81.8042C14.4963 81.8054 14.4941 81.8065 14.4919 81.8074ZM2.29362 64.7028L14.4862 81.6779L31.4928 71.9151L19.3002 54.9401L2.29362 64.7028Z" fill="#111111"/>
<path d="M31.5769 71.9316L30.8273 73.3022L13.7197 83.1229L14.4693 81.7524L31.5769 71.9316Z" fill="#0E38A3"/>
<path d="M13.7413 83.1759C13.7303 83.1805 13.718 83.1816 13.7064 83.179C13.6947 83.1764 13.6841 83.1702 13.6761 83.1613C13.668 83.1524 13.663 83.1413 13.6616 83.1294C13.6601 83.1175 13.6624 83.1055 13.6682 83.095L14.4178 81.7244C14.4229 81.715 14.4305 81.7073 14.4397 81.7019L31.5473 71.8812C31.5583 71.8749 31.571 71.8724 31.5835 71.874C31.596 71.8755 31.6077 71.8811 31.6167 71.89C31.6257 71.8988 31.6316 71.9103 31.6334 71.9227C31.6353 71.9352 31.633 71.9479 31.627 71.959L30.8774 73.3296C30.8722 73.339 30.8646 73.3467 30.8554 73.3521L13.7478 83.1728C13.7457 83.1739 13.7435 83.175 13.7413 83.1759ZM14.5115 81.7941L13.8682 82.9704L30.7836 73.26L31.4269 72.0837L14.5115 81.7941Z" fill="#111111"/>
<path d="M14.469 81.7521L13.7194 83.1227L1.45898 66.0532L2.20857 64.6826L14.469 81.7521Z" fill="#BDDFFF"/>
<path d="M13.743 83.1767C13.7309 83.1817 13.7174 83.1826 13.7048 83.179C13.6922 83.1755 13.6812 83.1677 13.6735 83.1571L1.41318 66.0877C1.40683 66.0789 1.40311 66.0684 1.40245 66.0575C1.40179 66.0467 1.40422 66.0358 1.40945 66.0263L2.1591 64.6557C2.1638 64.6471 2.1706 64.6398 2.17887 64.6345C2.18714 64.6293 2.19661 64.6262 2.20639 64.6256C2.21617 64.625 2.22595 64.6269 2.23479 64.6311C2.24364 64.6353 2.25128 64.6416 2.25698 64.6496L14.5173 81.719C14.5237 81.7279 14.5274 81.7383 14.528 81.7492C14.5287 81.7601 14.5263 81.7709 14.521 81.7805L13.7714 83.1511C13.765 83.1627 13.755 83.1716 13.743 83.1767ZM1.52853 66.0497L13.714 83.0149L14.4019 81.757L2.21648 64.7918L1.52853 66.0497Z" fill="#111111"/>
<path d="M2.20801 64.684L19.3156 54.8633C25.5698 63.3912 28.4228 67.2813 31.8609 70.9339L14.7533 80.7546C11.3152 77.102 8.46218 73.2119 2.20801 64.684Z" fill="white"/>
<path d="M14.7768 80.8084C14.7659 80.8129 14.7539 80.8141 14.7424 80.8116C14.7308 80.8092 14.7203 80.8033 14.7123 80.7947C11.2714 77.1392 8.41692 73.2469 2.16254 64.7186C2.15773 64.7121 2.15436 64.7046 2.15266 64.6966C2.15095 64.6887 2.15094 64.6805 2.15263 64.6725C2.15432 64.6646 2.15767 64.6571 2.16246 64.6505C2.16725 64.6439 2.17337 64.6384 2.18043 64.6343L19.288 54.8137C19.3004 54.8067 19.3149 54.8044 19.3288 54.8074C19.3427 54.8103 19.3551 54.8182 19.3635 54.8296C25.6152 63.354 28.4685 67.2446 31.9043 70.8948C31.9102 70.9011 31.9147 70.9087 31.9173 70.9171C31.9199 70.9254 31.9205 70.9342 31.9193 70.9428C31.918 70.9514 31.9148 70.9597 31.9098 70.9669C31.9049 70.9741 31.8985 70.9801 31.8909 70.9845L14.7833 80.8052C14.7812 80.8064 14.779 80.8074 14.7768 80.8084ZM2.29422 64.7024C8.50049 73.1649 11.3503 77.0488 14.7654 80.6822L31.7697 70.9207C28.3571 67.2869 25.5032 63.3971 19.3006 54.9397L2.29422 64.7024Z" fill="#111111"/>
</g>
<mask id="mask2_40000788_6200" style="mask-type:luminance" maskUnits="userSpaceOnUse" x="15" y="-5" width="118" height="96">
<path d="M15.1219 11.9391L120.357 -4.24023L132.393 74.0418L27.1573 90.2212L15.1219 11.9391Z" fill="white"/>
</mask>
<g mask="url(#mask2_40000788_6200)">
<path d="M101.019 51.0134L100.396 51.4027C100.631 51.3141 100.856 51.2027 101.068 51.0699L101.691 50.6807C101.478 50.8134 101.253 50.9249 101.019 51.0134Z" fill="white"/>
<path d="M100.407 51.4621C100.411 51.4615 100.415 51.4605 100.419 51.459C100.657 51.3689 100.886 51.2557 101.101 51.121L101.723 50.7321L101.724 50.7316C101.737 50.7232 101.747 50.7098 101.75 50.6943C101.754 50.6789 101.751 50.6626 101.743 50.6492C101.734 50.6357 101.721 50.6262 101.706 50.6226C101.69 50.6191 101.674 50.6218 101.66 50.6302C101.451 50.7608 101.23 50.8705 100.999 50.9577C100.995 50.9592 100.992 50.9609 100.988 50.963L100.366 51.3523C100.354 51.3597 100.346 51.3708 100.341 51.3838C100.337 51.3968 100.337 51.4109 100.342 51.4237C100.347 51.4366 100.356 51.4474 100.367 51.4544C100.379 51.4614 100.393 51.4641 100.407 51.4621Z" fill="#111111"/>
<path d="M41.7035 73.4724L41.0811 73.8616L100.398 51.4029L101.02 51.0137L41.7035 73.4724Z" fill="#111111"/>
<path d="M41.0894 73.9197C41.0934 73.919 41.0975 73.918 41.1015 73.9165L100.418 51.4578C100.422 51.4564 100.425 51.4547 100.429 51.4526L101.051 51.0633C101.064 51.0554 101.073 51.0431 101.077 51.0288C101.081 51.0145 101.079 50.9992 101.073 50.9859C101.066 50.9726 101.055 50.9622 101.041 50.9568C101.027 50.9513 101.012 50.9512 100.998 50.9565L41.6816 73.4153C41.678 73.4167 41.6745 73.4184 41.6712 73.4205L41.0486 73.8098C41.0369 73.8171 41.0282 73.8282 41.0238 73.8412C41.0193 73.8542 41.0195 73.8684 41.0243 73.8813C41.0291 73.8942 41.0381 73.9051 41.0499 73.9121C41.0618 73.9191 41.0757 73.9218 41.0894 73.9197ZM100.37 51.348L41.6256 73.5901L41.7295 73.5251L100.474 51.2829L100.37 51.348Z" fill="#111111"/>
<path d="M19.6896 25.2453L20.312 24.856C18.6122 25.9191 17.9551 28.22 18.855 30.3463L35.9118 70.6468C36.9223 73.0343 39.5142 74.2999 41.7017 73.4716L41.0792 73.8609C38.8917 74.6891 36.2998 73.4235 35.2893 71.0361L18.2326 30.7355C17.3326 28.6093 17.9897 26.3084 19.6896 25.2453Z" fill="url(#paint0_linear_40000788_6200)"/>
<path d="M40.3024 74.1272C40.5722 74.0858 40.8392 74.0164 41.1006 73.9175C41.1043 73.9161 41.1079 73.9143 41.1112 73.9122L41.7337 73.5229C41.7461 73.5149 41.7551 73.5027 41.759 73.4884C41.7629 73.4742 41.7615 73.4591 41.7549 73.4459C41.7484 73.4327 41.7372 73.4223 41.7235 73.4169C41.7098 73.4114 41.6946 73.4111 41.6808 73.4162C39.5269 74.2319 36.9639 72.9791 35.9672 70.624L18.9105 30.3235C18.0347 28.2543 18.6362 25.9782 20.3404 24.9095L20.344 24.9073C20.3507 24.9032 20.3564 24.8977 20.361 24.8913C20.3656 24.8849 20.3688 24.8777 20.3706 24.87C20.3723 24.8624 20.3726 24.8544 20.3713 24.8467C20.37 24.839 20.3672 24.8315 20.363 24.8249C20.3545 24.8115 20.3411 24.8019 20.3257 24.7984C20.3102 24.7948 20.294 24.7975 20.2805 24.8059L19.6581 25.1952C17.9009 26.2942 17.2783 28.6343 18.1778 30.7595L35.2345 71.0601C36.1353 73.1885 38.2884 74.4368 40.3024 74.1272ZM41.0528 73.8076C40.801 73.9025 40.5433 73.9692 40.2834 74.0092C38.3224 74.3108 36.224 73.0912 35.3446 71.0133L18.2879 30.7128C17.4485 28.7296 17.9659 26.5564 19.511 25.4383C18.3604 26.6646 18.0478 28.5926 18.8001 30.3702L35.8568 70.6707C36.8104 72.9238 39.1676 74.1901 41.2769 73.6673L41.0528 73.8076Z" fill="#111111"/>
<path d="M20.9853 24.5248C18.7978 25.353 17.8452 27.9607 18.8557 30.3481L35.9124 70.6486C36.9228 73.036 39.5147 74.3017 41.7023 73.4734L101.019 51.0149C103.205 50.187 104.158 47.5793 103.147 45.1919L86.0906 4.89138C85.0802 2.50396 82.4883 1.23831 80.302 2.06605L20.9853 24.5248Z" fill="#BDDFFF"/>
<path d="M40.9266 73.7385C41.1963 73.6972 41.4633 73.6277 41.7247 73.5288L101.042 51.07C102.037 50.693 102.823 49.9306 103.254 48.9235C103.746 47.7742 103.728 46.4054 103.204 45.1678L86.147 4.86741C85.1255 2.45385 82.4946 1.17161 80.2821 2.0095L20.9654 24.4681C19.9688 24.8454 19.1826 25.6082 18.7515 26.6156C18.2598 27.7646 18.2782 29.1334 18.8018 30.3707L35.8586 70.6712C36.7593 72.7998 38.9126 74.0482 40.9266 73.7385ZM81.0987 1.91784C83.0593 1.61641 85.1573 2.8361 86.0367 4.91402L103.094 45.2145C103.605 46.4222 103.623 47.757 103.144 48.8764C102.726 49.8534 101.964 50.5927 100.999 50.9581L41.6823 73.4168C39.5284 74.2325 36.9653 72.9797 35.9687 70.6246L18.912 30.3241C18.4009 29.1165 18.3825 27.782 18.8614 26.6627C19.2797 25.6853 20.0419 24.9457 21.0077 24.58L80.3245 2.12131C80.5747 2.02662 80.8342 1.95843 81.0987 1.91784Z" fill="#111111"/>
<path d="M22.0888 26.0135L80.5873 3.86444C82.1039 3.29027 83.9019 4.16749 84.6023 5.82225L101.39 45.4868C102.091 47.1429 101.429 48.95 99.9122 49.5242L41.4137 71.673C39.8984 72.2468 38.1009 71.3709 37.4 69.7149L20.6125 30.0504C19.9121 28.3956 20.5734 26.5872 22.0888 26.0135Z" fill="white"/>
<path d="M40.878 71.8751C41.0682 71.8459 41.2549 71.7968 41.4349 71.7287L99.9333 49.5797C100.629 49.3161 101.178 48.7836 101.48 48.08C101.822 47.2791 101.81 46.3252 101.445 45.463L84.6573 5.79864C83.9454 4.11648 82.1099 3.22341 80.5661 3.80819L22.0675 25.9571C21.3724 26.2203 20.8238 26.7525 20.5229 27.4558C20.1799 28.2573 20.1925 29.2112 20.5573 30.0733L37.3448 69.7377C37.9726 71.221 39.4737 72.091 40.878 71.8751ZM81.1424 3.77975C82.4942 3.57192 83.9408 4.41279 84.5471 5.84525L101.334 45.5097C101.687 46.3421 101.699 47.2618 101.369 48.033C101.081 48.7063 100.556 49.2159 99.8909 49.4678L41.3925 71.6167C39.9086 72.1789 38.1422 71.3147 37.455 69.6911L20.6676 30.0267C20.3153 29.1944 20.3027 28.2746 20.6329 27.5029C20.921 26.8298 21.4455 26.3205 22.1099 26.0691L80.6085 3.92007C80.781 3.85474 80.96 3.80771 81.1424 3.77975Z" fill="#111111"/>
<path d="M51.6672 15.7152C52.0239 15.5801 52.4457 15.787 52.6106 16.1766C52.7754 16.566 52.6205 16.9898 52.2638 17.1248C51.9071 17.2598 51.4846 17.0548 51.3197 16.6653C51.1549 16.2757 51.3105 15.8502 51.6672 15.7152Z" fill="#111111"/>
<path d="M52.1466 17.2184C52.194 17.2111 52.2409 17.1989 52.2869 17.1815C52.4622 17.1151 52.6005 16.9813 52.676 16.8048C52.7613 16.6055 52.7582 16.3683 52.6676 16.1541C52.4906 15.7359 52.0333 15.5141 51.6479 15.6601C51.4725 15.7266 51.3342 15.8606 51.2584 16.0377C51.1729 16.2377 51.1758 16.4753 51.2666 16.6895C51.4221 17.0572 51.796 17.2723 52.1466 17.2184ZM51.8064 15.7414C52.1036 15.6957 52.4228 15.8829 52.5573 16.2007C52.6354 16.3852 52.6385 16.5882 52.566 16.7577C52.5034 16.9042 52.3893 17.0149 52.2445 17.0697C51.9175 17.1935 51.5286 17.0018 51.3768 16.6428C51.2987 16.4583 51.2956 16.2549 51.3685 16.0847C51.4312 15.9379 51.5455 15.8268 51.6902 15.772C51.7277 15.7577 51.7667 15.7475 51.8064 15.7414Z" fill="#111111"/>
<path d="M39.7706 75.7849L61.8506 82.7056C63.1594 83.1158 65.992 82.7772 68.1782 81.9494L127.494 59.4907C129.028 58.9099 129.837 58.243 129.732 57.7549L130.064 59.2956C130.169 59.7838 129.36 60.4506 127.826 61.0314L68.5102 83.4901C66.3239 84.3179 63.4913 84.6566 62.1825 84.2463L40.1025 77.3256C39.7114 77.203 39.5007 77.0275 39.4559 76.8194L39.124 75.2787C39.1688 75.4867 39.3795 75.6623 39.7706 75.7849Z" fill="url(#paint1_linear_40000788_6200)"/>
<path d="M65.5247 84.3221C66.5338 84.1671 67.5938 83.9016 68.5327 83.546L127.85 61.0874C129.392 60.5036 130.241 59.8291 130.123 59.2831L129.792 57.7423C129.785 57.71 129.753 57.6886 129.72 57.6965C129.713 57.6981 129.705 57.7013 129.7 57.7057C129.692 57.7102 129.688 57.7159 129.684 57.7225C129.679 57.7291 129.676 57.7365 129.675 57.7442C129.674 57.752 129.674 57.7599 129.675 57.7676C129.776 58.2362 128.911 58.8907 127.476 59.4348L68.1584 81.8935C65.9865 82.7159 63.1653 83.0546 61.8697 82.6486L39.7897 75.7278C39.4344 75.6165 39.2248 75.4568 39.1838 75.2662C39.1803 75.2508 39.1709 75.2373 39.1576 75.2287C39.1443 75.2202 39.1281 75.2172 39.1126 75.2203C39.105 75.222 39.0977 75.2251 39.0912 75.2296C39.0847 75.2341 39.0792 75.2398 39.075 75.2464C39.0707 75.253 39.0678 75.2603 39.0664 75.2681C39.065 75.2758 39.0651 75.2837 39.0668 75.2914L39.3987 76.8322C39.4501 77.0707 39.6812 77.256 40.0858 77.3828L62.1659 84.3035C62.9193 84.5396 64.1764 84.5294 65.5247 84.3221ZM129.744 58.092L130.007 59.3082C130.108 59.7768 129.245 60.4313 127.807 60.9755L68.4903 83.4342C66.3182 84.2566 63.4971 84.5953 62.2017 84.1893L40.1216 77.2685C39.7662 77.1571 39.5567 76.9975 39.5156 76.8069L39.2531 75.5878C39.3693 75.6888 39.5366 75.7738 39.7539 75.8419L61.8339 82.7627C63.1513 83.1755 66.0074 82.8357 68.2007 82.0054L127.518 59.5467C128.743 59.0824 129.533 58.5607 129.744 58.092Z" fill="#111111"/>
<path d="M41.3622 73.542C39.1759 74.3698 38.464 75.3731 39.7729 75.7834L61.8529 82.7041C63.1617 83.1143 65.9943 82.7757 68.1806 81.9479L127.497 59.4892C129.685 58.661 130.397 57.6576 129.088 57.2474L107.008 50.3266C105.699 49.9164 102.866 50.2551 100.679 51.0833L41.3622 73.542Z" fill="#BDDFFF"/>
<path d="M65.1922 82.7804C66.2013 82.6253 67.2612 82.3598 68.2001 82.0043L127.517 59.5456C128.962 58.9981 129.817 58.3554 129.801 57.8263C129.796 57.6342 129.67 57.3682 129.104 57.1907L107.024 50.2699C105.706 49.857 102.85 50.197 100.656 51.0278L41.3394 73.4865C39.8941 74.0337 39.0405 74.6762 39.0559 75.2053C39.0614 75.3973 39.187 75.6634 39.7533 75.8409L61.8333 82.7616C62.5867 82.9978 63.8439 82.9877 65.1922 82.7804ZM103.69 50.3672C105.017 50.1633 106.25 50.1528 106.988 50.3841L129.068 57.3048C129.343 57.3912 129.673 57.5523 129.682 57.8298C129.695 58.2984 128.849 58.913 127.474 59.4337L68.1577 81.8924C65.9858 82.7148 63.1646 83.0535 61.869 82.6475L39.789 75.7268C39.5136 75.6404 39.1835 75.4792 39.1754 75.2018C39.1618 74.7332 40.0072 74.1188 41.3817 73.5984L100.698 51.1397C101.633 50.7857 102.688 50.5213 103.69 50.3672Z" fill="#111111"/>
<path d="M47.8598 72.6098L98.5984 53.399C99.2718 53.144 100.145 53.0396 100.548 53.1659L112.138 56.7989C112.541 56.9252 112.321 57.2342 111.648 57.4892L60.9093 76.7001C60.2358 76.955 59.3647 77.0592 58.9617 76.9329L47.371 73.2999C46.9681 73.1736 47.1863 72.8648 47.8598 72.6098Z" fill="white"/>
<path d="M59.9967 76.9968C60.3099 76.9486 60.6382 76.8664 60.9288 76.7564L111.667 57.5456C112.137 57.3676 112.403 57.1601 112.398 56.9759C112.396 56.9034 112.352 56.804 112.154 56.7422L100.564 53.1092C100.15 52.9797 99.2586 53.0847 98.5755 53.3434L47.8369 72.5542C47.368 72.7318 47.1022 72.9391 47.1075 73.1232C47.1096 73.1958 47.1537 73.2954 47.3515 73.3574L58.9423 76.9903C59.1793 77.0647 59.5742 77.0617 59.9967 76.9968ZM99.5335 53.2189C99.9345 53.1572 100.306 53.1539 100.528 53.2235L112.119 56.8564C112.177 56.8749 112.276 56.9154 112.278 56.9795C112.281 57.0813 112.08 57.2612 111.625 57.4337L60.8864 76.6446C60.2252 76.895 59.3691 76.9989 58.978 76.8763L47.3873 73.2433C47.3282 73.2248 47.2289 73.1842 47.2271 73.1198C47.2242 73.0181 47.4247 72.8384 47.8793 72.6663L98.6179 53.4554C98.9043 53.3469 99.2275 53.2659 99.5335 53.2189Z" fill="#111111"/>
<path d="M78.2034 70.8157L96.2699 63.9753C97.0481 63.6807 98.0568 63.56 98.5232 63.7062L105.229 65.8079C105.694 65.9539 105.441 66.3112 104.663 66.6058L86.5959 73.4462C85.8176 73.7409 84.8089 73.8615 84.3433 73.7156L77.638 71.6139C77.1716 71.4677 77.4252 71.1104 78.2034 70.8157Z" fill="white"/>
<path d="M85.5415 73.7816C85.9032 73.726 86.2826 73.6311 86.6184 73.5039L104.684 66.6636C105.223 66.4597 105.528 66.223 105.522 66.0144C105.52 65.9335 105.47 65.8225 105.247 65.7527L98.5423 63.6509C98.0662 63.5015 97.0377 63.6229 96.25 63.9211L78.1834 70.7615C77.645 70.9654 77.3397 71.202 77.3458 71.4106C77.3481 71.4915 77.3979 71.6027 77.6214 71.6727L84.3268 73.7744C84.5998 73.86 85.0546 73.8565 85.5415 73.7816ZM97.351 63.7595C97.8165 63.688 98.2484 63.6842 98.5065 63.7651L105.211 65.8668C105.282 65.8889 105.4 65.9378 105.403 66.0179C105.406 66.1389 105.172 66.3509 104.642 66.5516L86.5759 73.392C85.8095 73.6822 84.8165 73.8025 84.3625 73.6603L77.6571 71.5585C77.5866 71.5364 77.4677 71.4873 77.4654 71.4071C77.4619 71.2861 77.6956 71.0742 78.2258 70.8734L96.2923 64.033C96.6235 63.9076 96.997 63.814 97.351 63.7595Z" fill="#111111"/>
</g>
<mask id="mask3_40000788_6200" style="mask-type:luminance" maskUnits="userSpaceOnUse" x="15" y="70" width="34" height="26">
<path d="M48.1479 70.9717H15.4238V95.6926H48.1479V70.9717Z" fill="white"/>
</mask>
<g mask="url(#mask3_40000788_6200)">
<path d="M15.5124 71.0624C15.4932 71.0821 15.4882 71.1044 15.4865 71.1117C15.4854 71.1177 15.4851 71.1238 15.4857 71.1299C15.4858 71.1594 15.4989 71.1783 15.5056 71.1869C15.5036 71.1845 15.5031 71.18 15.5044 71.1733C15.5095 71.1479 15.5389 71.1011 15.5702 71.0686C15.5908 71.0471 15.607 71.0373 15.6142 71.0404C15.5608 71.0188 15.5228 71.0518 15.5124 71.0624Z" fill="white"/>
<path d="M15.506 71.2493C15.497 71.2493 15.4881 71.2473 15.48 71.2435C15.4718 71.2398 15.4646 71.2343 15.4588 71.2274L15.4557 71.2237C15.4355 71.1975 15.4244 71.1655 15.4241 71.1325C15.4234 71.1215 15.4241 71.1104 15.4262 71.0996C15.4334 71.0676 15.4475 71.0411 15.4685 71.0196C15.5037 70.9835 15.5664 70.9549 15.6368 70.983L15.6387 70.9838C15.651 70.989 15.6612 70.998 15.668 71.0095C15.6747 71.021 15.6776 71.0343 15.6761 71.0475C15.6747 71.0608 15.6691 71.0732 15.66 71.0829C15.651 71.0927 15.639 71.0993 15.6259 71.1017C15.6222 71.1049 15.6186 71.1083 15.6152 71.112C15.5916 71.1364 15.5737 71.166 15.5675 71.1803C15.5697 71.2006 15.5619 71.2216 15.5449 71.2354C15.5339 71.2444 15.5202 71.2493 15.506 71.2493Z" fill="#111111"/>
<path d="M15.6142 71.0395C15.6068 71.0369 15.5908 71.0468 15.5705 71.0678C15.5603 71.0785 15.5508 71.0899 15.5421 71.1018C15.5231 71.1278 15.5082 71.1552 15.5047 71.1725C15.5034 71.1789 15.5038 71.1834 15.5057 71.1858L16.1306 72.0425C16.1225 72.0313 16.1207 72.0116 16.1264 71.9829C16.1419 71.9055 16.2083 71.783 16.2934 71.6669C16.3226 71.6271 16.354 71.5879 16.3863 71.5517C16.3975 71.539 16.4089 71.5267 16.4203 71.5149C16.5108 71.4207 16.5825 71.3767 16.6156 71.3882L15.6142 71.0395Z" fill="#111111"/>
<path d="M16.1309 72.1049C16.1212 72.1049 16.1115 72.1026 16.1028 72.0982C16.0941 72.0938 16.0866 72.0873 16.0808 72.0794L15.4559 71.2228C15.4474 71.2111 15.4383 71.1908 15.4443 71.1609C15.4515 71.1253 15.4775 71.086 15.4924 71.0656C15.5029 71.0513 15.5142 71.0378 15.5265 71.025C15.5423 71.0086 15.5849 70.9642 15.6348 70.9815L16.6359 71.3301C16.6507 71.3354 16.6633 71.3461 16.6706 71.3601C16.6778 71.374 16.6795 71.3901 16.6753 71.4052C16.6711 71.4204 16.6613 71.4333 16.6479 71.4415C16.6345 71.4497 16.6185 71.4524 16.6031 71.4493C16.5885 71.4532 16.5425 71.4779 16.4652 71.5582C16.4216 71.6042 16.3811 71.6529 16.3437 71.704C16.2619 71.8156 16.2005 71.9301 16.1875 71.9955C16.1856 72.0047 16.1853 72.0104 16.1854 72.0133C16.1905 72.0228 16.193 72.0334 16.1928 72.0441C16.1926 72.0548 16.1896 72.0653 16.1841 72.0745C16.1786 72.0838 16.1708 72.0914 16.1615 72.0967C16.1522 72.102 16.1417 72.1048 16.1309 72.1049ZM15.5718 71.1714L16.0933 71.8864C16.1246 71.8117 16.1772 71.7217 16.2438 71.6308C16.2842 71.5751 16.3284 71.5222 16.3759 71.4725C16.4052 71.4421 16.4314 71.4177 16.455 71.3982L15.6193 71.1072C15.6182 71.1084 15.6168 71.1097 15.6154 71.1112L15.6096 71.1175C15.595 71.134 15.5823 71.152 15.5718 71.1714Z" fill="#111111"/>
<path d="M16.6154 71.3896C16.4303 71.4211 16.105 71.8578 16.1303 72.044L18.1857 74.8615C18.0755 74.2796 19.3746 72.5063 19.9091 72.5368L16.6154 71.3896Z" fill="white"/>
<path d="M18.1851 74.9238C18.1753 74.9238 18.1657 74.9215 18.157 74.9171C18.1483 74.9127 18.1408 74.9062 18.135 74.8984L16.0796 72.0809C16.0735 72.0726 16.0696 72.0629 16.0682 72.0528C16.0383 71.8332 16.3841 71.3665 16.6043 71.329C16.6146 71.3272 16.6252 71.3281 16.6351 71.3316L19.9288 72.4787C19.958 72.4889 19.9752 72.519 19.9691 72.5493C19.9659 72.5638 19.9577 72.5767 19.946 72.5858C19.9343 72.5949 19.9197 72.5996 19.9049 72.5991C19.7395 72.5896 19.447 72.8033 19.1244 73.171C18.6491 73.7126 18.1827 74.5167 18.2459 74.8504C18.2476 74.8593 18.2473 74.8685 18.2451 74.8774C18.2428 74.8862 18.2386 74.8944 18.2328 74.9014C18.227 74.9084 18.2197 74.9141 18.2114 74.9179C18.2032 74.9218 18.1942 74.9238 18.1851 74.9238ZM16.1899 72.022L18.1261 74.6759C18.1924 74.2492 18.6022 73.5782 19.0313 73.0892C19.1885 72.9101 19.4508 72.6403 19.6921 72.5274L16.6111 71.4544C16.4577 71.4996 16.1873 71.8638 16.1899 72.022Z" fill="#111111"/>
<path d="M19.9099 72.5354C19.4695 72.4644 18.1262 74.1059 18.1865 74.8601L43.8772 93.9062C44.0574 93.0318 45.2487 91.6879 45.6057 91.5747L19.9099 72.5354Z" fill="#BDDFFF"/>
<path d="M43.8776 93.9686C43.8643 93.9686 43.8514 93.9643 43.8407 93.9564L18.15 74.9102C18.1429 74.905 18.1371 74.8982 18.1328 74.8905C18.1285 74.8828 18.1259 74.8742 18.1252 74.8654C18.0786 74.283 18.7916 73.279 19.3023 72.8076C19.4843 72.6396 19.7401 72.4452 19.9202 72.4747C19.93 72.4762 19.9393 72.4801 19.9473 72.486L45.643 91.5254C45.6521 91.5322 45.6592 91.5414 45.6635 91.552C45.6677 91.5626 45.669 91.5741 45.6671 91.5854C45.6652 91.5966 45.6603 91.6071 45.6528 91.6157C45.6453 91.6243 45.6357 91.6307 45.6248 91.6342C45.3082 91.7346 44.1191 93.0418 43.9383 93.9191C43.9354 93.9331 43.9278 93.9456 43.9167 93.9546C43.9057 93.9637 43.8919 93.9686 43.8776 93.9686ZM18.2472 74.8281L43.8393 93.8012C44.0622 92.9851 45.043 91.8316 45.4872 91.5641L19.887 72.5957C19.7868 72.5898 19.5988 72.7025 19.3862 72.8987C18.828 73.414 18.2326 74.337 18.2472 74.8281Z" fill="#111111"/>
<path d="M44.5597 94.6244C44.5934 94.6411 44.6309 94.6493 44.6708 94.6424L44.8939 94.6037C44.7759 94.6242 44.7226 94.5441 44.7602 94.3563C44.8408 93.9539 45.3083 93.2093 45.8046 92.6932C46.2304 92.2504 46.539 92.1197 46.567 92.3458L46.5391 92.121C46.5335 92.0763 46.5172 92.042 46.4899 92.0208L45.8372 91.5371C45.7258 91.4545 45.4425 91.6114 45.0756 91.9836C45.0621 91.9972 45.0486 92.0111 45.035 92.0253C44.7912 92.2789 44.5536 92.5818 44.3562 92.8799C44.105 93.2593 43.9192 93.6307 43.8688 93.8824C43.8416 94.0182 43.857 94.1036 43.9071 94.1407L44.5597 94.6244Z" fill="#0E38A3"/>
<path d="M44.6422 94.7075C44.604 94.7072 44.5663 94.6979 44.5323 94.6804C44.5291 94.6788 44.526 94.6769 44.5231 94.6747L43.8704 94.191C43.7975 94.1369 43.7765 94.0292 43.8083 93.8708C43.8584 93.6208 44.0393 93.2474 44.3047 92.8464C44.5106 92.5355 44.7542 92.2289 44.9906 91.983C45.0044 91.9686 45.0181 91.9546 45.0317 91.9408C45.2608 91.7083 45.675 91.3405 45.8743 91.488L46.527 91.9717C46.5559 91.994 46.591 92.0361 46.6007 92.1139L46.6287 92.3387C46.6299 92.3469 46.6295 92.3552 46.6275 92.3633C46.6254 92.3713 46.6218 92.3788 46.6168 92.3854C46.6118 92.392 46.6056 92.3975 46.5984 92.4016C46.5912 92.4058 46.5833 92.4084 46.5751 92.4094C46.5669 92.4105 46.5586 92.4098 46.5506 92.4076C46.5427 92.4053 46.5352 92.4015 46.5288 92.3963C46.5223 92.3912 46.517 92.3848 46.513 92.3775C46.5091 92.3702 46.5066 92.3623 46.5058 92.354C46.5003 92.3096 46.4839 92.3042 46.4778 92.3022C46.4235 92.2839 46.2204 92.351 45.8495 92.7368C45.3609 93.2448 44.8996 93.9771 44.8212 94.3691C44.7967 94.4917 44.8205 94.5276 44.8284 94.5356C44.8402 94.5478 44.8646 94.5466 44.8833 94.5434C44.8994 94.5406 44.9165 94.5443 44.9299 94.5537C44.9433 94.5632 44.9525 94.5776 44.9553 94.5938C44.9581 94.6099 44.9543 94.6266 44.9449 94.64C44.9354 94.6534 44.921 94.6626 44.9048 94.6654L44.6817 94.704C44.6686 94.7063 44.6554 94.7075 44.6422 94.7075ZM44.5921 94.5718C44.6156 94.5826 44.6381 94.5859 44.6604 94.5821L44.707 94.574C44.6823 94.5193 44.6799 94.4437 44.6997 94.3449C44.782 93.9333 45.2578 93.1735 45.7602 92.651C45.9454 92.4584 46.2786 92.1513 46.4839 92.1773L46.4779 92.1293C46.4754 92.1097 46.4689 92.0835 46.4522 92.0705L45.8005 91.5876C45.7433 91.5452 45.5146 91.6274 45.1199 92.0278C45.1066 92.0412 45.0933 92.0549 45.0799 92.0688C44.8485 92.3096 44.6098 92.61 44.408 92.9148C44.1511 93.303 43.9768 93.6604 43.9297 93.8952C43.8997 94.0452 43.9332 94.0835 43.9442 94.0916L44.5921 94.5718Z" fill="#111111"/>
<path d="M47.6368 93.083L46.5217 92.2566C46.4219 92.1826 46.1683 92.3231 45.8397 92.6564C45.8276 92.6686 45.8155 92.681 45.8033 92.6937C45.585 92.9208 45.3721 93.1922 45.1954 93.4591C44.9705 93.7988 44.8041 94.1314 44.7589 94.3568C44.7346 94.4784 44.7484 94.5548 44.7932 94.5881L45.9132 95.4182C46.4346 95.7687 47.0139 95.6827 47.5027 95.1822C48.1032 94.5672 48.3776 93.6796 47.6368 93.083Z" fill="white"/>
<path d="M46.5677 95.6944C46.3353 95.6944 46.1022 95.6201 45.879 95.47L44.7566 94.6382C44.6891 94.5881 44.6696 94.4895 44.6985 94.345C44.7435 94.1203 44.9059 93.7851 45.144 93.4253C45.3286 93.1465 45.5471 92.8716 45.759 92.6512C45.7713 92.6384 45.7835 92.6257 45.7958 92.6133C46.0025 92.4037 46.3763 92.072 46.5589 92.2072L47.6739 93.0336L47.6758 93.0351C47.9667 93.2694 48.1242 93.5575 48.1442 93.8915C48.17 94.3246 47.9524 94.811 47.5472 95.2259C47.2438 95.5367 46.9065 95.6944 46.5677 95.6944ZM46.4549 92.2989C46.3756 92.2989 46.1822 92.3978 45.8839 92.7002C45.8721 92.7122 45.8601 92.7245 45.8483 92.737C45.6413 92.9522 45.4279 93.2209 45.2473 93.4936C45.0176 93.8406 44.8618 94.1597 44.8199 94.3693C44.7992 94.4731 44.8117 94.5248 44.8304 94.5387L45.9504 95.3687C46.4421 95.6994 46.9929 95.6164 47.4587 95.1392C47.8395 94.7492 48.0443 94.2971 48.0205 93.8988C48.0028 93.6015 47.861 93.3436 47.5991 93.1323L46.4851 92.3066C46.4783 92.3017 46.4682 92.2989 46.4549 92.2989Z" fill="#111111"/>
</g>
</g>
</g>
<defs>
<linearGradient id="paint0_linear_40000788_6200" x1="19.6464" y1="27.029" x2="38.5576" y2="72.9889" gradientUnits="userSpaceOnUse">
<stop stop-color="#94C1F7"/>
<stop offset="0.168" stop-color="#5F95ED"/>
<stop offset="0.398" stop-color="#071F57"/>
<stop offset="1" stop-color="#111111"/>
</linearGradient>
<linearGradient id="paint1_linear_40000788_6200" x1="126.031" y1="51.9042" x2="39.7961" y2="84.8442" gradientUnits="userSpaceOnUse">
<stop stop-color="#94C1F7"/>
<stop offset="0.049" stop-color="#94C1F7"/>
<stop offset="0.5" stop-color="#2B69E3"/>
<stop offset="0.707" stop-color="#071F57"/>
<stop offset="0.768" stop-color="#071F57"/>
<stop offset="0.88" stop-color="#1E2A4F"/>
<stop offset="0.96" stop-color="#151822"/>
<stop offset="1" stop-color="#111111"/>
</linearGradient>
<clipPath id="clip0_40000788_6200">
<rect width="134" height="96" fill="white"/>
</clipPath>
</defs>
</svg>
